<?xml version="1.0" encoding="UTF-8" standalone="no"?>
<!DOCTYPE svg PUBLIC "-//W3C//DTD SVG 1.1//EN"
 "http://www.w3.org/Graphics/SVG/1.1/DTD/svg11.dtd">
<!-- Generated by graphviz version 2.43.0 (0)
 -->
<!-- Title: calculation_sub_and_xor Pages: 1 -->
<svg width="808pt" height="273pt"
 viewBox="0.00 0.00 808.00 273.00" xmlns="http://www.w3.org/2000/svg" xmlns:xlink="http://www.w3.org/1999/xlink">
<g id="graph0" class="graph" transform="scale(1 1) rotate(0) translate(4 269)">
<title>calculation_sub_and_xor</title>
<polygon fill="transparent" stroke="transparent" points="-4,4 -4,-269 804,-269 804,4 -4,4"/>
<g id="clust1" class="cluster">
<title>cluster_sub</title>
<polygon fill="transparent" stroke="black" points="8,-8 8,-257 388,-257 388,-8 8,-8"/>
<text text-anchor="middle" x="198" y="-241.8" font-family="Times,serif" font-size="14.00">Result of t1 &#45; t2</text>
</g>
<g id="clust2" class="cluster">
<title>cluster_xor</title>
<polygon fill="transparent" stroke="black" points="396,-8 396,-257 792,-257 792,-8 396,-8"/>
<text text-anchor="middle" x="594" y="-241.8" font-family="Times,serif" font-size="14.00">Result of t1 ^ t2</text>
</g>
<!-- root1 -->
<g id="node1" class="node">
<title>root1</title>
<ellipse fill="none" stroke="black" cx="196" cy="-208" rx="38.99" ry="18"/>
<text text-anchor="middle" x="196" y="-204.3" font-family="Times,serif" font-size="14.00">t1 &#45; t2</text>
</g>
<!-- n11 -->
<g id="node2" class="node">
<title>n11</title>
<ellipse fill="none" stroke="black" cx="70" cy="-121" rx="53.89" ry="18"/>
<text text-anchor="middle" x="70" y="-117.3" font-family="Times,serif" font-size="14.00">&#45;2 = 1 &#45; 3</text>
</g>
<!-- root1&#45;&gt;n11 -->
<g id="edge1" class="edge">
<title>root1&#45;&gt;n11</title>
<path fill="none" stroke="black" d="M174.91,-192.77C154.78,-179.2 124.21,-158.57 101.25,-143.08"/>
<polygon fill="black" stroke="black" points="103.11,-140.12 92.87,-137.43 99.2,-145.92 103.11,-140.12"/>
<text text-anchor="middle" x="144.5" y="-160.8" font-family="Times,serif" font-size="14.00">a</text>
</g>
<!-- n12 -->
<g id="node3" class="node">
<title>n12</title>
<ellipse fill="none" stroke="black" cx="196" cy="-121" rx="53.89" ry="18"/>
<text text-anchor="middle" x="196" y="-117.3" font-family="Times,serif" font-size="14.00">&#45;5 = 2 &#45; 7</text>
</g>
<!-- root1&#45;&gt;n12 -->
<g id="edge2" class="edge">
<title>root1&#45;&gt;n12</title>
<path fill="none" stroke="black" d="M196,-189.8C196,-178.16 196,-162.55 196,-149.24"/>
<polygon fill="black" stroke="black" points="199.5,-149.18 196,-139.18 192.5,-149.18 199.5,-149.18"/>
<text text-anchor="middle" x="201" y="-160.8" font-family="Times,serif" font-size="14.00">b</text>
</g>
<!-- n13 -->
<g id="node4" class="node">
<title>n13</title>
<ellipse fill="none" stroke="black" cx="324" cy="-121" rx="55.79" ry="18"/>
<text text-anchor="middle" x="324" y="-117.3" font-family="Times,serif" font-size="14.00">t1.x &#45; t2.x</text>
</g>
<!-- root1&#45;&gt;n13 -->
<g id="edge3" class="edge">
<title>root1&#45;&gt;n13</title>
<path fill="none" stroke="black" d="M217.42,-192.77C237.87,-179.2 268.93,-158.57 292.25,-143.08"/>
<polygon fill="black" stroke="black" points="294.38,-145.87 300.77,-137.43 290.5,-140.04 294.38,-145.87"/>
<text text-anchor="middle" x="271.5" y="-160.8" font-family="Times,serif" font-size="14.00">x</text>
</g>
<!-- n14 -->
<g id="node5" class="node">
<title>n14</title>
<ellipse fill="none" stroke="black" cx="176" cy="-34" rx="65.79" ry="18"/>
<text text-anchor="middle" x="176" y="-30.3" font-family="Times,serif" font-size="14.00">&#45;11 = 3 &#45; 14</text>
</g>
<!-- n13&#45;&gt;n14 -->
<g id="edge4" class="edge">
<title>n13&#45;&gt;n14</title>
<path fill="none" stroke="black" d="M297.88,-105C274.05,-91.31 238.62,-70.96 212.09,-55.73"/>
<polygon fill="black" stroke="black" points="213.52,-52.51 203.11,-50.57 210.04,-58.58 213.52,-52.51"/>
<text text-anchor="middle" x="262" y="-73.8" font-family="Times,serif" font-size="14.00">c</text>
</g>
<!-- n15 -->
<g id="node6" class="node">
<title>n15</title>
<ellipse fill="none" stroke="black" cx="320" cy="-34" rx="60.39" ry="18"/>
<text text-anchor="middle" x="320" y="-30.3" font-family="Times,serif" font-size="14.00">9 = 4 &#45; (&#45;5)</text>
</g>
<!-- n13&#45;&gt;n15 -->
<g id="edge5" class="edge">
<title>n13&#45;&gt;n15</title>
<path fill="none" stroke="black" d="M323.19,-102.8C322.64,-91.16 321.91,-75.55 321.28,-62.24"/>
<polygon fill="black" stroke="black" points="324.77,-62 320.81,-52.18 317.78,-62.33 324.77,-62"/>
<text text-anchor="middle" x="327" y="-73.8" font-family="Times,serif" font-size="14.00">d</text>
</g>
<!-- root2 -->
<g id="node7" class="node">
<title>root2</title>
<ellipse fill="none" stroke="black" cx="590" cy="-208" rx="44.39" ry="18"/>
<text text-anchor="middle" x="590" y="-204.3" font-family="Times,serif" font-size="14.00">t1 ^ t2</text>
</g>
<!-- n21 -->
<g id="node8" class="node">
<title>n21</title>
<ellipse fill="none" stroke="black" cx="460" cy="-121" rx="55.79" ry="18"/>
<text text-anchor="middle" x="460" y="-117.3" font-family="Times,serif" font-size="14.00">2 = 1 ^ 3</text>
</g>
<!-- root2&#45;&gt;n21 -->
<g id="edge6" class="edge">
<title>root2&#45;&gt;n21</title>
<path fill="none" stroke="black" d="M567.65,-192.39C546.92,-178.84 515.84,-158.51 492.39,-143.18"/>
<polygon fill="black" stroke="black" points="494.1,-140.11 483.81,-137.57 490.27,-145.97 494.1,-140.11"/>
<text text-anchor="middle" x="536.5" y="-160.8" font-family="Times,serif" font-size="14.00">a</text>
</g>
<!-- n22 -->
<g id="node9" class="node">
<title>n22</title>
<ellipse fill="none" stroke="black" cx="590" cy="-121" rx="55.79" ry="18"/>
<text text-anchor="middle" x="590" y="-117.3" font-family="Times,serif" font-size="14.00">5 = 2 ^ 7</text>
</g>
<!-- root2&#45;&gt;n22 -->
<g id="edge7" class="edge">
<title>root2&#45;&gt;n22</title>
<path fill="none" stroke="black" d="M590,-189.8C590,-178.16 590,-162.55 590,-149.24"/>
<polygon fill="black" stroke="black" points="593.5,-149.18 590,-139.18 586.5,-149.18 593.5,-149.18"/>
<text text-anchor="middle" x="595" y="-160.8" font-family="Times,serif" font-size="14.00">b</text>
</g>
<!-- n23 -->
<g id="node10" class="node">
<title>n23</title>
<ellipse fill="none" stroke="black" cx="724" cy="-121" rx="60.39" ry="18"/>
<text text-anchor="middle" x="724" y="-117.3" font-family="Times,serif" font-size="14.00">t1.x ^ t2.x</text>
</g>
<!-- root2&#45;&gt;n23 -->
<g id="edge8" class="edge">
<title>root2&#45;&gt;n23</title>
<path fill="none" stroke="black" d="M613.04,-192.39C634.5,-178.78 666.73,-158.33 690.93,-142.98"/>
<polygon fill="black" stroke="black" points="692.88,-145.88 699.45,-137.57 689.13,-139.97 692.88,-145.88"/>
<text text-anchor="middle" x="669.5" y="-160.8" font-family="Times,serif" font-size="14.00">x</text>
</g>
<!-- n24 -->
<g id="node11" class="node">
<title>n24</title>
<ellipse fill="none" stroke="black" cx="562" cy="-34" rx="67.69" ry="18"/>
<text text-anchor="middle" x="562" y="-30.3" font-family="Times,serif" font-size="14.00">13 = 3 ^ 14</text>
</g>
<!-- n23&#45;&gt;n24 -->
<g id="edge9" class="edge">
<title>n23&#45;&gt;n24</title>
<path fill="none" stroke="black" d="M695.41,-105C668.94,-91.11 629.37,-70.35 600.2,-55.04"/>
<polygon fill="black" stroke="black" points="601.6,-51.83 591.12,-50.28 598.35,-58.03 601.6,-51.83"/>
<text text-anchor="middle" x="656" y="-73.8" font-family="Times,serif" font-size="14.00">c</text>
</g>
<!-- n25 -->
<g id="node12" class="node">
<title>n25</title>
<ellipse fill="none" stroke="black" cx="716" cy="-34" rx="68.49" ry="18"/>
<text text-anchor="middle" x="716" y="-30.3" font-family="Times,serif" font-size="14.00">&#45;1 = 4 ^ (&#45;5)</text>
</g>
<!-- n23&#45;&gt;n25 -->
<g id="edge10" class="edge">
<title>n23&#45;&gt;n25</title>
<path fill="none" stroke="black" d="M722.38,-102.8C721.29,-91.16 719.82,-75.55 718.56,-62.24"/>
<polygon fill="black" stroke="black" points="722.04,-61.8 717.62,-52.18 715.07,-62.46 722.04,-61.8"/>
<text text-anchor="middle" x="725" y="-73.8" font-family="Times,serif" font-size="14.00">d</text>
</g>
</g>
</svg>
