<?xml version="1.0" encoding="UTF-8" standalone="no"?>
<!DOCTYPE svg PUBLIC "-//W3C//DTD SVG 1.1//EN"
 "http://www.w3.org/Graphics/SVG/1.1/DTD/svg11.dtd">
<!-- Generated by graphviz version 2.43.0 (0)
 -->
<!-- Title: graph_with_4_tree_s_t1_t2_t3_value Pages: 1 -->
<svg width="778pt" height="328pt"
 viewBox="0.00 0.00 778.00 328.00" xmlns="http://www.w3.org/2000/svg" xmlns:xlink="http://www.w3.org/1999/xlink">
<g id="graph0" class="graph" transform="scale(1 1) rotate(0) translate(4 324)">
<title>graph_with_4_tree_s_t1_t2_t3_value</title>
<polygon fill="transparent" stroke="transparent" points="-4,4 -4,-324 774,-324 774,4 -4,4"/>
<text text-anchor="middle" x="385" y="-7.8" font-family="Times,serif" font-size="14.00">Graph with 4 tree(s) &#45; t1, t2, t3, value.</text>
<!-- node_7f0f035a93d0 -->
<g id="node1" class="node">
<title>node_7f0f035a93d0</title>
<polygon fill="#73ff7e" fill-opacity="0.600000" stroke="#3eb248" stroke-width="3" stroke-opacity="0.600000" points="118,-233 87.83,-215 118,-197 148.17,-215 118,-233"/>
<text text-anchor="middle" x="118" y="-211.3" font-family="Times-Roman bold" font-size="14.00" fill="#003304">t1</text>
</g>
<!-- value__node_7f0f035a93d0__a -->
<g id="node4" class="node">
<title>value__node_7f0f035a93d0__a</title>
<polygon fill="#73ff7e" fill-opacity="0.600000" stroke="transparent" stroke-width="1.5" points="54,-146 0,-146 0,-110 54,-110 54,-146"/>
<text text-anchor="middle" x="27" y="-124.3" font-family="Times,serif" font-size="14.00" fill="#003304">&#39;s1&#39;</text>
</g>
<!-- node_7f0f035a93d0&#45;&gt;value__node_7f0f035a93d0__a -->
<g id="edge1" class="edge">
<title>node_7f0f035a93d0&#45;&gt;value__node_7f0f035a93d0__a</title>
<path fill="none" stroke="#1f9929" stroke-opacity="0.800000" d="M106.84,-203.58C92.4,-190.08 66.91,-166.28 48.61,-149.19"/>
<ellipse fill="#1f9929" fill-opacity="0.800000" stroke="#1f9929" stroke-opacity="0.800000" cx="46.97" cy="-147.66" rx="2" ry="2"/>
<text text-anchor="middle" x="83" y="-167.8" font-family="Times-Roman bold" font-size="14.00" fill="#00730a">a</text>
</g>
<!-- value__node_7f0f035a93d0__b -->
<g id="node5" class="node">
<title>value__node_7f0f035a93d0__b</title>
<polygon fill="#73ff7e" fill-opacity="0.600000" stroke="transparent" stroke-width="1.5" points="126,-146 72,-146 72,-110 126,-110 126,-146"/>
<text text-anchor="middle" x="99" y="-124.3" font-family="Times,serif" font-size="14.00" fill="#003304">2</text>
</g>
<!-- node_7f0f035a93d0&#45;&gt;value__node_7f0f035a93d0__b -->
<g id="edge2" class="edge">
<title>node_7f0f035a93d0&#45;&gt;value__node_7f0f035a93d0__b</title>
<path fill="none" stroke="#1f9929" stroke-opacity="0.800000" d="M114.6,-198.8C111.58,-185.27 107.12,-165.34 103.75,-150.23"/>
<ellipse fill="#1f9929" fill-opacity="0.800000" stroke="#1f9929" stroke-opacity="0.800000" cx="103.26" cy="-148.06" rx="2" ry="2"/>
<text text-anchor="middle" x="115" y="-167.8" font-family="Times-Roman bold" font-size="14.00" fill="#00730a">b</text>
</g>
<!-- node_7f0f035a9640 -->
<g id="node6" class="node">
<title>node_7f0f035a9640</title>
<ellipse fill="#73ff7e" fill-opacity="0.600000" stroke="#3eb248" stroke-width="1.5" stroke-opacity="0.600000" cx="175" cy="-128" rx="30.59" ry="18"/>
<text text-anchor="middle" x="175" y="-124.3" font-family="Times-Roman bold" font-size="14.00" fill="#003304">t1.x</text>
</g>
<!-- node_7f0f035a93d0&#45;&gt;node_7f0f035a9640 -->
<g id="edge3" class="edge">
<title>node_7f0f035a93d0&#45;&gt;node_7f0f035a9640</title>
<path fill="none" stroke="#1f9929" stroke-opacity="0.800000" d="M126.17,-201.82C134.63,-189.19 148.1,-169.12 158.75,-153.24"/>
<polygon fill="#1f9929" fill-opacity="0.800000" stroke="#1f9929" stroke-opacity="0.800000" points="164.32,-144.92 162.49,-155.74 161.54,-149.08 158.75,-153.23 158.75,-153.23 158.75,-153.23 161.54,-149.08 155.01,-150.72 164.32,-144.92 164.32,-144.92"/>
<text text-anchor="middle" x="155" y="-167.8" font-family="Times-Roman bold" font-size="14.00" fill="#00730a">x</text>
</g>
<!-- node_7f0f035a9520 -->
<g id="node2" class="node">
<title>node_7f0f035a9520</title>
<polygon fill="#9673ff" fill-opacity="0.600000" stroke="#5b3eb2" stroke-width="3" stroke-opacity="0.600000" points="331,-233 300.83,-215 331,-197 361.17,-215 331,-233"/>
<text text-anchor="middle" x="331" y="-211.3" font-family="Times-Roman bold" font-size="14.00" fill="#0d0033">t2</text>
</g>
<!-- value__node_7f0f035a9520__a -->
<g id="node7" class="node">
<title>value__node_7f0f035a9520__a</title>
<polygon fill="#9673ff" fill-opacity="0.600000" stroke="transparent" stroke-width="1.5" points="286,-146 224,-146 224,-110 286,-110 286,-146"/>
<text text-anchor="middle" x="255" y="-124.3" font-family="Times,serif" font-size="14.00" fill="#0d0033">&#39;str11&#39;</text>
</g>
<!-- node_7f0f035a9520&#45;&gt;value__node_7f0f035a9520__a -->
<g id="edge4" class="edge">
<title>node_7f0f035a9520&#45;&gt;value__node_7f0f035a9520__a</title>
<path fill="none" stroke="#3d1f99" stroke-opacity="0.800000" d="M321.06,-202.89C308.99,-189.39 288.39,-166.34 273.39,-149.57"/>
<ellipse fill="#3d1f99" fill-opacity="0.800000" stroke="#3d1f99" stroke-opacity="0.800000" cx="271.8" cy="-147.79" rx="2" ry="2"/>
<text text-anchor="middle" x="303" y="-167.8" font-family="Times-Roman bold" font-size="14.00" fill="#1d0073">a</text>
</g>
<!-- value__node_7f0f035a9520__b -->
<g id="node8" class="node">
<title>value__node_7f0f035a9520__b</title>
<polygon fill="#9673ff" fill-opacity="0.600000" stroke="transparent" stroke-width="1.5" points="358,-146 304,-146 304,-110 358,-110 358,-146"/>
<text text-anchor="middle" x="331" y="-124.3" font-family="Times,serif" font-size="14.00" fill="#0d0033">2</text>
</g>
<!-- node_7f0f035a9520&#45;&gt;value__node_7f0f035a9520__b -->
<g id="edge5" class="edge">
<title>node_7f0f035a9520&#45;&gt;value__node_7f0f035a9520__b</title>
<path fill="none" stroke="#3d1f99" stroke-opacity="0.800000" d="M331,-196.8C331,-183.43 331,-164.82 331,-150.48"/>
<ellipse fill="#3d1f99" fill-opacity="0.800000" stroke="#3d1f99" stroke-opacity="0.800000" cx="331" cy="-148.18" rx="2" ry="2"/>
<text text-anchor="middle" x="336" y="-167.8" font-family="Times-Roman bold" font-size="14.00" fill="#1d0073">b</text>
</g>
<!-- node_7f0f035a93a0 -->
<g id="node9" class="node">
<title>node_7f0f035a93a0</title>
<ellipse fill="#9673ff" fill-opacity="0.600000" stroke="#5b3eb2" stroke-width="1.5" stroke-opacity="0.600000" cx="407" cy="-128" rx="30.59" ry="18"/>
<text text-anchor="middle" x="407" y="-124.3" font-family="Times-Roman bold" font-size="14.00" fill="#0d0033">t2.x</text>
</g>
<!-- node_7f0f035a9520&#45;&gt;node_7f0f035a93a0 -->
<g id="edge6" class="edge">
<title>node_7f0f035a9520&#45;&gt;node_7f0f035a93a0</title>
<path fill="none" stroke="#3d1f99" stroke-opacity="0.800000" d="M340.94,-202.89C352.42,-190.05 371.62,-168.57 386.37,-152.08"/>
<polygon fill="#3d1f99" fill-opacity="0.800000" stroke="#3d1f99" stroke-opacity="0.800000" points="393.2,-144.44 389.89,-154.89 389.87,-148.16 386.53,-151.89 386.53,-151.89 386.53,-151.89 389.87,-148.16 383.18,-148.89 393.2,-144.44 393.2,-144.44"/>
<text text-anchor="middle" x="379" y="-167.8" font-family="Times-Roman bold" font-size="14.00" fill="#1d0073">x</text>
</g>
<!-- node_7f0f035a9880 -->
<g id="node3" class="node">
<title>node_7f0f035a9880</title>
<polygon fill="#ffad73" fill-opacity="0.600000" stroke="#b26f3e" stroke-width="3" stroke-opacity="0.600000" points="331,-320 300.83,-302 331,-284 361.17,-302 331,-320"/>
<text text-anchor="middle" x="331" y="-298.3" font-family="Times-Roman bold" font-size="14.00" fill="#331500">t3</text>
</g>
<!-- node_7f0f035a9880&#45;&gt;node_7f0f035a93d0 -->
<g id="edge7" class="edge">
<title>node_7f0f035a9880&#45;&gt;node_7f0f035a93d0</title>
<path fill="none" stroke="#99521f" stroke-opacity="0.800000" d="M313.57,-294.04C276.33,-279.18 188.81,-244.26 144.58,-226.61"/>
<polygon fill="#99521f" fill-opacity="0.800000" stroke="#99521f" stroke-opacity="0.800000" points="135.08,-222.81 146.03,-222.34 139.72,-224.67 144.36,-226.52 144.36,-226.52 144.36,-226.52 139.72,-224.67 142.7,-230.7 135.08,-222.81 135.08,-222.81"/>
<text text-anchor="middle" x="246.5" y="-254.8" font-family="Times-Roman bold" font-size="14.00" fill="#733000">t1</text>
</g>
<!-- node_7f0f035a9880&#45;&gt;node_7f0f035a9520 -->
<g id="edge8" class="edge">
<title>node_7f0f035a9880&#45;&gt;node_7f0f035a9520</title>
<path fill="none" stroke="#99521f" stroke-opacity="0.800000" d="M331,-283.8C331,-272.16 331,-256.55 331,-243.24"/>
<polygon fill="#99521f" fill-opacity="0.800000" stroke="#99521f" stroke-opacity="0.800000" points="331,-233.18 335.5,-243.18 331,-238.18 331,-243.18 331,-243.18 331,-243.18 331,-238.18 326.5,-243.18 331,-233.18 331,-233.18"/>
<text text-anchor="middle" x="339.5" y="-254.8" font-family="Times-Roman bold" font-size="14.00" fill="#733000">t2</text>
</g>
<!-- node_7f0f035a9820 -->
<g id="node10" class="node">
<title>node_7f0f035a9820</title>
<ellipse fill="#ffad73" fill-opacity="0.600000" stroke="#b26f3e" stroke-width="1.5" stroke-opacity="0.600000" cx="537" cy="-215" rx="46.29" ry="18"/>
<text text-anchor="middle" x="537" y="-211.3" font-family="Times-Roman bold" font-size="14.00" fill="#331500">t3.sum</text>
</g>
<!-- node_7f0f035a9880&#45;&gt;node_7f0f035a9820 -->
<g id="edge9" class="edge">
<title>node_7f0f035a9880&#45;&gt;node_7f0f035a9820</title>
<path fill="none" stroke="#99521f" stroke-opacity="0.800000" d="M347.86,-294.04C380.18,-280.71 451.65,-251.22 496.89,-232.55"/>
<polygon fill="#99521f" fill-opacity="0.800000" stroke="#99521f" stroke-opacity="0.800000" points="506.4,-228.63 498.87,-236.6 501.78,-230.53 497.16,-232.44 497.16,-232.44 497.16,-232.44 501.78,-230.53 495.44,-228.28 506.4,-228.63 506.4,-228.63"/>
<text text-anchor="middle" x="463.5" y="-254.8" font-family="Times-Roman bold" font-size="14.00" fill="#733000">sum</text>
</g>
<!-- value__node_7f0f035a9640__c -->
<g id="node11" class="node">
<title>value__node_7f0f035a9640__c</title>
<polygon fill="#73ff7e" fill-opacity="0.600000" stroke="transparent" stroke-width="1.5" points="202,-59 148,-59 148,-23 202,-23 202,-59"/>
<text text-anchor="middle" x="175" y="-37.3" font-family="Times,serif" font-size="14.00" fill="#003304">3</text>
</g>
<!-- node_7f0f035a9640&#45;&gt;value__node_7f0f035a9640__c -->
<g id="edge10" class="edge">
<title>node_7f0f035a9640&#45;&gt;value__node_7f0f035a9640__c</title>
<path fill="none" stroke="#1f9929" stroke-opacity="0.800000" d="M175,-109.8C175,-96.43 175,-77.82 175,-63.48"/>
<ellipse fill="#1f9929" fill-opacity="0.800000" stroke="#1f9929" stroke-opacity="0.800000" cx="175" cy="-61.18" rx="2" ry="2"/>
<text text-anchor="middle" x="179.5" y="-80.8" font-family="Times-Roman bold" font-size="14.00" fill="#00730a">c</text>
</g>
<!-- value_7f0f0359ddc0 -->
<g id="node12" class="node">
<title>value_7f0f0359ddc0</title>
<polygon fill="#73ff7e" fill-opacity="0.600000" stroke="transparent" stroke-width="1.5" points="338,-59 284,-59 284,-23 338,-23 338,-59"/>
<text text-anchor="middle" x="311" y="-37.3" font-family="Times,serif" font-size="14.00" fill="#003304">[1, 2]</text>
</g>
<!-- node_7f0f035a9640&#45;&gt;value_7f0f0359ddc0 -->
<g id="edge11" class="edge">
<title>node_7f0f035a9640&#45;&gt;value_7f0f0359ddc0</title>
<path fill="none" stroke="#1f9929" stroke-opacity="0.800000" d="M195.36,-114.27C217.91,-100.18 254.51,-77.31 280.49,-61.07"/>
<ellipse fill="#1f9929" fill-opacity="0.800000" stroke="#1f9929" stroke-opacity="0.800000" cx="282.23" cy="-59.98" rx="2" ry="2"/>
<text text-anchor="middle" x="257" y="-80.8" font-family="Times-Roman bold" font-size="14.00" fill="#00730a">d</text>
</g>
<!-- node_7f0f035a93a0&#45;&gt;value_7f0f0359ddc0 -->
<g id="edge13" class="edge">
<title>node_7f0f035a93a0&#45;&gt;value_7f0f0359ddc0</title>
<path fill="none" stroke="#3d1f99" stroke-opacity="0.800000" d="M390.71,-112.58C375.07,-98.73 351.28,-77.67 333.76,-62.16"/>
<ellipse fill="#3d1f99" fill-opacity="0.800000" stroke="#3d1f99" stroke-opacity="0.800000" cx="331.85" cy="-60.46" rx="2" ry="2"/>
<text text-anchor="middle" x="370" y="-80.8" font-family="Times-Roman bold" font-size="14.00" fill="#1d0073">d</text>
</g>
<!-- value__node_7f0f035a93a0__c -->
<g id="node13" class="node">
<title>value__node_7f0f035a93a0__c</title>
<polygon fill="#9673ff" fill-opacity="0.600000" stroke="transparent" stroke-width="1.5" points="434,-59 380,-59 380,-23 434,-23 434,-59"/>
<text text-anchor="middle" x="407" y="-37.3" font-family="Times,serif" font-size="14.00" fill="#0d0033">33</text>
</g>
<!-- node_7f0f035a93a0&#45;&gt;value__node_7f0f035a93a0__c -->
<g id="edge12" class="edge">
<title>node_7f0f035a93a0&#45;&gt;value__node_7f0f035a93a0__c</title>
<path fill="none" stroke="#3d1f99" stroke-opacity="0.800000" d="M407,-109.8C407,-96.43 407,-77.82 407,-63.48"/>
<ellipse fill="#3d1f99" fill-opacity="0.800000" stroke="#3d1f99" stroke-opacity="0.800000" cx="407" cy="-61.18" rx="2" ry="2"/>
<text text-anchor="middle" x="411.5" y="-80.8" font-family="Times-Roman bold" font-size="14.00" fill="#1d0073">c</text>
</g>
<!-- value__node_7f0f035a9820__a -->
<g id="node14" class="node">
<title>value__node_7f0f035a9820__a</title>
<polygon fill="#ffad73" fill-opacity="0.600000" stroke="transparent" stroke-width="1.5" points="534.5,-146 455.5,-146 455.5,-110 534.5,-110 534.5,-146"/>
<text text-anchor="middle" x="495" y="-124.3" font-family="Times,serif" font-size="14.00" fill="#331500">&#39;s1str11&#39;</text>
</g>
<!-- node_7f0f035a9820&#45;&gt;value__node_7f0f035a9820__a -->
<g id="edge14" class="edge">
<title>node_7f0f035a9820&#45;&gt;value__node_7f0f035a9820__a</title>
<path fill="none" stroke="#99521f" stroke-opacity="0.800000" d="M528.7,-197.21C521.96,-183.56 512.42,-164.24 505.2,-149.65"/>
<ellipse fill="#99521f" fill-opacity="0.800000" stroke="#99521f" stroke-opacity="0.800000" cx="504.31" cy="-147.84" rx="2" ry="2"/>
<text text-anchor="middle" x="524" y="-167.8" font-family="Times-Roman bold" font-size="14.00" fill="#733000">a</text>
</g>
<!-- value__node_7f0f035a9820__b -->
<g id="node15" class="node">
<title>value__node_7f0f035a9820__b</title>
<polygon fill="#ffad73" fill-opacity="0.600000" stroke="transparent" stroke-width="1.5" points="607,-146 553,-146 553,-110 607,-110 607,-146"/>
<text text-anchor="middle" x="580" y="-124.3" font-family="Times,serif" font-size="14.00" fill="#331500">4</text>
</g>
<!-- node_7f0f035a9820&#45;&gt;value__node_7f0f035a9820__b -->
<g id="edge15" class="edge">
<title>node_7f0f035a9820&#45;&gt;value__node_7f0f035a9820__b</title>
<path fill="none" stroke="#99521f" stroke-opacity="0.800000" d="M545.5,-197.21C552.4,-183.56 562.17,-164.24 569.55,-149.65"/>
<ellipse fill="#99521f" fill-opacity="0.800000" stroke="#99521f" stroke-opacity="0.800000" cx="570.47" cy="-147.83" rx="2" ry="2"/>
<text text-anchor="middle" x="567" y="-167.8" font-family="Times-Roman bold" font-size="14.00" fill="#733000">b</text>
</g>
<!-- node_7f0f035a9850 -->
<g id="node16" class="node">
<title>node_7f0f035a9850</title>
<ellipse fill="#ffad73" fill-opacity="0.600000" stroke="#b26f3e" stroke-width="1.5" stroke-opacity="0.600000" cx="680" cy="-128" rx="55.49" ry="18"/>
<text text-anchor="middle" x="680" y="-124.3" font-family="Times-Roman bold" font-size="14.00" fill="#331500">t3.sum.x</text>
</g>
<!-- node_7f0f035a9820&#45;&gt;node_7f0f035a9850 -->
<g id="edge16" class="edge">
<title>node_7f0f035a9820&#45;&gt;node_7f0f035a9850</title>
<path fill="none" stroke="#99521f" stroke-opacity="0.800000" d="M561.26,-199.58C584.5,-185.77 619.78,-164.79 645.86,-149.3"/>
<polygon fill="#99521f" fill-opacity="0.800000" stroke="#99521f" stroke-opacity="0.800000" points="654.66,-144.06 648.36,-153.04 650.36,-146.62 646.06,-149.17 646.06,-149.17 646.06,-149.17 650.36,-146.62 643.76,-145.3 654.66,-144.06 654.66,-144.06"/>
<text text-anchor="middle" x="623" y="-167.8" font-family="Times-Roman bold" font-size="14.00" fill="#733000">x</text>
</g>
<!-- value__node_7f0f035a9850__c -->
<g id="node17" class="node">
<title>value__node_7f0f035a9850__c</title>
<polygon fill="#ffad73" fill-opacity="0.600000" stroke="transparent" stroke-width="1.5" points="662,-59 608,-59 608,-23 662,-23 662,-59"/>
<text text-anchor="middle" x="635" y="-37.3" font-family="Times,serif" font-size="14.00" fill="#331500">36</text>
</g>
<!-- node_7f0f035a9850&#45;&gt;value__node_7f0f035a9850__c -->
<g id="edge17" class="edge">
<title>node_7f0f035a9850&#45;&gt;value__node_7f0f035a9850__c</title>
<path fill="none" stroke="#99521f" stroke-opacity="0.800000" d="M671.11,-110.21C663.88,-96.56 653.66,-77.24 645.93,-62.65"/>
<ellipse fill="#99521f" fill-opacity="0.800000" stroke="#99521f" stroke-opacity="0.800000" cx="644.96" cy="-60.82" rx="2" ry="2"/>
<text text-anchor="middle" x="665.5" y="-80.8" font-family="Times-Roman bold" font-size="14.00" fill="#733000">c</text>
</g>
<!-- value_7f0f0359d940 -->
<g id="node18" class="node">
<title>value_7f0f0359d940</title>
<polygon fill="#ffad73" fill-opacity="0.600000" stroke="transparent" stroke-width="1.5" points="770,-59 680,-59 680,-23 770,-23 770,-59"/>
<text text-anchor="middle" x="725" y="-37.3" font-family="Times,serif" font-size="14.00" fill="#331500">[1, 2, 1, 2]</text>
</g>
<!-- node_7f0f035a9850&#45;&gt;value_7f0f0359d940 -->
<g id="edge18" class="edge">
<title>node_7f0f035a9850&#45;&gt;value_7f0f0359d940</title>
<path fill="none" stroke="#99521f" stroke-opacity="0.800000" d="M688.89,-110.21C696.12,-96.56 706.34,-77.24 714.07,-62.65"/>
<ellipse fill="#99521f" fill-opacity="0.800000" stroke="#99521f" stroke-opacity="0.800000" cx="715.04" cy="-60.82" rx="2" ry="2"/>
<text text-anchor="middle" x="710" y="-80.8" font-family="Times-Roman bold" font-size="14.00" fill="#733000">d</text>
</g>
</g>
</svg>
