<?xml version="1.0" encoding="UTF-8" standalone="no"?>
<!DOCTYPE svg PUBLIC "-//W3C//DTD SVG 1.1//EN"
 "http://www.w3.org/Graphics/SVG/1.1/DTD/svg11.dtd">
<!-- Generated by graphviz version 2.43.0 (0)
 -->
<!-- Title: graph_with_4_tree_s_t1_t2_t3_value Pages: 1 -->
<svg width="770pt" height="328pt"
 viewBox="0.00 0.00 769.50 328.00" xmlns="http://www.w3.org/2000/svg" xmlns:xlink="http://www.w3.org/1999/xlink">
<g id="graph0" class="graph" transform="scale(1 1) rotate(0) translate(4 324)">
<title>graph_with_4_tree_s_t1_t2_t3_value</title>
<polygon fill="transparent" stroke="transparent" points="-4,4 -4,-324 765.5,-324 765.5,4 -4,4"/>
<text text-anchor="middle" x="380.75" y="-7.8" font-family="Times,serif" font-size="14.00">Graph with 4 tree(s) &#45; t1, t2, t3, value.</text>
<!-- node_7f302485e460 -->
<g id="node1" class="node">
<title>node_7f302485e460</title>
<polygon fill="#73ff7e" fill-opacity="0.600000" stroke="#3eb248" stroke-width="3" stroke-opacity="0.600000" points="119,-233 88.83,-215 119,-197 149.17,-215 119,-233"/>
<text text-anchor="middle" x="119" y="-211.3" font-family="monospace bold" font-size="14.00" fill="#003304">t1</text>
</g>
<!-- value__node_7f302485e460__a -->
<g id="node4" class="node">
<title>value__node_7f302485e460__a</title>
<polygon fill="#73ff7e" fill-opacity="0.600000" stroke="transparent" stroke-width="1.5" points="54,-146 0,-146 0,-110 54,-110 54,-146"/>
<text text-anchor="middle" x="27" y="-124.3" font-family="monospace" font-size="14.00" fill="#003304">&#39;s1&#39;</text>
</g>
<!-- node_7f302485e460&#45;&gt;value__node_7f302485e460__a -->
<g id="edge1" class="edge">
<title>node_7f302485e460&#45;&gt;value__node_7f302485e460__a</title>
<path fill="none" stroke="#1f9929" stroke-opacity="0.800000" d="M107.72,-203.58C93.11,-190.08 67.34,-166.28 48.85,-149.19"/>
<ellipse fill="#1f9929" fill-opacity="0.800000" stroke="#1f9929" stroke-opacity="0.800000" cx="47.18" cy="-147.65" rx="2" ry="2"/>
<text text-anchor="middle" x="84" y="-167.8" font-family="Times-Roman bold" font-size="14.00" fill="#00730a">a</text>
</g>
<!-- value__node_7f302485e460__b -->
<g id="node5" class="node">
<title>value__node_7f302485e460__b</title>
<polygon fill="#73ff7e" fill-opacity="0.600000" stroke="transparent" stroke-width="1.5" points="126,-146 72,-146 72,-110 126,-110 126,-146"/>
<text text-anchor="middle" x="99" y="-124.3" font-family="monospace" font-size="14.00" fill="#003304">2</text>
</g>
<!-- node_7f302485e460&#45;&gt;value__node_7f302485e460__b -->
<g id="edge2" class="edge">
<title>node_7f302485e460&#45;&gt;value__node_7f302485e460__b</title>
<path fill="none" stroke="#1f9929" stroke-opacity="0.800000" d="M115.42,-198.8C112.24,-185.27 107.55,-165.34 104,-150.23"/>
<ellipse fill="#1f9929" fill-opacity="0.800000" stroke="#1f9929" stroke-opacity="0.800000" cx="103.48" cy="-148.06" rx="2" ry="2"/>
<text text-anchor="middle" x="116" y="-167.8" font-family="Times-Roman bold" font-size="14.00" fill="#00730a">b</text>
</g>
<!-- node_7f302485e490 -->
<g id="node6" class="node">
<title>node_7f302485e490</title>
<ellipse fill="#73ff7e" fill-opacity="0.600000" stroke="#3eb248" stroke-width="1.5" stroke-opacity="0.600000" cx="176" cy="-128" rx="32.49" ry="18"/>
<text text-anchor="middle" x="176" y="-124.3" font-family="monospace bold" font-size="14.00" fill="#003304">t1.x</text>
</g>
<!-- node_7f302485e460&#45;&gt;node_7f302485e490 -->
<g id="edge3" class="edge">
<title>node_7f302485e460&#45;&gt;node_7f302485e490</title>
<path fill="none" stroke="#1f9929" stroke-opacity="0.800000" d="M127.17,-201.82C135.5,-189.39 148.69,-169.73 159.25,-153.97"/>
<polygon fill="#1f9929" fill-opacity="0.800000" stroke="#1f9929" stroke-opacity="0.800000" points="165.12,-145.23 163.29,-156.04 162.33,-149.38 159.55,-153.53 159.55,-153.53 159.55,-153.53 162.33,-149.38 155.81,-151.03 165.12,-145.23 165.12,-145.23"/>
<text text-anchor="middle" x="156" y="-167.8" font-family="Times-Roman bold" font-size="14.00" fill="#00730a">x</text>
</g>
<!-- node_7f302485e1c0 -->
<g id="node2" class="node">
<title>node_7f302485e1c0</title>
<polygon fill="#9673ff" fill-opacity="0.600000" stroke="#5b3eb2" stroke-width="3" stroke-opacity="0.600000" points="345,-233 314.83,-215 345,-197 375.17,-215 345,-233"/>
<text text-anchor="middle" x="345" y="-211.3" font-family="monospace bold" font-size="14.00" fill="#0d0033">t2</text>
</g>
<!-- value__node_7f302485e1c0__a -->
<g id="node7" class="node">
<title>value__node_7f302485e1c0__a</title>
<polygon fill="#9673ff" fill-opacity="0.600000" stroke="transparent" stroke-width="1.5" points="300,-146 226,-146 226,-110 300,-110 300,-146"/>
<text text-anchor="middle" x="263" y="-124.3" font-family="monospace" font-size="14.00" fill="#0d0033">&#39;str11&#39;</text>
</g>
<!-- node_7f302485e1c0&#45;&gt;value__node_7f302485e1c0__a -->
<g id="edge4" class="edge">
<title>node_7f302485e1c0&#45;&gt;value__node_7f302485e1c0__a</title>
<path fill="none" stroke="#3d1f99" stroke-opacity="0.800000" d="M334.28,-202.89C321.26,-189.39 299.02,-166.34 282.84,-149.57"/>
<ellipse fill="#3d1f99" fill-opacity="0.800000" stroke="#3d1f99" stroke-opacity="0.800000" cx="281.08" cy="-147.74" rx="2" ry="2"/>
<text text-anchor="middle" x="314" y="-167.8" font-family="Times-Roman bold" font-size="14.00" fill="#1d0073">a</text>
</g>
<!-- value__node_7f302485e1c0__b -->
<g id="node8" class="node">
<title>value__node_7f302485e1c0__b</title>
<polygon fill="#9673ff" fill-opacity="0.600000" stroke="transparent" stroke-width="1.5" points="372,-146 318,-146 318,-110 372,-110 372,-146"/>
<text text-anchor="middle" x="345" y="-124.3" font-family="monospace" font-size="14.00" fill="#0d0033">2</text>
</g>
<!-- node_7f302485e1c0&#45;&gt;value__node_7f302485e1c0__b -->
<g id="edge5" class="edge">
<title>node_7f302485e1c0&#45;&gt;value__node_7f302485e1c0__b</title>
<path fill="none" stroke="#3d1f99" stroke-opacity="0.800000" d="M345,-196.8C345,-183.43 345,-164.82 345,-150.48"/>
<ellipse fill="#3d1f99" fill-opacity="0.800000" stroke="#3d1f99" stroke-opacity="0.800000" cx="345" cy="-148.18" rx="2" ry="2"/>
<text text-anchor="middle" x="350" y="-167.8" font-family="Times-Roman bold" font-size="14.00" fill="#1d0073">b</text>
</g>
<!-- node_7f302485e4f0 -->
<g id="node9" class="node">
<title>node_7f302485e4f0</title>
<ellipse fill="#9673ff" fill-opacity="0.600000" stroke="#5b3eb2" stroke-width="1.5" stroke-opacity="0.600000" cx="422" cy="-128" rx="32.49" ry="18"/>
<text text-anchor="middle" x="422" y="-124.3" font-family="monospace bold" font-size="14.00" fill="#0d0033">t2.x</text>
</g>
<!-- node_7f302485e1c0&#45;&gt;node_7f302485e4f0 -->
<g id="edge6" class="edge">
<title>node_7f302485e1c0&#45;&gt;node_7f302485e4f0</title>
<path fill="none" stroke="#3d1f99" stroke-opacity="0.800000" d="M355.07,-202.89C366.7,-190.05 386.15,-168.57 401.1,-152.08"/>
<polygon fill="#3d1f99" fill-opacity="0.800000" stroke="#3d1f99" stroke-opacity="0.800000" points="408.02,-144.44 404.64,-154.87 404.66,-148.14 401.3,-151.85 401.3,-151.85 401.3,-151.85 404.66,-148.14 397.97,-148.83 408.02,-144.44 408.02,-144.44"/>
<text text-anchor="middle" x="394" y="-167.8" font-family="Times-Roman bold" font-size="14.00" fill="#1d0073">x</text>
</g>
<!-- node_7f302485e220 -->
<g id="node3" class="node">
<title>node_7f302485e220</title>
<polygon fill="#ffad73" fill-opacity="0.600000" stroke="#b26f3e" stroke-width="3" stroke-opacity="0.600000" points="345,-320 314.83,-302 345,-284 375.17,-302 345,-320"/>
<text text-anchor="middle" x="345" y="-298.3" font-family="monospace bold" font-size="14.00" fill="#331500">t3</text>
</g>
<!-- node_7f302485e220&#45;&gt;node_7f302485e460 -->
<g id="edge7" class="edge">
<title>node_7f302485e220&#45;&gt;node_7f302485e460</title>
<path fill="none" stroke="#99521f" stroke-opacity="0.800000" d="M327.27,-294.33C287.91,-279.53 193.04,-243.85 146.16,-226.21"/>
<polygon fill="#99521f" fill-opacity="0.800000" stroke="#99521f" stroke-opacity="0.800000" points="136.65,-222.64 147.6,-221.95 141.33,-224.4 146.01,-226.16 146.01,-226.16 146.01,-226.16 141.33,-224.4 144.43,-230.37 136.65,-222.64 136.65,-222.64"/>
<text text-anchor="middle" x="254.5" y="-254.8" font-family="Times-Roman bold" font-size="14.00" fill="#733000">t1</text>
</g>
<!-- node_7f302485e220&#45;&gt;node_7f302485e1c0 -->
<g id="edge8" class="edge">
<title>node_7f302485e220&#45;&gt;node_7f302485e1c0</title>
<path fill="none" stroke="#99521f" stroke-opacity="0.800000" d="M345,-283.8C345,-272.16 345,-256.55 345,-243.24"/>
<polygon fill="#99521f" fill-opacity="0.800000" stroke="#99521f" stroke-opacity="0.800000" points="345,-233.18 349.5,-243.18 345,-238.18 345,-243.18 345,-243.18 345,-243.18 345,-238.18 340.5,-243.18 345,-233.18 345,-233.18"/>
<text text-anchor="middle" x="353.5" y="-254.8" font-family="Times-Roman bold" font-size="14.00" fill="#733000">t2</text>
</g>
<!-- node_7f302485e5e0 -->
<g id="node10" class="node">
<title>node_7f302485e5e0</title>
<ellipse fill="#ffad73" fill-opacity="0.600000" stroke="#b26f3e" stroke-width="1.5" stroke-opacity="0.600000" cx="600" cy="-215" rx="42.79" ry="18"/>
<text text-anchor="middle" x="600" y="-211.3" font-family="monospace bold" font-size="14.00" fill="#331500">t3.sum</text>
</g>
<!-- node_7f302485e220&#45;&gt;node_7f302485e5e0 -->
<g id="edge9" class="edge">
<title>node_7f302485e220&#45;&gt;node_7f302485e5e0</title>
<path fill="none" stroke="#99521f" stroke-opacity="0.800000" d="M363.34,-294.89C403.74,-281.42 501.29,-248.9 557.73,-230.09"/>
<polygon fill="#99521f" fill-opacity="0.800000" stroke="#99521f" stroke-opacity="0.800000" points="567.43,-226.86 559.37,-234.29 562.69,-228.44 557.95,-230.02 557.95,-230.02 557.95,-230.02 562.69,-228.44 556.52,-225.75 567.43,-226.86 567.43,-226.86"/>
<text text-anchor="middle" x="504.5" y="-254.8" font-family="Times-Roman bold" font-size="14.00" fill="#733000">sum</text>
</g>
<!-- value__node_7f302485e490__c -->
<g id="node11" class="node">
<title>value__node_7f302485e490__c</title>
<polygon fill="#73ff7e" fill-opacity="0.600000" stroke="transparent" stroke-width="1.5" points="203,-59 149,-59 149,-23 203,-23 203,-59"/>
<text text-anchor="middle" x="176" y="-37.3" font-family="monospace" font-size="14.00" fill="#003304">3</text>
</g>
<!-- node_7f302485e490&#45;&gt;value__node_7f302485e490__c -->
<g id="edge10" class="edge">
<title>node_7f302485e490&#45;&gt;value__node_7f302485e490__c</title>
<path fill="none" stroke="#1f9929" stroke-opacity="0.800000" d="M176,-109.8C176,-96.43 176,-77.82 176,-63.48"/>
<ellipse fill="#1f9929" fill-opacity="0.800000" stroke="#1f9929" stroke-opacity="0.800000" cx="176" cy="-61.18" rx="2" ry="2"/>
<text text-anchor="middle" x="180.5" y="-80.8" font-family="Times-Roman bold" font-size="14.00" fill="#00730a">c</text>
</g>
<!-- value_7f3024858a40 -->
<g id="node12" class="node">
<title>value_7f3024858a40</title>
<polygon fill="#73ff7e" fill-opacity="0.600000" stroke="transparent" stroke-width="1.5" points="351,-59 285,-59 285,-23 351,-23 351,-59"/>
<text text-anchor="middle" x="318" y="-37.3" font-family="monospace" font-size="14.00" fill="#003304">[1, 2]</text>
</g>
<!-- node_7f302485e490&#45;&gt;value_7f3024858a40 -->
<g id="edge11" class="edge">
<title>node_7f302485e490&#45;&gt;value_7f3024858a40</title>
<path fill="none" stroke="#1f9929" stroke-opacity="0.800000" d="M197.26,-114.27C220.73,-100.22 258.78,-77.45 285.89,-61.22"/>
<ellipse fill="#1f9929" fill-opacity="0.800000" stroke="#1f9929" stroke-opacity="0.800000" cx="287.76" cy="-60.1" rx="2" ry="2"/>
<text text-anchor="middle" x="261" y="-80.8" font-family="Times-Roman bold" font-size="14.00" fill="#00730a">d</text>
</g>
<!-- node_7f302485e4f0&#45;&gt;value_7f3024858a40 -->
<g id="edge13" class="edge">
<title>node_7f302485e4f0&#45;&gt;value_7f3024858a40</title>
<path fill="none" stroke="#3d1f99" stroke-opacity="0.800000" d="M404.36,-112.58C387.27,-98.61 361.21,-77.31 342.19,-61.77"/>
<ellipse fill="#3d1f99" fill-opacity="0.800000" stroke="#3d1f99" stroke-opacity="0.800000" cx="340.51" cy="-60.4" rx="2" ry="2"/>
<text text-anchor="middle" x="382" y="-80.8" font-family="Times-Roman bold" font-size="14.00" fill="#1d0073">d</text>
</g>
<!-- value__node_7f302485e4f0__c -->
<g id="node13" class="node">
<title>value__node_7f302485e4f0__c</title>
<polygon fill="#9673ff" fill-opacity="0.600000" stroke="transparent" stroke-width="1.5" points="449,-59 395,-59 395,-23 449,-23 449,-59"/>
<text text-anchor="middle" x="422" y="-37.3" font-family="monospace" font-size="14.00" fill="#0d0033">33</text>
</g>
<!-- node_7f302485e4f0&#45;&gt;value__node_7f302485e4f0__c -->
<g id="edge12" class="edge">
<title>node_7f302485e4f0&#45;&gt;value__node_7f302485e4f0__c</title>
<path fill="none" stroke="#3d1f99" stroke-opacity="0.800000" d="M422,-109.8C422,-96.43 422,-77.82 422,-63.48"/>
<ellipse fill="#3d1f99" fill-opacity="0.800000" stroke="#3d1f99" stroke-opacity="0.800000" cx="422" cy="-61.18" rx="2" ry="2"/>
<text text-anchor="middle" x="426.5" y="-80.8" font-family="Times-Roman bold" font-size="14.00" fill="#1d0073">c</text>
</g>
<!-- node_7f302485e610 -->
<g id="node14" class="node">
<title>node_7f302485e610</title>
<ellipse fill="#ffad73" fill-opacity="0.600000" stroke="#b26f3e" stroke-width="1.5" stroke-opacity="0.600000" cx="526" cy="-128" rx="53.89" ry="18"/>
<text text-anchor="middle" x="526" y="-124.3" font-family="monospace bold" font-size="14.00" fill="#331500">t3.sum.x</text>
</g>
<!-- node_7f302485e5e0&#45;&gt;node_7f302485e610 -->
<g id="edge14" class="edge">
<title>node_7f302485e5e0&#45;&gt;node_7f302485e610</title>
<path fill="none" stroke="#99521f" stroke-opacity="0.800000" d="M585.73,-197.61C574.85,-185.11 559.68,-167.69 547.35,-153.53"/>
<polygon fill="#99521f" fill-opacity="0.800000" stroke="#99521f" stroke-opacity="0.800000" points="540.48,-145.63 550.44,-150.22 543.76,-149.4 547.04,-153.17 547.04,-153.17 547.04,-153.17 543.76,-149.4 543.65,-156.13 540.48,-145.63 540.48,-145.63"/>
<text text-anchor="middle" x="573" y="-167.8" font-family="Times-Roman bold" font-size="14.00" fill="#733000">x</text>
</g>
<!-- value__node_7f302485e5e0__b -->
<g id="node15" class="node">
<title>value__node_7f302485e5e0__b</title>
<polygon fill="#ffad73" fill-opacity="0.600000" stroke="transparent" stroke-width="1.5" points="652,-146 598,-146 598,-110 652,-110 652,-146"/>
<text text-anchor="middle" x="625" y="-124.3" font-family="monospace" font-size="14.00" fill="#331500">4</text>
</g>
<!-- node_7f302485e5e0&#45;&gt;value__node_7f302485e5e0__b -->
<g id="edge15" class="edge">
<title>node_7f302485e5e0&#45;&gt;value__node_7f302485e5e0__b</title>
<path fill="none" stroke="#99521f" stroke-opacity="0.800000" d="M605.06,-196.8C609.02,-183.32 614.56,-164.5 618.79,-150.11"/>
<ellipse fill="#99521f" fill-opacity="0.800000" stroke="#99521f" stroke-opacity="0.800000" cx="619.38" cy="-148.09" rx="2" ry="2"/>
<text text-anchor="middle" x="619" y="-167.8" font-family="Times-Roman bold" font-size="14.00" fill="#733000">b</text>
</g>
<!-- value__node_7f302485e5e0__a -->
<g id="node16" class="node">
<title>value__node_7f302485e5e0__a</title>
<polygon fill="#ffad73" fill-opacity="0.600000" stroke="transparent" stroke-width="1.5" points="761.5,-146 670.5,-146 670.5,-110 761.5,-110 761.5,-146"/>
<text text-anchor="middle" x="716" y="-124.3" font-family="monospace" font-size="14.00" fill="#331500">&#39;s1str11&#39;</text>
</g>
<!-- node_7f302485e5e0&#45;&gt;value__node_7f302485e5e0__a -->
<g id="edge16" class="edge">
<title>node_7f302485e5e0&#45;&gt;value__node_7f302485e5e0__a</title>
<path fill="none" stroke="#99521f" stroke-opacity="0.800000" d="M620.47,-199C639.61,-184.98 668.3,-163.95 689.25,-148.6"/>
<ellipse fill="#99521f" fill-opacity="0.800000" stroke="#99521f" stroke-opacity="0.800000" cx="690.93" cy="-147.37" rx="2" ry="2"/>
<text text-anchor="middle" x="670" y="-167.8" font-family="Times-Roman bold" font-size="14.00" fill="#733000">a</text>
</g>
<!-- value_7f3024858640 -->
<g id="node17" class="node">
<title>value_7f3024858640</title>
<polygon fill="#ffad73" fill-opacity="0.600000" stroke="transparent" stroke-width="1.5" points="583,-59 467,-59 467,-23 583,-23 583,-59"/>
<text text-anchor="middle" x="525" y="-37.3" font-family="monospace" font-size="14.00" fill="#331500">[1, 2, 1, 2]</text>
</g>
<!-- node_7f302485e610&#45;&gt;value_7f3024858640 -->
<g id="edge17" class="edge">
<title>node_7f302485e610&#45;&gt;value_7f3024858640</title>
<path fill="none" stroke="#99521f" stroke-opacity="0.800000" d="M525.8,-109.8C525.64,-96.43 525.42,-77.82 525.25,-63.48"/>
<ellipse fill="#99521f" fill-opacity="0.800000" stroke="#99521f" stroke-opacity="0.800000" cx="525.23" cy="-61.18" rx="2" ry="2"/>
<text text-anchor="middle" x="531" y="-80.8" font-family="Times-Roman bold" font-size="14.00" fill="#733000">d</text>
</g>
<!-- value__node_7f302485e610__c -->
<g id="node18" class="node">
<title>value__node_7f302485e610__c</title>
<polygon fill="#ffad73" fill-opacity="0.600000" stroke="transparent" stroke-width="1.5" points="655,-59 601,-59 601,-23 655,-23 655,-59"/>
<text text-anchor="middle" x="628" y="-37.3" font-family="monospace" font-size="14.00" fill="#331500">36</text>
</g>
<!-- node_7f302485e610&#45;&gt;value__node_7f302485e610__c -->
<g id="edge18" class="edge">
<title>node_7f302485e610&#45;&gt;value__node_7f302485e610__c</title>
<path fill="none" stroke="#99521f" stroke-opacity="0.800000" d="M545.19,-111.01C561.85,-97.13 586.06,-76.95 604,-62"/>
<ellipse fill="#99521f" fill-opacity="0.800000" stroke="#99521f" stroke-opacity="0.800000" cx="605.96" cy="-60.36" rx="2" ry="2"/>
<text text-anchor="middle" x="588.5" y="-80.8" font-family="Times-Roman bold" font-size="14.00" fill="#733000">c</text>
</g>
</g>
</svg>
