<?xml version="1.0" encoding="UTF-8" standalone="no"?>
<!DOCTYPE svg PUBLIC "-//W3C//DTD SVG 1.1//EN"
 "http://www.w3.org/Graphics/SVG/1.1/DTD/svg11.dtd">
<!-- Generated by graphviz version 2.43.0 (0)
 -->
<!-- Title: %3 Pages: 1 -->
<svg width="849pt" height="218pt"
 viewBox="0.00 0.00 849.00 218.00" xmlns="http://www.w3.org/2000/svg" xmlns:xlink="http://www.w3.org/1999/xlink">
<g id="graph0" class="graph" transform="scale(1 1) rotate(0) translate(4 214)">
<title>%3</title>
<polygon fill="white" stroke="transparent" points="-4,4 -4,-214 845,-214 845,4 -4,4"/>
<!-- node_7fe19f978a90 -->
<g id="node1" class="node">
<title>node_7fe19f978a90</title>
<polygon fill="#73ff7e" fill-opacity="0.600000" stroke="#3eb248" stroke-width="3" stroke-opacity="0.600000" points="520,-210 459.17,-192 520,-174 580.83,-192 520,-210"/>
<text text-anchor="middle" x="520" y="-188.3" font-family="monospace bold" font-size="14.00" fill="#003304">&lt;root&gt;</text>
</g>
<!-- node_7fe19f978e20 -->
<g id="node2" class="node">
<title>node_7fe19f978e20</title>
<ellipse fill="#73ff7e" fill-opacity="0.600000" stroke="#3eb248" stroke-width="1.5" stroke-opacity="0.600000" cx="389" cy="-105" rx="53.89" ry="18"/>
<text text-anchor="middle" x="389" y="-101.3" font-family="monospace bold" font-size="14.00" fill="#003304">&lt;root&gt;.b</text>
</g>
<!-- node_7fe19f978a90&#45;&gt;node_7fe19f978e20 -->
<g id="edge1" class="edge">
<title>node_7fe19f978a90&#45;&gt;node_7fe19f978e20</title>
<path fill="none" stroke="#1f9929" stroke-opacity="0.800000" d="M501.79,-179.18C481.03,-165.72 446.72,-143.45 421.38,-127.01"/>
<polygon fill="#1f9929" fill-opacity="0.800000" stroke="#1f9929" stroke-opacity="0.800000" points="412.83,-121.46 423.67,-123.13 417.02,-124.18 421.22,-126.9 421.22,-126.9 421.22,-126.9 417.02,-124.18 418.77,-130.68 412.83,-121.46 412.83,-121.46"/>
<text text-anchor="middle" x="468" y="-144.8" font-family="Times-Roman bold" font-size="14.00" fill="#00730a">b</text>
</g>
<!-- value__node_7fe19f978a90__a -->
<g id="node3" class="node">
<title>value__node_7fe19f978a90__a</title>
<polygon fill="#73ff7e" fill-opacity="0.600000" stroke="transparent" stroke-width="1.5" points="841,-123 461,-123 461,-87 841,-87 841,-123"/>
<text text-anchor="middle" x="651" y="-101.3" font-family="monospace" font-size="14.00" fill="#003304">{&#39;a&#39;: 1, &#39;b&#39;: 10, &#39;c&#39;: {&#39;x&#39;: 100, &#39;y&#39;: 400}}</text>
</g>
<!-- node_7fe19f978a90&#45;&gt;value__node_7fe19f978a90__a -->
<g id="edge2" class="edge">
<title>node_7fe19f978a90&#45;&gt;value__node_7fe19f978a90__a</title>
<path fill="none" stroke="#1f9929" stroke-opacity="0.800000" d="M538.21,-179.18C559.61,-165.3 595.42,-142.06 620.95,-125.5"/>
<ellipse fill="#1f9929" fill-opacity="0.800000" stroke="#1f9929" stroke-opacity="0.800000" cx="622.64" cy="-124.4" rx="2" ry="2"/>
<text text-anchor="middle" x="599" y="-144.8" font-family="Times-Roman bold" font-size="14.00" fill="#00730a">a</text>
</g>
<!-- value__node_7fe19f978e20__y -->
<g id="node4" class="node">
<title>value__node_7fe19f978e20__y</title>
<polygon fill="#73ff7e" fill-opacity="0.600000" stroke="transparent" stroke-width="1.5" points="380,-36 0,-36 0,0 380,0 380,-36"/>
<text text-anchor="middle" x="190" y="-14.3" font-family="monospace" font-size="14.00" fill="#003304">{&#39;a&#39;: 3, &#39;b&#39;: 30, &#39;c&#39;: {&#39;x&#39;: 300, &#39;y&#39;: 600}}</text>
</g>
<!-- node_7fe19f978e20&#45;&gt;value__node_7fe19f978e20__y -->
<g id="edge3" class="edge">
<title>node_7fe19f978e20&#45;&gt;value__node_7fe19f978e20__y</title>
<path fill="none" stroke="#1f9929" stroke-opacity="0.800000" d="M357.03,-90.34C323.74,-76.13 271.37,-53.75 234.15,-37.86"/>
<ellipse fill="#1f9929" fill-opacity="0.800000" stroke="#1f9929" stroke-opacity="0.800000" cx="231.98" cy="-36.93" rx="2" ry="2"/>
<text text-anchor="middle" x="307" y="-57.8" font-family="Times-Roman bold" font-size="14.00" fill="#00730a">y</text>
</g>
<!-- value__node_7fe19f978e20__x -->
<g id="node5" class="node">
<title>value__node_7fe19f978e20__x</title>
<polygon fill="#73ff7e" fill-opacity="0.600000" stroke="transparent" stroke-width="1.5" points="778,-36 398,-36 398,0 778,0 778,-36"/>
<text text-anchor="middle" x="588" y="-14.3" font-family="monospace" font-size="14.00" fill="#003304">{&#39;a&#39;: 2, &#39;b&#39;: 20, &#39;c&#39;: {&#39;x&#39;: 200, &#39;y&#39;: 500}}</text>
</g>
<!-- node_7fe19f978e20&#45;&gt;value__node_7fe19f978e20__x -->
<g id="edge4" class="edge">
<title>node_7fe19f978e20&#45;&gt;value__node_7fe19f978e20__x</title>
<path fill="none" stroke="#1f9929" stroke-opacity="0.800000" d="M420.97,-90.34C454.26,-76.13 506.63,-53.75 543.85,-37.86"/>
<ellipse fill="#1f9929" fill-opacity="0.800000" stroke="#1f9929" stroke-opacity="0.800000" cx="546.02" cy="-36.93" rx="2" ry="2"/>
<text text-anchor="middle" x="506" y="-57.8" font-family="Times-Roman bold" font-size="14.00" fill="#00730a">x</text>
</g>
</g>
</svg>
