<?xml version="1.0" encoding="UTF-8" standalone="no"?>
<!DOCTYPE svg PUBLIC "-//W3C//DTD SVG 1.1//EN"
 "http://www.w3.org/Graphics/SVG/1.1/DTD/svg11.dtd">
<!-- Generated by graphviz version 2.43.0 (0)
 -->
<!-- Title: this_is_a_demo_of_2_trees Pages: 1 -->
<svg width="332pt" height="419pt"
 viewBox="0.00 0.00 332.00 419.00" xmlns="http://www.w3.org/2000/svg" xmlns:xlink="http://www.w3.org/1999/xlink">
<g id="graph0" class="graph" transform="scale(1 1) rotate(0) translate(4 415)">
<title>this_is_a_demo_of_2_trees</title>
<polygon fill="transparent" stroke="transparent" points="-4,4 -4,-415 328,-415 328,4 -4,4"/>
<text text-anchor="middle" x="162" y="-7.8" font-family="Times,serif" font-size="14.00">This is a demo of 2 trees.</text>
<!-- node_7f1befed6100 -->
<g id="node1" class="node">
<title>node_7f1befed6100</title>
<polygon fill="#73ff7e" fill-opacity="0.600000" stroke="#3eb248" stroke-width="3" stroke-opacity="0.600000" points="193,-237 166,-219 193,-201 220,-219 193,-237"/>
<text text-anchor="middle" x="193" y="-215.3" font-family="Times-Roman bold" font-size="14.00" fill="#003304">t</text>
</g>
<!-- value__node_7f1befed6100__a -->
<g id="node3" class="node">
<title>value__node_7f1befed6100__a</title>
<polygon fill="#73ff7e" fill-opacity="0.600000" stroke="transparent" stroke-width="1.5" points="324,-149 270,-149 270,-113 324,-113 324,-149"/>
<text text-anchor="middle" x="297" y="-127.3" font-family="Times,serif" font-size="14.00" fill="#003304">1</text>
</g>
<!-- node_7f1befed6100&#45;&gt;value__node_7f1befed6100__a -->
<g id="edge1" class="edge">
<title>node_7f1befed6100&#45;&gt;value__node_7f1befed6100__a</title>
<path fill="none" stroke="#1f9929" stroke-opacity="0.800000" d="M204.53,-208.47C220.96,-194.88 251.5,-169.62 272.98,-151.86"/>
<ellipse fill="#1f9929" fill-opacity="0.800000" stroke="#1f9929" stroke-opacity="0.800000" cx="274.54" cy="-150.57" rx="2" ry="2"/>
<text text-anchor="middle" x="256" y="-171.8" font-family="Times-Roman bold" font-size="14.00" fill="#00730a">a</text>
</g>
<!-- value__node_7f1befed6100__b -->
<g id="node4" class="node">
<title>value__node_7f1befed6100__b</title>
<polygon fill="#73ff7e" fill-opacity="0.600000" stroke="transparent" stroke-width="1.5" points="251.5,-150 144.5,-150 144.5,-112 251.5,-112 251.5,-150"/>
<text text-anchor="middle" x="198" y="-134.8" font-family="Times,serif" font-size="14.00" fill="#003304">array([[5, 6],</text>
<text text-anchor="middle" x="198" y="-119.8" font-family="Times,serif" font-size="14.00" fill="#003304"> &#160;&#160;&#160;&#160;&#160;&#160;[7, 8]])</text>
</g>
<!-- node_7f1befed6100&#45;&gt;value__node_7f1befed6100__b -->
<g id="edge2" class="edge">
<title>node_7f1befed6100&#45;&gt;value__node_7f1befed6100__b</title>
<path fill="none" stroke="#1f9929" stroke-opacity="0.800000" d="M193.96,-201.42C194.75,-187.94 195.86,-168.82 196.72,-154.06"/>
<ellipse fill="#1f9929" fill-opacity="0.800000" stroke="#1f9929" stroke-opacity="0.800000" cx="196.84" cy="-152.01" rx="2" ry="2"/>
<text text-anchor="middle" x="200" y="-171.8" font-family="Times-Roman bold" font-size="14.00" fill="#00730a">b</text>
</g>
<!-- node_7f1befe36eb0 -->
<g id="node5" class="node">
<title>node_7f1befe36eb0</title>
<ellipse fill="#73ff7e" fill-opacity="0.600000" stroke="#3eb248" stroke-width="1.5" stroke-opacity="0.600000" cx="99" cy="-131" rx="27" ry="18"/>
<text text-anchor="middle" x="99" y="-127.3" font-family="Times-Roman bold" font-size="14.00" fill="#003304">t.x</text>
</g>
<!-- node_7f1befed6100&#45;&gt;node_7f1befe36eb0 -->
<g id="edge3" class="edge">
<title>node_7f1befed6100&#45;&gt;node_7f1befe36eb0</title>
<path fill="none" stroke="#1f9929" stroke-opacity="0.800000" d="M182.95,-207.35C173.06,-197.01 157.38,-181.02 143,-168 137.06,-162.63 130.47,-157.04 124.23,-151.92"/>
<polygon fill="#1f9929" fill-opacity="0.800000" stroke="#1f9929" stroke-opacity="0.800000" points="116.04,-145.29 126.65,-148.09 119.93,-148.44 123.82,-151.59 123.82,-151.59 123.82,-151.59 119.93,-148.44 120.98,-155.08 116.04,-145.29 116.04,-145.29"/>
<text text-anchor="middle" x="163" y="-171.8" font-family="Times-Roman bold" font-size="14.00" fill="#00730a">x</text>
</g>
<!-- node_7f1bef428ca0 -->
<g id="node2" class="node">
<title>node_7f1bef428ca0</title>
<polygon fill="#9673ff" fill-opacity="0.600000" stroke="#5b3eb2" stroke-width="3" stroke-opacity="0.600000" points="102,-411 71.83,-393 102,-375 132.17,-393 102,-411"/>
<text text-anchor="middle" x="102" y="-389.3" font-family="Times-Roman bold" font-size="14.00" fill="#0d0033">t2</text>
</g>
<!-- node_7f1bef428ca0&#45;&gt;node_7f1befe36eb0 -->
<g id="edge4" class="edge">
<title>node_7f1bef428ca0&#45;&gt;node_7f1befe36eb0</title>
<path fill="none" stroke="#3d1f99" stroke-opacity="0.800000" d="M101.27,-375.03C100.29,-351.47 98.61,-307.5 98,-270 97.37,-231.72 97.92,-187.46 98.42,-159.6"/>
<polygon fill="#3d1f99" fill-opacity="0.800000" stroke="#3d1f99" stroke-opacity="0.800000" points="98.61,-149.43 102.92,-159.51 98.51,-154.43 98.42,-159.43 98.42,-159.43 98.42,-159.43 98.51,-154.43 93.92,-159.34 98.61,-149.43 98.61,-149.43"/>
<text text-anchor="middle" x="113" y="-258.8" font-family="Times-Roman bold" font-size="14.00" fill="#1d0073">ppp</text>
</g>
<!-- node_7f1be8f4bb80 -->
<g id="node6" class="node">
<title>node_7f1be8f4bb80</title>
<ellipse fill="#9673ff" fill-opacity="0.600000" stroke="#5b3eb2" stroke-width="1.5" stroke-opacity="0.600000" cx="145" cy="-306" rx="30.59" ry="18"/>
<text text-anchor="middle" x="145" y="-302.3" font-family="Times-Roman bold" font-size="14.00" fill="#0d0033">t2.x</text>
</g>
<!-- node_7f1bef428ca0&#45;&gt;node_7f1be8f4bb80 -->
<g id="edge5" class="edge">
<title>node_7f1bef428ca0&#45;&gt;node_7f1be8f4bb80</title>
<path fill="none" stroke="#3d1f99" stroke-opacity="0.800000" d="M108.72,-378.72C114.98,-366.35 124.48,-347.57 132.19,-332.33"/>
<polygon fill="#3d1f99" fill-opacity="0.800000" stroke="#3d1f99" stroke-opacity="0.800000" points="136.71,-323.39 136.21,-334.34 134.45,-327.85 132.2,-332.31 132.2,-332.31 132.2,-332.31 134.45,-327.85 128.18,-330.28 136.71,-323.39 136.71,-323.39"/>
<text text-anchor="middle" x="131" y="-345.8" font-family="Times-Roman bold" font-size="14.00" fill="#1d0073">x</text>
</g>
<!-- value__node_7f1befe36eb0__c -->
<g id="node7" class="node">
<title>value__node_7f1befe36eb0__c</title>
<polygon fill="#73ff7e" fill-opacity="0.600000" stroke="transparent" stroke-width="1.5" points="54,-60 0,-60 0,-24 54,-24 54,-60"/>
<text text-anchor="middle" x="27" y="-38.3" font-family="Times,serif" font-size="14.00" fill="#003304">3</text>
</g>
<!-- node_7f1befe36eb0&#45;&gt;value__node_7f1befe36eb0__c -->
<g id="edge6" class="edge">
<title>node_7f1befe36eb0&#45;&gt;value__node_7f1befe36eb0__c</title>
<path fill="none" stroke="#1f9929" stroke-opacity="0.800000" d="M86.46,-114.85C74.7,-100.63 57.02,-79.27 43.99,-63.53"/>
<ellipse fill="#1f9929" fill-opacity="0.800000" stroke="#1f9929" stroke-opacity="0.800000" cx="42.4" cy="-61.61" rx="2" ry="2"/>
<text text-anchor="middle" x="72.5" y="-82.8" font-family="Times-Roman bold" font-size="14.00" fill="#00730a">c</text>
</g>
<!-- value__node_7f1befe36eb0__d -->
<g id="node8" class="node">
<title>value__node_7f1befe36eb0__d</title>
<polygon fill="#73ff7e" fill-opacity="0.600000" stroke="transparent" stroke-width="1.5" points="126,-60 72,-60 72,-24 126,-24 126,-60"/>
<text text-anchor="middle" x="99" y="-38.3" font-family="Times,serif" font-size="14.00" fill="#003304">4</text>
</g>
<!-- node_7f1befe36eb0&#45;&gt;value__node_7f1befe36eb0__d -->
<g id="edge7" class="edge">
<title>node_7f1befe36eb0&#45;&gt;value__node_7f1befe36eb0__d</title>
<path fill="none" stroke="#1f9929" stroke-opacity="0.800000" d="M99,-112.81C99,-98.87 99,-79.15 99,-64.23"/>
<ellipse fill="#1f9929" fill-opacity="0.800000" stroke="#1f9929" stroke-opacity="0.800000" cx="99" cy="-62.15" rx="2" ry="2"/>
<text text-anchor="middle" x="104" y="-82.8" font-family="Times-Roman bold" font-size="14.00" fill="#00730a">d</text>
</g>
<!-- value__node_7f1befe36eb0__e -->
<g id="node9" class="node">
<title>value__node_7f1befe36eb0__e</title>
<polygon fill="#73ff7e" fill-opacity="0.600000" stroke="transparent" stroke-width="1.5" points="251.5,-61 144.5,-61 144.5,-23 251.5,-23 251.5,-61"/>
<text text-anchor="middle" x="198" y="-45.8" font-family="Times,serif" font-size="14.00" fill="#003304">array([[1, 2],</text>
<text text-anchor="middle" x="198" y="-30.8" font-family="Times,serif" font-size="14.00" fill="#003304"> &#160;&#160;&#160;&#160;&#160;&#160;[3, 4]])</text>
</g>
<!-- node_7f1befe36eb0&#45;&gt;value__node_7f1befe36eb0__e -->
<g id="edge8" class="edge">
<title>node_7f1befe36eb0&#45;&gt;value__node_7f1befe36eb0__e</title>
<path fill="none" stroke="#1f9929" stroke-opacity="0.800000" d="M114.91,-116.02C130.92,-101.95 155.83,-80.06 174.2,-63.92"/>
<ellipse fill="#1f9929" fill-opacity="0.800000" stroke="#1f9929" stroke-opacity="0.800000" cx="175.81" cy="-62.5" rx="2" ry="2"/>
<text text-anchor="middle" x="159" y="-82.8" font-family="Times-Roman bold" font-size="14.00" fill="#00730a">e</text>
</g>
<!-- node_7f1be8f4bb80&#45;&gt;node_7f1befed6100 -->
<g id="edge9" class="edge">
<title>node_7f1be8f4bb80&#45;&gt;node_7f1befed6100</title>
<path fill="none" stroke="#3d1f99" stroke-opacity="0.800000" d="M154.25,-288.61C161.85,-275.16 172.67,-256 180.95,-241.35"/>
<polygon fill="#3d1f99" fill-opacity="0.800000" stroke="#3d1f99" stroke-opacity="0.800000" points="185.96,-232.47 184.96,-243.39 183.5,-236.83 181.04,-241.18 181.04,-241.18 181.04,-241.18 183.5,-236.83 177.12,-238.97 185.96,-232.47 185.96,-232.47"/>
<text text-anchor="middle" x="174.5" y="-258.8" font-family="Times-Roman bold" font-size="14.00" fill="#1d0073">t</text>
</g>
<!-- node_7f1be8f4bb80&#45;&gt;node_7f1befe36eb0 -->
<g id="edge10" class="edge">
<title>node_7f1be8f4bb80&#45;&gt;node_7f1befe36eb0</title>
<path fill="none" stroke="#3d1f99" stroke-opacity="0.800000" d="M140.51,-288.1C132.5,-257.99 115.72,-194.88 106.13,-158.81"/>
<polygon fill="#3d1f99" fill-opacity="0.800000" stroke="#3d1f99" stroke-opacity="0.800000" points="103.51,-148.97 110.43,-157.48 104.8,-153.8 106.08,-158.64 106.08,-158.64 106.08,-158.64 104.8,-153.8 101.73,-159.79 103.51,-148.97 103.51,-148.97"/>
<text text-anchor="middle" x="131" y="-215.3" font-family="Times-Roman bold" font-size="14.00" fill="#1d0073">y</text>
</g>
</g>
</svg>
