<?xml version="1.0" encoding="UTF-8" standalone="no"?>
<!DOCTYPE svg PUBLIC "-//W3C//DTD SVG 1.1//EN"
 "http://www.w3.org/Graphics/SVG/1.1/DTD/svg11.dtd">
<!-- Generated by graphviz version 2.43.0 (0)
 -->
<!-- Title: %3 Pages: 1 -->
<svg width="472pt" height="330pt"
 viewBox="0.00 0.00 472.00 330.00" xmlns="http://www.w3.org/2000/svg" xmlns:xlink="http://www.w3.org/1999/xlink">
<g id="graph0" class="graph" transform="scale(1 1) rotate(0) translate(4 326)">
<title>%3</title>
<polygon fill="transparent" stroke="transparent" points="-4,4 -4,-326 468,-326 468,4 -4,4"/>
<text text-anchor="middle" x="232" y="-7.8" font-family="Times,serif" font-size="14.00">A simple example of TreeValue t</text>
<!-- root -->
<g id="node1" class="node">
<title>root</title>
<polygon fill="none" stroke="black" points="168.5,-322 141.5,-304 168.5,-286 195.5,-304 168.5,-322"/>
<text text-anchor="middle" x="168.5" y="-300.3" font-family="Times,serif" font-size="14.00">t</text>
</g>
<!-- n1 -->
<g id="node2" class="node">
<title>n1</title>
<polygon fill="none" stroke="black" points="107,-235 0,-235 0,-197 107,-197 107,-235"/>
<text text-anchor="middle" x="53.5" y="-219.8" font-family="Times,serif" font-size="14.00">array([[1, 2],</text>
<text text-anchor="middle" x="53.5" y="-204.8" font-family="Times,serif" font-size="14.00"> [3, 4]])</text>
</g>
<!-- root&#45;&gt;n1 -->
<g id="edge1" class="edge">
<title>root&#45;&gt;n1</title>
<path fill="none" stroke="black" d="M156.19,-293.8C139.58,-281.37 109.36,-258.77 85.98,-241.29"/>
<polygon fill="black" stroke="black" points="87.83,-238.3 77.72,-235.11 83.63,-243.91 87.83,-238.3"/>
<text text-anchor="middle" x="126" y="-256.8" font-family="Times,serif" font-size="14.00">a</text>
</g>
<!-- n2 -->
<g id="node3" class="node">
<title>n2</title>
<polygon fill="none" stroke="black" points="179.5,-234 125.5,-234 125.5,-198 179.5,-198 179.5,-234"/>
<text text-anchor="middle" x="152.5" y="-212.3" font-family="Times,serif" font-size="14.00">2</text>
</g>
<!-- root&#45;&gt;n2 -->
<g id="edge2" class="edge">
<title>root&#45;&gt;n2</title>
<path fill="none" stroke="black" d="M165.64,-287.62C163.38,-275.5 160.18,-258.28 157.5,-243.88"/>
<polygon fill="black" stroke="black" points="160.93,-243.2 155.66,-234.01 154.05,-244.48 160.93,-243.2"/>
<text text-anchor="middle" x="167.5" y="-256.8" font-family="Times,serif" font-size="14.00">b</text>
</g>
<!-- n3 -->
<g id="node4" class="node">
<title>n3</title>
<ellipse fill="none" stroke="black" cx="224.5" cy="-216" rx="27" ry="18"/>
<text text-anchor="middle" x="224.5" y="-212.3" font-family="Times,serif" font-size="14.00">t.x</text>
</g>
<!-- root&#45;&gt;n3 -->
<g id="edge3" class="edge">
<title>root&#45;&gt;n3</title>
<path fill="none" stroke="black" d="M176.29,-291.04C184.6,-278.27 198.02,-257.67 208.59,-241.44"/>
<polygon fill="black" stroke="black" points="211.59,-243.24 214.11,-232.95 205.72,-239.42 211.59,-243.24"/>
<text text-anchor="middle" x="205" y="-256.8" font-family="Times,serif" font-size="14.00">x</text>
</g>
<!-- n9 -->
<g id="node10" class="node">
<title>n9</title>
<ellipse fill="none" stroke="black" cx="351.5" cy="-216" rx="27" ry="18"/>
<text text-anchor="middle" x="351.5" y="-212.3" font-family="Times,serif" font-size="14.00">t.y</text>
</g>
<!-- root&#45;&gt;n9 -->
<g id="edge4" class="edge">
<title>root&#45;&gt;n9</title>
<path fill="none" stroke="black" d="M183.48,-295.96C213.36,-281.92 280.95,-250.15 320.7,-231.48"/>
<polygon fill="black" stroke="black" points="322.36,-234.56 329.93,-227.14 319.39,-228.22 322.36,-234.56"/>
<text text-anchor="middle" x="276" y="-256.8" font-family="Times,serif" font-size="14.00">y</text>
</g>
<!-- n4 -->
<g id="node5" class="node">
<title>n4</title>
<polygon fill="none" stroke="black" points="146.5,-146 92.5,-146 92.5,-110 146.5,-110 146.5,-146"/>
<text text-anchor="middle" x="119.5" y="-124.3" font-family="Times,serif" font-size="14.00">[1, 2]</text>
</g>
<!-- n3&#45;&gt;n4 -->
<g id="edge5" class="edge">
<title>n3&#45;&gt;n4</title>
<path fill="none" stroke="black" d="M208.09,-201.56C192.15,-188.5 167.59,-168.38 148.37,-152.64"/>
<polygon fill="black" stroke="black" points="150.45,-149.83 140.5,-146.2 146.01,-155.24 150.45,-149.83"/>
<text text-anchor="middle" x="182.5" y="-167.8" font-family="Times,serif" font-size="14.00">c</text>
</g>
<!-- n5 -->
<g id="node6" class="node">
<title>n5</title>
<polygon fill="none" stroke="black" points="226.5,-146 164.5,-146 164.5,-110 226.5,-110 226.5,-146"/>
<text text-anchor="middle" x="195.5" y="-124.3" font-family="Times,serif" font-size="14.00">{3, 4}</text>
</g>
<!-- n3&#45;&gt;n5 -->
<g id="edge6" class="edge">
<title>n3&#45;&gt;n5</title>
<path fill="none" stroke="black" d="M218.77,-198.01C214.71,-185.96 209.17,-169.53 204.52,-155.74"/>
<polygon fill="black" stroke="black" points="207.83,-154.61 201.32,-146.25 201.2,-156.84 207.83,-154.61"/>
<text text-anchor="middle" x="217.5" y="-167.8" font-family="Times,serif" font-size="14.00">d</text>
</g>
<!-- n6 -->
<g id="node7" class="node">
<title>n6</title>
<ellipse fill="none" stroke="black" cx="275.5" cy="-128" rx="31.4" ry="18"/>
<text text-anchor="middle" x="275.5" y="-124.3" font-family="Times,serif" font-size="14.00">t.x.e</text>
</g>
<!-- n3&#45;&gt;n6 -->
<g id="edge7" class="edge">
<title>n3&#45;&gt;n6</title>
<path fill="none" stroke="black" d="M234.09,-198.82C241.52,-186.29 251.96,-168.7 260.49,-154.31"/>
<polygon fill="black" stroke="black" points="263.69,-155.78 265.78,-145.4 257.67,-152.21 263.69,-155.78"/>
<text text-anchor="middle" x="260" y="-167.8" font-family="Times,serif" font-size="14.00">e</text>
</g>
<!-- n7 -->
<g id="node8" class="node">
<title>n7</title>
<polygon fill="none" stroke="black" points="280.5,-59 168.5,-59 168.5,-23 280.5,-23 280.5,-59"/>
<text text-anchor="middle" x="224.5" y="-37.3" font-family="Times,serif" font-size="14.00">{&#39;a&#39;: 1, &#39;b&#39;: 2}</text>
</g>
<!-- n6&#45;&gt;n7 -->
<g id="edge8" class="edge">
<title>n6&#45;&gt;n7</title>
<path fill="none" stroke="black" d="M265.67,-110.61C258.4,-98.5 248.36,-81.77 240.02,-67.87"/>
<polygon fill="black" stroke="black" points="242.97,-65.99 234.83,-59.21 236.97,-69.59 242.97,-65.99"/>
<text text-anchor="middle" x="256.5" y="-80.8" font-family="Times,serif" font-size="14.00">f</text>
</g>
<!-- n8 -->
<g id="node9" class="node">
<title>n8</title>
<polygon fill="none" stroke="black" points="352.5,-59 298.5,-59 298.5,-23 352.5,-23 352.5,-59"/>
<text text-anchor="middle" x="325.5" y="-37.3" font-family="Times,serif" font-size="14.00">4</text>
</g>
<!-- n6&#45;&gt;n8 -->
<g id="edge9" class="edge">
<title>n6&#45;&gt;n8</title>
<path fill="none" stroke="black" d="M285.14,-110.61C292.26,-98.5 302.1,-81.77 310.28,-67.87"/>
<polygon fill="black" stroke="black" points="313.32,-69.61 315.37,-59.21 307.29,-66.06 313.32,-69.61"/>
<text text-anchor="middle" x="308.5" y="-80.8" font-family="Times,serif" font-size="14.00">g</text>
</g>
<!-- n10 -->
<g id="node11" class="node">
<title>n10</title>
<polygon fill="none" stroke="black" points="378.5,-146 324.5,-146 324.5,-110 378.5,-110 378.5,-146"/>
<text text-anchor="middle" x="351.5" y="-124.3" font-family="Times,serif" font-size="14.00">5</text>
</g>
<!-- n9&#45;&gt;n10 -->
<g id="edge10" class="edge">
<title>n9&#45;&gt;n10</title>
<path fill="none" stroke="black" d="M351.5,-197.6C351.5,-185.75 351.5,-169.82 351.5,-156.29"/>
<polygon fill="black" stroke="black" points="355,-156.08 351.5,-146.08 348,-156.08 355,-156.08"/>
<text text-anchor="middle" x="356.5" y="-167.8" font-family="Times,serif" font-size="14.00">h</text>
</g>
<!-- n11 -->
<g id="node12" class="node">
<title>n11</title>
<polygon fill="none" stroke="black" points="464,-146 397,-146 397,-110 464,-110 464,-146"/>
<text text-anchor="middle" x="430.5" y="-124.3" font-family="Times,serif" font-size="14.00">&#39;string&#39;</text>
</g>
<!-- n9&#45;&gt;n11 -->
<g id="edge11" class="edge">
<title>n9&#45;&gt;n11</title>
<path fill="none" stroke="black" d="M365.26,-200.02C377.01,-187.23 394.13,-168.59 407.89,-153.62"/>
<polygon fill="black" stroke="black" points="410.54,-155.9 414.73,-146.17 405.38,-151.17 410.54,-155.9"/>
<text text-anchor="middle" x="402" y="-167.8" font-family="Times,serif" font-size="14.00">a</text>
</g>
</g>
</svg>
