<?xml version="1.0" encoding="UTF-8" standalone="no"?>
<!DOCTYPE svg PUBLIC "-//W3C//DTD SVG 1.1//EN"
 "http://www.w3.org/Graphics/SVG/1.1/DTD/svg11.dtd">
<!-- Generated by graphviz version 2.43.0 (0)
 -->
<!-- Title: no_shared_values Pages: 1 -->
<svg width="574pt" height="275pt"
 viewBox="0.00 0.00 574.00 275.00" xmlns="http://www.w3.org/2000/svg" xmlns:xlink="http://www.w3.org/1999/xlink">
<g id="graph0" class="graph" transform="scale(1 1) rotate(0) translate(4 271)">
<title>no_shared_values</title>
<polygon fill="transparent" stroke="transparent" points="-4,4 -4,-271 570,-271 570,4 -4,4"/>
<text text-anchor="middle" x="283" y="-7.8" font-family="Times,serif" font-size="14.00">No Shared Values</text>
<!-- node_7f435d264340 -->
<g id="node1" class="node">
<title>node_7f435d264340</title>
<polygon fill="#73ff7e" fill-opacity="0.600000" stroke="#3eb248" stroke-width="3" stroke-opacity="0.600000" points="99,-267 61.13,-249 99,-231 136.87,-249 99,-267"/>
<text text-anchor="middle" x="99" y="-245.3" font-family="Times-Roman bold" font-size="14.00" fill="#003304">st1</text>
</g>
<!-- value__node_7f435d264340__a -->
<g id="node3" class="node">
<title>value__node_7f435d264340__a</title>
<polygon fill="#73ff7e" fill-opacity="0.600000" stroke="transparent" stroke-width="1.5" points="54,-171.5 0,-171.5 0,-135.5 54,-135.5 54,-171.5"/>
<text text-anchor="middle" x="27" y="-149.8" font-family="Times,serif" font-size="14.00" fill="#003304">1</text>
</g>
<!-- node_7f435d264340&#45;&gt;value__node_7f435d264340__a -->
<g id="edge1" class="edge">
<title>node_7f435d264340&#45;&gt;value__node_7f435d264340__a</title>
<path fill="none" stroke="#1f9929" stroke-opacity="0.800000" d="M89.29,-235.39C77.41,-219.97 57.15,-193.65 42.97,-175.23"/>
<ellipse fill="#1f9929" fill-opacity="0.800000" stroke="#1f9929" stroke-opacity="0.800000" cx="41.44" cy="-173.25" rx="2" ry="2"/>
<text text-anchor="middle" x="77" y="-201.8" font-family="Times-Roman bold" font-size="14.00" fill="#00730a">a</text>
</g>
<!-- value__node_7f435d264340__b -->
<g id="node4" class="node">
<title>value__node_7f435d264340__b</title>
<polygon fill="#73ff7e" fill-opacity="0.600000" stroke="transparent" stroke-width="1.5" points="126,-171.5 72,-171.5 72,-135.5 126,-135.5 126,-171.5"/>
<text text-anchor="middle" x="99" y="-149.8" font-family="Times,serif" font-size="14.00" fill="#003304">[1, 2]</text>
</g>
<!-- node_7f435d264340&#45;&gt;value__node_7f435d264340__b -->
<g id="edge2" class="edge">
<title>node_7f435d264340&#45;&gt;value__node_7f435d264340__b</title>
<path fill="none" stroke="#1f9929" stroke-opacity="0.800000" d="M99,-230.85C99,-215.3 99,-192.32 99,-175.64"/>
<ellipse fill="#1f9929" fill-opacity="0.800000" stroke="#1f9929" stroke-opacity="0.800000" cx="99" cy="-173.54" rx="2" ry="2"/>
<text text-anchor="middle" x="104" y="-201.8" font-family="Times-Roman bold" font-size="14.00" fill="#00730a">b</text>
</g>
<!-- node_7f435d264370 -->
<g id="node5" class="node">
<title>node_7f435d264370</title>
<ellipse fill="#73ff7e" fill-opacity="0.600000" stroke="#3eb248" stroke-width="1.5" stroke-opacity="0.600000" cx="180" cy="-153.5" rx="36.29" ry="18"/>
<text text-anchor="middle" x="180" y="-149.8" font-family="Times-Roman bold" font-size="14.00" fill="#003304">st1.x</text>
</g>
<!-- node_7f435d264340&#45;&gt;node_7f435d264370 -->
<g id="edge3" class="edge">
<title>node_7f435d264340&#45;&gt;node_7f435d264370</title>
<path fill="none" stroke="#1f9929" stroke-opacity="0.800000" d="M109.59,-235.78C122.16,-221.27 143.41,-196.73 159.29,-178.41"/>
<polygon fill="#1f9929" fill-opacity="0.800000" stroke="#1f9929" stroke-opacity="0.800000" points="166.15,-170.48 163.01,-180.99 162.88,-174.26 159.61,-178.04 159.61,-178.04 159.61,-178.04 162.88,-174.26 156.2,-175.1 166.15,-170.48 166.15,-170.48"/>
<text text-anchor="middle" x="147" y="-201.8" font-family="Times-Roman bold" font-size="14.00" fill="#00730a">x</text>
</g>
<!-- node_7f435d264310 -->
<g id="node2" class="node">
<title>node_7f435d264310</title>
<polygon fill="#9673ff" fill-opacity="0.600000" stroke="#5b3eb2" stroke-width="3" stroke-opacity="0.600000" points="431,-267 393.13,-249 431,-231 468.87,-249 431,-267"/>
<text text-anchor="middle" x="431" y="-245.3" font-family="Times-Roman bold" font-size="14.00" fill="#0d0033">st2</text>
</g>
<!-- value__node_7f435d264310__np -->
<g id="node6" class="node">
<title>value__node_7f435d264310__np</title>
<polygon fill="#9673ff" fill-opacity="0.600000" stroke="transparent" stroke-width="1.5" points="350,-180 234,-180 234,-127 350,-127 350,-180"/>
<text text-anchor="middle" x="292" y="-164.8" font-family="Times,serif" font-size="14.00" fill="#0d0033">array([[0., 0.],</text>
<text text-anchor="middle" x="292" y="-149.8" font-family="Times,serif" font-size="14.00" fill="#0d0033"> &#160;&#160;&#160;&#160;&#160;&#160;[0., 0.],</text>
<text text-anchor="middle" x="292" y="-134.8" font-family="Times,serif" font-size="14.00" fill="#0d0033"> &#160;&#160;&#160;&#160;&#160;&#160;[0., 0.]])</text>
</g>
<!-- node_7f435d264310&#45;&gt;value__node_7f435d264310__np -->
<g id="edge4" class="edge">
<title>node_7f435d264310&#45;&gt;value__node_7f435d264310__np</title>
<path fill="none" stroke="#3d1f99" stroke-opacity="0.800000" d="M416.12,-237.99C396.54,-224.82 361.32,-201.13 333.39,-182.34"/>
<ellipse fill="#3d1f99" fill-opacity="0.800000" stroke="#3d1f99" stroke-opacity="0.800000" cx="331.68" cy="-181.19" rx="2" ry="2"/>
<text text-anchor="middle" x="389" y="-201.8" font-family="Times-Roman bold" font-size="14.00" fill="#1d0073">np</text>
</g>
<!-- value__node_7f435d264310__ar -->
<g id="node7" class="node">
<title>value__node_7f435d264310__ar</title>
<polygon fill="#9673ff" fill-opacity="0.600000" stroke="transparent" stroke-width="1.5" points="422,-171.5 368,-171.5 368,-135.5 422,-135.5 422,-171.5"/>
<text text-anchor="middle" x="395" y="-149.8" font-family="Times,serif" font-size="14.00" fill="#0d0033">[1, 2]</text>
</g>
<!-- node_7f435d264310&#45;&gt;value__node_7f435d264310__ar -->
<g id="edge5" class="edge">
<title>node_7f435d264310&#45;&gt;value__node_7f435d264310__ar</title>
<path fill="none" stroke="#3d1f99" stroke-opacity="0.800000" d="M425.38,-233.39C419.38,-217.82 409.84,-193.04 403.05,-175.41"/>
<ellipse fill="#3d1f99" fill-opacity="0.800000" stroke="#3d1f99" stroke-opacity="0.800000" cx="402.28" cy="-173.41" rx="2" ry="2"/>
<text text-anchor="middle" x="426.5" y="-201.8" font-family="Times-Roman bold" font-size="14.00" fill="#1d0073">ar</text>
</g>
<!-- value__node_7f435d264310__a -->
<g id="node8" class="node">
<title>value__node_7f435d264310__a</title>
<polygon fill="#9673ff" fill-opacity="0.600000" stroke="transparent" stroke-width="1.5" points="494,-171.5 440,-171.5 440,-135.5 494,-135.5 494,-171.5"/>
<text text-anchor="middle" x="467" y="-149.8" font-family="Times,serif" font-size="14.00" fill="#0d0033">1</text>
</g>
<!-- node_7f435d264310&#45;&gt;value__node_7f435d264310__a -->
<g id="edge6" class="edge">
<title>node_7f435d264310&#45;&gt;value__node_7f435d264310__a</title>
<path fill="none" stroke="#3d1f99" stroke-opacity="0.800000" d="M436.62,-233.39C442.62,-217.82 452.16,-193.04 458.95,-175.41"/>
<ellipse fill="#3d1f99" fill-opacity="0.800000" stroke="#3d1f99" stroke-opacity="0.800000" cx="459.72" cy="-173.41" rx="2" ry="2"/>
<text text-anchor="middle" x="455" y="-201.8" font-family="Times-Roman bold" font-size="14.00" fill="#1d0073">a</text>
</g>
<!-- value__node_7f435d264310__arx -->
<g id="node9" class="node">
<title>value__node_7f435d264310__arx</title>
<polygon fill="#9673ff" fill-opacity="0.600000" stroke="transparent" stroke-width="1.5" points="566,-171.5 512,-171.5 512,-135.5 566,-135.5 566,-171.5"/>
<text text-anchor="middle" x="539" y="-149.8" font-family="Times,serif" font-size="14.00" fill="#0d0033">[1, 2]</text>
</g>
<!-- node_7f435d264310&#45;&gt;value__node_7f435d264310__arx -->
<g id="edge7" class="edge">
<title>node_7f435d264310&#45;&gt;value__node_7f435d264310__arx</title>
<path fill="none" stroke="#3d1f99" stroke-opacity="0.800000" d="M443.81,-236.91C461.6,-221.51 494.07,-193.4 516.08,-174.34"/>
<ellipse fill="#3d1f99" fill-opacity="0.800000" stroke="#3d1f99" stroke-opacity="0.800000" cx="517.74" cy="-172.91" rx="2" ry="2"/>
<text text-anchor="middle" x="501" y="-201.8" font-family="Times-Roman bold" font-size="14.00" fill="#1d0073">arx</text>
</g>
<!-- value__node_7f435d264370__c -->
<g id="node10" class="node">
<title>value__node_7f435d264370__c</title>
<polygon fill="#73ff7e" fill-opacity="0.600000" stroke="transparent" stroke-width="1.5" points="155,-67.5 101,-67.5 101,-31.5 155,-31.5 155,-67.5"/>
<text text-anchor="middle" x="128" y="-45.8" font-family="Times,serif" font-size="14.00" fill="#003304">3</text>
</g>
<!-- node_7f435d264370&#45;&gt;value__node_7f435d264370__c -->
<g id="edge8" class="edge">
<title>node_7f435d264370&#45;&gt;value__node_7f435d264370__c</title>
<path fill="none" stroke="#1f9929" stroke-opacity="0.800000" d="M171.41,-135.66C162.43,-118.05 148.33,-90.38 138.65,-71.39"/>
<ellipse fill="#1f9929" fill-opacity="0.800000" stroke="#1f9929" stroke-opacity="0.800000" cx="137.68" cy="-69.49" rx="2" ry="2"/>
<text text-anchor="middle" x="162.5" y="-97.8" font-family="Times-Roman bold" font-size="14.00" fill="#00730a">c</text>
</g>
<!-- value__node_7f435d264370__d -->
<g id="node11" class="node">
<title>value__node_7f435d264370__d</title>
<polygon fill="#73ff7e" fill-opacity="0.600000" stroke="transparent" stroke-width="1.5" points="289,-76 173,-76 173,-23 289,-23 289,-76"/>
<text text-anchor="middle" x="231" y="-60.8" font-family="Times,serif" font-size="14.00" fill="#003304">array([[0., 0.],</text>
<text text-anchor="middle" x="231" y="-45.8" font-family="Times,serif" font-size="14.00" fill="#003304"> &#160;&#160;&#160;&#160;&#160;&#160;[0., 0.],</text>
<text text-anchor="middle" x="231" y="-30.8" font-family="Times,serif" font-size="14.00" fill="#003304"> &#160;&#160;&#160;&#160;&#160;&#160;[0., 0.]])</text>
</g>
<!-- node_7f435d264370&#45;&gt;value__node_7f435d264370__d -->
<g id="edge9" class="edge">
<title>node_7f435d264370&#45;&gt;value__node_7f435d264370__d</title>
<path fill="none" stroke="#1f9929" stroke-opacity="0.800000" d="M188.42,-135.66C195.94,-120.61 207.14,-98.23 216.16,-80.18"/>
<ellipse fill="#1f9929" fill-opacity="0.800000" stroke="#1f9929" stroke-opacity="0.800000" cx="217.27" cy="-77.96" rx="2" ry="2"/>
<text text-anchor="middle" x="214" y="-97.8" font-family="Times-Roman bold" font-size="14.00" fill="#00730a">d</text>
</g>
</g>
</svg>
