<?xml version="1.0" encoding="UTF-8" standalone="no"?>
<!DOCTYPE svg PUBLIC "-//W3C//DTD SVG 1.1//EN"
 "http://www.w3.org/Graphics/SVG/1.1/DTD/svg11.dtd">
<!-- Generated by graphviz version 2.43.0 (0)
 -->
<!-- Title: graph_with_3_tree_s_t1_t2_t3 Pages: 1 -->
<svg width="726pt" height="241pt"
 viewBox="0.00 0.00 726.00 241.00" xmlns="http://www.w3.org/2000/svg" xmlns:xlink="http://www.w3.org/1999/xlink">
<g id="graph0" class="graph" transform="scale(1 1) rotate(0) translate(4 237)">
<title>graph_with_3_tree_s_t1_t2_t3</title>
<polygon fill="white" stroke="transparent" points="-4,4 -4,-237 722,-237 722,4 -4,4"/>
<text text-anchor="middle" x="359" y="-7.8" font-family="Times,serif" font-size="14.00">Graph with 3 tree(s) &#45; t1, t2, t3.</text>
<!-- node_7f5c3c783ca0 -->
<g id="node1" class="node">
<title>node_7f5c3c783ca0</title>
<polygon fill="#73ff7e" fill-opacity="0.600000" stroke="#3eb248" stroke-width="3" stroke-opacity="0.600000" points="99,-233 68.83,-215 99,-197 129.17,-215 99,-233"/>
<text text-anchor="middle" x="99" y="-211.3" font-family="Times-Roman bold" font-size="14.00" fill="#003304">t1</text>
</g>
<!-- value__node_7f5c3c783ca0__a -->
<g id="node4" class="node">
<title>value__node_7f5c3c783ca0__a</title>
<polygon fill="#73ff7e" fill-opacity="0.600000" stroke="transparent" stroke-width="1.5" points="54,-146 0,-146 0,-110 54,-110 54,-146"/>
<text text-anchor="middle" x="27" y="-124.3" font-family="Times,serif" font-size="14.00" fill="#003304">1</text>
</g>
<!-- node_7f5c3c783ca0&#45;&gt;value__node_7f5c3c783ca0__a -->
<g id="edge1" class="edge">
<title>node_7f5c3c783ca0&#45;&gt;value__node_7f5c3c783ca0__a</title>
<path fill="none" stroke="#1f9929" stroke-opacity="0.800000" d="M89.29,-202.54C77.77,-188.94 58.37,-166.03 44.27,-149.39"/>
<ellipse fill="#1f9929" fill-opacity="0.800000" stroke="#1f9929" stroke-opacity="0.800000" cx="42.82" cy="-147.68" rx="2" ry="2"/>
<text text-anchor="middle" x="73" y="-167.8" font-family="Times-Roman bold" font-size="14.00" fill="#00730a">a</text>
</g>
<!-- value__node_7f5c3c783ca0__b -->
<g id="node5" class="node">
<title>value__node_7f5c3c783ca0__b</title>
<polygon fill="#73ff7e" fill-opacity="0.600000" stroke="transparent" stroke-width="1.5" points="126,-146 72,-146 72,-110 126,-110 126,-146"/>
<text text-anchor="middle" x="99" y="-124.3" font-family="Times,serif" font-size="14.00" fill="#003304">2</text>
</g>
<!-- node_7f5c3c783ca0&#45;&gt;value__node_7f5c3c783ca0__b -->
<g id="edge2" class="edge">
<title>node_7f5c3c783ca0&#45;&gt;value__node_7f5c3c783ca0__b</title>
<path fill="none" stroke="#1f9929" stroke-opacity="0.800000" d="M99,-196.8C99,-183.43 99,-164.82 99,-150.48"/>
<ellipse fill="#1f9929" fill-opacity="0.800000" stroke="#1f9929" stroke-opacity="0.800000" cx="99" cy="-148.18" rx="2" ry="2"/>
<text text-anchor="middle" x="104" y="-167.8" font-family="Times-Roman bold" font-size="14.00" fill="#00730a">b</text>
</g>
<!-- node_7f5c3c783cd0 -->
<g id="node6" class="node">
<title>node_7f5c3c783cd0</title>
<ellipse fill="#73ff7e" fill-opacity="0.600000" stroke="#3eb248" stroke-width="1.5" stroke-opacity="0.600000" cx="175" cy="-128" rx="30.59" ry="18"/>
<text text-anchor="middle" x="175" y="-124.3" font-family="Times-Roman bold" font-size="14.00" fill="#003304">t1.x</text>
</g>
<!-- node_7f5c3c783ca0&#45;&gt;node_7f5c3c783cd0 -->
<g id="edge3" class="edge">
<title>node_7f5c3c783ca0&#45;&gt;node_7f5c3c783cd0</title>
<path fill="none" stroke="#1f9929" stroke-opacity="0.800000" d="M108.94,-202.89C120.42,-190.05 139.62,-168.57 154.37,-152.08"/>
<polygon fill="#1f9929" fill-opacity="0.800000" stroke="#1f9929" stroke-opacity="0.800000" points="161.2,-144.44 157.89,-154.89 157.87,-148.16 154.53,-151.89 154.53,-151.89 154.53,-151.89 157.87,-148.16 151.18,-148.89 161.2,-144.44 161.2,-144.44"/>
<text text-anchor="middle" x="147" y="-167.8" font-family="Times-Roman bold" font-size="14.00" fill="#00730a">x</text>
</g>
<!-- node_7f5c3c783d30 -->
<g id="node2" class="node">
<title>node_7f5c3c783d30</title>
<polygon fill="#9673ff" fill-opacity="0.600000" stroke="#5b3eb2" stroke-width="3" stroke-opacity="0.600000" points="323,-233 292.83,-215 323,-197 353.17,-215 323,-233"/>
<text text-anchor="middle" x="323" y="-211.3" font-family="Times-Roman bold" font-size="14.00" fill="#0d0033">t2</text>
</g>
<!-- value__node_7f5c3c783d30__a -->
<g id="node7" class="node">
<title>value__node_7f5c3c783d30__a</title>
<polygon fill="#9673ff" fill-opacity="0.600000" stroke="transparent" stroke-width="1.5" points="278,-146 224,-146 224,-110 278,-110 278,-146"/>
<text text-anchor="middle" x="251" y="-124.3" font-family="Times,serif" font-size="14.00" fill="#0d0033">11</text>
</g>
<!-- node_7f5c3c783d30&#45;&gt;value__node_7f5c3c783d30__a -->
<g id="edge4" class="edge">
<title>node_7f5c3c783d30&#45;&gt;value__node_7f5c3c783d30__a</title>
<path fill="none" stroke="#3d1f99" stroke-opacity="0.800000" d="M313.29,-202.54C301.77,-188.94 282.37,-166.03 268.27,-149.39"/>
<ellipse fill="#3d1f99" fill-opacity="0.800000" stroke="#3d1f99" stroke-opacity="0.800000" cx="266.82" cy="-147.68" rx="2" ry="2"/>
<text text-anchor="middle" x="297" y="-167.8" font-family="Times-Roman bold" font-size="14.00" fill="#1d0073">a</text>
</g>
<!-- value__node_7f5c3c783d30__b -->
<g id="node8" class="node">
<title>value__node_7f5c3c783d30__b</title>
<polygon fill="#9673ff" fill-opacity="0.600000" stroke="transparent" stroke-width="1.5" points="350,-146 296,-146 296,-110 350,-110 350,-146"/>
<text text-anchor="middle" x="323" y="-124.3" font-family="Times,serif" font-size="14.00" fill="#0d0033">24</text>
</g>
<!-- node_7f5c3c783d30&#45;&gt;value__node_7f5c3c783d30__b -->
<g id="edge5" class="edge">
<title>node_7f5c3c783d30&#45;&gt;value__node_7f5c3c783d30__b</title>
<path fill="none" stroke="#3d1f99" stroke-opacity="0.800000" d="M323,-196.8C323,-183.43 323,-164.82 323,-150.48"/>
<ellipse fill="#3d1f99" fill-opacity="0.800000" stroke="#3d1f99" stroke-opacity="0.800000" cx="323" cy="-148.18" rx="2" ry="2"/>
<text text-anchor="middle" x="328" y="-167.8" font-family="Times-Roman bold" font-size="14.00" fill="#1d0073">b</text>
</g>
<!-- node_7f5c3c783c70 -->
<g id="node9" class="node">
<title>node_7f5c3c783c70</title>
<ellipse fill="#9673ff" fill-opacity="0.600000" stroke="#5b3eb2" stroke-width="1.5" stroke-opacity="0.600000" cx="399" cy="-128" rx="30.59" ry="18"/>
<text text-anchor="middle" x="399" y="-124.3" font-family="Times-Roman bold" font-size="14.00" fill="#0d0033">t2.x</text>
</g>
<!-- node_7f5c3c783d30&#45;&gt;node_7f5c3c783c70 -->
<g id="edge6" class="edge">
<title>node_7f5c3c783d30&#45;&gt;node_7f5c3c783c70</title>
<path fill="none" stroke="#3d1f99" stroke-opacity="0.800000" d="M332.94,-202.89C344.42,-190.05 363.62,-168.57 378.37,-152.08"/>
<polygon fill="#3d1f99" fill-opacity="0.800000" stroke="#3d1f99" stroke-opacity="0.800000" points="385.2,-144.44 381.89,-154.89 381.87,-148.16 378.53,-151.89 378.53,-151.89 378.53,-151.89 381.87,-148.16 375.18,-148.89 385.2,-144.44 385.2,-144.44"/>
<text text-anchor="middle" x="371" y="-167.8" font-family="Times-Roman bold" font-size="14.00" fill="#1d0073">x</text>
</g>
<!-- node_7f5c3c783df0 -->
<g id="node3" class="node">
<title>node_7f5c3c783df0</title>
<polygon fill="#ffad73" fill-opacity="0.600000" stroke="#b26f3e" stroke-width="3" stroke-opacity="0.600000" points="619,-233 588.83,-215 619,-197 649.17,-215 619,-233"/>
<text text-anchor="middle" x="619" y="-211.3" font-family="Times-Roman bold" font-size="14.00" fill="#331500">t3</text>
</g>
<!-- node_7f5c3c783e20 -->
<g id="node10" class="node">
<title>node_7f5c3c783e20</title>
<ellipse fill="#ffad73" fill-opacity="0.600000" stroke="#b26f3e" stroke-width="1.5" stroke-opacity="0.600000" cx="543" cy="-128" rx="30.59" ry="18"/>
<text text-anchor="middle" x="543" y="-124.3" font-family="Times-Roman bold" font-size="14.00" fill="#331500">t3.x</text>
</g>
<!-- node_7f5c3c783df0&#45;&gt;node_7f5c3c783e20 -->
<g id="edge7" class="edge">
<title>node_7f5c3c783df0&#45;&gt;node_7f5c3c783e20</title>
<path fill="none" stroke="#99521f" stroke-opacity="0.800000" d="M609.06,-202.89C597.58,-190.05 578.38,-168.57 563.63,-152.08"/>
<polygon fill="#99521f" fill-opacity="0.800000" stroke="#99521f" stroke-opacity="0.800000" points="556.8,-144.44 566.82,-148.89 560.13,-148.16 563.47,-151.89 563.47,-151.89 563.47,-151.89 560.13,-148.16 560.11,-154.89 556.8,-144.44 556.8,-144.44"/>
<text text-anchor="middle" x="591" y="-167.8" font-family="Times-Roman bold" font-size="14.00" fill="#733000">x</text>
</g>
<!-- value__node_7f5c3c783df0__b -->
<g id="node11" class="node">
<title>value__node_7f5c3c783df0__b</title>
<polygon fill="#ffad73" fill-opacity="0.600000" stroke="transparent" stroke-width="1.5" points="646,-146 592,-146 592,-110 646,-110 646,-146"/>
<text text-anchor="middle" x="619" y="-124.3" font-family="Times,serif" font-size="14.00" fill="#331500">26</text>
</g>
<!-- node_7f5c3c783df0&#45;&gt;value__node_7f5c3c783df0__b -->
<g id="edge8" class="edge">
<title>node_7f5c3c783df0&#45;&gt;value__node_7f5c3c783df0__b</title>
<path fill="none" stroke="#99521f" stroke-opacity="0.800000" d="M619,-196.8C619,-183.43 619,-164.82 619,-150.48"/>
<ellipse fill="#99521f" fill-opacity="0.800000" stroke="#99521f" stroke-opacity="0.800000" cx="619" cy="-148.18" rx="2" ry="2"/>
<text text-anchor="middle" x="624" y="-167.8" font-family="Times-Roman bold" font-size="14.00" fill="#733000">b</text>
</g>
<!-- value__node_7f5c3c783df0__a -->
<g id="node12" class="node">
<title>value__node_7f5c3c783df0__a</title>
<polygon fill="#ffad73" fill-opacity="0.600000" stroke="transparent" stroke-width="1.5" points="718,-146 664,-146 664,-110 718,-110 718,-146"/>
<text text-anchor="middle" x="691" y="-124.3" font-family="Times,serif" font-size="14.00" fill="#331500">12</text>
</g>
<!-- node_7f5c3c783df0&#45;&gt;value__node_7f5c3c783df0__a -->
<g id="edge9" class="edge">
<title>node_7f5c3c783df0&#45;&gt;value__node_7f5c3c783df0__a</title>
<path fill="none" stroke="#99521f" stroke-opacity="0.800000" d="M628.71,-202.54C640.23,-188.94 659.63,-166.03 673.73,-149.39"/>
<ellipse fill="#99521f" fill-opacity="0.800000" stroke="#99521f" stroke-opacity="0.800000" cx="675.18" cy="-147.68" rx="2" ry="2"/>
<text text-anchor="middle" x="664" y="-167.8" font-family="Times-Roman bold" font-size="14.00" fill="#733000">a</text>
</g>
<!-- value__node_7f5c3c783cd0__c -->
<g id="node13" class="node">
<title>value__node_7f5c3c783cd0__c</title>
<polygon fill="#73ff7e" fill-opacity="0.600000" stroke="transparent" stroke-width="1.5" points="166,-59 112,-59 112,-23 166,-23 166,-59"/>
<text text-anchor="middle" x="139" y="-37.3" font-family="Times,serif" font-size="14.00" fill="#003304">3</text>
</g>
<!-- node_7f5c3c783cd0&#45;&gt;value__node_7f5c3c783cd0__c -->
<g id="edge10" class="edge">
<title>node_7f5c3c783cd0&#45;&gt;value__node_7f5c3c783cd0__c</title>
<path fill="none" stroke="#1f9929" stroke-opacity="0.800000" d="M167.89,-110.21C162.16,-96.67 154.07,-77.57 147.9,-63.02"/>
<ellipse fill="#1f9929" fill-opacity="0.800000" stroke="#1f9929" stroke-opacity="0.800000" cx="147" cy="-60.89" rx="2" ry="2"/>
<text text-anchor="middle" x="164.5" y="-80.8" font-family="Times-Roman bold" font-size="14.00" fill="#00730a">c</text>
</g>
<!-- value__node_7f5c3c783cd0__d -->
<g id="node14" class="node">
<title>value__node_7f5c3c783cd0__d</title>
<polygon fill="#73ff7e" fill-opacity="0.600000" stroke="transparent" stroke-width="1.5" points="238,-59 184,-59 184,-23 238,-23 238,-59"/>
<text text-anchor="middle" x="211" y="-37.3" font-family="Times,serif" font-size="14.00" fill="#003304">4</text>
</g>
<!-- node_7f5c3c783cd0&#45;&gt;value__node_7f5c3c783cd0__d -->
<g id="edge11" class="edge">
<title>node_7f5c3c783cd0&#45;&gt;value__node_7f5c3c783cd0__d</title>
<path fill="none" stroke="#1f9929" stroke-opacity="0.800000" d="M182.11,-110.21C187.84,-96.67 195.93,-77.57 202.1,-63.02"/>
<ellipse fill="#1f9929" fill-opacity="0.800000" stroke="#1f9929" stroke-opacity="0.800000" cx="203" cy="-60.89" rx="2" ry="2"/>
<text text-anchor="middle" x="201" y="-80.8" font-family="Times-Roman bold" font-size="14.00" fill="#00730a">d</text>
</g>
<!-- value__node_7f5c3c783c70__c -->
<g id="node15" class="node">
<title>value__node_7f5c3c783c70__c</title>
<polygon fill="#9673ff" fill-opacity="0.600000" stroke="transparent" stroke-width="1.5" points="390,-59 336,-59 336,-23 390,-23 390,-59"/>
<text text-anchor="middle" x="363" y="-37.3" font-family="Times,serif" font-size="14.00" fill="#0d0033">30</text>
</g>
<!-- node_7f5c3c783c70&#45;&gt;value__node_7f5c3c783c70__c -->
<g id="edge12" class="edge">
<title>node_7f5c3c783c70&#45;&gt;value__node_7f5c3c783c70__c</title>
<path fill="none" stroke="#3d1f99" stroke-opacity="0.800000" d="M391.89,-110.21C386.16,-96.67 378.07,-77.57 371.9,-63.02"/>
<ellipse fill="#3d1f99" fill-opacity="0.800000" stroke="#3d1f99" stroke-opacity="0.800000" cx="371" cy="-60.89" rx="2" ry="2"/>
<text text-anchor="middle" x="388.5" y="-80.8" font-family="Times-Roman bold" font-size="14.00" fill="#1d0073">c</text>
</g>
<!-- value__node_7f5c3c783c70__d -->
<g id="node16" class="node">
<title>value__node_7f5c3c783c70__d</title>
<polygon fill="#9673ff" fill-opacity="0.600000" stroke="transparent" stroke-width="1.5" points="462,-59 408,-59 408,-23 462,-23 462,-59"/>
<text text-anchor="middle" x="435" y="-37.3" font-family="Times,serif" font-size="14.00" fill="#0d0033">47</text>
</g>
<!-- node_7f5c3c783c70&#45;&gt;value__node_7f5c3c783c70__d -->
<g id="edge13" class="edge">
<title>node_7f5c3c783c70&#45;&gt;value__node_7f5c3c783c70__d</title>
<path fill="none" stroke="#3d1f99" stroke-opacity="0.800000" d="M406.11,-110.21C411.84,-96.67 419.93,-77.57 426.1,-63.02"/>
<ellipse fill="#3d1f99" fill-opacity="0.800000" stroke="#3d1f99" stroke-opacity="0.800000" cx="427" cy="-60.89" rx="2" ry="2"/>
<text text-anchor="middle" x="425" y="-80.8" font-family="Times-Roman bold" font-size="14.00" fill="#1d0073">d</text>
</g>
<!-- value__node_7f5c3c783e20__d -->
<g id="node17" class="node">
<title>value__node_7f5c3c783e20__d</title>
<polygon fill="#ffad73" fill-opacity="0.600000" stroke="transparent" stroke-width="1.5" points="534,-59 480,-59 480,-23 534,-23 534,-59"/>
<text text-anchor="middle" x="507" y="-37.3" font-family="Times,serif" font-size="14.00" fill="#331500">51</text>
</g>
<!-- node_7f5c3c783e20&#45;&gt;value__node_7f5c3c783e20__d -->
<g id="edge14" class="edge">
<title>node_7f5c3c783e20&#45;&gt;value__node_7f5c3c783e20__d</title>
<path fill="none" stroke="#99521f" stroke-opacity="0.800000" d="M535.89,-110.21C530.16,-96.67 522.07,-77.57 515.9,-63.02"/>
<ellipse fill="#99521f" fill-opacity="0.800000" stroke="#99521f" stroke-opacity="0.800000" cx="515" cy="-60.89" rx="2" ry="2"/>
<text text-anchor="middle" x="533" y="-80.8" font-family="Times-Roman bold" font-size="14.00" fill="#733000">d</text>
</g>
<!-- value__node_7f5c3c783e20__c -->
<g id="node18" class="node">
<title>value__node_7f5c3c783e20__c</title>
<polygon fill="#ffad73" fill-opacity="0.600000" stroke="transparent" stroke-width="1.5" points="606,-59 552,-59 552,-23 606,-23 606,-59"/>
<text text-anchor="middle" x="579" y="-37.3" font-family="Times,serif" font-size="14.00" fill="#331500">33</text>
</g>
<!-- node_7f5c3c783e20&#45;&gt;value__node_7f5c3c783e20__c -->
<g id="edge15" class="edge">
<title>node_7f5c3c783e20&#45;&gt;value__node_7f5c3c783e20__c</title>
<path fill="none" stroke="#99521f" stroke-opacity="0.800000" d="M550.11,-110.21C555.84,-96.67 563.93,-77.57 570.1,-63.02"/>
<ellipse fill="#99521f" fill-opacity="0.800000" stroke="#99521f" stroke-opacity="0.800000" cx="571" cy="-60.89" rx="2" ry="2"/>
<text text-anchor="middle" x="568.5" y="-80.8" font-family="Times-Roman bold" font-size="14.00" fill="#733000">c</text>
</g>
</g>
</svg>
