<?xml version="1.0" encoding="UTF-8" standalone="no"?>
<!DOCTYPE svg PUBLIC "-//W3C//DTD SVG 1.1//EN"
 "http://www.w3.org/Graphics/SVG/1.1/DTD/svg11.dtd">
<!-- Generated by graphviz version 2.43.0 (0)
 -->
<!-- Title: complex_demo_of_build_graph Pages: 1 -->
<svg width="453pt" height="241pt"
 viewBox="0.00 0.00 452.55 241.00" xmlns="http://www.w3.org/2000/svg" xmlns:xlink="http://www.w3.org/1999/xlink">
<g id="graph0" class="graph" transform="scale(1 1) rotate(0) translate(4 237)">
<title>complex_demo_of_build_graph</title>
<polygon fill="white" stroke="transparent" points="-4,4 -4,-237 448.55,-237 448.55,4 -4,4"/>
<text text-anchor="middle" x="222.27" y="-7.8" font-family="Times,serif" font-size="14.00">Complex demo of build_graph.</text>
<!-- node_7f16d29621c0 -->
<g id="node1" class="node">
<title>node_7f16d29621c0</title>
<ellipse fill="none" stroke="black" cx="99" cy="-215" rx="27" ry="18"/>
<text text-anchor="middle" x="99" y="-211.3" font-family="Times,serif" font-size="14.00">t1</text>
</g>
<!-- node_7f16d29621c0__a -->
<g id="node3" class="node">
<title>node_7f16d29621c0__a</title>
<ellipse fill="none" stroke="black" cx="27" cy="-128" rx="27" ry="18"/>
<text text-anchor="middle" x="27" y="-124.3" font-family="Times,serif" font-size="14.00">1</text>
</g>
<!-- node_7f16d29621c0&#45;&gt;node_7f16d29621c0__a -->
<g id="edge1" class="edge">
<title>node_7f16d29621c0&#45;&gt;node_7f16d29621c0__a</title>
<path fill="none" stroke="black" d="M86.13,-198.8C75.07,-185.75 58.96,-166.74 46.35,-151.85"/>
<polygon fill="black" stroke="black" points="48.89,-149.43 39.76,-144.06 43.55,-153.96 48.89,-149.43"/>
<text text-anchor="middle" x="72.5" y="-167.8" font-family="Times,serif" font-size="14.00">a</text>
</g>
<!-- node_7f16d29621c0__b -->
<g id="node4" class="node">
<title>node_7f16d29621c0__b</title>
<ellipse fill="none" stroke="black" cx="99" cy="-128" rx="27" ry="18"/>
<text text-anchor="middle" x="99" y="-124.3" font-family="Times,serif" font-size="14.00">2</text>
</g>
<!-- node_7f16d29621c0&#45;&gt;node_7f16d29621c0__b -->
<g id="edge2" class="edge">
<title>node_7f16d29621c0&#45;&gt;node_7f16d29621c0__b</title>
<path fill="none" stroke="black" d="M99,-196.8C99,-185.16 99,-169.55 99,-156.24"/>
<polygon fill="black" stroke="black" points="102.5,-156.18 99,-146.18 95.5,-156.18 102.5,-156.18"/>
<text text-anchor="middle" x="104" y="-167.8" font-family="Times,serif" font-size="14.00">b</text>
</g>
<!-- node_7f16d2962180 -->
<g id="node5" class="node">
<title>node_7f16d2962180</title>
<ellipse fill="none" stroke="black" cx="173" cy="-128" rx="28.7" ry="18"/>
<text text-anchor="middle" x="173" y="-124.3" font-family="Times,serif" font-size="14.00">t1.x</text>
</g>
<!-- node_7f16d29621c0&#45;&gt;node_7f16d2962180 -->
<g id="edge3" class="edge">
<title>node_7f16d29621c0&#45;&gt;node_7f16d2962180</title>
<path fill="none" stroke="black" d="M112.23,-198.8C123.59,-185.75 140.15,-166.74 153.11,-151.85"/>
<polygon fill="black" stroke="black" points="155.96,-153.91 159.88,-144.06 150.68,-149.31 155.96,-153.91"/>
<text text-anchor="middle" x="145.5" y="-167.8" font-family="Times,serif" font-size="14.00">x</text>
</g>
<!-- node_7f16d1f40400 -->
<g id="node2" class="node">
<title>node_7f16d1f40400</title>
<ellipse fill="none" stroke="black" cx="247" cy="-215" rx="27" ry="18"/>
<text text-anchor="middle" x="247" y="-211.3" font-family="Times,serif" font-size="14.00">t2</text>
</g>
<!-- node_7f16d1f40400&#45;&gt;node_7f16d2962180 -->
<g id="edge5" class="edge">
<title>node_7f16d1f40400&#45;&gt;node_7f16d2962180</title>
<path fill="none" stroke="black" d="M233.77,-198.8C222.41,-185.75 205.85,-166.74 192.89,-151.85"/>
<polygon fill="black" stroke="black" points="195.32,-149.31 186.12,-144.06 190.04,-153.91 195.32,-149.31"/>
<text text-anchor="middle" x="219.5" y="-167.8" font-family="Times,serif" font-size="14.00">y</text>
</g>
<!-- node_7f16d1f40400__f -->
<g id="node6" class="node">
<title>node_7f16d1f40400__f</title>
<ellipse fill="none" stroke="black" cx="247" cy="-128" rx="27" ry="18"/>
<text text-anchor="middle" x="247" y="-124.3" font-family="Times,serif" font-size="14.00">4</text>
</g>
<!-- node_7f16d1f40400&#45;&gt;node_7f16d1f40400__f -->
<g id="edge4" class="edge">
<title>node_7f16d1f40400&#45;&gt;node_7f16d1f40400__f</title>
<path fill="none" stroke="black" d="M247,-196.8C247,-185.16 247,-169.55 247,-156.24"/>
<polygon fill="black" stroke="black" points="250.5,-156.18 247,-146.18 243.5,-156.18 250.5,-156.18"/>
<text text-anchor="middle" x="250" y="-167.8" font-family="Times,serif" font-size="14.00">f</text>
</g>
<!-- node_7f16d2962300 -->
<g id="node7" class="node">
<title>node_7f16d2962300</title>
<ellipse fill="none" stroke="black" cx="321" cy="-128" rx="28.7" ry="18"/>
<text text-anchor="middle" x="321" y="-124.3" font-family="Times,serif" font-size="14.00">t2.z</text>
</g>
<!-- node_7f16d1f40400&#45;&gt;node_7f16d2962300 -->
<g id="edge6" class="edge">
<title>node_7f16d1f40400&#45;&gt;node_7f16d2962300</title>
<path fill="none" stroke="black" d="M260.23,-198.8C271.59,-185.75 288.15,-166.74 301.11,-151.85"/>
<polygon fill="black" stroke="black" points="303.96,-153.91 307.88,-144.06 298.68,-149.31 303.96,-153.91"/>
<text text-anchor="middle" x="293" y="-167.8" font-family="Times,serif" font-size="14.00">z</text>
</g>
<!-- node_7f16d2962180__c -->
<g id="node8" class="node">
<title>node_7f16d2962180__c</title>
<ellipse fill="none" stroke="black" cx="118" cy="-41" rx="27" ry="18"/>
<text text-anchor="middle" x="118" y="-37.3" font-family="Times,serif" font-size="14.00">3</text>
</g>
<!-- node_7f16d2962180&#45;&gt;node_7f16d2962180__c -->
<g id="edge7" class="edge">
<title>node_7f16d2962180&#45;&gt;node_7f16d2962180__c</title>
<path fill="none" stroke="black" d="M162.65,-111.01C154.51,-98.43 143.03,-80.68 133.74,-66.33"/>
<polygon fill="black" stroke="black" points="136.67,-64.41 128.3,-57.92 130.79,-68.21 136.67,-64.41"/>
<text text-anchor="middle" x="153" y="-80.8" font-family="Times,serif" font-size="14.00">c</text>
</g>
<!-- node_7f16d2962180__d -->
<g id="node9" class="node">
<title>node_7f16d2962180__d</title>
<ellipse fill="none" stroke="black" cx="190" cy="-41" rx="27" ry="18"/>
<text text-anchor="middle" x="190" y="-37.3" font-family="Times,serif" font-size="14.00">4</text>
</g>
<!-- node_7f16d2962180&#45;&gt;node_7f16d2962180__d -->
<g id="edge8" class="edge">
<title>node_7f16d2962180&#45;&gt;node_7f16d2962180__d</title>
<path fill="none" stroke="black" d="M176.44,-109.8C178.78,-98.09 181.93,-82.34 184.61,-68.97"/>
<polygon fill="black" stroke="black" points="188.09,-69.38 186.62,-58.89 181.23,-68 188.09,-69.38"/>
<text text-anchor="middle" x="188" y="-80.8" font-family="Times,serif" font-size="14.00">d</text>
</g>
<!-- node_7f16d2962300__e -->
<g id="node10" class="node">
<title>node_7f16d2962300__e</title>
<ellipse fill="none" stroke="black" cx="304" cy="-41" rx="35.19" ry="18"/>
<text text-anchor="middle" x="304" y="-37.3" font-family="Times,serif" font-size="14.00">[5, 7]</text>
</g>
<!-- node_7f16d2962300&#45;&gt;node_7f16d2962300__e -->
<g id="edge9" class="edge">
<title>node_7f16d2962300&#45;&gt;node_7f16d2962300__e</title>
<path fill="none" stroke="black" d="M317.56,-109.8C315.23,-98.16 312.11,-82.55 309.45,-69.24"/>
<polygon fill="black" stroke="black" points="312.83,-68.29 307.44,-59.18 305.96,-69.67 312.83,-68.29"/>
<text text-anchor="middle" x="318.5" y="-80.8" font-family="Times,serif" font-size="14.00">e</text>
</g>
<!-- node_7f16d2962300__f -->
<g id="node11" class="node">
<title>node_7f16d2962300__f</title>
<ellipse fill="none" stroke="black" cx="401" cy="-41" rx="43.59" ry="18"/>
<text text-anchor="middle" x="401" y="-37.3" font-family="Times,serif" font-size="14.00">&#39;string&#39;</text>
</g>
<!-- node_7f16d2962300&#45;&gt;node_7f16d2962300__f -->
<g id="edge10" class="edge">
<title>node_7f16d2962300&#45;&gt;node_7f16d2962300__f</title>
<path fill="none" stroke="black" d="M334.93,-112.19C347.06,-99.31 364.84,-80.42 378.9,-65.48"/>
<polygon fill="black" stroke="black" points="381.56,-67.76 385.86,-58.08 376.46,-62.96 381.56,-67.76"/>
<text text-anchor="middle" x="369" y="-80.8" font-family="Times,serif" font-size="14.00">f</text>
</g>
</g>
</svg>
