<?xml version="1.0" encoding="UTF-8" standalone="no"?>
<!DOCTYPE svg PUBLIC "-//W3C//DTD SVG 1.1//EN"
 "http://www.w3.org/Graphics/SVG/1.1/DTD/svg11.dtd">
<!-- Generated by graphviz version 2.43.0 (0)
 -->
<!-- Title: graph_with_3_tree_s_t1_t2_t3 Pages: 1 -->
<svg width="662pt" height="241pt"
 viewBox="0.00 0.00 662.00 241.00" xmlns="http://www.w3.org/2000/svg" xmlns:xlink="http://www.w3.org/1999/xlink">
<g id="graph0" class="graph" transform="scale(1 1) rotate(0) translate(4 237)">
<title>graph_with_3_tree_s_t1_t2_t3</title>
<polygon fill="white" stroke="transparent" points="-4,4 -4,-237 658,-237 658,4 -4,4"/>
<text text-anchor="middle" x="327" y="-7.8" font-family="Times,serif" font-size="14.00">Graph with 3 tree(s) &#45; t1, t2, t3.</text>
<!-- node_7ffac71e5c40 -->
<g id="node1" class="node">
<title>node_7ffac71e5c40</title>
<polygon fill="#73ff7e" fill-opacity="0.600000" stroke="#3eb248" stroke-width="3" stroke-opacity="0.600000" points="99,-233 68.83,-215 99,-197 129.17,-215 99,-233"/>
<text text-anchor="middle" x="99" y="-211.3" font-family="Times-Roman bold" font-size="14.00" fill="#003304">t1</text>
</g>
<!-- value__node_7ffac71e5c40__a -->
<g id="node4" class="node">
<title>value__node_7ffac71e5c40__a</title>
<polygon fill="#73ff7e" fill-opacity="0.600000" stroke="transparent" stroke-width="1.5" points="54,-146 0,-146 0,-110 54,-110 54,-146"/>
<text text-anchor="middle" x="27" y="-124.3" font-family="Times,serif" font-size="14.00" fill="#003304">1</text>
</g>
<!-- node_7ffac71e5c40&#45;&gt;value__node_7ffac71e5c40__a -->
<g id="edge1" class="edge">
<title>node_7ffac71e5c40&#45;&gt;value__node_7ffac71e5c40__a</title>
<path fill="none" stroke="#1f9929" stroke-opacity="0.800000" d="M89.29,-202.54C77.77,-188.94 58.37,-166.03 44.27,-149.39"/>
<ellipse fill="#1f9929" fill-opacity="0.800000" stroke="#1f9929" stroke-opacity="0.800000" cx="42.82" cy="-147.68" rx="2" ry="2"/>
<text text-anchor="middle" x="73" y="-167.8" font-family="Times-Roman bold" font-size="14.00" fill="#00730a">a</text>
</g>
<!-- value__node_7ffac71e5c40__b -->
<g id="node5" class="node">
<title>value__node_7ffac71e5c40__b</title>
<polygon fill="#73ff7e" fill-opacity="0.600000" stroke="transparent" stroke-width="1.5" points="126,-146 72,-146 72,-110 126,-110 126,-146"/>
<text text-anchor="middle" x="99" y="-124.3" font-family="Times,serif" font-size="14.00" fill="#003304">2</text>
</g>
<!-- node_7ffac71e5c40&#45;&gt;value__node_7ffac71e5c40__b -->
<g id="edge2" class="edge">
<title>node_7ffac71e5c40&#45;&gt;value__node_7ffac71e5c40__b</title>
<path fill="none" stroke="#1f9929" stroke-opacity="0.800000" d="M99,-196.8C99,-183.43 99,-164.82 99,-150.48"/>
<ellipse fill="#1f9929" fill-opacity="0.800000" stroke="#1f9929" stroke-opacity="0.800000" cx="99" cy="-148.18" rx="2" ry="2"/>
<text text-anchor="middle" x="104" y="-167.8" font-family="Times-Roman bold" font-size="14.00" fill="#00730a">b</text>
</g>
<!-- node_7ffac71e5c70 -->
<g id="node6" class="node">
<title>node_7ffac71e5c70</title>
<ellipse fill="#73ff7e" fill-opacity="0.600000" stroke="#3eb248" stroke-width="1.5" stroke-opacity="0.600000" cx="175" cy="-128" rx="30.59" ry="18"/>
<text text-anchor="middle" x="175" y="-124.3" font-family="Times-Roman bold" font-size="14.00" fill="#003304">t1.x</text>
</g>
<!-- node_7ffac71e5c40&#45;&gt;node_7ffac71e5c70 -->
<g id="edge3" class="edge">
<title>node_7ffac71e5c40&#45;&gt;node_7ffac71e5c70</title>
<path fill="none" stroke="#1f9929" stroke-opacity="0.800000" d="M108.94,-202.89C120.42,-190.05 139.62,-168.57 154.37,-152.08"/>
<polygon fill="#1f9929" fill-opacity="0.800000" stroke="#1f9929" stroke-opacity="0.800000" points="161.2,-144.44 157.89,-154.89 157.87,-148.16 154.53,-151.89 154.53,-151.89 154.53,-151.89 157.87,-148.16 151.18,-148.89 161.2,-144.44 161.2,-144.44"/>
<text text-anchor="middle" x="147" y="-167.8" font-family="Times-Roman bold" font-size="14.00" fill="#00730a">x</text>
</g>
<!-- node_7ffac71e5cd0 -->
<g id="node2" class="node">
<title>node_7ffac71e5cd0</title>
<polygon fill="#9673ff" fill-opacity="0.600000" stroke="#5b3eb2" stroke-width="3" stroke-opacity="0.600000" points="323,-233 292.83,-215 323,-197 353.17,-215 323,-233"/>
<text text-anchor="middle" x="323" y="-211.3" font-family="Times-Roman bold" font-size="14.00" fill="#0d0033">t2</text>
</g>
<!-- value__node_7ffac71e5cd0__a -->
<g id="node7" class="node">
<title>value__node_7ffac71e5cd0__a</title>
<polygon fill="#9673ff" fill-opacity="0.600000" stroke="transparent" stroke-width="1.5" points="278,-146 224,-146 224,-110 278,-110 278,-146"/>
<text text-anchor="middle" x="251" y="-124.3" font-family="Times,serif" font-size="14.00" fill="#0d0033">11</text>
</g>
<!-- node_7ffac71e5cd0&#45;&gt;value__node_7ffac71e5cd0__a -->
<g id="edge4" class="edge">
<title>node_7ffac71e5cd0&#45;&gt;value__node_7ffac71e5cd0__a</title>
<path fill="none" stroke="#3d1f99" stroke-opacity="0.800000" d="M313.29,-202.54C301.77,-188.94 282.37,-166.03 268.27,-149.39"/>
<ellipse fill="#3d1f99" fill-opacity="0.800000" stroke="#3d1f99" stroke-opacity="0.800000" cx="266.82" cy="-147.68" rx="2" ry="2"/>
<text text-anchor="middle" x="297" y="-167.8" font-family="Times-Roman bold" font-size="14.00" fill="#1d0073">a</text>
</g>
<!-- value__node_7ffac71e5cd0__b -->
<g id="node8" class="node">
<title>value__node_7ffac71e5cd0__b</title>
<polygon fill="#9673ff" fill-opacity="0.600000" stroke="transparent" stroke-width="1.5" points="350,-146 296,-146 296,-110 350,-110 350,-146"/>
<text text-anchor="middle" x="323" y="-124.3" font-family="Times,serif" font-size="14.00" fill="#0d0033">24</text>
</g>
<!-- node_7ffac71e5cd0&#45;&gt;value__node_7ffac71e5cd0__b -->
<g id="edge5" class="edge">
<title>node_7ffac71e5cd0&#45;&gt;value__node_7ffac71e5cd0__b</title>
<path fill="none" stroke="#3d1f99" stroke-opacity="0.800000" d="M323,-196.8C323,-183.43 323,-164.82 323,-150.48"/>
<ellipse fill="#3d1f99" fill-opacity="0.800000" stroke="#3d1f99" stroke-opacity="0.800000" cx="323" cy="-148.18" rx="2" ry="2"/>
<text text-anchor="middle" x="328" y="-167.8" font-family="Times-Roman bold" font-size="14.00" fill="#1d0073">b</text>
</g>
<!-- node_7ffac71e5c10 -->
<g id="node9" class="node">
<title>node_7ffac71e5c10</title>
<ellipse fill="#9673ff" fill-opacity="0.600000" stroke="#5b3eb2" stroke-width="1.5" stroke-opacity="0.600000" cx="399" cy="-128" rx="30.59" ry="18"/>
<text text-anchor="middle" x="399" y="-124.3" font-family="Times-Roman bold" font-size="14.00" fill="#0d0033">t2.x</text>
</g>
<!-- node_7ffac71e5cd0&#45;&gt;node_7ffac71e5c10 -->
<g id="edge6" class="edge">
<title>node_7ffac71e5cd0&#45;&gt;node_7ffac71e5c10</title>
<path fill="none" stroke="#3d1f99" stroke-opacity="0.800000" d="M332.94,-202.89C344.42,-190.05 363.62,-168.57 378.37,-152.08"/>
<polygon fill="#3d1f99" fill-opacity="0.800000" stroke="#3d1f99" stroke-opacity="0.800000" points="385.2,-144.44 381.89,-154.89 381.87,-148.16 378.53,-151.89 378.53,-151.89 378.53,-151.89 381.87,-148.16 375.18,-148.89 385.2,-144.44 385.2,-144.44"/>
<text text-anchor="middle" x="371" y="-167.8" font-family="Times-Roman bold" font-size="14.00" fill="#1d0073">x</text>
</g>
<!-- node_7ffac71e5d90 -->
<g id="node3" class="node">
<title>node_7ffac71e5d90</title>
<polygon fill="#ffad73" fill-opacity="0.600000" stroke="#b26f3e" stroke-width="3" stroke-opacity="0.600000" points="551,-233 520.83,-215 551,-197 581.17,-215 551,-233"/>
<text text-anchor="middle" x="551" y="-211.3" font-family="Times-Roman bold" font-size="14.00" fill="#331500">t3</text>
</g>
<!-- value__node_7ffac71e5d90__b -->
<g id="node10" class="node">
<title>value__node_7ffac71e5d90__b</title>
<polygon fill="#ffad73" fill-opacity="0.600000" stroke="transparent" stroke-width="1.5" points="502,-146 448,-146 448,-110 502,-110 502,-146"/>
<text text-anchor="middle" x="475" y="-124.3" font-family="Times,serif" font-size="14.00" fill="#331500">26</text>
</g>
<!-- node_7ffac71e5d90&#45;&gt;value__node_7ffac71e5d90__b -->
<g id="edge7" class="edge">
<title>node_7ffac71e5d90&#45;&gt;value__node_7ffac71e5d90__b</title>
<path fill="none" stroke="#99521f" stroke-opacity="0.800000" d="M541.06,-202.89C528.99,-189.39 508.39,-166.34 493.39,-149.57"/>
<ellipse fill="#99521f" fill-opacity="0.800000" stroke="#99521f" stroke-opacity="0.800000" cx="491.8" cy="-147.79" rx="2" ry="2"/>
<text text-anchor="middle" x="523" y="-167.8" font-family="Times-Roman bold" font-size="14.00" fill="#733000">b</text>
</g>
<!-- node_7ffac71e5dc0 -->
<g id="node11" class="node">
<title>node_7ffac71e5dc0</title>
<ellipse fill="#ffad73" fill-opacity="0.600000" stroke="#b26f3e" stroke-width="1.5" stroke-opacity="0.600000" cx="551" cy="-128" rx="30.59" ry="18"/>
<text text-anchor="middle" x="551" y="-124.3" font-family="Times-Roman bold" font-size="14.00" fill="#331500">t3.x</text>
</g>
<!-- node_7ffac71e5d90&#45;&gt;node_7ffac71e5dc0 -->
<g id="edge8" class="edge">
<title>node_7ffac71e5d90&#45;&gt;node_7ffac71e5dc0</title>
<path fill="none" stroke="#99521f" stroke-opacity="0.800000" d="M551,-196.8C551,-185.16 551,-169.55 551,-156.24"/>
<polygon fill="#99521f" fill-opacity="0.800000" stroke="#99521f" stroke-opacity="0.800000" points="551,-146.18 555.5,-156.18 551,-151.18 551,-156.18 551,-156.18 551,-156.18 551,-151.18 546.5,-156.18 551,-146.18 551,-146.18"/>
<text text-anchor="middle" x="556" y="-167.8" font-family="Times-Roman bold" font-size="14.00" fill="#733000">x</text>
</g>
<!-- value__node_7ffac71e5d90__a -->
<g id="node12" class="node">
<title>value__node_7ffac71e5d90__a</title>
<polygon fill="#ffad73" fill-opacity="0.600000" stroke="transparent" stroke-width="1.5" points="654,-146 600,-146 600,-110 654,-110 654,-146"/>
<text text-anchor="middle" x="627" y="-124.3" font-family="Times,serif" font-size="14.00" fill="#331500">12</text>
</g>
<!-- node_7ffac71e5d90&#45;&gt;value__node_7ffac71e5d90__a -->
<g id="edge9" class="edge">
<title>node_7ffac71e5d90&#45;&gt;value__node_7ffac71e5d90__a</title>
<path fill="none" stroke="#99521f" stroke-opacity="0.800000" d="M560.94,-202.89C573.01,-189.39 593.61,-166.34 608.61,-149.57"/>
<ellipse fill="#99521f" fill-opacity="0.800000" stroke="#99521f" stroke-opacity="0.800000" cx="610.2" cy="-147.79" rx="2" ry="2"/>
<text text-anchor="middle" x="599" y="-167.8" font-family="Times-Roman bold" font-size="14.00" fill="#733000">a</text>
</g>
<!-- value__node_7ffac71e5c70__c -->
<g id="node13" class="node">
<title>value__node_7ffac71e5c70__c</title>
<polygon fill="#73ff7e" fill-opacity="0.600000" stroke="transparent" stroke-width="1.5" points="166,-59 112,-59 112,-23 166,-23 166,-59"/>
<text text-anchor="middle" x="139" y="-37.3" font-family="Times,serif" font-size="14.00" fill="#003304">3</text>
</g>
<!-- node_7ffac71e5c70&#45;&gt;value__node_7ffac71e5c70__c -->
<g id="edge10" class="edge">
<title>node_7ffac71e5c70&#45;&gt;value__node_7ffac71e5c70__c</title>
<path fill="none" stroke="#1f9929" stroke-opacity="0.800000" d="M167.89,-110.21C162.16,-96.67 154.07,-77.57 147.9,-63.02"/>
<ellipse fill="#1f9929" fill-opacity="0.800000" stroke="#1f9929" stroke-opacity="0.800000" cx="147" cy="-60.89" rx="2" ry="2"/>
<text text-anchor="middle" x="164.5" y="-80.8" font-family="Times-Roman bold" font-size="14.00" fill="#00730a">c</text>
</g>
<!-- value__node_7ffac71e5c70__d -->
<g id="node14" class="node">
<title>value__node_7ffac71e5c70__d</title>
<polygon fill="#73ff7e" fill-opacity="0.600000" stroke="transparent" stroke-width="1.5" points="238,-59 184,-59 184,-23 238,-23 238,-59"/>
<text text-anchor="middle" x="211" y="-37.3" font-family="Times,serif" font-size="14.00" fill="#003304">4</text>
</g>
<!-- node_7ffac71e5c70&#45;&gt;value__node_7ffac71e5c70__d -->
<g id="edge11" class="edge">
<title>node_7ffac71e5c70&#45;&gt;value__node_7ffac71e5c70__d</title>
<path fill="none" stroke="#1f9929" stroke-opacity="0.800000" d="M182.11,-110.21C187.84,-96.67 195.93,-77.57 202.1,-63.02"/>
<ellipse fill="#1f9929" fill-opacity="0.800000" stroke="#1f9929" stroke-opacity="0.800000" cx="203" cy="-60.89" rx="2" ry="2"/>
<text text-anchor="middle" x="201" y="-80.8" font-family="Times-Roman bold" font-size="14.00" fill="#00730a">d</text>
</g>
<!-- value__node_7ffac71e5c10__c -->
<g id="node15" class="node">
<title>value__node_7ffac71e5c10__c</title>
<polygon fill="#9673ff" fill-opacity="0.600000" stroke="transparent" stroke-width="1.5" points="358,-59 304,-59 304,-23 358,-23 358,-59"/>
<text text-anchor="middle" x="331" y="-37.3" font-family="Times,serif" font-size="14.00" fill="#0d0033">30</text>
</g>
<!-- node_7ffac71e5c10&#45;&gt;value__node_7ffac71e5c10__c -->
<g id="edge12" class="edge">
<title>node_7ffac71e5c10&#45;&gt;value__node_7ffac71e5c10__c</title>
<path fill="none" stroke="#3d1f99" stroke-opacity="0.800000" d="M386.53,-111.41C375.55,-97.69 359.48,-77.6 347.45,-62.57"/>
<ellipse fill="#3d1f99" fill-opacity="0.800000" stroke="#3d1f99" stroke-opacity="0.800000" cx="346.05" cy="-60.81" rx="2" ry="2"/>
<text text-anchor="middle" x="374.5" y="-80.8" font-family="Times-Roman bold" font-size="14.00" fill="#1d0073">c</text>
</g>
<!-- value__node_7ffac71e5c10__d -->
<g id="node16" class="node">
<title>value__node_7ffac71e5c10__d</title>
<polygon fill="#9673ff" fill-opacity="0.600000" stroke="transparent" stroke-width="1.5" points="430,-59 376,-59 376,-23 430,-23 430,-59"/>
<text text-anchor="middle" x="403" y="-37.3" font-family="Times,serif" font-size="14.00" fill="#0d0033">47</text>
</g>
<!-- node_7ffac71e5c10&#45;&gt;value__node_7ffac71e5c10__d -->
<g id="edge13" class="edge">
<title>node_7ffac71e5c10&#45;&gt;value__node_7ffac71e5c10__d</title>
<path fill="none" stroke="#3d1f99" stroke-opacity="0.800000" d="M399.81,-109.8C400.44,-96.43 401.31,-77.82 401.99,-63.48"/>
<ellipse fill="#3d1f99" fill-opacity="0.800000" stroke="#3d1f99" stroke-opacity="0.800000" cx="402.1" cy="-61.17" rx="2" ry="2"/>
<text text-anchor="middle" x="407" y="-80.8" font-family="Times-Roman bold" font-size="14.00" fill="#1d0073">d</text>
</g>
<!-- value__node_7ffac71e5dc0__d -->
<g id="node17" class="node">
<title>value__node_7ffac71e5dc0__d</title>
<polygon fill="#ffad73" fill-opacity="0.600000" stroke="transparent" stroke-width="1.5" points="542,-59 488,-59 488,-23 542,-23 542,-59"/>
<text text-anchor="middle" x="515" y="-37.3" font-family="Times,serif" font-size="14.00" fill="#331500">51</text>
</g>
<!-- node_7ffac71e5dc0&#45;&gt;value__node_7ffac71e5dc0__d -->
<g id="edge14" class="edge">
<title>node_7ffac71e5dc0&#45;&gt;value__node_7ffac71e5dc0__d</title>
<path fill="none" stroke="#99521f" stroke-opacity="0.800000" d="M543.89,-110.21C538.16,-96.67 530.07,-77.57 523.9,-63.02"/>
<ellipse fill="#99521f" fill-opacity="0.800000" stroke="#99521f" stroke-opacity="0.800000" cx="523" cy="-60.89" rx="2" ry="2"/>
<text text-anchor="middle" x="541" y="-80.8" font-family="Times-Roman bold" font-size="14.00" fill="#733000">d</text>
</g>
<!-- value__node_7ffac71e5dc0__c -->
<g id="node18" class="node">
<title>value__node_7ffac71e5dc0__c</title>
<polygon fill="#ffad73" fill-opacity="0.600000" stroke="transparent" stroke-width="1.5" points="614,-59 560,-59 560,-23 614,-23 614,-59"/>
<text text-anchor="middle" x="587" y="-37.3" font-family="Times,serif" font-size="14.00" fill="#331500">33</text>
</g>
<!-- node_7ffac71e5dc0&#45;&gt;value__node_7ffac71e5dc0__c -->
<g id="edge15" class="edge">
<title>node_7ffac71e5dc0&#45;&gt;value__node_7ffac71e5dc0__c</title>
<path fill="none" stroke="#99521f" stroke-opacity="0.800000" d="M558.11,-110.21C563.84,-96.67 571.93,-77.57 578.1,-63.02"/>
<ellipse fill="#99521f" fill-opacity="0.800000" stroke="#99521f" stroke-opacity="0.800000" cx="579" cy="-60.89" rx="2" ry="2"/>
<text text-anchor="middle" x="576.5" y="-80.8" font-family="Times-Roman bold" font-size="14.00" fill="#733000">c</text>
</g>
</g>
</svg>
