<?xml version="1.0" encoding="UTF-8" standalone="no"?>
<!DOCTYPE svg PUBLIC "-//W3C//DTD SVG 1.1//EN"
 "http://www.w3.org/Graphics/SVG/1.1/DTD/svg11.dtd">
<!-- Generated by graphviz version 2.43.0 (0)
 -->
<!-- Title: graph_with_4_tree_s_t1_t2_t3_value Pages: 1 -->
<svg width="744pt" height="328pt"
 viewBox="0.00 0.00 743.50 328.00" xmlns="http://www.w3.org/2000/svg" xmlns:xlink="http://www.w3.org/1999/xlink">
<g id="graph0" class="graph" transform="scale(1 1) rotate(0) translate(4 324)">
<title>graph_with_4_tree_s_t1_t2_t3_value</title>
<polygon fill="transparent" stroke="transparent" points="-4,4 -4,-324 739.5,-324 739.5,4 -4,4"/>
<text text-anchor="middle" x="367.75" y="-7.8" font-family="Times,serif" font-size="14.00">Graph with 4 tree(s) &#45; t1, t2, t3, value.</text>
<!-- node_7f81e951e0d0 -->
<g id="node1" class="node">
<title>node_7f81e951e0d0</title>
<polygon fill="#73ff7e" fill-opacity="0.600000" stroke="#3eb248" stroke-width="3" stroke-opacity="0.600000" points="118,-233 87.83,-215 118,-197 148.17,-215 118,-233"/>
<text text-anchor="middle" x="118" y="-211.3" font-family="Times-Roman bold" font-size="14.00" fill="#003304">t1</text>
</g>
<!-- value__node_7f81e951e0d0__a -->
<g id="node4" class="node">
<title>value__node_7f81e951e0d0__a</title>
<polygon fill="#73ff7e" fill-opacity="0.600000" stroke="transparent" stroke-width="1.5" points="54,-146 0,-146 0,-110 54,-110 54,-146"/>
<text text-anchor="middle" x="27" y="-124.3" font-family="Times,serif" font-size="14.00" fill="#003304">&#39;s1&#39;</text>
</g>
<!-- node_7f81e951e0d0&#45;&gt;value__node_7f81e951e0d0__a -->
<g id="edge1" class="edge">
<title>node_7f81e951e0d0&#45;&gt;value__node_7f81e951e0d0__a</title>
<path fill="none" stroke="#1f9929" stroke-opacity="0.800000" d="M106.84,-203.58C92.4,-190.08 66.91,-166.28 48.61,-149.19"/>
<ellipse fill="#1f9929" fill-opacity="0.800000" stroke="#1f9929" stroke-opacity="0.800000" cx="46.97" cy="-147.66" rx="2" ry="2"/>
<text text-anchor="middle" x="83" y="-167.8" font-family="Times-Roman bold" font-size="14.00" fill="#00730a">a</text>
</g>
<!-- value__node_7f81e951e0d0__b -->
<g id="node5" class="node">
<title>value__node_7f81e951e0d0__b</title>
<polygon fill="#73ff7e" fill-opacity="0.600000" stroke="transparent" stroke-width="1.5" points="126,-146 72,-146 72,-110 126,-110 126,-146"/>
<text text-anchor="middle" x="99" y="-124.3" font-family="Times,serif" font-size="14.00" fill="#003304">2</text>
</g>
<!-- node_7f81e951e0d0&#45;&gt;value__node_7f81e951e0d0__b -->
<g id="edge2" class="edge">
<title>node_7f81e951e0d0&#45;&gt;value__node_7f81e951e0d0__b</title>
<path fill="none" stroke="#1f9929" stroke-opacity="0.800000" d="M114.6,-198.8C111.58,-185.27 107.12,-165.34 103.75,-150.23"/>
<ellipse fill="#1f9929" fill-opacity="0.800000" stroke="#1f9929" stroke-opacity="0.800000" cx="103.26" cy="-148.06" rx="2" ry="2"/>
<text text-anchor="middle" x="115" y="-167.8" font-family="Times-Roman bold" font-size="14.00" fill="#00730a">b</text>
</g>
<!-- node_7f81e951e040 -->
<g id="node6" class="node">
<title>node_7f81e951e040</title>
<ellipse fill="#73ff7e" fill-opacity="0.600000" stroke="#3eb248" stroke-width="1.5" stroke-opacity="0.600000" cx="175" cy="-128" rx="30.59" ry="18"/>
<text text-anchor="middle" x="175" y="-124.3" font-family="Times-Roman bold" font-size="14.00" fill="#003304">t1.x</text>
</g>
<!-- node_7f81e951e0d0&#45;&gt;node_7f81e951e040 -->
<g id="edge3" class="edge">
<title>node_7f81e951e0d0&#45;&gt;node_7f81e951e040</title>
<path fill="none" stroke="#1f9929" stroke-opacity="0.800000" d="M126.17,-201.82C134.63,-189.19 148.1,-169.12 158.75,-153.24"/>
<polygon fill="#1f9929" fill-opacity="0.800000" stroke="#1f9929" stroke-opacity="0.800000" points="164.32,-144.92 162.49,-155.74 161.54,-149.08 158.75,-153.23 158.75,-153.23 158.75,-153.23 161.54,-149.08 155.01,-150.72 164.32,-144.92 164.32,-144.92"/>
<text text-anchor="middle" x="155" y="-167.8" font-family="Times-Roman bold" font-size="14.00" fill="#00730a">x</text>
</g>
<!-- node_7f81e951e130 -->
<g id="node2" class="node">
<title>node_7f81e951e130</title>
<polygon fill="#9673ff" fill-opacity="0.600000" stroke="#5b3eb2" stroke-width="3" stroke-opacity="0.600000" points="331,-233 300.83,-215 331,-197 361.17,-215 331,-233"/>
<text text-anchor="middle" x="331" y="-211.3" font-family="Times-Roman bold" font-size="14.00" fill="#0d0033">t2</text>
</g>
<!-- value__node_7f81e951e130__a -->
<g id="node7" class="node">
<title>value__node_7f81e951e130__a</title>
<polygon fill="#9673ff" fill-opacity="0.600000" stroke="transparent" stroke-width="1.5" points="286,-146 224,-146 224,-110 286,-110 286,-146"/>
<text text-anchor="middle" x="255" y="-124.3" font-family="Times,serif" font-size="14.00" fill="#0d0033">&#39;str11&#39;</text>
</g>
<!-- node_7f81e951e130&#45;&gt;value__node_7f81e951e130__a -->
<g id="edge4" class="edge">
<title>node_7f81e951e130&#45;&gt;value__node_7f81e951e130__a</title>
<path fill="none" stroke="#3d1f99" stroke-opacity="0.800000" d="M321.06,-202.89C308.99,-189.39 288.39,-166.34 273.39,-149.57"/>
<ellipse fill="#3d1f99" fill-opacity="0.800000" stroke="#3d1f99" stroke-opacity="0.800000" cx="271.8" cy="-147.79" rx="2" ry="2"/>
<text text-anchor="middle" x="303" y="-167.8" font-family="Times-Roman bold" font-size="14.00" fill="#1d0073">a</text>
</g>
<!-- value__node_7f81e951e130__b -->
<g id="node8" class="node">
<title>value__node_7f81e951e130__b</title>
<polygon fill="#9673ff" fill-opacity="0.600000" stroke="transparent" stroke-width="1.5" points="358,-146 304,-146 304,-110 358,-110 358,-146"/>
<text text-anchor="middle" x="331" y="-124.3" font-family="Times,serif" font-size="14.00" fill="#0d0033">2</text>
</g>
<!-- node_7f81e951e130&#45;&gt;value__node_7f81e951e130__b -->
<g id="edge5" class="edge">
<title>node_7f81e951e130&#45;&gt;value__node_7f81e951e130__b</title>
<path fill="none" stroke="#3d1f99" stroke-opacity="0.800000" d="M331,-196.8C331,-183.43 331,-164.82 331,-150.48"/>
<ellipse fill="#3d1f99" fill-opacity="0.800000" stroke="#3d1f99" stroke-opacity="0.800000" cx="331" cy="-148.18" rx="2" ry="2"/>
<text text-anchor="middle" x="336" y="-167.8" font-family="Times-Roman bold" font-size="14.00" fill="#1d0073">b</text>
</g>
<!-- node_7f81e951e100 -->
<g id="node9" class="node">
<title>node_7f81e951e100</title>
<ellipse fill="#9673ff" fill-opacity="0.600000" stroke="#5b3eb2" stroke-width="1.5" stroke-opacity="0.600000" cx="407" cy="-128" rx="30.59" ry="18"/>
<text text-anchor="middle" x="407" y="-124.3" font-family="Times-Roman bold" font-size="14.00" fill="#0d0033">t2.x</text>
</g>
<!-- node_7f81e951e130&#45;&gt;node_7f81e951e100 -->
<g id="edge6" class="edge">
<title>node_7f81e951e130&#45;&gt;node_7f81e951e100</title>
<path fill="none" stroke="#3d1f99" stroke-opacity="0.800000" d="M340.94,-202.89C352.42,-190.05 371.62,-168.57 386.37,-152.08"/>
<polygon fill="#3d1f99" fill-opacity="0.800000" stroke="#3d1f99" stroke-opacity="0.800000" points="393.2,-144.44 389.89,-154.89 389.87,-148.16 386.53,-151.89 386.53,-151.89 386.53,-151.89 389.87,-148.16 383.18,-148.89 393.2,-144.44 393.2,-144.44"/>
<text text-anchor="middle" x="379" y="-167.8" font-family="Times-Roman bold" font-size="14.00" fill="#1d0073">x</text>
</g>
<!-- node_7f81e951e220 -->
<g id="node3" class="node">
<title>node_7f81e951e220</title>
<polygon fill="#ffad73" fill-opacity="0.600000" stroke="#b26f3e" stroke-width="3" stroke-opacity="0.600000" points="331,-320 300.83,-302 331,-284 361.17,-302 331,-320"/>
<text text-anchor="middle" x="331" y="-298.3" font-family="Times-Roman bold" font-size="14.00" fill="#331500">t3</text>
</g>
<!-- node_7f81e951e220&#45;&gt;node_7f81e951e0d0 -->
<g id="edge7" class="edge">
<title>node_7f81e951e220&#45;&gt;node_7f81e951e0d0</title>
<path fill="none" stroke="#99521f" stroke-opacity="0.800000" d="M313.57,-294.04C276.33,-279.18 188.81,-244.26 144.58,-226.61"/>
<polygon fill="#99521f" fill-opacity="0.800000" stroke="#99521f" stroke-opacity="0.800000" points="135.08,-222.81 146.03,-222.34 139.72,-224.67 144.36,-226.52 144.36,-226.52 144.36,-226.52 139.72,-224.67 142.7,-230.7 135.08,-222.81 135.08,-222.81"/>
<text text-anchor="middle" x="246.5" y="-254.8" font-family="Times-Roman bold" font-size="14.00" fill="#733000">t1</text>
</g>
<!-- node_7f81e951e220&#45;&gt;node_7f81e951e130 -->
<g id="edge8" class="edge">
<title>node_7f81e951e220&#45;&gt;node_7f81e951e130</title>
<path fill="none" stroke="#99521f" stroke-opacity="0.800000" d="M331,-283.8C331,-272.16 331,-256.55 331,-243.24"/>
<polygon fill="#99521f" fill-opacity="0.800000" stroke="#99521f" stroke-opacity="0.800000" points="331,-233.18 335.5,-243.18 331,-238.18 331,-243.18 331,-243.18 331,-243.18 331,-238.18 326.5,-243.18 331,-233.18 331,-233.18"/>
<text text-anchor="middle" x="339.5" y="-254.8" font-family="Times-Roman bold" font-size="14.00" fill="#733000">t2</text>
</g>
<!-- node_7f81e951e160 -->
<g id="node10" class="node">
<title>node_7f81e951e160</title>
<ellipse fill="#ffad73" fill-opacity="0.600000" stroke="#b26f3e" stroke-width="1.5" stroke-opacity="0.600000" cx="586" cy="-215" rx="46.29" ry="18"/>
<text text-anchor="middle" x="586" y="-211.3" font-family="Times-Roman bold" font-size="14.00" fill="#331500">t3.sum</text>
</g>
<!-- node_7f81e951e220&#45;&gt;node_7f81e951e160 -->
<g id="edge9" class="edge">
<title>node_7f81e951e220&#45;&gt;node_7f81e951e160</title>
<path fill="none" stroke="#99521f" stroke-opacity="0.800000" d="M349.34,-294.89C389.41,-281.53 485.73,-249.42 542.37,-230.54"/>
<polygon fill="#99521f" fill-opacity="0.800000" stroke="#99521f" stroke-opacity="0.800000" points="552.12,-227.29 544.06,-234.72 547.38,-228.87 542.63,-230.46 542.63,-230.46 542.63,-230.46 547.38,-228.87 541.21,-226.19 552.12,-227.29 552.12,-227.29"/>
<text text-anchor="middle" x="490.5" y="-254.8" font-family="Times-Roman bold" font-size="14.00" fill="#733000">sum</text>
</g>
<!-- value__node_7f81e951e040__c -->
<g id="node11" class="node">
<title>value__node_7f81e951e040__c</title>
<polygon fill="#73ff7e" fill-opacity="0.600000" stroke="transparent" stroke-width="1.5" points="202,-59 148,-59 148,-23 202,-23 202,-59"/>
<text text-anchor="middle" x="175" y="-37.3" font-family="Times,serif" font-size="14.00" fill="#003304">3</text>
</g>
<!-- node_7f81e951e040&#45;&gt;value__node_7f81e951e040__c -->
<g id="edge10" class="edge">
<title>node_7f81e951e040&#45;&gt;value__node_7f81e951e040__c</title>
<path fill="none" stroke="#1f9929" stroke-opacity="0.800000" d="M175,-109.8C175,-96.43 175,-77.82 175,-63.48"/>
<ellipse fill="#1f9929" fill-opacity="0.800000" stroke="#1f9929" stroke-opacity="0.800000" cx="175" cy="-61.18" rx="2" ry="2"/>
<text text-anchor="middle" x="179.5" y="-80.8" font-family="Times-Roman bold" font-size="14.00" fill="#00730a">c</text>
</g>
<!-- value_7f81e95124c0 -->
<g id="node12" class="node">
<title>value_7f81e95124c0</title>
<polygon fill="#73ff7e" fill-opacity="0.600000" stroke="transparent" stroke-width="1.5" points="338,-59 284,-59 284,-23 338,-23 338,-59"/>
<text text-anchor="middle" x="311" y="-37.3" font-family="Times,serif" font-size="14.00" fill="#003304">[1, 2]</text>
</g>
<!-- node_7f81e951e040&#45;&gt;value_7f81e95124c0 -->
<g id="edge11" class="edge">
<title>node_7f81e951e040&#45;&gt;value_7f81e95124c0</title>
<path fill="none" stroke="#1f9929" stroke-opacity="0.800000" d="M195.36,-114.27C217.91,-100.18 254.51,-77.31 280.49,-61.07"/>
<ellipse fill="#1f9929" fill-opacity="0.800000" stroke="#1f9929" stroke-opacity="0.800000" cx="282.23" cy="-59.98" rx="2" ry="2"/>
<text text-anchor="middle" x="257" y="-80.8" font-family="Times-Roman bold" font-size="14.00" fill="#00730a">d</text>
</g>
<!-- node_7f81e951e100&#45;&gt;value_7f81e95124c0 -->
<g id="edge13" class="edge">
<title>node_7f81e951e100&#45;&gt;value_7f81e95124c0</title>
<path fill="none" stroke="#3d1f99" stroke-opacity="0.800000" d="M390.71,-112.58C375.07,-98.73 351.28,-77.67 333.76,-62.16"/>
<ellipse fill="#3d1f99" fill-opacity="0.800000" stroke="#3d1f99" stroke-opacity="0.800000" cx="331.85" cy="-60.46" rx="2" ry="2"/>
<text text-anchor="middle" x="370" y="-80.8" font-family="Times-Roman bold" font-size="14.00" fill="#1d0073">d</text>
</g>
<!-- value__node_7f81e951e100__c -->
<g id="node13" class="node">
<title>value__node_7f81e951e100__c</title>
<polygon fill="#9673ff" fill-opacity="0.600000" stroke="transparent" stroke-width="1.5" points="434,-59 380,-59 380,-23 434,-23 434,-59"/>
<text text-anchor="middle" x="407" y="-37.3" font-family="Times,serif" font-size="14.00" fill="#0d0033">33</text>
</g>
<!-- node_7f81e951e100&#45;&gt;value__node_7f81e951e100__c -->
<g id="edge12" class="edge">
<title>node_7f81e951e100&#45;&gt;value__node_7f81e951e100__c</title>
<path fill="none" stroke="#3d1f99" stroke-opacity="0.800000" d="M407,-109.8C407,-96.43 407,-77.82 407,-63.48"/>
<ellipse fill="#3d1f99" fill-opacity="0.800000" stroke="#3d1f99" stroke-opacity="0.800000" cx="407" cy="-61.18" rx="2" ry="2"/>
<text text-anchor="middle" x="411.5" y="-80.8" font-family="Times-Roman bold" font-size="14.00" fill="#1d0073">c</text>
</g>
<!-- node_7f81e951e190 -->
<g id="node14" class="node">
<title>node_7f81e951e190</title>
<ellipse fill="#ffad73" fill-opacity="0.600000" stroke="#b26f3e" stroke-width="1.5" stroke-opacity="0.600000" cx="511" cy="-128" rx="55.49" ry="18"/>
<text text-anchor="middle" x="511" y="-124.3" font-family="Times-Roman bold" font-size="14.00" fill="#331500">t3.sum.x</text>
</g>
<!-- node_7f81e951e160&#45;&gt;node_7f81e951e190 -->
<g id="edge14" class="edge">
<title>node_7f81e951e160&#45;&gt;node_7f81e951e190</title>
<path fill="none" stroke="#99521f" stroke-opacity="0.800000" d="M571.54,-197.61C560.41,-184.99 544.85,-167.36 532.29,-153.13"/>
<polygon fill="#99521f" fill-opacity="0.800000" stroke="#99521f" stroke-opacity="0.800000" points="525.67,-145.63 535.66,-150.15 528.98,-149.38 532.29,-153.13 532.29,-153.13 532.29,-153.13 528.98,-149.38 528.91,-156.1 525.67,-145.63 525.67,-145.63"/>
<text text-anchor="middle" x="558" y="-167.8" font-family="Times-Roman bold" font-size="14.00" fill="#733000">x</text>
</g>
<!-- value__node_7f81e951e160__b -->
<g id="node15" class="node">
<title>value__node_7f81e951e160__b</title>
<polygon fill="#ffad73" fill-opacity="0.600000" stroke="transparent" stroke-width="1.5" points="638,-146 584,-146 584,-110 638,-110 638,-146"/>
<text text-anchor="middle" x="611" y="-124.3" font-family="Times,serif" font-size="14.00" fill="#331500">4</text>
</g>
<!-- node_7f81e951e160&#45;&gt;value__node_7f81e951e160__b -->
<g id="edge15" class="edge">
<title>node_7f81e951e160&#45;&gt;value__node_7f81e951e160__b</title>
<path fill="none" stroke="#99521f" stroke-opacity="0.800000" d="M591.06,-196.8C595.02,-183.32 600.56,-164.5 604.79,-150.11"/>
<ellipse fill="#99521f" fill-opacity="0.800000" stroke="#99521f" stroke-opacity="0.800000" cx="605.38" cy="-148.09" rx="2" ry="2"/>
<text text-anchor="middle" x="605" y="-167.8" font-family="Times-Roman bold" font-size="14.00" fill="#733000">b</text>
</g>
<!-- value__node_7f81e951e160__a -->
<g id="node16" class="node">
<title>value__node_7f81e951e160__a</title>
<polygon fill="#ffad73" fill-opacity="0.600000" stroke="transparent" stroke-width="1.5" points="735.5,-146 656.5,-146 656.5,-110 735.5,-110 735.5,-146"/>
<text text-anchor="middle" x="696" y="-124.3" font-family="Times,serif" font-size="14.00" fill="#331500">&#39;s1str11&#39;</text>
</g>
<!-- node_7f81e951e160&#45;&gt;value__node_7f81e951e160__a -->
<g id="edge16" class="edge">
<title>node_7f81e951e160&#45;&gt;value__node_7f81e951e160__a</title>
<path fill="none" stroke="#99521f" stroke-opacity="0.800000" d="M605.92,-198.61C624.06,-184.59 650.95,-163.81 670.62,-148.61"/>
<ellipse fill="#99521f" fill-opacity="0.800000" stroke="#99521f" stroke-opacity="0.800000" cx="672.38" cy="-147.25" rx="2" ry="2"/>
<text text-anchor="middle" x="653" y="-167.8" font-family="Times-Roman bold" font-size="14.00" fill="#733000">a</text>
</g>
<!-- value_7f81e958bfc0 -->
<g id="node17" class="node">
<title>value_7f81e958bfc0</title>
<polygon fill="#ffad73" fill-opacity="0.600000" stroke="transparent" stroke-width="1.5" points="549,-59 459,-59 459,-23 549,-23 549,-59"/>
<text text-anchor="middle" x="504" y="-37.3" font-family="Times,serif" font-size="14.00" fill="#331500">[1, 2, 1, 2]</text>
</g>
<!-- node_7f81e951e190&#45;&gt;value_7f81e958bfc0 -->
<g id="edge17" class="edge">
<title>node_7f81e951e190&#45;&gt;value_7f81e958bfc0</title>
<path fill="none" stroke="#99521f" stroke-opacity="0.800000" d="M509.58,-109.8C508.48,-96.43 506.95,-77.82 505.77,-63.48"/>
<ellipse fill="#99521f" fill-opacity="0.800000" stroke="#99521f" stroke-opacity="0.800000" cx="505.58" cy="-61.17" rx="2" ry="2"/>
<text text-anchor="middle" x="513" y="-80.8" font-family="Times-Roman bold" font-size="14.00" fill="#733000">d</text>
</g>
<!-- value__node_7f81e951e190__c -->
<g id="node18" class="node">
<title>value__node_7f81e951e190__c</title>
<polygon fill="#ffad73" fill-opacity="0.600000" stroke="transparent" stroke-width="1.5" points="621,-59 567,-59 567,-23 621,-23 621,-59"/>
<text text-anchor="middle" x="594" y="-37.3" font-family="Times,serif" font-size="14.00" fill="#331500">36</text>
</g>
<!-- node_7f81e951e190&#45;&gt;value__node_7f81e951e190__c -->
<g id="edge18" class="edge">
<title>node_7f81e951e190&#45;&gt;value__node_7f81e951e190__c</title>
<path fill="none" stroke="#99521f" stroke-opacity="0.800000" d="M527,-110.61C540.52,-96.77 559.92,-76.9 574.37,-62.1"/>
<ellipse fill="#99521f" fill-opacity="0.800000" stroke="#99521f" stroke-opacity="0.800000" cx="575.79" cy="-60.64" rx="2" ry="2"/>
<text text-anchor="middle" x="562.5" y="-80.8" font-family="Times-Roman bold" font-size="14.00" fill="#733000">c</text>
</g>
</g>
</svg>
