<?xml version="1.0" encoding="UTF-8" standalone="no"?>
<!DOCTYPE svg PUBLIC "-//W3C//DTD SVG 1.1//EN"
 "http://www.w3.org/Graphics/SVG/1.1/DTD/svg11.dtd">
<!-- Generated by graphviz version 2.43.0 (0)
 -->
<!-- Title: %3 Pages: 1 -->
<svg width="600pt" height="237pt"
 viewBox="0.00 0.00 600.00 237.00" xmlns="http://www.w3.org/2000/svg" xmlns:xlink="http://www.w3.org/1999/xlink">
<g id="graph0" class="graph" transform="scale(1 1) rotate(0) translate(4 233)">
<title>%3</title>
<polygon fill="white" stroke="transparent" points="-4,4 -4,-233 596,-233 596,4 -4,4"/>
<!-- node_7fc084c19b20 -->
<g id="node1" class="node">
<title>node_7fc084c19b20</title>
<polygon fill="#73ff7e" fill-opacity="0.600000" stroke="#3eb248" stroke-width="3" stroke-opacity="0.600000" points="177,-229 116.17,-211 177,-193 237.83,-211 177,-229"/>
<text text-anchor="middle" x="177" y="-207.3" font-family="monospace bold" font-size="14.00" fill="#003304">&lt;root&gt;</text>
</g>
<!-- value__node_7fc084c19b20__a -->
<g id="node2" class="node">
<title>value__node_7fc084c19b20__a</title>
<polygon fill="#73ff7e" fill-opacity="0.600000" stroke="transparent" stroke-width="1.5" points="322,-142 0,-142 0,-104 322,-104 322,-142"/>
<text text-anchor="start" x="8" y="-126.8" font-family="monospace" font-size="14.00" fill="#003304">tensor([[ 1.1930,  1.5680, &#45;1.3254],</text>
<text text-anchor="start" x="8" y="-111.8" font-family="monospace" font-size="14.00" fill="#003304">        [ 0.2877,  1.1574,  0.3471]])</text>
</g>
<!-- node_7fc084c19b20&#45;&gt;value__node_7fc084c19b20__a -->
<g id="edge1" class="edge">
<title>node_7fc084c19b20&#45;&gt;value__node_7fc084c19b20__a</title>
<path fill="none" stroke="#1f9929" stroke-opacity="0.800000" d="M173.99,-193.82C171.49,-180.39 167.91,-161.15 165.14,-146.26"/>
<ellipse fill="#1f9929" fill-opacity="0.800000" stroke="#1f9929" stroke-opacity="0.800000" cx="164.75" cy="-144.15" rx="2" ry="2"/>
<text text-anchor="middle" x="176" y="-163.8" font-family="Times-Roman bold" font-size="14.00" fill="#00730a">a</text>
</g>
<!-- node_7fc084c19d30 -->
<g id="node3" class="node">
<title>node_7fc084c19d30</title>
<ellipse fill="#73ff7e" fill-opacity="0.600000" stroke="#3eb248" stroke-width="1.5" stroke-opacity="0.600000" cx="394" cy="-123" rx="53.89" ry="18"/>
<text text-anchor="middle" x="394" y="-119.3" font-family="monospace bold" font-size="14.00" fill="#003304">&lt;root&gt;.x</text>
</g>
<!-- node_7fc084c19b20&#45;&gt;node_7fc084c19d30 -->
<g id="edge2" class="edge">
<title>node_7fc084c19b20&#45;&gt;node_7fc084c19d30</title>
<path fill="none" stroke="#1f9929" stroke-opacity="0.800000" d="M201.89,-200.13C238.3,-185.71 306.56,-158.65 351.14,-140.99"/>
<polygon fill="#1f9929" fill-opacity="0.800000" stroke="#1f9929" stroke-opacity="0.800000" points="360.55,-137.26 352.91,-145.12 355.9,-139.1 351.25,-140.94 351.25,-140.94 351.25,-140.94 355.9,-139.1 349.6,-136.76 360.55,-137.26 360.55,-137.26"/>
<text text-anchor="middle" x="303" y="-163.8" font-family="Times-Roman bold" font-size="14.00" fill="#00730a">x</text>
</g>
<!-- value__node_7fc084c19d30__c -->
<g id="node4" class="node">
<title>value__node_7fc084c19d30__c</title>
<polygon fill="#73ff7e" fill-opacity="0.600000" stroke="transparent" stroke-width="1.5" points="592,-53 196,-53 196,0 592,0 592,-53"/>
<text text-anchor="start" x="204" y="-37.8" font-family="monospace" font-size="14.00" fill="#003304">tensor([[ 0.1034, &#45;0.9035,  2.3687, &#45;0.8942],</text>
<text text-anchor="start" x="204" y="-22.8" font-family="monospace" font-size="14.00" fill="#003304">        [&#45;0.0958, &#45;1.0283,  0.3086,  0.4276],</text>
<text text-anchor="start" x="204" y="-7.8" font-family="monospace" font-size="14.00" fill="#003304">        [&#45;0.0286, &#45;0.4368, &#45;1.8183, &#45;0.3201]])</text>
</g>
<!-- node_7fc084c19d30&#45;&gt;value__node_7fc084c19d30__c -->
<g id="edge3" class="edge">
<title>node_7fc084c19d30&#45;&gt;value__node_7fc084c19d30__c</title>
<path fill="none" stroke="#1f9929" stroke-opacity="0.800000" d="M394,-104.67C394,-91.52 394,-73.11 394,-57.58"/>
<ellipse fill="#1f9929" fill-opacity="0.800000" stroke="#1f9929" stroke-opacity="0.800000" cx="394" cy="-55.28" rx="2" ry="2"/>
<text text-anchor="middle" x="398.5" y="-74.8" font-family="Times-Roman bold" font-size="14.00" fill="#00730a">c</text>
</g>
</g>
</svg>
