<?xml version="1.0" encoding="UTF-8" standalone="no"?>
<!DOCTYPE svg PUBLIC "-//W3C//DTD SVG 1.1//EN"
 "http://www.w3.org/Graphics/SVG/1.1/DTD/svg11.dtd">
<!-- Generated by graphviz version 2.43.0 (0)
 -->
<!-- Title: no_shared_values Pages: 1 -->
<svg width="589pt" height="275pt"
 viewBox="0.00 0.00 589.00 275.00" xmlns="http://www.w3.org/2000/svg" xmlns:xlink="http://www.w3.org/1999/xlink">
<g id="graph0" class="graph" transform="scale(1 1) rotate(0) translate(4 271)">
<title>no_shared_values</title>
<polygon fill="transparent" stroke="transparent" points="-4,4 -4,-271 585,-271 585,4 -4,4"/>
<text text-anchor="middle" x="290.5" y="-7.8" font-family="Times,serif" font-size="14.00">No Shared Values</text>
<!-- node_7fe826907370 -->
<g id="node1" class="node">
<title>node_7fe826907370</title>
<polygon fill="#73ff7e" fill-opacity="0.600000" stroke="#3eb248" stroke-width="3" stroke-opacity="0.600000" points="105,-267 67.13,-249 105,-231 142.87,-249 105,-267"/>
<text text-anchor="middle" x="105" y="-245.3" font-family="monospace bold" font-size="14.00" fill="#003304">st1</text>
</g>
<!-- value__node_7fe826907370__a -->
<g id="node3" class="node">
<title>value__node_7fe826907370__a</title>
<polygon fill="#73ff7e" fill-opacity="0.600000" stroke="transparent" stroke-width="1.5" points="54,-171.5 0,-171.5 0,-135.5 54,-135.5 54,-171.5"/>
<text text-anchor="middle" x="27" y="-149.8" font-family="monospace" font-size="14.00" fill="#003304">1</text>
</g>
<!-- node_7fe826907370&#45;&gt;value__node_7fe826907370__a -->
<g id="edge1" class="edge">
<title>node_7fe826907370&#45;&gt;value__node_7fe826907370__a</title>
<path fill="none" stroke="#1f9929" stroke-opacity="0.800000" d="M94.8,-235.78C81.92,-220.33 59.57,-193.54 44.06,-174.96"/>
<ellipse fill="#1f9929" fill-opacity="0.800000" stroke="#1f9929" stroke-opacity="0.800000" cx="42.73" cy="-173.35" rx="2" ry="2"/>
<text text-anchor="middle" x="81" y="-201.8" font-family="Times-Roman bold" font-size="14.00" fill="#00730a">a</text>
</g>
<!-- value__node_7fe826907370__b -->
<g id="node4" class="node">
<title>value__node_7fe826907370__b</title>
<polygon fill="#73ff7e" fill-opacity="0.600000" stroke="transparent" stroke-width="1.5" points="138,-171.5 72,-171.5 72,-135.5 138,-135.5 138,-171.5"/>
<text text-anchor="middle" x="105" y="-149.8" font-family="monospace" font-size="14.00" fill="#003304">[1, 2]</text>
</g>
<!-- node_7fe826907370&#45;&gt;value__node_7fe826907370__b -->
<g id="edge2" class="edge">
<title>node_7fe826907370&#45;&gt;value__node_7fe826907370__b</title>
<path fill="none" stroke="#1f9929" stroke-opacity="0.800000" d="M105,-230.85C105,-215.3 105,-192.32 105,-175.64"/>
<ellipse fill="#1f9929" fill-opacity="0.800000" stroke="#1f9929" stroke-opacity="0.800000" cx="105" cy="-173.54" rx="2" ry="2"/>
<text text-anchor="middle" x="110" y="-201.8" font-family="Times-Roman bold" font-size="14.00" fill="#00730a">b</text>
</g>
<!-- node_7fe8269073a0 -->
<g id="node5" class="node">
<title>node_7fe8269073a0</title>
<ellipse fill="#73ff7e" fill-opacity="0.600000" stroke="#3eb248" stroke-width="1.5" stroke-opacity="0.600000" cx="194" cy="-153.5" rx="37.89" ry="18"/>
<text text-anchor="middle" x="194" y="-149.8" font-family="monospace bold" font-size="14.00" fill="#003304">st1.x</text>
</g>
<!-- node_7fe826907370&#45;&gt;node_7fe8269073a0 -->
<g id="edge3" class="edge">
<title>node_7fe826907370&#45;&gt;node_7fe8269073a0</title>
<path fill="none" stroke="#1f9929" stroke-opacity="0.800000" d="M116.27,-236.16C130.19,-221.54 154.17,-196.34 171.83,-177.79"/>
<polygon fill="#1f9929" fill-opacity="0.800000" stroke="#1f9929" stroke-opacity="0.800000" points="178.96,-170.3 175.33,-180.64 175.51,-173.92 172.07,-177.54 172.07,-177.54 172.07,-177.54 175.51,-173.92 168.81,-174.44 178.96,-170.3 178.96,-170.3"/>
<text text-anchor="middle" x="158" y="-201.8" font-family="Times-Roman bold" font-size="14.00" fill="#00730a">x</text>
</g>
<!-- node_7fe826907490 -->
<g id="node2" class="node">
<title>node_7fe826907490</title>
<polygon fill="#9673ff" fill-opacity="0.600000" stroke="#5b3eb2" stroke-width="3" stroke-opacity="0.600000" points="431,-267 393.13,-249 431,-231 468.87,-249 431,-267"/>
<text text-anchor="middle" x="431" y="-245.3" font-family="monospace bold" font-size="14.00" fill="#0d0033">st2</text>
</g>
<!-- value__node_7fe826907490__np -->
<g id="node6" class="node">
<title>value__node_7fe826907490__np</title>
<polygon fill="#9673ff" fill-opacity="0.600000" stroke="transparent" stroke-width="1.5" points="340.5,-180 249.5,-180 249.5,-127 340.5,-127 340.5,-180"/>
<text text-anchor="start" x="257.5" y="-164.8" font-family="monospace" font-size="14.00" fill="#0d0033">[[0. 0.]</text>
<text text-anchor="start" x="257.5" y="-149.8" font-family="monospace" font-size="14.00" fill="#0d0033"> [0. 0.]</text>
<text text-anchor="start" x="257.5" y="-134.8" font-family="monospace" font-size="14.00" fill="#0d0033"> [0. 0.]]</text>
</g>
<!-- node_7fe826907490&#45;&gt;value__node_7fe826907490__np -->
<g id="edge4" class="edge">
<title>node_7fe826907490&#45;&gt;value__node_7fe826907490__np</title>
<path fill="none" stroke="#3d1f99" stroke-opacity="0.800000" d="M416.19,-237.82C397.08,-224.68 363.08,-201.3 335.94,-182.65"/>
<ellipse fill="#3d1f99" fill-opacity="0.800000" stroke="#3d1f99" stroke-opacity="0.800000" cx="333.98" cy="-181.3" rx="2" ry="2"/>
<text text-anchor="middle" x="390" y="-201.8" font-family="Times-Roman bold" font-size="14.00" fill="#1d0073">np</text>
</g>
<!-- value__node_7fe826907490__ar -->
<g id="node7" class="node">
<title>value__node_7fe826907490__ar</title>
<polygon fill="#9673ff" fill-opacity="0.600000" stroke="transparent" stroke-width="1.5" points="425,-171.5 359,-171.5 359,-135.5 425,-135.5 425,-171.5"/>
<text text-anchor="middle" x="392" y="-149.8" font-family="monospace" font-size="14.00" fill="#0d0033">[1, 2]</text>
</g>
<!-- node_7fe826907490&#45;&gt;value__node_7fe826907490__ar -->
<g id="edge5" class="edge">
<title>node_7fe826907490&#45;&gt;value__node_7fe826907490__ar</title>
<path fill="none" stroke="#3d1f99" stroke-opacity="0.800000" d="M425.08,-233.8C418.62,-218.32 408.22,-193.38 400.8,-175.6"/>
<ellipse fill="#3d1f99" fill-opacity="0.800000" stroke="#3d1f99" stroke-opacity="0.800000" cx="399.94" cy="-173.54" rx="2" ry="2"/>
<text text-anchor="middle" x="425.5" y="-201.8" font-family="Times-Roman bold" font-size="14.00" fill="#1d0073">ar</text>
</g>
<!-- value__node_7fe826907490__a -->
<g id="node8" class="node">
<title>value__node_7fe826907490__a</title>
<polygon fill="#9673ff" fill-opacity="0.600000" stroke="transparent" stroke-width="1.5" points="497,-171.5 443,-171.5 443,-135.5 497,-135.5 497,-171.5"/>
<text text-anchor="middle" x="470" y="-149.8" font-family="monospace" font-size="14.00" fill="#0d0033">1</text>
</g>
<!-- node_7fe826907490&#45;&gt;value__node_7fe826907490__a -->
<g id="edge6" class="edge">
<title>node_7fe826907490&#45;&gt;value__node_7fe826907490__a</title>
<path fill="none" stroke="#3d1f99" stroke-opacity="0.800000" d="M436.92,-233.8C443.38,-218.32 453.78,-193.38 461.2,-175.6"/>
<ellipse fill="#3d1f99" fill-opacity="0.800000" stroke="#3d1f99" stroke-opacity="0.800000" cx="462.06" cy="-173.54" rx="2" ry="2"/>
<text text-anchor="middle" x="457" y="-201.8" font-family="Times-Roman bold" font-size="14.00" fill="#1d0073">a</text>
</g>
<!-- value__node_7fe826907490__arx -->
<g id="node9" class="node">
<title>value__node_7fe826907490__arx</title>
<polygon fill="#9673ff" fill-opacity="0.600000" stroke="transparent" stroke-width="1.5" points="581,-171.5 515,-171.5 515,-135.5 581,-135.5 581,-171.5"/>
<text text-anchor="middle" x="548" y="-149.8" font-family="monospace" font-size="14.00" fill="#0d0033">[1, 2]</text>
</g>
<!-- node_7fe826907490&#45;&gt;value__node_7fe826907490__arx -->
<g id="edge7" class="edge">
<title>node_7fe826907490&#45;&gt;value__node_7fe826907490__arx</title>
<path fill="none" stroke="#3d1f99" stroke-opacity="0.800000" d="M444.42,-237.27C463.61,-221.94 499.21,-193.49 523.25,-174.28"/>
<ellipse fill="#3d1f99" fill-opacity="0.800000" stroke="#3d1f99" stroke-opacity="0.800000" cx="524.85" cy="-173" rx="2" ry="2"/>
<text text-anchor="middle" x="507" y="-201.8" font-family="Times-Roman bold" font-size="14.00" fill="#1d0073">arx</text>
</g>
<!-- value__node_7fe8269073a0__c -->
<g id="node10" class="node">
<title>value__node_7fe8269073a0__c</title>
<polygon fill="#73ff7e" fill-opacity="0.600000" stroke="transparent" stroke-width="1.5" points="175,-67.5 121,-67.5 121,-31.5 175,-31.5 175,-67.5"/>
<text text-anchor="middle" x="148" y="-45.8" font-family="monospace" font-size="14.00" fill="#003304">3</text>
</g>
<!-- node_7fe8269073a0&#45;&gt;value__node_7fe8269073a0__c -->
<g id="edge8" class="edge">
<title>node_7fe8269073a0&#45;&gt;value__node_7fe8269073a0__c</title>
<path fill="none" stroke="#1f9929" stroke-opacity="0.800000" d="M186.4,-135.66C178.46,-118.05 165.98,-90.38 157.42,-71.39"/>
<ellipse fill="#1f9929" fill-opacity="0.800000" stroke="#1f9929" stroke-opacity="0.800000" cx="156.58" cy="-69.53" rx="2" ry="2"/>
<text text-anchor="middle" x="178.5" y="-97.8" font-family="Times-Roman bold" font-size="14.00" fill="#00730a">c</text>
</g>
<!-- value__node_7fe8269073a0__d -->
<g id="node11" class="node">
<title>value__node_7fe8269073a0__d</title>
<polygon fill="#73ff7e" fill-opacity="0.600000" stroke="transparent" stroke-width="1.5" points="284.5,-76 193.5,-76 193.5,-23 284.5,-23 284.5,-76"/>
<text text-anchor="start" x="201.5" y="-60.8" font-family="monospace" font-size="14.00" fill="#003304">[[0. 0.]</text>
<text text-anchor="start" x="201.5" y="-45.8" font-family="monospace" font-size="14.00" fill="#003304"> [0. 0.]</text>
<text text-anchor="start" x="201.5" y="-30.8" font-family="monospace" font-size="14.00" fill="#003304"> [0. 0.]]</text>
</g>
<!-- node_7fe8269073a0&#45;&gt;value__node_7fe8269073a0__d -->
<g id="edge9" class="edge">
<title>node_7fe8269073a0&#45;&gt;value__node_7fe8269073a0__d</title>
<path fill="none" stroke="#1f9929" stroke-opacity="0.800000" d="M201.43,-135.66C208.07,-120.61 217.94,-98.23 225.9,-80.18"/>
<ellipse fill="#1f9929" fill-opacity="0.800000" stroke="#1f9929" stroke-opacity="0.800000" cx="226.87" cy="-78" rx="2" ry="2"/>
<text text-anchor="middle" x="225" y="-97.8" font-family="Times-Roman bold" font-size="14.00" fill="#00730a">d</text>
</g>
</g>
</svg>
