<?xml version="1.0" encoding="UTF-8" standalone="no"?>
<!DOCTYPE svg PUBLIC "-//W3C//DTD SVG 1.1//EN"
 "http://www.w3.org/Graphics/SVG/1.1/DTD/svg11.dtd">
<!-- Generated by graphviz version 2.43.0 (0)
 -->
<!-- Title: graph_with_1_tree_s_t1 Pages: 1 -->
<svg width="247pt" height="241pt"
 viewBox="0.00 0.00 247.00 241.00" xmlns="http://www.w3.org/2000/svg" xmlns:xlink="http://www.w3.org/1999/xlink">
<g id="graph0" class="graph" transform="scale(1 1) rotate(0) translate(4 237)">
<title>graph_with_1_tree_s_t1</title>
<polygon fill="white" stroke="transparent" points="-4,4 -4,-237 243,-237 243,4 -4,4"/>
<text text-anchor="middle" x="119.5" y="-7.8" font-family="Times,serif" font-size="14.00">Graph with 1 tree(s) &#45; t1.</text>
<!-- node_7fc13db9c430 -->
<g id="node1" class="node">
<title>node_7fc13db9c430</title>
<polygon fill="#73ff7e" fill-opacity="0.600000" stroke="#3eb248" stroke-width="3" stroke-opacity="0.600000" points="99,-233 68.83,-215 99,-197 129.17,-215 99,-233"/>
<text text-anchor="middle" x="99" y="-211.3" font-family="monospace bold" font-size="14.00" fill="#003304">t1</text>
</g>
<!-- value__node_7fc13db9c430__a -->
<g id="node2" class="node">
<title>value__node_7fc13db9c430__a</title>
<polygon fill="#73ff7e" fill-opacity="0.600000" stroke="transparent" stroke-width="1.5" points="54,-146 0,-146 0,-110 54,-110 54,-146"/>
<text text-anchor="middle" x="27" y="-124.3" font-family="monospace" font-size="14.00" fill="#003304">1</text>
</g>
<!-- node_7fc13db9c430&#45;&gt;value__node_7fc13db9c430__a -->
<g id="edge1" class="edge">
<title>node_7fc13db9c430&#45;&gt;value__node_7fc13db9c430__a</title>
<path fill="none" stroke="#1f9929" stroke-opacity="0.800000" d="M89.29,-202.54C77.77,-188.94 58.37,-166.03 44.27,-149.39"/>
<ellipse fill="#1f9929" fill-opacity="0.800000" stroke="#1f9929" stroke-opacity="0.800000" cx="42.82" cy="-147.68" rx="2" ry="2"/>
<text text-anchor="middle" x="72" y="-167.8" font-family="Times-Roman bold" font-size="14.00" fill="#00730a">a</text>
</g>
<!-- value__node_7fc13db9c430__b -->
<g id="node3" class="node">
<title>value__node_7fc13db9c430__b</title>
<polygon fill="#73ff7e" fill-opacity="0.600000" stroke="transparent" stroke-width="1.5" points="126,-146 72,-146 72,-110 126,-110 126,-146"/>
<text text-anchor="middle" x="99" y="-124.3" font-family="monospace" font-size="14.00" fill="#003304">2</text>
</g>
<!-- node_7fc13db9c430&#45;&gt;value__node_7fc13db9c430__b -->
<g id="edge2" class="edge">
<title>node_7fc13db9c430&#45;&gt;value__node_7fc13db9c430__b</title>
<path fill="none" stroke="#1f9929" stroke-opacity="0.800000" d="M99,-196.8C99,-183.43 99,-164.82 99,-150.48"/>
<ellipse fill="#1f9929" fill-opacity="0.800000" stroke="#1f9929" stroke-opacity="0.800000" cx="99" cy="-148.18" rx="2" ry="2"/>
<text text-anchor="middle" x="104" y="-167.8" font-family="Times-Roman bold" font-size="14.00" fill="#00730a">b</text>
</g>
<!-- node_7fc13db9c460 -->
<g id="node4" class="node">
<title>node_7fc13db9c460</title>
<ellipse fill="#73ff7e" fill-opacity="0.600000" stroke="#3eb248" stroke-width="1.5" stroke-opacity="0.600000" cx="176" cy="-128" rx="32.49" ry="18"/>
<text text-anchor="middle" x="176" y="-124.3" font-family="monospace bold" font-size="14.00" fill="#003304">t1.x</text>
</g>
<!-- node_7fc13db9c430&#45;&gt;node_7fc13db9c460 -->
<g id="edge3" class="edge">
<title>node_7fc13db9c430&#45;&gt;node_7fc13db9c460</title>
<path fill="none" stroke="#1f9929" stroke-opacity="0.800000" d="M109.07,-202.89C120.7,-190.05 140.15,-168.57 155.1,-152.08"/>
<polygon fill="#1f9929" fill-opacity="0.800000" stroke="#1f9929" stroke-opacity="0.800000" points="162.02,-144.44 158.64,-154.87 158.66,-148.14 155.3,-151.85 155.3,-151.85 155.3,-151.85 158.66,-148.14 151.97,-148.83 162.02,-144.44 162.02,-144.44"/>
<text text-anchor="middle" x="147" y="-167.8" font-family="Times-Roman bold" font-size="14.00" fill="#00730a">x</text>
</g>
<!-- value__node_7fc13db9c460__c -->
<g id="node5" class="node">
<title>value__node_7fc13db9c460__c</title>
<polygon fill="#73ff7e" fill-opacity="0.600000" stroke="transparent" stroke-width="1.5" points="167,-59 113,-59 113,-23 167,-23 167,-59"/>
<text text-anchor="middle" x="140" y="-37.3" font-family="monospace" font-size="14.00" fill="#003304">3</text>
</g>
<!-- node_7fc13db9c460&#45;&gt;value__node_7fc13db9c460__c -->
<g id="edge4" class="edge">
<title>node_7fc13db9c460&#45;&gt;value__node_7fc13db9c460__c</title>
<path fill="none" stroke="#1f9929" stroke-opacity="0.800000" d="M168.89,-110.21C163.16,-96.67 155.07,-77.57 148.9,-63.02"/>
<ellipse fill="#1f9929" fill-opacity="0.800000" stroke="#1f9929" stroke-opacity="0.800000" cx="148" cy="-60.89" rx="2" ry="2"/>
<text text-anchor="middle" x="164.5" y="-80.8" font-family="Times-Roman bold" font-size="14.00" fill="#00730a">c</text>
</g>
<!-- value__node_7fc13db9c460__d -->
<g id="node6" class="node">
<title>value__node_7fc13db9c460__d</title>
<polygon fill="#73ff7e" fill-opacity="0.600000" stroke="transparent" stroke-width="1.5" points="239,-59 185,-59 185,-23 239,-23 239,-59"/>
<text text-anchor="middle" x="212" y="-37.3" font-family="monospace" font-size="14.00" fill="#003304">4</text>
</g>
<!-- node_7fc13db9c460&#45;&gt;value__node_7fc13db9c460__d -->
<g id="edge5" class="edge">
<title>node_7fc13db9c460&#45;&gt;value__node_7fc13db9c460__d</title>
<path fill="none" stroke="#1f9929" stroke-opacity="0.800000" d="M183.11,-110.21C188.84,-96.67 196.93,-77.57 203.1,-63.02"/>
<ellipse fill="#1f9929" fill-opacity="0.800000" stroke="#1f9929" stroke-opacity="0.800000" cx="204" cy="-60.89" rx="2" ry="2"/>
<text text-anchor="middle" x="201" y="-80.8" font-family="Times-Roman bold" font-size="14.00" fill="#00730a">d</text>
</g>
</g>
</svg>
