<?xml version="1.0" encoding="UTF-8" standalone="no"?>
<!DOCTYPE svg PUBLIC "-//W3C//DTD SVG 1.1//EN"
 "http://www.w3.org/Graphics/SVG/1.1/DTD/svg11.dtd">
<!-- Generated by graphviz version 2.43.0 (0)
 -->
<!-- Title: graph_to_show_the_shared_nodes Pages: 1 -->
<svg width="746pt" height="328pt"
 viewBox="0.00 0.00 746.00 328.00" xmlns="http://www.w3.org/2000/svg" xmlns:xlink="http://www.w3.org/1999/xlink">
<g id="graph0" class="graph" transform="scale(1 1) rotate(0) translate(4 324)">
<title>graph_to_show_the_shared_nodes</title>
<polygon fill="transparent" stroke="transparent" points="-4,4 -4,-324 742,-324 742,4 -4,4"/>
<text text-anchor="middle" x="369" y="-7.8" font-family="Times,serif" font-size="14.00">Graph to Show the Shared Nodes</text>
<!-- node_7f20920c7370 -->
<g id="node1" class="node">
<title>node_7f20920c7370</title>
<polygon fill="#73ff7e" fill-opacity="0.600000" stroke="#3eb248" stroke-width="3" stroke-opacity="0.600000" points="116,-233 78.13,-215 116,-197 153.87,-215 116,-233"/>
<text text-anchor="middle" x="116" y="-211.3" font-family="monospace bold" font-size="14.00" fill="#003304">nt1</text>
</g>
<!-- value__node_7f20920c7370__a -->
<g id="node4" class="node">
<title>value__node_7f20920c7370__a</title>
<polygon fill="#73ff7e" fill-opacity="0.600000" stroke="transparent" stroke-width="1.5" points="126,-146 72,-146 72,-110 126,-110 126,-146"/>
<text text-anchor="middle" x="99" y="-124.3" font-family="monospace" font-size="14.00" fill="#003304">1</text>
</g>
<!-- node_7f20920c7370&#45;&gt;value__node_7f20920c7370__a -->
<g id="edge1" class="edge">
<title>node_7f20920c7370&#45;&gt;value__node_7f20920c7370__a</title>
<path fill="none" stroke="#1f9929" stroke-opacity="0.800000" d="M112.88,-198.41C110.18,-184.92 106.26,-165.28 103.27,-150.33"/>
<ellipse fill="#1f9929" fill-opacity="0.800000" stroke="#1f9929" stroke-opacity="0.800000" cx="102.84" cy="-148.21" rx="2" ry="2"/>
<text text-anchor="middle" x="114" y="-167.8" font-family="Times-Roman bold" font-size="14.00" fill="#00730a">a</text>
</g>
<!-- value__node_7f20920c7370__b -->
<g id="node5" class="node">
<title>value__node_7f20920c7370__b</title>
<polygon fill="#73ff7e" fill-opacity="0.600000" stroke="transparent" stroke-width="1.5" points="54,-146 0,-146 0,-110 54,-110 54,-146"/>
<text text-anchor="middle" x="27" y="-124.3" font-family="monospace" font-size="14.00" fill="#003304">2</text>
</g>
<!-- node_7f20920c7370&#45;&gt;value__node_7f20920c7370__b -->
<g id="edge2" class="edge">
<title>node_7f20920c7370&#45;&gt;value__node_7f20920c7370__b</title>
<path fill="none" stroke="#1f9929" stroke-opacity="0.800000" d="M104,-202.54C89.64,-188.83 65.37,-165.65 47.92,-148.98"/>
<ellipse fill="#1f9929" fill-opacity="0.800000" stroke="#1f9929" stroke-opacity="0.800000" cx="46.4" cy="-147.53" rx="2" ry="2"/>
<text text-anchor="middle" x="82" y="-167.8" font-family="Times-Roman bold" font-size="14.00" fill="#00730a">b</text>
</g>
<!-- node_7f20920c73a0 -->
<g id="node6" class="node">
<title>node_7f20920c73a0</title>
<ellipse fill="#73ff7e" fill-opacity="0.600000" stroke="#3eb248" stroke-width="1.5" stroke-opacity="0.600000" cx="182" cy="-128" rx="37.89" ry="18"/>
<text text-anchor="middle" x="182" y="-124.3" font-family="monospace bold" font-size="14.00" fill="#003304">nt1.x</text>
</g>
<!-- node_7f20920c7370&#45;&gt;node_7f20920c73a0 -->
<g id="edge3" class="edge">
<title>node_7f20920c7370&#45;&gt;node_7f20920c73a0</title>
<path fill="none" stroke="#1f9929" stroke-opacity="0.800000" d="M125.74,-201.46C135.54,-188.83 150.92,-169.03 163.12,-153.32"/>
<polygon fill="#1f9929" fill-opacity="0.800000" stroke="#1f9929" stroke-opacity="0.800000" points="169.51,-145.08 166.93,-155.74 166.45,-149.03 163.38,-152.98 163.38,-152.98 163.38,-152.98 166.45,-149.03 159.83,-150.22 169.51,-145.08 169.51,-145.08"/>
<text text-anchor="middle" x="158" y="-167.8" font-family="Times-Roman bold" font-size="14.00" fill="#00730a">x</text>
</g>
<!-- node_7f20920c7490 -->
<g id="node2" class="node">
<title>node_7f20920c7490</title>
<polygon fill="#9673ff" fill-opacity="0.600000" stroke="#5b3eb2" stroke-width="3" stroke-opacity="0.600000" points="319,-233 281.13,-215 319,-197 356.87,-215 319,-233"/>
<text text-anchor="middle" x="319" y="-211.3" font-family="monospace bold" font-size="14.00" fill="#0d0033">nt2</text>
</g>
<!-- value__node_7f20920c7490__a -->
<g id="node7" class="node">
<title>value__node_7f20920c7490__a</title>
<polygon fill="#9673ff" fill-opacity="0.600000" stroke="transparent" stroke-width="1.5" points="458,-146 404,-146 404,-110 458,-110 458,-146"/>
<text text-anchor="middle" x="431" y="-124.3" font-family="monospace" font-size="14.00" fill="#0d0033">11</text>
</g>
<!-- node_7f20920c7490&#45;&gt;value__node_7f20920c7490__a -->
<g id="edge4" class="edge">
<title>node_7f20920c7490&#45;&gt;value__node_7f20920c7490__a</title>
<path fill="none" stroke="#3d1f99" stroke-opacity="0.800000" d="M333.18,-203.23C351.25,-189.52 382.8,-165.58 405.18,-148.59"/>
<ellipse fill="#3d1f99" fill-opacity="0.800000" stroke="#3d1f99" stroke-opacity="0.800000" cx="406.82" cy="-147.35" rx="2" ry="2"/>
<text text-anchor="middle" x="387" y="-167.8" font-family="Times-Roman bold" font-size="14.00" fill="#1d0073">a</text>
</g>
<!-- value__node_7f20920c7490__b -->
<g id="node8" class="node">
<title>value__node_7f20920c7490__b</title>
<polygon fill="#9673ff" fill-opacity="0.600000" stroke="transparent" stroke-width="1.5" points="292,-146 238,-146 238,-110 292,-110 292,-146"/>
<text text-anchor="middle" x="265" y="-124.3" font-family="monospace" font-size="14.00" fill="#0d0033">24</text>
</g>
<!-- node_7f20920c7490&#45;&gt;value__node_7f20920c7490__b -->
<g id="edge5" class="edge">
<title>node_7f20920c7490&#45;&gt;value__node_7f20920c7490__b</title>
<path fill="none" stroke="#3d1f99" stroke-opacity="0.800000" d="M310.56,-200.72C301.9,-187.09 288.31,-165.69 278.22,-149.81"/>
<ellipse fill="#3d1f99" fill-opacity="0.800000" stroke="#3d1f99" stroke-opacity="0.800000" cx="277.07" cy="-147.99" rx="2" ry="2"/>
<text text-anchor="middle" x="301" y="-167.8" font-family="Times-Roman bold" font-size="14.00" fill="#1d0073">b</text>
</g>
<!-- node_7f20920c7310 -->
<g id="node9" class="node">
<title>node_7f20920c7310</title>
<ellipse fill="#9673ff" fill-opacity="0.600000" stroke="#5b3eb2" stroke-width="1.5" stroke-opacity="0.600000" cx="348" cy="-128" rx="37.89" ry="18"/>
<text text-anchor="middle" x="348" y="-124.3" font-family="monospace bold" font-size="14.00" fill="#0d0033">nt2.x</text>
</g>
<!-- node_7f20920c7490&#45;&gt;node_7f20920c7310 -->
<g id="edge6" class="edge">
<title>node_7f20920c7490&#45;&gt;node_7f20920c7310</title>
<path fill="none" stroke="#3d1f99" stroke-opacity="0.800000" d="M324.05,-199.19C328.13,-187.25 333.96,-170.14 338.85,-155.81"/>
<polygon fill="#3d1f99" fill-opacity="0.800000" stroke="#3d1f99" stroke-opacity="0.800000" points="342.21,-145.97 343.24,-156.89 340.6,-150.7 338.98,-155.44 338.98,-155.44 338.98,-155.44 340.6,-150.7 334.72,-153.98 342.21,-145.97 342.21,-145.97"/>
<text text-anchor="middle" x="341" y="-167.8" font-family="Times-Roman bold" font-size="14.00" fill="#1d0073">x</text>
</g>
<!-- node_7f20920c7340 -->
<g id="node3" class="node">
<title>node_7f20920c7340</title>
<polygon fill="#ffad73" fill-opacity="0.600000" stroke="#b26f3e" stroke-width="3" stroke-opacity="0.600000" points="210,-320 172.13,-302 210,-284 247.87,-302 210,-320"/>
<text text-anchor="middle" x="210" y="-298.3" font-family="monospace bold" font-size="14.00" fill="#331500">nt3</text>
</g>
<!-- node_7f20920c7340&#45;&gt;node_7f20920c7370 -->
<g id="edge7" class="edge">
<title>node_7f20920c7340&#45;&gt;node_7f20920c7370</title>
<path fill="none" stroke="#99521f" stroke-opacity="0.800000" d="M190.44,-293.27C177.08,-287.29 159.59,-278 147,-266 138.99,-258.36 132.21,-248.23 127.05,-239.09"/>
<polygon fill="#99521f" fill-opacity="0.800000" stroke="#99521f" stroke-opacity="0.800000" points="122.27,-230.06 130.93,-236.8 124.61,-234.48 126.95,-238.9 126.95,-238.9 126.95,-238.9 124.61,-234.48 122.97,-241.01 122.27,-230.06 122.27,-230.06"/>
<text text-anchor="middle" x="163.5" y="-254.8" font-family="Times-Roman bold" font-size="14.00" fill="#733000">first</text>
</g>
<!-- node_7f20920c7340&#45;&gt;node_7f20920c7490 -->
<g id="edge8" class="edge">
<title>node_7f20920c7340&#45;&gt;node_7f20920c7490</title>
<path fill="none" stroke="#99521f" stroke-opacity="0.800000" d="M223.8,-290.23C242.31,-275.8 275.37,-250.02 297.25,-232.96"/>
<polygon fill="#99521f" fill-opacity="0.800000" stroke="#99521f" stroke-opacity="0.800000" points="305.31,-226.68 300.19,-236.38 301.36,-229.75 297.42,-232.83 297.42,-232.83 297.42,-232.83 301.36,-229.75 294.65,-229.28 305.31,-226.68 305.31,-226.68"/>
<text text-anchor="middle" x="300" y="-254.8" font-family="Times-Roman bold" font-size="14.00" fill="#733000">second</text>
</g>
<!-- node_7f20920c7340&#45;&gt;node_7f20920c73a0 -->
<g id="edge9" class="edge">
<title>node_7f20920c7340&#45;&gt;node_7f20920c73a0</title>
<path fill="none" stroke="#99521f" stroke-opacity="0.800000" d="M207.42,-285.13C202.62,-255.68 192.31,-192.3 186.4,-156"/>
<polygon fill="#99521f" fill-opacity="0.800000" stroke="#99521f" stroke-opacity="0.800000" points="184.78,-146.1 190.83,-155.25 185.59,-151.04 186.39,-155.97 186.39,-155.97 186.39,-155.97 185.59,-151.04 181.95,-156.69 184.78,-146.1 184.78,-146.1"/>
<text text-anchor="middle" x="230.5" y="-211.3" font-family="Times-Roman bold" font-size="14.00" fill="#733000">another</text>
</g>
<!-- node_7f20920c74f0 -->
<g id="node10" class="node">
<title>node_7f20920c74f0</title>
<ellipse fill="#ffad73" fill-opacity="0.600000" stroke="#b26f3e" stroke-width="1.5" stroke-opacity="0.600000" cx="605" cy="-215" rx="48.19" ry="18"/>
<text text-anchor="middle" x="605" y="-211.3" font-family="monospace bold" font-size="14.00" fill="#331500">nt3.sum</text>
</g>
<!-- node_7f20920c7340&#45;&gt;node_7f20920c74f0 -->
<g id="edge10" class="edge">
<title>node_7f20920c7340&#45;&gt;node_7f20920c74f0</title>
<path fill="none" stroke="#99521f" stroke-opacity="0.800000" d="M234.71,-295.68C298.33,-281.99 468.77,-245.32 554.41,-226.89"/>
<polygon fill="#99521f" fill-opacity="0.800000" stroke="#99521f" stroke-opacity="0.800000" points="564.42,-224.73 555.59,-231.23 559.54,-225.78 554.65,-226.84 554.65,-226.84 554.65,-226.84 559.54,-225.78 553.7,-222.44 564.42,-224.73 564.42,-224.73"/>
<text text-anchor="middle" x="448.5" y="-254.8" font-family="Times-Roman bold" font-size="14.00" fill="#733000">sum</text>
</g>
<!-- value__node_7f20920c73a0__c -->
<g id="node11" class="node">
<title>value__node_7f20920c73a0__c</title>
<polygon fill="#73ff7e" fill-opacity="0.600000" stroke="transparent" stroke-width="1.5" points="159,-59 105,-59 105,-23 159,-23 159,-59"/>
<text text-anchor="middle" x="132" y="-37.3" font-family="monospace" font-size="14.00" fill="#003304">3</text>
</g>
<!-- node_7f20920c73a0&#45;&gt;value__node_7f20920c73a0__c -->
<g id="edge11" class="edge">
<title>node_7f20920c73a0&#45;&gt;value__node_7f20920c73a0__c</title>
<path fill="none" stroke="#1f9929" stroke-opacity="0.800000" d="M172.12,-110.21C164.09,-96.56 152.73,-77.24 144.15,-62.65"/>
<ellipse fill="#1f9929" fill-opacity="0.800000" stroke="#1f9929" stroke-opacity="0.800000" cx="143.04" cy="-60.77" rx="2" ry="2"/>
<text text-anchor="middle" x="164.5" y="-80.8" font-family="Times-Roman bold" font-size="14.00" fill="#00730a">c</text>
</g>
<!-- value__node_7f20920c73a0__d -->
<g id="node12" class="node">
<title>value__node_7f20920c73a0__d</title>
<polygon fill="#73ff7e" fill-opacity="0.600000" stroke="transparent" stroke-width="1.5" points="231,-59 177,-59 177,-23 231,-23 231,-59"/>
<text text-anchor="middle" x="204" y="-37.3" font-family="monospace" font-size="14.00" fill="#003304">4</text>
</g>
<!-- node_7f20920c73a0&#45;&gt;value__node_7f20920c73a0__d -->
<g id="edge12" class="edge">
<title>node_7f20920c73a0&#45;&gt;value__node_7f20920c73a0__d</title>
<path fill="none" stroke="#1f9929" stroke-opacity="0.800000" d="M186.45,-109.8C189.94,-96.32 194.81,-77.5 198.54,-63.11"/>
<ellipse fill="#1f9929" fill-opacity="0.800000" stroke="#1f9929" stroke-opacity="0.800000" cx="199.05" cy="-61.11" rx="2" ry="2"/>
<text text-anchor="middle" x="200" y="-80.8" font-family="Times-Roman bold" font-size="14.00" fill="#00730a">d</text>
</g>
<!-- value__node_7f20920c7310__c -->
<g id="node13" class="node">
<title>value__node_7f20920c7310__c</title>
<polygon fill="#9673ff" fill-opacity="0.600000" stroke="transparent" stroke-width="1.5" points="350,-59 296,-59 296,-23 350,-23 350,-59"/>
<text text-anchor="middle" x="323" y="-37.3" font-family="monospace" font-size="14.00" fill="#0d0033">30</text>
</g>
<!-- node_7f20920c7310&#45;&gt;value__node_7f20920c7310__c -->
<g id="edge13" class="edge">
<title>node_7f20920c7310&#45;&gt;value__node_7f20920c7310__c</title>
<path fill="none" stroke="#3d1f99" stroke-opacity="0.800000" d="M342.94,-109.8C338.98,-96.32 333.44,-77.5 329.21,-63.11"/>
<ellipse fill="#3d1f99" fill-opacity="0.800000" stroke="#3d1f99" stroke-opacity="0.800000" cx="328.62" cy="-61.09" rx="2" ry="2"/>
<text text-anchor="middle" x="341.5" y="-80.8" font-family="Times-Roman bold" font-size="14.00" fill="#1d0073">c</text>
</g>
<!-- value__node_7f20920c7310__d -->
<g id="node14" class="node">
<title>value__node_7f20920c7310__d</title>
<polygon fill="#9673ff" fill-opacity="0.600000" stroke="transparent" stroke-width="1.5" points="422,-59 368,-59 368,-23 422,-23 422,-59"/>
<text text-anchor="middle" x="395" y="-37.3" font-family="monospace" font-size="14.00" fill="#0d0033">47</text>
</g>
<!-- node_7f20920c7310&#45;&gt;value__node_7f20920c7310__d -->
<g id="edge14" class="edge">
<title>node_7f20920c7310&#45;&gt;value__node_7f20920c7310__d</title>
<path fill="none" stroke="#3d1f99" stroke-opacity="0.800000" d="M357.29,-110.21C364.83,-96.56 375.51,-77.24 383.58,-62.65"/>
<ellipse fill="#3d1f99" fill-opacity="0.800000" stroke="#3d1f99" stroke-opacity="0.800000" cx="384.6" cy="-60.8" rx="2" ry="2"/>
<text text-anchor="middle" x="380" y="-80.8" font-family="Times-Roman bold" font-size="14.00" fill="#1d0073">d</text>
</g>
<!-- value__node_7f20920c74f0__a -->
<g id="node15" class="node">
<title>value__node_7f20920c74f0__a</title>
<polygon fill="#ffad73" fill-opacity="0.600000" stroke="transparent" stroke-width="1.5" points="738,-146 684,-146 684,-110 738,-110 738,-146"/>
<text text-anchor="middle" x="711" y="-124.3" font-family="monospace" font-size="14.00" fill="#331500">12</text>
</g>
<!-- node_7f20920c74f0&#45;&gt;value__node_7f20920c74f0__a -->
<g id="edge15" class="edge">
<title>node_7f20920c74f0&#45;&gt;value__node_7f20920c74f0__a</title>
<path fill="none" stroke="#99521f" stroke-opacity="0.800000" d="M624.44,-198.41C641.84,-184.46 667.45,-163.93 686.29,-148.81"/>
<ellipse fill="#99521f" fill-opacity="0.800000" stroke="#99521f" stroke-opacity="0.800000" cx="687.93" cy="-147.5" rx="2" ry="2"/>
<text text-anchor="middle" x="670" y="-167.8" font-family="Times-Roman bold" font-size="14.00" fill="#733000">a</text>
</g>
<!-- node_7f20920c7520 -->
<g id="node16" class="node">
<title>node_7f20920c7520</title>
<ellipse fill="#ffad73" fill-opacity="0.600000" stroke="#b26f3e" stroke-width="1.5" stroke-opacity="0.600000" cx="535" cy="-128" rx="59.29" ry="18"/>
<text text-anchor="middle" x="535" y="-124.3" font-family="monospace bold" font-size="14.00" fill="#331500">nt3.sum.x</text>
</g>
<!-- node_7f20920c74f0&#45;&gt;node_7f20920c7520 -->
<g id="edge16" class="edge">
<title>node_7f20920c74f0&#45;&gt;node_7f20920c7520</title>
<path fill="none" stroke="#99521f" stroke-opacity="0.800000" d="M591.5,-197.61C581.21,-185.11 566.86,-167.69 555.2,-153.53"/>
<polygon fill="#99521f" fill-opacity="0.800000" stroke="#99521f" stroke-opacity="0.800000" points="548.69,-145.63 558.52,-150.49 551.87,-149.49 555.05,-153.35 555.05,-153.35 555.05,-153.35 551.87,-149.49 551.58,-156.21 548.69,-145.63 548.69,-145.63"/>
<text text-anchor="middle" x="580" y="-167.8" font-family="Times-Roman bold" font-size="14.00" fill="#733000">x</text>
</g>
<!-- value__node_7f20920c74f0__b -->
<g id="node17" class="node">
<title>value__node_7f20920c74f0__b</title>
<polygon fill="#ffad73" fill-opacity="0.600000" stroke="transparent" stroke-width="1.5" points="666,-146 612,-146 612,-110 666,-110 666,-146"/>
<text text-anchor="middle" x="639" y="-124.3" font-family="monospace" font-size="14.00" fill="#331500">26</text>
</g>
<!-- node_7f20920c74f0&#45;&gt;value__node_7f20920c74f0__b -->
<g id="edge17" class="edge">
<title>node_7f20920c74f0&#45;&gt;value__node_7f20920c74f0__b</title>
<path fill="none" stroke="#99521f" stroke-opacity="0.800000" d="M611.88,-196.8C617.27,-183.32 624.8,-164.5 630.56,-150.11"/>
<ellipse fill="#99521f" fill-opacity="0.800000" stroke="#99521f" stroke-opacity="0.800000" cx="631.39" cy="-148.03" rx="2" ry="2"/>
<text text-anchor="middle" x="630" y="-167.8" font-family="Times-Roman bold" font-size="14.00" fill="#733000">b</text>
</g>
<!-- value__node_7f20920c7520__d -->
<g id="node18" class="node">
<title>value__node_7f20920c7520__d</title>
<polygon fill="#ffad73" fill-opacity="0.600000" stroke="transparent" stroke-width="1.5" points="515,-59 461,-59 461,-23 515,-23 515,-59"/>
<text text-anchor="middle" x="488" y="-37.3" font-family="monospace" font-size="14.00" fill="#331500">51</text>
</g>
<!-- node_7f20920c7520&#45;&gt;value__node_7f20920c7520__d -->
<g id="edge18" class="edge">
<title>node_7f20920c7520&#45;&gt;value__node_7f20920c7520__d</title>
<path fill="none" stroke="#99521f" stroke-opacity="0.800000" d="M525.71,-110.21C518.17,-96.56 507.49,-77.24 499.42,-62.65"/>
<ellipse fill="#99521f" fill-opacity="0.800000" stroke="#99521f" stroke-opacity="0.800000" cx="498.4" cy="-60.8" rx="2" ry="2"/>
<text text-anchor="middle" x="520" y="-80.8" font-family="Times-Roman bold" font-size="14.00" fill="#733000">d</text>
</g>
<!-- value__node_7f20920c7520__c -->
<g id="node19" class="node">
<title>value__node_7f20920c7520__c</title>
<polygon fill="#ffad73" fill-opacity="0.600000" stroke="transparent" stroke-width="1.5" points="587,-59 533,-59 533,-23 587,-23 587,-59"/>
<text text-anchor="middle" x="560" y="-37.3" font-family="monospace" font-size="14.00" fill="#331500">33</text>
</g>
<!-- node_7f20920c7520&#45;&gt;value__node_7f20920c7520__c -->
<g id="edge19" class="edge">
<title>node_7f20920c7520&#45;&gt;value__node_7f20920c7520__c</title>
<path fill="none" stroke="#99521f" stroke-opacity="0.800000" d="M540.06,-109.8C544.02,-96.32 549.56,-77.5 553.79,-63.11"/>
<ellipse fill="#99521f" fill-opacity="0.800000" stroke="#99521f" stroke-opacity="0.800000" cx="554.38" cy="-61.09" rx="2" ry="2"/>
<text text-anchor="middle" x="553.5" y="-80.8" font-family="Times-Roman bold" font-size="14.00" fill="#733000">c</text>
</g>
</g>
</svg>
