<?xml version="1.0" encoding="UTF-8" standalone="no"?>
<!DOCTYPE svg PUBLIC "-//W3C//DTD SVG 1.1//EN"
 "http://www.w3.org/Graphics/SVG/1.1/DTD/svg11.dtd">
<!-- Generated by graphviz version 2.43.0 (0)
 -->
<!-- Title: shared_values Pages: 1 -->
<svg width="452pt" height="258pt"
 viewBox="0.00 0.00 451.70 258.00" xmlns="http://www.w3.org/2000/svg" xmlns:xlink="http://www.w3.org/1999/xlink">
<g id="graph0" class="graph" transform="scale(1 1) rotate(0) translate(4 254)">
<title>shared_values</title>
<polygon fill="transparent" stroke="transparent" points="-4,4 -4,-254 447.7,-254 447.7,4 -4,4"/>
<text text-anchor="middle" x="221.85" y="-7.8" font-family="Times,serif" font-size="14.00">Shared Values</text>
<!-- node_7f117cf240a0 -->
<g id="node1" class="node">
<title>node_7f117cf240a0</title>
<polygon fill="#73ff7e" fill-opacity="0.600000" stroke="#3eb248" stroke-width="3" stroke-opacity="0.600000" points="120.7,-250 82.82,-232 120.7,-214 158.57,-232 120.7,-250"/>
<text text-anchor="middle" x="120.7" y="-228.3" font-family="monospace bold" font-size="14.00" fill="#003304">st1</text>
</g>
<!-- value__node_7f117cf240a0__a -->
<g id="node3" class="node">
<title>value__node_7f117cf240a0__a</title>
<polygon fill="#73ff7e" fill-opacity="0.600000" stroke="transparent" stroke-width="1.5" points="147.7,-163 93.7,-163 93.7,-127 147.7,-127 147.7,-163"/>
<text text-anchor="middle" x="120.7" y="-141.3" font-family="monospace" font-size="14.00" fill="#003304">1</text>
</g>
<!-- node_7f117cf240a0&#45;&gt;value__node_7f117cf240a0__a -->
<g id="edge1" class="edge">
<title>node_7f117cf240a0&#45;&gt;value__node_7f117cf240a0__a</title>
<path fill="none" stroke="#1f9929" stroke-opacity="0.800000" d="M120.7,-213.8C120.7,-200.43 120.7,-181.82 120.7,-167.48"/>
<ellipse fill="#1f9929" fill-opacity="0.800000" stroke="#1f9929" stroke-opacity="0.800000" cx="120.7" cy="-165.18" rx="2" ry="2"/>
<text text-anchor="middle" x="125.7" y="-184.8" font-family="Times-Roman bold" font-size="14.00" fill="#00730a">a</text>
</g>
<!-- value_7f117e1de0c0 -->
<g id="node4" class="node">
<title>value_7f117e1de0c0</title>
<polygon fill="#73ff7e" fill-opacity="0.600000" stroke="transparent" stroke-width="1.5" points="231.7,-163 165.7,-163 165.7,-127 231.7,-127 231.7,-163"/>
<text text-anchor="middle" x="198.7" y="-141.3" font-family="monospace" font-size="14.00" fill="#003304">[1, 2]</text>
</g>
<!-- node_7f117cf240a0&#45;&gt;value_7f117e1de0c0 -->
<g id="edge2" class="edge">
<title>node_7f117cf240a0&#45;&gt;value_7f117e1de0c0</title>
<path fill="none" stroke="#1f9929" stroke-opacity="0.800000" d="M131.87,-218.82C144.43,-205.14 165.02,-182.7 180.03,-166.34"/>
<ellipse fill="#1f9929" fill-opacity="0.800000" stroke="#1f9929" stroke-opacity="0.800000" cx="181.6" cy="-164.63" rx="2" ry="2"/>
<text text-anchor="middle" x="169.7" y="-184.8" font-family="Times-Roman bold" font-size="14.00" fill="#00730a">b</text>
</g>
<!-- node_7f117cf24070 -->
<g id="node5" class="node">
<title>node_7f117cf24070</title>
<ellipse fill="#73ff7e" fill-opacity="0.600000" stroke="#3eb248" stroke-width="1.5" stroke-opacity="0.600000" cx="37.7" cy="-145" rx="37.89" ry="18"/>
<text text-anchor="middle" x="37.7" y="-141.3" font-family="monospace bold" font-size="14.00" fill="#003304">st1.x</text>
</g>
<!-- node_7f117cf240a0&#45;&gt;node_7f117cf24070 -->
<g id="edge3" class="edge">
<title>node_7f117cf240a0&#45;&gt;node_7f117cf24070</title>
<path fill="none" stroke="#1f9929" stroke-opacity="0.800000" d="M109.16,-219.18C96.6,-206.32 76.21,-185.44 60.42,-169.27"/>
<polygon fill="#1f9929" fill-opacity="0.800000" stroke="#1f9929" stroke-opacity="0.800000" points="53.09,-161.76 63.3,-165.77 56.58,-165.34 60.08,-168.92 60.08,-168.92 60.08,-168.92 56.58,-165.34 56.86,-172.06 53.09,-161.76 53.09,-161.76"/>
<text text-anchor="middle" x="89.7" y="-184.8" font-family="Times-Roman bold" font-size="14.00" fill="#00730a">x</text>
</g>
<!-- node_7f117cf24100 -->
<g id="node2" class="node">
<title>node_7f117cf24100</title>
<polygon fill="#9673ff" fill-opacity="0.600000" stroke="#5b3eb2" stroke-width="3" stroke-opacity="0.600000" points="316.7,-250 278.82,-232 316.7,-214 354.57,-232 316.7,-250"/>
<text text-anchor="middle" x="316.7" y="-228.3" font-family="monospace bold" font-size="14.00" fill="#0d0033">st2</text>
</g>
<!-- node_7f117cf24100&#45;&gt;value_7f117e1de0c0 -->
<g id="edge5" class="edge">
<title>node_7f117cf24100&#45;&gt;value_7f117e1de0c0</title>
<path fill="none" stroke="#3d1f99" stroke-opacity="0.800000" d="M302.23,-220.58C283.34,-206.97 249.9,-182.88 226.13,-165.76"/>
<ellipse fill="#3d1f99" fill-opacity="0.800000" stroke="#3d1f99" stroke-opacity="0.800000" cx="224.32" cy="-164.46" rx="2" ry="2"/>
<text text-anchor="middle" x="274.2" y="-184.8" font-family="Times-Roman bold" font-size="14.00" fill="#1d0073">ar</text>
</g>
<!-- value_7f117cf0f1b0 -->
<g id="node6" class="node">
<title>value_7f117cf0f1b0</title>
<polygon fill="#9673ff" fill-opacity="0.600000" stroke="transparent" stroke-width="1.5" points="321.2,-76 230.2,-76 230.2,-23 321.2,-23 321.2,-76"/>
<text text-anchor="start" x="238.2" y="-60.8" font-family="monospace" font-size="14.00" fill="#0d0033">[[0. 0.]</text>
<text text-anchor="start" x="238.2" y="-45.8" font-family="monospace" font-size="14.00" fill="#0d0033"> [0. 0.]</text>
<text text-anchor="start" x="238.2" y="-30.8" font-family="monospace" font-size="14.00" fill="#0d0033"> [0. 0.]]</text>
</g>
<!-- node_7f117cf24100&#45;&gt;value_7f117cf0f1b0 -->
<g id="edge4" class="edge">
<title>node_7f117cf24100&#45;&gt;value_7f117cf0f1b0</title>
<path fill="none" stroke="#3d1f99" stroke-opacity="0.800000" d="M324.51,-217.51C327.73,-211.2 331.08,-203.44 332.7,-196 336.99,-176.26 328.69,-137.66 324.7,-127 318.42,-110.25 308.09,-93.33 298.53,-79.68"/>
<ellipse fill="#3d1f99" fill-opacity="0.800000" stroke="#3d1f99" stroke-opacity="0.800000" cx="297.28" cy="-77.91" rx="2" ry="2"/>
<text text-anchor="middle" x="342.7" y="-141.3" font-family="Times-Roman bold" font-size="14.00" fill="#1d0073">np</text>
</g>
<!-- value__node_7f117cf24100__a -->
<g id="node7" class="node">
<title>value__node_7f117cf24100__a</title>
<polygon fill="#9673ff" fill-opacity="0.600000" stroke="transparent" stroke-width="1.5" points="443.7,-163 389.7,-163 389.7,-127 443.7,-127 443.7,-163"/>
<text text-anchor="middle" x="416.7" y="-141.3" font-family="monospace" font-size="14.00" fill="#0d0033">1</text>
</g>
<!-- node_7f117cf24100&#45;&gt;value__node_7f117cf24100__a -->
<g id="edge6" class="edge">
<title>node_7f117cf24100&#45;&gt;value__node_7f117cf24100__a</title>
<path fill="none" stroke="#3d1f99" stroke-opacity="0.800000" d="M332.16,-220.86C342.04,-214.17 354.96,-205 365.7,-196 376.72,-186.76 388.22,-175.62 397.51,-166.21"/>
<ellipse fill="#3d1f99" fill-opacity="0.800000" stroke="#3d1f99" stroke-opacity="0.800000" cx="398.92" cy="-164.78" rx="2" ry="2"/>
<text text-anchor="middle" x="386.7" y="-184.8" font-family="Times-Roman bold" font-size="14.00" fill="#1d0073">a</text>
</g>
<!-- value_7f117cf1c680 -->
<g id="node8" class="node">
<title>value_7f117cf1c680</title>
<polygon fill="#9673ff" fill-opacity="0.600000" stroke="transparent" stroke-width="1.5" points="315.7,-163 249.7,-163 249.7,-127 315.7,-127 315.7,-163"/>
<text text-anchor="middle" x="282.7" y="-141.3" font-family="monospace" font-size="14.00" fill="#0d0033">[1, 2]</text>
</g>
<!-- node_7f117cf24100&#45;&gt;value_7f117cf1c680 -->
<g id="edge7" class="edge">
<title>node_7f117cf24100&#45;&gt;value_7f117cf1c680</title>
<path fill="none" stroke="#3d1f99" stroke-opacity="0.800000" d="M310.93,-216.58C305.48,-202.96 297.24,-182.37 291.07,-166.94"/>
<ellipse fill="#3d1f99" fill-opacity="0.800000" stroke="#3d1f99" stroke-opacity="0.800000" cx="290.29" cy="-164.99" rx="2" ry="2"/>
<text text-anchor="middle" x="315.7" y="-184.8" font-family="Times-Roman bold" font-size="14.00" fill="#1d0073">arx</text>
</g>
<!-- node_7f117cf24070&#45;&gt;value_7f117cf0f1b0 -->
<g id="edge9" class="edge">
<title>node_7f117cf24070&#45;&gt;value_7f117cf0f1b0</title>
<path fill="none" stroke="#1f9929" stroke-opacity="0.800000" d="M65.93,-132.91C105.41,-117.4 177.72,-88.99 226.24,-69.93"/>
<ellipse fill="#1f9929" fill-opacity="0.800000" stroke="#1f9929" stroke-opacity="0.800000" cx="228.12" cy="-69.19" rx="2" ry="2"/>
<text text-anchor="middle" x="169.7" y="-97.8" font-family="Times-Roman bold" font-size="14.00" fill="#00730a">d</text>
</g>
<!-- value__node_7f117cf24070__c -->
<g id="node9" class="node">
<title>value__node_7f117cf24070__c</title>
<polygon fill="#73ff7e" fill-opacity="0.600000" stroke="transparent" stroke-width="1.5" points="64.7,-67.5 10.7,-67.5 10.7,-31.5 64.7,-31.5 64.7,-67.5"/>
<text text-anchor="middle" x="37.7" y="-45.8" font-family="monospace" font-size="14.00" fill="#003304">3</text>
</g>
<!-- node_7f117cf24070&#45;&gt;value__node_7f117cf24070__c -->
<g id="edge8" class="edge">
<title>node_7f117cf24070&#45;&gt;value__node_7f117cf24070__c</title>
<path fill="none" stroke="#1f9929" stroke-opacity="0.800000" d="M37.7,-126.85C37.7,-111.3 37.7,-88.32 37.7,-71.64"/>
<ellipse fill="#1f9929" fill-opacity="0.800000" stroke="#1f9929" stroke-opacity="0.800000" cx="37.7" cy="-69.54" rx="2" ry="2"/>
<text text-anchor="middle" x="42.2" y="-97.8" font-family="Times-Roman bold" font-size="14.00" fill="#00730a">c</text>
</g>
</g>
</svg>
