<?xml version="1.0" encoding="UTF-8" standalone="no"?>
<!DOCTYPE svg PUBLIC "-//W3C//DTD SVG 1.1//EN"
 "http://www.w3.org/Graphics/SVG/1.1/DTD/svg11.dtd">
<!-- Generated by graphviz version 2.43.0 (0)
 -->
<!-- Title: shared_all_values Pages: 1 -->
<svg width="358pt" height="258pt"
 viewBox="0.00 0.00 358.06 258.00" xmlns="http://www.w3.org/2000/svg" xmlns:xlink="http://www.w3.org/1999/xlink">
<g id="graph0" class="graph" transform="scale(1 1) rotate(0) translate(4 254)">
<title>shared_all_values</title>
<polygon fill="transparent" stroke="transparent" points="-4,4 -4,-254 354.06,-254 354.06,4 -4,4"/>
<text text-anchor="middle" x="175.03" y="-7.8" font-family="Times,serif" font-size="14.00">Shared All Values</text>
<!-- node_7ff263508610 -->
<g id="node1" class="node">
<title>node_7ff263508610</title>
<polygon fill="#73ff7e" fill-opacity="0.600000" stroke="#3eb248" stroke-width="3" stroke-opacity="0.600000" points="223.36,-250 185.49,-232 223.36,-214 261.24,-232 223.36,-250"/>
<text text-anchor="middle" x="223.36" y="-228.3" font-family="monospace bold" font-size="14.00" fill="#003304">st1</text>
</g>
<!-- value_7ff30dccc220 -->
<g id="node3" class="node">
<title>value_7ff30dccc220</title>
<polygon fill="#73ff7e" fill-opacity="0.600000" stroke="transparent" stroke-width="1.5" points="172.36,-163 118.36,-163 118.36,-127 172.36,-127 172.36,-163"/>
<text text-anchor="middle" x="145.36" y="-141.3" font-family="monospace" font-size="14.00" fill="#003304">1</text>
</g>
<!-- node_7ff263508610&#45;&gt;value_7ff30dccc220 -->
<g id="edge1" class="edge">
<title>node_7ff263508610&#45;&gt;value_7ff30dccc220</title>
<path fill="none" stroke="#1f9929" stroke-opacity="0.800000" d="M212.19,-218.82C199.63,-205.14 179.04,-182.7 164.03,-166.34"/>
<ellipse fill="#1f9929" fill-opacity="0.800000" stroke="#1f9929" stroke-opacity="0.800000" cx="162.46" cy="-164.63" rx="2" ry="2"/>
<text text-anchor="middle" x="194.36" y="-184.8" font-family="Times-Roman bold" font-size="14.00" fill="#00730a">a</text>
</g>
<!-- value_7ff263ef4840 -->
<g id="node4" class="node">
<title>value_7ff263ef4840</title>
<polygon fill="#73ff7e" fill-opacity="0.600000" stroke="transparent" stroke-width="1.5" points="256.36,-163 190.36,-163 190.36,-127 256.36,-127 256.36,-163"/>
<text text-anchor="middle" x="223.36" y="-141.3" font-family="monospace" font-size="14.00" fill="#003304">[1, 2]</text>
</g>
<!-- node_7ff263508610&#45;&gt;value_7ff263ef4840 -->
<g id="edge2" class="edge">
<title>node_7ff263508610&#45;&gt;value_7ff263ef4840</title>
<path fill="none" stroke="#1f9929" stroke-opacity="0.800000" d="M223.36,-213.8C223.36,-200.43 223.36,-181.82 223.36,-167.48"/>
<ellipse fill="#1f9929" fill-opacity="0.800000" stroke="#1f9929" stroke-opacity="0.800000" cx="223.36" cy="-165.18" rx="2" ry="2"/>
<text text-anchor="middle" x="228.36" y="-184.8" font-family="Times-Roman bold" font-size="14.00" fill="#00730a">b</text>
</g>
<!-- node_7ff263508640 -->
<g id="node5" class="node">
<title>node_7ff263508640</title>
<ellipse fill="#73ff7e" fill-opacity="0.600000" stroke="#3eb248" stroke-width="1.5" stroke-opacity="0.600000" cx="312.36" cy="-145" rx="37.89" ry="18"/>
<text text-anchor="middle" x="312.36" y="-141.3" font-family="monospace bold" font-size="14.00" fill="#003304">st1.x</text>
</g>
<!-- node_7ff263508610&#45;&gt;node_7ff263508640 -->
<g id="edge3" class="edge">
<title>node_7ff263508610&#45;&gt;node_7ff263508640</title>
<path fill="none" stroke="#1f9929" stroke-opacity="0.800000" d="M235.37,-219.54C249.03,-206.49 271.67,-184.86 288.88,-168.43"/>
<polygon fill="#1f9929" fill-opacity="0.800000" stroke="#1f9929" stroke-opacity="0.800000" points="296.35,-161.3 292.22,-171.46 292.73,-164.75 289.11,-168.2 289.11,-168.2 289.11,-168.2 292.73,-164.75 286.01,-164.95 296.35,-161.3 296.35,-161.3"/>
<text text-anchor="middle" x="277.36" y="-184.8" font-family="Times-Roman bold" font-size="14.00" fill="#00730a">x</text>
</g>
<!-- node_7ff263508730 -->
<g id="node2" class="node">
<title>node_7ff263508730</title>
<polygon fill="#9673ff" fill-opacity="0.600000" stroke="#5b3eb2" stroke-width="3" stroke-opacity="0.600000" points="92.36,-250 54.49,-232 92.36,-214 130.24,-232 92.36,-250"/>
<text text-anchor="middle" x="92.36" y="-228.3" font-family="monospace bold" font-size="14.00" fill="#0d0033">st2</text>
</g>
<!-- node_7ff263508730&#45;&gt;value_7ff30dccc220 -->
<g id="edge6" class="edge">
<title>node_7ff263508730&#45;&gt;value_7ff30dccc220</title>
<path fill="none" stroke="#3d1f99" stroke-opacity="0.800000" d="M98.79,-217.05C103.7,-206.81 110.89,-192.71 118.36,-181 121.52,-176.06 125.19,-170.95 128.8,-166.22"/>
<ellipse fill="#3d1f99" fill-opacity="0.800000" stroke="#3d1f99" stroke-opacity="0.800000" cx="130.05" cy="-164.59" rx="2" ry="2"/>
<text text-anchor="middle" x="123.36" y="-184.8" font-family="Times-Roman bold" font-size="14.00" fill="#1d0073">a</text>
</g>
<!-- node_7ff263508730&#45;&gt;value_7ff263ef4840 -->
<g id="edge5" class="edge">
<title>node_7ff263508730&#45;&gt;value_7ff263ef4840</title>
<path fill="none" stroke="#3d1f99" stroke-opacity="0.800000" d="M105.57,-220.27C118.8,-209.74 139.95,-193.47 159.36,-181 167.94,-175.49 177.45,-169.99 186.46,-165.03"/>
<ellipse fill="#3d1f99" fill-opacity="0.800000" stroke="#3d1f99" stroke-opacity="0.800000" cx="188.54" cy="-163.9" rx="2" ry="2"/>
<text text-anchor="middle" x="167.86" y="-184.8" font-family="Times-Roman bold" font-size="14.00" fill="#1d0073">ar</text>
</g>
<!-- value_7ff26357a750 -->
<g id="node6" class="node">
<title>value_7ff26357a750</title>
<polygon fill="#9673ff" fill-opacity="0.600000" stroke="transparent" stroke-width="1.5" points="154.86,-76 63.86,-76 63.86,-23 154.86,-23 154.86,-76"/>
<text text-anchor="start" x="71.86" y="-60.8" font-family="monospace" font-size="14.00" fill="#0d0033">[[0. 0.]</text>
<text text-anchor="start" x="71.86" y="-45.8" font-family="monospace" font-size="14.00" fill="#0d0033"> [0. 0.]</text>
<text text-anchor="start" x="71.86" y="-30.8" font-family="monospace" font-size="14.00" fill="#0d0033"> [0. 0.]]</text>
</g>
<!-- node_7ff263508730&#45;&gt;value_7ff26357a750 -->
<g id="edge4" class="edge">
<title>node_7ff263508730&#45;&gt;value_7ff26357a750</title>
<path fill="none" stroke="#3d1f99" stroke-opacity="0.800000" d="M73.59,-222.68C52.54,-212.19 19.48,-191.95 5.36,-163 -1.65,-148.62 -1.86,-141.28 5.36,-127 17.03,-103.93 39.29,-86.12 60.24,-73.52"/>
<ellipse fill="#3d1f99" fill-opacity="0.800000" stroke="#3d1f99" stroke-opacity="0.800000" cx="62.13" cy="-72.4" rx="2" ry="2"/>
<text text-anchor="middle" x="15.36" y="-141.3" font-family="Times-Roman bold" font-size="14.00" fill="#1d0073">np</text>
</g>
<!-- value_7ff263586e80 -->
<g id="node7" class="node">
<title>value_7ff263586e80</title>
<polygon fill="#9673ff" fill-opacity="0.600000" stroke="transparent" stroke-width="1.5" points="100.36,-163 34.36,-163 34.36,-127 100.36,-127 100.36,-163"/>
<text text-anchor="middle" x="67.36" y="-141.3" font-family="monospace" font-size="14.00" fill="#0d0033">[1, 2]</text>
</g>
<!-- node_7ff263508730&#45;&gt;value_7ff263586e80 -->
<g id="edge7" class="edge">
<title>node_7ff263508730&#45;&gt;value_7ff263586e80</title>
<path fill="none" stroke="#3d1f99" stroke-opacity="0.800000" d="M82.05,-218.9C77.25,-212.52 72.03,-204.31 69.36,-196 66.44,-186.9 65.66,-176.39 65.72,-167.36"/>
<ellipse fill="#3d1f99" fill-opacity="0.800000" stroke="#3d1f99" stroke-opacity="0.800000" cx="65.77" cy="-165.06" rx="2" ry="2"/>
<text text-anchor="middle" x="82.36" y="-184.8" font-family="Times-Roman bold" font-size="14.00" fill="#1d0073">arx</text>
</g>
<!-- node_7ff263508640&#45;&gt;value_7ff26357a750 -->
<g id="edge9" class="edge">
<title>node_7ff263508640&#45;&gt;value_7ff26357a750</title>
<path fill="none" stroke="#1f9929" stroke-opacity="0.800000" d="M286.24,-131.97C254.19,-117.2 199.15,-91.86 158.97,-73.35"/>
<ellipse fill="#1f9929" fill-opacity="0.800000" stroke="#1f9929" stroke-opacity="0.800000" cx="156.94" cy="-72.41" rx="2" ry="2"/>
<text text-anchor="middle" x="240.36" y="-97.8" font-family="Times-Roman bold" font-size="14.00" fill="#00730a">d</text>
</g>
<!-- value_7ff30dccc260 -->
<g id="node8" class="node">
<title>value_7ff30dccc260</title>
<polygon fill="#73ff7e" fill-opacity="0.600000" stroke="transparent" stroke-width="1.5" points="339.36,-67.5 285.36,-67.5 285.36,-31.5 339.36,-31.5 339.36,-67.5"/>
<text text-anchor="middle" x="312.36" y="-45.8" font-family="monospace" font-size="14.00" fill="#003304">3</text>
</g>
<!-- node_7ff263508640&#45;&gt;value_7ff30dccc260 -->
<g id="edge8" class="edge">
<title>node_7ff263508640&#45;&gt;value_7ff30dccc260</title>
<path fill="none" stroke="#1f9929" stroke-opacity="0.800000" d="M312.36,-126.85C312.36,-111.3 312.36,-88.32 312.36,-71.64"/>
<ellipse fill="#1f9929" fill-opacity="0.800000" stroke="#1f9929" stroke-opacity="0.800000" cx="312.36" cy="-69.54" rx="2" ry="2"/>
<text text-anchor="middle" x="316.86" y="-97.8" font-family="Times-Roman bold" font-size="14.00" fill="#00730a">c</text>
</g>
</g>
</svg>
