<?xml version="1.0" encoding="UTF-8" standalone="no"?>
<!DOCTYPE svg PUBLIC "-//W3C//DTD SVG 1.1//EN"
 "http://www.w3.org/Graphics/SVG/1.1/DTD/svg11.dtd">
<!-- Generated by graphviz version 2.43.0 (0)
 -->
<!-- Title: graph_with_3_tree_s_t1_t2_t3 Pages: 1 -->
<svg width="699pt" height="241pt"
 viewBox="0.00 0.00 699.00 241.00" xmlns="http://www.w3.org/2000/svg" xmlns:xlink="http://www.w3.org/1999/xlink">
<g id="graph0" class="graph" transform="scale(1 1) rotate(0) translate(4 237)">
<title>graph_with_3_tree_s_t1_t2_t3</title>
<polygon fill="white" stroke="transparent" points="-4,4 -4,-237 695,-237 695,4 -4,4"/>
<text text-anchor="middle" x="345.5" y="-7.8" font-family="Times,serif" font-size="14.00">Graph with 3 tree(s) &#45; t1, t2, t3.</text>
<!-- node_7f97b7cde1f0 -->
<g id="node1" class="node">
<title>node_7f97b7cde1f0</title>
<polygon fill="#73ff7e" fill-opacity="0.600000" stroke="#3eb248" stroke-width="3" stroke-opacity="0.600000" points="99,-233 68.83,-215 99,-197 129.17,-215 99,-233"/>
<text text-anchor="middle" x="99" y="-211.3" font-family="monospace bold" font-size="14.00" fill="#003304">t1</text>
</g>
<!-- value__node_7f97b7cde1f0__a -->
<g id="node4" class="node">
<title>value__node_7f97b7cde1f0__a</title>
<polygon fill="#73ff7e" fill-opacity="0.600000" stroke="transparent" stroke-width="1.5" points="54,-146 0,-146 0,-110 54,-110 54,-146"/>
<text text-anchor="middle" x="27" y="-124.3" font-family="monospace" font-size="14.00" fill="#003304">1</text>
</g>
<!-- node_7f97b7cde1f0&#45;&gt;value__node_7f97b7cde1f0__a -->
<g id="edge1" class="edge">
<title>node_7f97b7cde1f0&#45;&gt;value__node_7f97b7cde1f0__a</title>
<path fill="none" stroke="#1f9929" stroke-opacity="0.800000" d="M89.29,-202.54C77.77,-188.94 58.37,-166.03 44.27,-149.39"/>
<ellipse fill="#1f9929" fill-opacity="0.800000" stroke="#1f9929" stroke-opacity="0.800000" cx="42.82" cy="-147.68" rx="2" ry="2"/>
<text text-anchor="middle" x="73" y="-167.8" font-family="Times-Roman bold" font-size="14.00" fill="#00730a">a</text>
</g>
<!-- value__node_7f97b7cde1f0__b -->
<g id="node5" class="node">
<title>value__node_7f97b7cde1f0__b</title>
<polygon fill="#73ff7e" fill-opacity="0.600000" stroke="transparent" stroke-width="1.5" points="126,-146 72,-146 72,-110 126,-110 126,-146"/>
<text text-anchor="middle" x="99" y="-124.3" font-family="monospace" font-size="14.00" fill="#003304">2</text>
</g>
<!-- node_7f97b7cde1f0&#45;&gt;value__node_7f97b7cde1f0__b -->
<g id="edge2" class="edge">
<title>node_7f97b7cde1f0&#45;&gt;value__node_7f97b7cde1f0__b</title>
<path fill="none" stroke="#1f9929" stroke-opacity="0.800000" d="M99,-196.8C99,-183.43 99,-164.82 99,-150.48"/>
<ellipse fill="#1f9929" fill-opacity="0.800000" stroke="#1f9929" stroke-opacity="0.800000" cx="99" cy="-148.18" rx="2" ry="2"/>
<text text-anchor="middle" x="104" y="-167.8" font-family="Times-Roman bold" font-size="14.00" fill="#00730a">b</text>
</g>
<!-- node_7f97b7cde220 -->
<g id="node6" class="node">
<title>node_7f97b7cde220</title>
<ellipse fill="#73ff7e" fill-opacity="0.600000" stroke="#3eb248" stroke-width="1.5" stroke-opacity="0.600000" cx="176" cy="-128" rx="32.49" ry="18"/>
<text text-anchor="middle" x="176" y="-124.3" font-family="monospace bold" font-size="14.00" fill="#003304">t1.x</text>
</g>
<!-- node_7f97b7cde1f0&#45;&gt;node_7f97b7cde220 -->
<g id="edge3" class="edge">
<title>node_7f97b7cde1f0&#45;&gt;node_7f97b7cde220</title>
<path fill="none" stroke="#1f9929" stroke-opacity="0.800000" d="M109.07,-202.89C120.7,-190.05 140.15,-168.57 155.1,-152.08"/>
<polygon fill="#1f9929" fill-opacity="0.800000" stroke="#1f9929" stroke-opacity="0.800000" points="162.02,-144.44 158.64,-154.87 158.66,-148.14 155.3,-151.85 155.3,-151.85 155.3,-151.85 158.66,-148.14 151.97,-148.83 162.02,-144.44 162.02,-144.44"/>
<text text-anchor="middle" x="148" y="-167.8" font-family="Times-Roman bold" font-size="14.00" fill="#00730a">x</text>
</g>
<!-- node_7f97b7cde280 -->
<g id="node2" class="node">
<title>node_7f97b7cde280</title>
<polygon fill="#9673ff" fill-opacity="0.600000" stroke="#5b3eb2" stroke-width="3" stroke-opacity="0.600000" points="325,-233 294.83,-215 325,-197 355.17,-215 325,-233"/>
<text text-anchor="middle" x="325" y="-211.3" font-family="monospace bold" font-size="14.00" fill="#0d0033">t2</text>
</g>
<!-- value__node_7f97b7cde280__a -->
<g id="node7" class="node">
<title>value__node_7f97b7cde280__a</title>
<polygon fill="#9673ff" fill-opacity="0.600000" stroke="transparent" stroke-width="1.5" points="280,-146 226,-146 226,-110 280,-110 280,-146"/>
<text text-anchor="middle" x="253" y="-124.3" font-family="monospace" font-size="14.00" fill="#0d0033">11</text>
</g>
<!-- node_7f97b7cde280&#45;&gt;value__node_7f97b7cde280__a -->
<g id="edge4" class="edge">
<title>node_7f97b7cde280&#45;&gt;value__node_7f97b7cde280__a</title>
<path fill="none" stroke="#3d1f99" stroke-opacity="0.800000" d="M315.29,-202.54C303.77,-188.94 284.37,-166.03 270.27,-149.39"/>
<ellipse fill="#3d1f99" fill-opacity="0.800000" stroke="#3d1f99" stroke-opacity="0.800000" cx="268.82" cy="-147.68" rx="2" ry="2"/>
<text text-anchor="middle" x="299" y="-167.8" font-family="Times-Roman bold" font-size="14.00" fill="#1d0073">a</text>
</g>
<!-- value__node_7f97b7cde280__b -->
<g id="node8" class="node">
<title>value__node_7f97b7cde280__b</title>
<polygon fill="#9673ff" fill-opacity="0.600000" stroke="transparent" stroke-width="1.5" points="352,-146 298,-146 298,-110 352,-110 352,-146"/>
<text text-anchor="middle" x="325" y="-124.3" font-family="monospace" font-size="14.00" fill="#0d0033">24</text>
</g>
<!-- node_7f97b7cde280&#45;&gt;value__node_7f97b7cde280__b -->
<g id="edge5" class="edge">
<title>node_7f97b7cde280&#45;&gt;value__node_7f97b7cde280__b</title>
<path fill="none" stroke="#3d1f99" stroke-opacity="0.800000" d="M325,-196.8C325,-183.43 325,-164.82 325,-150.48"/>
<ellipse fill="#3d1f99" fill-opacity="0.800000" stroke="#3d1f99" stroke-opacity="0.800000" cx="325" cy="-148.18" rx="2" ry="2"/>
<text text-anchor="middle" x="330" y="-167.8" font-family="Times-Roman bold" font-size="14.00" fill="#1d0073">b</text>
</g>
<!-- node_7f97b7cde1c0 -->
<g id="node9" class="node">
<title>node_7f97b7cde1c0</title>
<ellipse fill="#9673ff" fill-opacity="0.600000" stroke="#5b3eb2" stroke-width="1.5" stroke-opacity="0.600000" cx="402" cy="-128" rx="32.49" ry="18"/>
<text text-anchor="middle" x="402" y="-124.3" font-family="monospace bold" font-size="14.00" fill="#0d0033">t2.x</text>
</g>
<!-- node_7f97b7cde280&#45;&gt;node_7f97b7cde1c0 -->
<g id="edge6" class="edge">
<title>node_7f97b7cde280&#45;&gt;node_7f97b7cde1c0</title>
<path fill="none" stroke="#3d1f99" stroke-opacity="0.800000" d="M335.07,-202.89C346.7,-190.05 366.15,-168.57 381.1,-152.08"/>
<polygon fill="#3d1f99" fill-opacity="0.800000" stroke="#3d1f99" stroke-opacity="0.800000" points="388.02,-144.44 384.64,-154.87 384.66,-148.14 381.3,-151.85 381.3,-151.85 381.3,-151.85 384.66,-148.14 377.97,-148.83 388.02,-144.44 388.02,-144.44"/>
<text text-anchor="middle" x="374" y="-167.8" font-family="Times-Roman bold" font-size="14.00" fill="#1d0073">x</text>
</g>
<!-- node_7f97b7cde340 -->
<g id="node3" class="node">
<title>node_7f97b7cde340</title>
<polygon fill="#ffad73" fill-opacity="0.600000" stroke="#b26f3e" stroke-width="3" stroke-opacity="0.600000" points="551,-233 520.83,-215 551,-197 581.17,-215 551,-233"/>
<text text-anchor="middle" x="551" y="-211.3" font-family="monospace bold" font-size="14.00" fill="#331500">t3</text>
</g>
<!-- value__node_7f97b7cde340__b -->
<g id="node10" class="node">
<title>value__node_7f97b7cde340__b</title>
<polygon fill="#ffad73" fill-opacity="0.600000" stroke="transparent" stroke-width="1.5" points="506,-146 452,-146 452,-110 506,-110 506,-146"/>
<text text-anchor="middle" x="479" y="-124.3" font-family="monospace" font-size="14.00" fill="#331500">26</text>
</g>
<!-- node_7f97b7cde340&#45;&gt;value__node_7f97b7cde340__b -->
<g id="edge7" class="edge">
<title>node_7f97b7cde340&#45;&gt;value__node_7f97b7cde340__b</title>
<path fill="none" stroke="#99521f" stroke-opacity="0.800000" d="M541.29,-202.54C529.77,-188.94 510.37,-166.03 496.27,-149.39"/>
<ellipse fill="#99521f" fill-opacity="0.800000" stroke="#99521f" stroke-opacity="0.800000" cx="494.82" cy="-147.68" rx="2" ry="2"/>
<text text-anchor="middle" x="525" y="-167.8" font-family="Times-Roman bold" font-size="14.00" fill="#733000">b</text>
</g>
<!-- value__node_7f97b7cde340__a -->
<g id="node11" class="node">
<title>value__node_7f97b7cde340__a</title>
<polygon fill="#ffad73" fill-opacity="0.600000" stroke="transparent" stroke-width="1.5" points="578,-146 524,-146 524,-110 578,-110 578,-146"/>
<text text-anchor="middle" x="551" y="-124.3" font-family="monospace" font-size="14.00" fill="#331500">12</text>
</g>
<!-- node_7f97b7cde340&#45;&gt;value__node_7f97b7cde340__a -->
<g id="edge8" class="edge">
<title>node_7f97b7cde340&#45;&gt;value__node_7f97b7cde340__a</title>
<path fill="none" stroke="#99521f" stroke-opacity="0.800000" d="M551,-196.8C551,-183.43 551,-164.82 551,-150.48"/>
<ellipse fill="#99521f" fill-opacity="0.800000" stroke="#99521f" stroke-opacity="0.800000" cx="551" cy="-148.18" rx="2" ry="2"/>
<text text-anchor="middle" x="556" y="-167.8" font-family="Times-Roman bold" font-size="14.00" fill="#733000">a</text>
</g>
<!-- node_7f97b7cde370 -->
<g id="node12" class="node">
<title>node_7f97b7cde370</title>
<ellipse fill="#ffad73" fill-opacity="0.600000" stroke="#b26f3e" stroke-width="1.5" stroke-opacity="0.600000" cx="628" cy="-128" rx="32.49" ry="18"/>
<text text-anchor="middle" x="628" y="-124.3" font-family="monospace bold" font-size="14.00" fill="#331500">t3.x</text>
</g>
<!-- node_7f97b7cde340&#45;&gt;node_7f97b7cde370 -->
<g id="edge9" class="edge">
<title>node_7f97b7cde340&#45;&gt;node_7f97b7cde370</title>
<path fill="none" stroke="#99521f" stroke-opacity="0.800000" d="M561.07,-202.89C572.7,-190.05 592.15,-168.57 607.1,-152.08"/>
<polygon fill="#99521f" fill-opacity="0.800000" stroke="#99521f" stroke-opacity="0.800000" points="614.02,-144.44 610.64,-154.87 610.66,-148.14 607.3,-151.85 607.3,-151.85 607.3,-151.85 610.66,-148.14 603.97,-148.83 614.02,-144.44 614.02,-144.44"/>
<text text-anchor="middle" x="600" y="-167.8" font-family="Times-Roman bold" font-size="14.00" fill="#733000">x</text>
</g>
<!-- value__node_7f97b7cde220__c -->
<g id="node13" class="node">
<title>value__node_7f97b7cde220__c</title>
<polygon fill="#73ff7e" fill-opacity="0.600000" stroke="transparent" stroke-width="1.5" points="167,-59 113,-59 113,-23 167,-23 167,-59"/>
<text text-anchor="middle" x="140" y="-37.3" font-family="monospace" font-size="14.00" fill="#003304">3</text>
</g>
<!-- node_7f97b7cde220&#45;&gt;value__node_7f97b7cde220__c -->
<g id="edge10" class="edge">
<title>node_7f97b7cde220&#45;&gt;value__node_7f97b7cde220__c</title>
<path fill="none" stroke="#1f9929" stroke-opacity="0.800000" d="M168.89,-110.21C163.16,-96.67 155.07,-77.57 148.9,-63.02"/>
<ellipse fill="#1f9929" fill-opacity="0.800000" stroke="#1f9929" stroke-opacity="0.800000" cx="148" cy="-60.89" rx="2" ry="2"/>
<text text-anchor="middle" x="165.5" y="-80.8" font-family="Times-Roman bold" font-size="14.00" fill="#00730a">c</text>
</g>
<!-- value__node_7f97b7cde220__d -->
<g id="node14" class="node">
<title>value__node_7f97b7cde220__d</title>
<polygon fill="#73ff7e" fill-opacity="0.600000" stroke="transparent" stroke-width="1.5" points="239,-59 185,-59 185,-23 239,-23 239,-59"/>
<text text-anchor="middle" x="212" y="-37.3" font-family="monospace" font-size="14.00" fill="#003304">4</text>
</g>
<!-- node_7f97b7cde220&#45;&gt;value__node_7f97b7cde220__d -->
<g id="edge11" class="edge">
<title>node_7f97b7cde220&#45;&gt;value__node_7f97b7cde220__d</title>
<path fill="none" stroke="#1f9929" stroke-opacity="0.800000" d="M183.11,-110.21C188.84,-96.67 196.93,-77.57 203.1,-63.02"/>
<ellipse fill="#1f9929" fill-opacity="0.800000" stroke="#1f9929" stroke-opacity="0.800000" cx="204" cy="-60.89" rx="2" ry="2"/>
<text text-anchor="middle" x="202" y="-80.8" font-family="Times-Roman bold" font-size="14.00" fill="#00730a">d</text>
</g>
<!-- value__node_7f97b7cde1c0__c -->
<g id="node15" class="node">
<title>value__node_7f97b7cde1c0__c</title>
<polygon fill="#9673ff" fill-opacity="0.600000" stroke="transparent" stroke-width="1.5" points="393,-59 339,-59 339,-23 393,-23 393,-59"/>
<text text-anchor="middle" x="366" y="-37.3" font-family="monospace" font-size="14.00" fill="#0d0033">30</text>
</g>
<!-- node_7f97b7cde1c0&#45;&gt;value__node_7f97b7cde1c0__c -->
<g id="edge12" class="edge">
<title>node_7f97b7cde1c0&#45;&gt;value__node_7f97b7cde1c0__c</title>
<path fill="none" stroke="#3d1f99" stroke-opacity="0.800000" d="M394.89,-110.21C389.16,-96.67 381.07,-77.57 374.9,-63.02"/>
<ellipse fill="#3d1f99" fill-opacity="0.800000" stroke="#3d1f99" stroke-opacity="0.800000" cx="374" cy="-60.89" rx="2" ry="2"/>
<text text-anchor="middle" x="391.5" y="-80.8" font-family="Times-Roman bold" font-size="14.00" fill="#1d0073">c</text>
</g>
<!-- value__node_7f97b7cde1c0__d -->
<g id="node16" class="node">
<title>value__node_7f97b7cde1c0__d</title>
<polygon fill="#9673ff" fill-opacity="0.600000" stroke="transparent" stroke-width="1.5" points="465,-59 411,-59 411,-23 465,-23 465,-59"/>
<text text-anchor="middle" x="438" y="-37.3" font-family="monospace" font-size="14.00" fill="#0d0033">47</text>
</g>
<!-- node_7f97b7cde1c0&#45;&gt;value__node_7f97b7cde1c0__d -->
<g id="edge13" class="edge">
<title>node_7f97b7cde1c0&#45;&gt;value__node_7f97b7cde1c0__d</title>
<path fill="none" stroke="#3d1f99" stroke-opacity="0.800000" d="M409.11,-110.21C414.84,-96.67 422.93,-77.57 429.1,-63.02"/>
<ellipse fill="#3d1f99" fill-opacity="0.800000" stroke="#3d1f99" stroke-opacity="0.800000" cx="430" cy="-60.89" rx="2" ry="2"/>
<text text-anchor="middle" x="428" y="-80.8" font-family="Times-Roman bold" font-size="14.00" fill="#1d0073">d</text>
</g>
<!-- value__node_7f97b7cde370__c -->
<g id="node17" class="node">
<title>value__node_7f97b7cde370__c</title>
<polygon fill="#ffad73" fill-opacity="0.600000" stroke="transparent" stroke-width="1.5" points="619,-59 565,-59 565,-23 619,-23 619,-59"/>
<text text-anchor="middle" x="592" y="-37.3" font-family="monospace" font-size="14.00" fill="#331500">33</text>
</g>
<!-- node_7f97b7cde370&#45;&gt;value__node_7f97b7cde370__c -->
<g id="edge14" class="edge">
<title>node_7f97b7cde370&#45;&gt;value__node_7f97b7cde370__c</title>
<path fill="none" stroke="#99521f" stroke-opacity="0.800000" d="M620.89,-110.21C615.16,-96.67 607.07,-77.57 600.9,-63.02"/>
<ellipse fill="#99521f" fill-opacity="0.800000" stroke="#99521f" stroke-opacity="0.800000" cx="600" cy="-60.89" rx="2" ry="2"/>
<text text-anchor="middle" x="617.5" y="-80.8" font-family="Times-Roman bold" font-size="14.00" fill="#733000">c</text>
</g>
<!-- value__node_7f97b7cde370__d -->
<g id="node18" class="node">
<title>value__node_7f97b7cde370__d</title>
<polygon fill="#ffad73" fill-opacity="0.600000" stroke="transparent" stroke-width="1.5" points="691,-59 637,-59 637,-23 691,-23 691,-59"/>
<text text-anchor="middle" x="664" y="-37.3" font-family="monospace" font-size="14.00" fill="#331500">51</text>
</g>
<!-- node_7f97b7cde370&#45;&gt;value__node_7f97b7cde370__d -->
<g id="edge15" class="edge">
<title>node_7f97b7cde370&#45;&gt;value__node_7f97b7cde370__d</title>
<path fill="none" stroke="#99521f" stroke-opacity="0.800000" d="M635.11,-110.21C640.84,-96.67 648.93,-77.57 655.1,-63.02"/>
<ellipse fill="#99521f" fill-opacity="0.800000" stroke="#99521f" stroke-opacity="0.800000" cx="656" cy="-60.89" rx="2" ry="2"/>
<text text-anchor="middle" x="653" y="-80.8" font-family="Times-Roman bold" font-size="14.00" fill="#733000">d</text>
</g>
</g>
</svg>
