<?xml version="1.0" encoding="UTF-8" standalone="no"?>
<!DOCTYPE svg PUBLIC "-//W3C//DTD SVG 1.1//EN"
 "http://www.w3.org/Graphics/SVG/1.1/DTD/svg11.dtd">
<!-- Generated by graphviz version 2.43.0 (0)
 -->
<!-- Title: %3 Pages: 1 -->
<svg width="930pt" height="311pt"
 viewBox="0.00 0.00 930.00 311.00" xmlns="http://www.w3.org/2000/svg" xmlns:xlink="http://www.w3.org/1999/xlink">
<g id="graph0" class="graph" transform="scale(1 1) rotate(0) translate(4 307)">
<title>%3</title>
<polygon fill="transparent" stroke="transparent" points="-4,4 -4,-307 926,-307 926,4 -4,4"/>
<text text-anchor="middle" x="461" y="-22.8" font-family="Times,serif" font-size="14.00">left_demo_1 </text>
<text text-anchor="middle" x="461" y="-7.8" font-family="Times,serif" font-size="14.00">(Runnable, t3 is sum of t1 and t2, t2.a is ignored.)</text>
<g id="clust1" class="cluster">
<title>cluster_t1</title>
<polygon fill="transparent" stroke="black" points="8,-46 8,-295 222,-295 222,-46 8,-46"/>
<text text-anchor="middle" x="115" y="-279.8" font-family="Times,serif" font-size="14.00">Tree t1</text>
</g>
<g id="clust2" class="cluster">
<title>cluster_t2</title>
<polygon fill="transparent" stroke="black" points="230,-46 230,-295 448,-295 448,-46 230,-46"/>
<text text-anchor="middle" x="339" y="-279.8" font-family="Times,serif" font-size="14.00">Tree t2</text>
</g>
<g id="clust3" class="cluster">
<title>cluster_t3</title>
<polygon fill="transparent" stroke="black" points="456,-46 456,-295 914,-295 914,-46 456,-46"/>
<text text-anchor="middle" x="685" y="-279.8" font-family="Times,serif" font-size="14.00">Tree t3</text>
</g>
<!-- t1 -->
<g id="node1" class="node">
<title>t1</title>
<ellipse fill="none" stroke="black" cx="59" cy="-246" rx="27" ry="18"/>
<text text-anchor="middle" x="59" y="-242.3" font-family="Times,serif" font-size="14.00">t1</text>
</g>
<!-- t1_b -->
<g id="node2" class="node">
<title>t1_b</title>
<ellipse fill="none" stroke="black" cx="43" cy="-159" rx="27" ry="18"/>
<text text-anchor="middle" x="43" y="-155.3" font-family="Times,serif" font-size="14.00">2</text>
</g>
<!-- t1&#45;&gt;t1_b -->
<g id="edge1" class="edge">
<title>t1&#45;&gt;t1_b</title>
<path fill="none" stroke="black" d="M55.76,-227.8C53.56,-216.09 50.59,-200.34 48.08,-186.97"/>
<polygon fill="black" stroke="black" points="51.47,-186.07 46.18,-176.89 44.59,-187.36 51.47,-186.07"/>
<text text-anchor="middle" x="56" y="-198.8" font-family="Times,serif" font-size="14.00">b</text>
</g>
<!-- t1_x -->
<g id="node3" class="node">
<title>t1_x</title>
<ellipse fill="none" stroke="black" cx="117" cy="-159" rx="28.7" ry="18"/>
<text text-anchor="middle" x="117" y="-155.3" font-family="Times,serif" font-size="14.00">t1.x</text>
</g>
<!-- t1&#45;&gt;t1_x -->
<g id="edge2" class="edge">
<title>t1&#45;&gt;t1_x</title>
<path fill="none" stroke="black" d="M69.64,-229.41C78.25,-216.79 90.53,-198.79 100.43,-184.28"/>
<polygon fill="black" stroke="black" points="103.49,-186.01 106.23,-175.78 97.71,-182.07 103.49,-186.01"/>
<text text-anchor="middle" x="95.5" y="-198.8" font-family="Times,serif" font-size="14.00">x</text>
</g>
<!-- t1_x_c -->
<g id="node4" class="node">
<title>t1_x_c</title>
<ellipse fill="none" stroke="black" cx="43" cy="-72" rx="27" ry="18"/>
<text text-anchor="middle" x="43" y="-68.3" font-family="Times,serif" font-size="14.00">3</text>
</g>
<!-- t1_x&#45;&gt;t1_x_c -->
<g id="edge3" class="edge">
<title>t1_x&#45;&gt;t1_x_c</title>
<path fill="none" stroke="black" d="M103.77,-142.8C92.41,-129.75 75.85,-110.74 62.89,-95.85"/>
<polygon fill="black" stroke="black" points="65.32,-93.31 56.12,-88.06 60.04,-97.91 65.32,-93.31"/>
<text text-anchor="middle" x="88" y="-111.8" font-family="Times,serif" font-size="14.00">c</text>
</g>
<!-- t1_x_d -->
<g id="node5" class="node">
<title>t1_x_d</title>
<ellipse fill="none" stroke="black" cx="115" cy="-72" rx="27" ry="18"/>
<text text-anchor="middle" x="115" y="-68.3" font-family="Times,serif" font-size="14.00">4</text>
</g>
<!-- t1_x&#45;&gt;t1_x_d -->
<g id="edge4" class="edge">
<title>t1_x&#45;&gt;t1_x_d</title>
<path fill="none" stroke="black" d="M116.6,-140.8C116.32,-129.16 115.95,-113.55 115.64,-100.24"/>
<polygon fill="black" stroke="black" points="119.14,-100.09 115.4,-90.18 112.14,-100.26 119.14,-100.09"/>
<text text-anchor="middle" x="121" y="-111.8" font-family="Times,serif" font-size="14.00">d</text>
</g>
<!-- t1_x_e -->
<g id="node6" class="node">
<title>t1_x_e</title>
<ellipse fill="none" stroke="black" cx="187" cy="-72" rx="27" ry="18"/>
<text text-anchor="middle" x="187" y="-68.3" font-family="Times,serif" font-size="14.00">5</text>
</g>
<!-- t1_x&#45;&gt;t1_x_e -->
<g id="edge5" class="edge">
<title>t1_x&#45;&gt;t1_x_e</title>
<path fill="none" stroke="black" d="M129.51,-142.8C140.27,-129.75 155.92,-110.74 168.18,-95.85"/>
<polygon fill="black" stroke="black" points="170.94,-98.01 174.59,-88.06 165.53,-93.56 170.94,-98.01"/>
<text text-anchor="middle" x="160.5" y="-111.8" font-family="Times,serif" font-size="14.00">e</text>
</g>
<!-- t2 -->
<g id="node7" class="node">
<title>t2</title>
<ellipse fill="none" stroke="black" cx="337" cy="-246" rx="27" ry="18"/>
<text text-anchor="middle" x="337" y="-242.3" font-family="Times,serif" font-size="14.00">t2</text>
</g>
<!-- t2_a -->
<g id="node8" class="node">
<title>t2_a</title>
<ellipse fill="none" stroke="black" cx="265" cy="-159" rx="27" ry="18"/>
<text text-anchor="middle" x="265" y="-155.3" font-family="Times,serif" font-size="14.00">11</text>
</g>
<!-- t2&#45;&gt;t2_a -->
<g id="edge6" class="edge">
<title>t2&#45;&gt;t2_a</title>
<path fill="none" stroke="black" d="M324.13,-229.8C313.07,-216.75 296.96,-197.74 284.35,-182.85"/>
<polygon fill="black" stroke="black" points="286.89,-180.43 277.76,-175.06 281.55,-184.96 286.89,-180.43"/>
<text text-anchor="middle" x="309.5" y="-198.8" font-family="Times,serif" font-size="14.00">a</text>
</g>
<!-- t2_b -->
<g id="node9" class="node">
<title>t2_b</title>
<ellipse fill="none" stroke="black" cx="337" cy="-159" rx="27" ry="18"/>
<text text-anchor="middle" x="337" y="-155.3" font-family="Times,serif" font-size="14.00">22</text>
</g>
<!-- t2&#45;&gt;t2_b -->
<g id="edge7" class="edge">
<title>t2&#45;&gt;t2_b</title>
<path fill="none" stroke="black" d="M337,-227.8C337,-216.16 337,-200.55 337,-187.24"/>
<polygon fill="black" stroke="black" points="340.5,-187.18 337,-177.18 333.5,-187.18 340.5,-187.18"/>
<text text-anchor="middle" x="342" y="-198.8" font-family="Times,serif" font-size="14.00">b</text>
</g>
<!-- t2_x -->
<g id="node10" class="node">
<title>t2_x</title>
<ellipse fill="none" stroke="black" cx="411" cy="-159" rx="28.7" ry="18"/>
<text text-anchor="middle" x="411" y="-155.3" font-family="Times,serif" font-size="14.00">t2.x</text>
</g>
<!-- t2&#45;&gt;t2_x -->
<g id="edge8" class="edge">
<title>t2&#45;&gt;t2_x</title>
<path fill="none" stroke="black" d="M350.23,-229.8C361.59,-216.75 378.15,-197.74 391.11,-182.85"/>
<polygon fill="black" stroke="black" points="393.96,-184.91 397.88,-175.06 388.68,-180.31 393.96,-184.91"/>
<text text-anchor="middle" x="382.5" y="-198.8" font-family="Times,serif" font-size="14.00">x</text>
</g>
<!-- t2_x_c -->
<g id="node11" class="node">
<title>t2_x_c</title>
<ellipse fill="none" stroke="black" cx="269" cy="-72" rx="27" ry="18"/>
<text text-anchor="middle" x="269" y="-68.3" font-family="Times,serif" font-size="14.00">30</text>
</g>
<!-- t2_x&#45;&gt;t2_x_c -->
<g id="edge9" class="edge">
<title>t2_x&#45;&gt;t2_x_c</title>
<path fill="none" stroke="black" d="M390.96,-146C366.5,-131.37 325.01,-106.53 297.31,-89.94"/>
<polygon fill="black" stroke="black" points="298.86,-86.8 288.49,-84.66 295.27,-92.8 298.86,-86.8"/>
<text text-anchor="middle" x="352" y="-111.8" font-family="Times,serif" font-size="14.00">c</text>
</g>
<!-- t2_x_d -->
<g id="node12" class="node">
<title>t2_x_d</title>
<ellipse fill="none" stroke="black" cx="341" cy="-72" rx="27" ry="18"/>
<text text-anchor="middle" x="341" y="-68.3" font-family="Times,serif" font-size="14.00">48</text>
</g>
<!-- t2_x&#45;&gt;t2_x_d -->
<g id="edge10" class="edge">
<title>t2_x&#45;&gt;t2_x_d</title>
<path fill="none" stroke="black" d="M398.49,-142.8C387.73,-129.75 372.08,-110.74 359.82,-95.85"/>
<polygon fill="black" stroke="black" points="362.47,-93.56 353.41,-88.06 357.06,-98.01 362.47,-93.56"/>
<text text-anchor="middle" x="385" y="-111.8" font-family="Times,serif" font-size="14.00">d</text>
</g>
<!-- t2_x_e -->
<g id="node13" class="node">
<title>t2_x_e</title>
<ellipse fill="none" stroke="black" cx="413" cy="-72" rx="27" ry="18"/>
<text text-anchor="middle" x="413" y="-68.3" font-family="Times,serif" font-size="14.00">54</text>
</g>
<!-- t2_x&#45;&gt;t2_x_e -->
<g id="edge11" class="edge">
<title>t2_x&#45;&gt;t2_x_e</title>
<path fill="none" stroke="black" d="M411.4,-140.8C411.68,-129.16 412.05,-113.55 412.36,-100.24"/>
<polygon fill="black" stroke="black" points="415.86,-100.26 412.6,-90.18 408.86,-100.09 415.86,-100.26"/>
<text text-anchor="middle" x="416.5" y="-111.8" font-family="Times,serif" font-size="14.00">e</text>
</g>
<!-- t3 -->
<g id="node14" class="node">
<title>t3</title>
<ellipse fill="none" stroke="black" cx="621" cy="-246" rx="67.69" ry="18"/>
<text text-anchor="middle" x="621" y="-242.3" font-family="Times,serif" font-size="14.00">t3 = t1 + t2</text>
</g>
<!-- t3_b -->
<g id="node15" class="node">
<title>t3_b</title>
<ellipse fill="none" stroke="black" cx="532" cy="-159" rx="67.69" ry="18"/>
<text text-anchor="middle" x="532" y="-155.3" font-family="Times,serif" font-size="14.00">24 = 2 + 22</text>
</g>
<!-- t3&#45;&gt;t3_b -->
<g id="edge12" class="edge">
<title>t3&#45;&gt;t3_b</title>
<path fill="none" stroke="black" d="M603.42,-228.21C590.04,-215.43 571.48,-197.7 556.62,-183.52"/>
<polygon fill="black" stroke="black" points="558.89,-180.84 549.24,-176.47 554.06,-185.91 558.89,-180.84"/>
<text text-anchor="middle" x="586" y="-198.8" font-family="Times,serif" font-size="14.00">b</text>
</g>
<!-- t3_x -->
<g id="node16" class="node">
<title>t3_x</title>
<ellipse fill="none" stroke="black" cx="710" cy="-159" rx="92.08" ry="18"/>
<text text-anchor="middle" x="710" y="-155.3" font-family="Times,serif" font-size="14.00">t3.x = t1.x + t2.x</text>
</g>
<!-- t3&#45;&gt;t3_x -->
<g id="edge13" class="edge">
<title>t3&#45;&gt;t3_x</title>
<path fill="none" stroke="black" d="M638.58,-228.21C651.87,-215.52 670.29,-197.93 685.09,-183.79"/>
<polygon fill="black" stroke="black" points="687.64,-186.2 692.45,-176.76 682.8,-181.13 687.64,-186.2"/>
<text text-anchor="middle" x="674.5" y="-198.8" font-family="Times,serif" font-size="14.00">x</text>
</g>
<!-- t3_x_c -->
<g id="node17" class="node">
<title>t3_x_c</title>
<ellipse fill="none" stroke="black" cx="532" cy="-72" rx="67.69" ry="18"/>
<text text-anchor="middle" x="532" y="-68.3" font-family="Times,serif" font-size="14.00">33 = 3 + 30</text>
</g>
<!-- t3_x&#45;&gt;t3_x_c -->
<g id="edge14" class="edge">
<title>t3_x&#45;&gt;t3_x_c</title>
<path fill="none" stroke="black" d="M676.52,-142.01C647.13,-127.98 604.3,-107.52 572.89,-92.53"/>
<polygon fill="black" stroke="black" points="574.07,-89.21 563.54,-88.06 571.05,-95.53 574.07,-89.21"/>
<text text-anchor="middle" x="635" y="-111.8" font-family="Times,serif" font-size="14.00">c</text>
</g>
<!-- t3_x_d -->
<g id="node18" class="node">
<title>t3_x_d</title>
<ellipse fill="none" stroke="black" cx="685" cy="-72" rx="67.69" ry="18"/>
<text text-anchor="middle" x="685" y="-68.3" font-family="Times,serif" font-size="14.00">52 = 4 + 48</text>
</g>
<!-- t3_x&#45;&gt;t3_x_d -->
<g id="edge15" class="edge">
<title>t3_x&#45;&gt;t3_x_d</title>
<path fill="none" stroke="black" d="M704.94,-140.8C701.48,-129.05 696.83,-113.24 692.89,-99.84"/>
<polygon fill="black" stroke="black" points="696.23,-98.78 690.05,-90.18 689.52,-100.76 696.23,-98.78"/>
<text text-anchor="middle" x="703" y="-111.8" font-family="Times,serif" font-size="14.00">d</text>
</g>
<!-- t3_x_e -->
<g id="node19" class="node">
<title>t3_x_e</title>
<ellipse fill="none" stroke="black" cx="838" cy="-72" rx="67.69" ry="18"/>
<text text-anchor="middle" x="838" y="-68.3" font-family="Times,serif" font-size="14.00">59 = 5 + 54</text>
</g>
<!-- t3_x&#45;&gt;t3_x_e -->
<g id="edge16" class="edge">
<title>t3_x&#45;&gt;t3_x_e</title>
<path fill="none" stroke="black" d="M734.68,-141.61C754.82,-128.24 783.44,-109.23 805.45,-94.62"/>
<polygon fill="black" stroke="black" points="807.44,-97.5 813.83,-89.05 803.56,-91.67 807.44,-97.5"/>
<text text-anchor="middle" x="785.5" y="-111.8" font-family="Times,serif" font-size="14.00">e</text>
</g>
</g>
</svg>
