<?xml version="1.0" encoding="UTF-8" standalone="no"?>
<!DOCTYPE svg PUBLIC "-//W3C//DTD SVG 1.1//EN"
 "http://www.w3.org/Graphics/SVG/1.1/DTD/svg11.dtd">
<!-- Generated by graphviz version 2.43.0 (0)
 -->
<!-- Title: %3 Pages: 1 -->
<svg width="1131pt" height="311pt"
 viewBox="0.00 0.00 1131.00 311.00" xmlns="http://www.w3.org/2000/svg" xmlns:xlink="http://www.w3.org/1999/xlink">
<g id="graph0" class="graph" transform="scale(1 1) rotate(0) translate(4 307)">
<title>%3</title>
<polygon fill="transparent" stroke="transparent" points="-4,4 -4,-307 1127,-307 1127,4 -4,4"/>
<text text-anchor="middle" x="561.5" y="-22.8" font-family="Times,serif" font-size="14.00">outer_demo_1 </text>
<text text-anchor="middle" x="561.5" y="-7.8" font-family="Times,serif" font-size="14.00">(Runnable, t3 is sum of t1 and t2, t1.a and t2.x.f&#39;s values are actually treated as 0.)</text>
<g id="clust1" class="cluster">
<title>cluster_t1</title>
<polygon fill="transparent" stroke="black" points="8,-46 8,-295 294,-295 294,-46 8,-46"/>
<text text-anchor="middle" x="151" y="-279.8" font-family="Times,serif" font-size="14.00">Tree t1</text>
</g>
<g id="clust2" class="cluster">
<title>cluster_t2</title>
<polygon fill="transparent" stroke="black" points="302,-46 302,-295 520,-295 520,-46 302,-46"/>
<text text-anchor="middle" x="411" y="-279.8" font-family="Times,serif" font-size="14.00">Tree t2</text>
</g>
<g id="clust3" class="cluster">
<title>cluster_t3</title>
<polygon fill="transparent" stroke="black" points="528,-46 528,-295 1115,-295 1115,-46 528,-46"/>
<text text-anchor="middle" x="821.5" y="-279.8" font-family="Times,serif" font-size="14.00">Tree t3</text>
</g>
<!-- t1 -->
<g id="node1" class="node">
<title>t1</title>
<ellipse fill="none" stroke="black" cx="113" cy="-246" rx="27" ry="18"/>
<text text-anchor="middle" x="113" y="-242.3" font-family="Times,serif" font-size="14.00">t1</text>
</g>
<!-- t1_b -->
<g id="node2" class="node">
<title>t1_b</title>
<ellipse fill="none" stroke="black" cx="77" cy="-159" rx="27" ry="18"/>
<text text-anchor="middle" x="77" y="-155.3" font-family="Times,serif" font-size="14.00">2</text>
</g>
<!-- t1&#45;&gt;t1_b -->
<g id="edge1" class="edge">
<title>t1&#45;&gt;t1_b</title>
<path fill="none" stroke="black" d="M105.89,-228.21C100.78,-216.14 93.79,-199.64 87.97,-185.89"/>
<polygon fill="black" stroke="black" points="91.1,-184.31 83.98,-176.47 84.65,-187.04 91.1,-184.31"/>
<text text-anchor="middle" x="102" y="-198.8" font-family="Times,serif" font-size="14.00">b</text>
</g>
<!-- t1_x -->
<g id="node3" class="node">
<title>t1_x</title>
<ellipse fill="none" stroke="black" cx="151" cy="-159" rx="28.7" ry="18"/>
<text text-anchor="middle" x="151" y="-155.3" font-family="Times,serif" font-size="14.00">t1.x</text>
</g>
<!-- t1&#45;&gt;t1_x -->
<g id="edge2" class="edge">
<title>t1&#45;&gt;t1_x</title>
<path fill="none" stroke="black" d="M120.33,-228.61C125.71,-216.58 133.13,-199.98 139.32,-186.13"/>
<polygon fill="black" stroke="black" points="142.68,-187.19 143.57,-176.63 136.29,-184.33 142.68,-187.19"/>
<text text-anchor="middle" x="138.5" y="-198.8" font-family="Times,serif" font-size="14.00">x</text>
</g>
<!-- t1_x_c -->
<g id="node4" class="node">
<title>t1_x_c</title>
<ellipse fill="none" stroke="black" cx="43" cy="-72" rx="27" ry="18"/>
<text text-anchor="middle" x="43" y="-68.3" font-family="Times,serif" font-size="14.00">3</text>
</g>
<!-- t1_x&#45;&gt;t1_x_c -->
<g id="edge3" class="edge">
<title>t1_x&#45;&gt;t1_x_c</title>
<path fill="none" stroke="black" d="M133.65,-144.34C115.91,-130.38 88.18,-108.56 68.06,-92.72"/>
<polygon fill="black" stroke="black" points="69.98,-89.78 59.95,-86.34 65.65,-95.28 69.98,-89.78"/>
<text text-anchor="middle" x="107" y="-111.8" font-family="Times,serif" font-size="14.00">c</text>
</g>
<!-- t1_x_d -->
<g id="node5" class="node">
<title>t1_x_d</title>
<ellipse fill="none" stroke="black" cx="115" cy="-72" rx="27" ry="18"/>
<text text-anchor="middle" x="115" y="-68.3" font-family="Times,serif" font-size="14.00">4</text>
</g>
<!-- t1_x&#45;&gt;t1_x_d -->
<g id="edge4" class="edge">
<title>t1_x&#45;&gt;t1_x_d</title>
<path fill="none" stroke="black" d="M143.89,-141.21C138.78,-129.14 131.79,-112.64 125.97,-98.89"/>
<polygon fill="black" stroke="black" points="129.1,-97.31 121.98,-89.47 122.65,-100.04 129.1,-97.31"/>
<text text-anchor="middle" x="140" y="-111.8" font-family="Times,serif" font-size="14.00">d</text>
</g>
<!-- t1_x_e -->
<g id="node6" class="node">
<title>t1_x_e</title>
<ellipse fill="none" stroke="black" cx="187" cy="-72" rx="27" ry="18"/>
<text text-anchor="middle" x="187" y="-68.3" font-family="Times,serif" font-size="14.00">5</text>
</g>
<!-- t1_x&#45;&gt;t1_x_e -->
<g id="edge5" class="edge">
<title>t1_x&#45;&gt;t1_x_e</title>
<path fill="none" stroke="black" d="M158.11,-141.21C163.22,-129.14 170.21,-112.64 176.03,-98.89"/>
<polygon fill="black" stroke="black" points="179.35,-100.04 180.02,-89.47 172.9,-97.31 179.35,-100.04"/>
<text text-anchor="middle" x="175.5" y="-111.8" font-family="Times,serif" font-size="14.00">e</text>
</g>
<!-- t1_x_f -->
<g id="node7" class="node">
<title>t1_x_f</title>
<ellipse fill="none" stroke="black" cx="259" cy="-72" rx="27" ry="18"/>
<text text-anchor="middle" x="259" y="-68.3" font-family="Times,serif" font-size="14.00">6</text>
</g>
<!-- t1_x&#45;&gt;t1_x_f -->
<g id="edge6" class="edge">
<title>t1_x&#45;&gt;t1_x_f</title>
<path fill="none" stroke="black" d="M168.35,-144.34C186.09,-130.38 213.82,-108.56 233.94,-92.72"/>
<polygon fill="black" stroke="black" points="236.35,-95.28 242.05,-86.34 232.02,-89.78 236.35,-95.28"/>
<text text-anchor="middle" x="214" y="-111.8" font-family="Times,serif" font-size="14.00">f</text>
</g>
<!-- t2 -->
<g id="node8" class="node">
<title>t2</title>
<ellipse fill="none" stroke="black" cx="409" cy="-246" rx="27" ry="18"/>
<text text-anchor="middle" x="409" y="-242.3" font-family="Times,serif" font-size="14.00">t2</text>
</g>
<!-- t2_a -->
<g id="node9" class="node">
<title>t2_a</title>
<ellipse fill="none" stroke="black" cx="337" cy="-159" rx="27" ry="18"/>
<text text-anchor="middle" x="337" y="-155.3" font-family="Times,serif" font-size="14.00">11</text>
</g>
<!-- t2&#45;&gt;t2_a -->
<g id="edge7" class="edge">
<title>t2&#45;&gt;t2_a</title>
<path fill="none" stroke="black" d="M396.13,-229.8C385.07,-216.75 368.96,-197.74 356.35,-182.85"/>
<polygon fill="black" stroke="black" points="358.89,-180.43 349.76,-175.06 353.55,-184.96 358.89,-180.43"/>
<text text-anchor="middle" x="381.5" y="-198.8" font-family="Times,serif" font-size="14.00">a</text>
</g>
<!-- t2_b -->
<g id="node10" class="node">
<title>t2_b</title>
<ellipse fill="none" stroke="black" cx="409" cy="-159" rx="27" ry="18"/>
<text text-anchor="middle" x="409" y="-155.3" font-family="Times,serif" font-size="14.00">22</text>
</g>
<!-- t2&#45;&gt;t2_b -->
<g id="edge8" class="edge">
<title>t2&#45;&gt;t2_b</title>
<path fill="none" stroke="black" d="M409,-227.8C409,-216.16 409,-200.55 409,-187.24"/>
<polygon fill="black" stroke="black" points="412.5,-187.18 409,-177.18 405.5,-187.18 412.5,-187.18"/>
<text text-anchor="middle" x="414" y="-198.8" font-family="Times,serif" font-size="14.00">b</text>
</g>
<!-- t2_x -->
<g id="node11" class="node">
<title>t2_x</title>
<ellipse fill="none" stroke="black" cx="483" cy="-159" rx="28.7" ry="18"/>
<text text-anchor="middle" x="483" y="-155.3" font-family="Times,serif" font-size="14.00">t2.x</text>
</g>
<!-- t2&#45;&gt;t2_x -->
<g id="edge9" class="edge">
<title>t2&#45;&gt;t2_x</title>
<path fill="none" stroke="black" d="M422.23,-229.8C433.59,-216.75 450.15,-197.74 463.11,-182.85"/>
<polygon fill="black" stroke="black" points="465.96,-184.91 469.88,-175.06 460.68,-180.31 465.96,-184.91"/>
<text text-anchor="middle" x="454.5" y="-198.8" font-family="Times,serif" font-size="14.00">x</text>
</g>
<!-- t2_x_c -->
<g id="node12" class="node">
<title>t2_x_c</title>
<ellipse fill="none" stroke="black" cx="341" cy="-72" rx="27" ry="18"/>
<text text-anchor="middle" x="341" y="-68.3" font-family="Times,serif" font-size="14.00">30</text>
</g>
<!-- t2_x&#45;&gt;t2_x_c -->
<g id="edge10" class="edge">
<title>t2_x&#45;&gt;t2_x_c</title>
<path fill="none" stroke="black" d="M462.96,-146C438.5,-131.37 397.01,-106.53 369.31,-89.94"/>
<polygon fill="black" stroke="black" points="370.86,-86.8 360.49,-84.66 367.27,-92.8 370.86,-86.8"/>
<text text-anchor="middle" x="424" y="-111.8" font-family="Times,serif" font-size="14.00">c</text>
</g>
<!-- t2_x_d -->
<g id="node13" class="node">
<title>t2_x_d</title>
<ellipse fill="none" stroke="black" cx="413" cy="-72" rx="27" ry="18"/>
<text text-anchor="middle" x="413" y="-68.3" font-family="Times,serif" font-size="14.00">48</text>
</g>
<!-- t2_x&#45;&gt;t2_x_d -->
<g id="edge11" class="edge">
<title>t2_x&#45;&gt;t2_x_d</title>
<path fill="none" stroke="black" d="M470.49,-142.8C459.73,-129.75 444.08,-110.74 431.82,-95.85"/>
<polygon fill="black" stroke="black" points="434.47,-93.56 425.41,-88.06 429.06,-98.01 434.47,-93.56"/>
<text text-anchor="middle" x="457" y="-111.8" font-family="Times,serif" font-size="14.00">d</text>
</g>
<!-- t2_x_e -->
<g id="node14" class="node">
<title>t2_x_e</title>
<ellipse fill="none" stroke="black" cx="485" cy="-72" rx="27" ry="18"/>
<text text-anchor="middle" x="485" y="-68.3" font-family="Times,serif" font-size="14.00">54</text>
</g>
<!-- t2_x&#45;&gt;t2_x_e -->
<g id="edge12" class="edge">
<title>t2_x&#45;&gt;t2_x_e</title>
<path fill="none" stroke="black" d="M483.4,-140.8C483.68,-129.16 484.05,-113.55 484.36,-100.24"/>
<polygon fill="black" stroke="black" points="487.86,-100.26 484.6,-90.18 480.86,-100.09 487.86,-100.26"/>
<text text-anchor="middle" x="488.5" y="-111.8" font-family="Times,serif" font-size="14.00">e</text>
</g>
<!-- t3 -->
<g id="node15" class="node">
<title>t3</title>
<ellipse fill="none" stroke="black" cx="757" cy="-246" rx="67.69" ry="18"/>
<text text-anchor="middle" x="757" y="-242.3" font-family="Times,serif" font-size="14.00">t3 = t1 + t2</text>
</g>
<!-- t3_a -->
<g id="node16" class="node">
<title>t3_a</title>
<ellipse fill="none" stroke="black" cx="604" cy="-159" rx="67.69" ry="18"/>
<text text-anchor="middle" x="604" y="-155.3" font-family="Times,serif" font-size="14.00">11 = 0 + 11</text>
</g>
<!-- t3&#45;&gt;t3_a -->
<g id="edge13" class="edge">
<title>t3&#45;&gt;t3_a</title>
<path fill="none" stroke="black" d="M728.94,-229.41C704.14,-215.63 667.79,-195.44 640.69,-180.38"/>
<polygon fill="black" stroke="black" points="642.33,-177.29 631.88,-175.49 638.93,-183.41 642.33,-177.29"/>
<text text-anchor="middle" x="693.5" y="-198.8" font-family="Times,serif" font-size="14.00">a</text>
</g>
<!-- t3_b -->
<g id="node17" class="node">
<title>t3_b</title>
<ellipse fill="none" stroke="black" cx="757" cy="-159" rx="67.69" ry="18"/>
<text text-anchor="middle" x="757" y="-155.3" font-family="Times,serif" font-size="14.00">24 = 2 + 22</text>
</g>
<!-- t3&#45;&gt;t3_b -->
<g id="edge14" class="edge">
<title>t3&#45;&gt;t3_b</title>
<path fill="none" stroke="black" d="M757,-227.8C757,-216.16 757,-200.55 757,-187.24"/>
<polygon fill="black" stroke="black" points="760.5,-187.18 757,-177.18 753.5,-187.18 760.5,-187.18"/>
<text text-anchor="middle" x="762" y="-198.8" font-family="Times,serif" font-size="14.00">b</text>
</g>
<!-- t3_x -->
<g id="node18" class="node">
<title>t3_x</title>
<ellipse fill="none" stroke="black" cx="935" cy="-159" rx="92.08" ry="18"/>
<text text-anchor="middle" x="935" y="-155.3" font-family="Times,serif" font-size="14.00">t3.x = t1.x + t2.x</text>
</g>
<!-- t3&#45;&gt;t3_x -->
<g id="edge15" class="edge">
<title>t3&#45;&gt;t3_x</title>
<path fill="none" stroke="black" d="M788.41,-230C817.39,-216.16 860.64,-195.51 892.66,-180.22"/>
<polygon fill="black" stroke="black" points="894.27,-183.33 901.79,-175.86 891.26,-177.01 894.27,-183.33"/>
<text text-anchor="middle" x="860.5" y="-198.8" font-family="Times,serif" font-size="14.00">x</text>
</g>
<!-- t3_x_c -->
<g id="node19" class="node">
<title>t3_x_c</title>
<ellipse fill="none" stroke="black" cx="604" cy="-72" rx="67.69" ry="18"/>
<text text-anchor="middle" x="604" y="-68.3" font-family="Times,serif" font-size="14.00">33 = 3 + 30</text>
</g>
<!-- t3_x&#45;&gt;t3_x_c -->
<g id="edge16" class="edge">
<title>t3_x&#45;&gt;t3_x_c</title>
<path fill="none" stroke="black" d="M881.45,-144.25C820.88,-128.69 722.63,-103.46 660.76,-87.58"/>
<polygon fill="black" stroke="black" points="661.34,-84.11 650.78,-85.01 659.59,-90.89 661.34,-84.11"/>
<text text-anchor="middle" x="793" y="-111.8" font-family="Times,serif" font-size="14.00">c</text>
</g>
<!-- t3_x_d -->
<g id="node20" class="node">
<title>t3_x_d</title>
<ellipse fill="none" stroke="black" cx="757" cy="-72" rx="67.69" ry="18"/>
<text text-anchor="middle" x="757" y="-68.3" font-family="Times,serif" font-size="14.00">52 = 4 + 48</text>
</g>
<!-- t3_x&#45;&gt;t3_x_d -->
<g id="edge17" class="edge">
<title>t3_x&#45;&gt;t3_x_d</title>
<path fill="none" stroke="black" d="M901.52,-142.01C872.13,-127.98 829.3,-107.52 797.89,-92.53"/>
<polygon fill="black" stroke="black" points="799.07,-89.21 788.54,-88.06 796.05,-95.53 799.07,-89.21"/>
<text text-anchor="middle" x="861" y="-111.8" font-family="Times,serif" font-size="14.00">d</text>
</g>
<!-- t3_x_e -->
<g id="node21" class="node">
<title>t3_x_e</title>
<ellipse fill="none" stroke="black" cx="910" cy="-72" rx="67.69" ry="18"/>
<text text-anchor="middle" x="910" y="-68.3" font-family="Times,serif" font-size="14.00">59 = 5 + 54</text>
</g>
<!-- t3_x&#45;&gt;t3_x_e -->
<g id="edge18" class="edge">
<title>t3_x&#45;&gt;t3_x_e</title>
<path fill="none" stroke="black" d="M929.94,-140.8C926.48,-129.05 921.83,-113.24 917.89,-99.84"/>
<polygon fill="black" stroke="black" points="921.23,-98.78 915.05,-90.18 914.52,-100.76 921.23,-98.78"/>
<text text-anchor="middle" x="927.5" y="-111.8" font-family="Times,serif" font-size="14.00">e</text>
</g>
<!-- t3_x_f -->
<g id="node22" class="node">
<title>t3_x_f</title>
<ellipse fill="none" stroke="black" cx="1051" cy="-72" rx="55.79" ry="18"/>
<text text-anchor="middle" x="1051" y="-68.3" font-family="Times,serif" font-size="14.00">6 = 6 + 0</text>
</g>
<!-- t3_x&#45;&gt;t3_x_f -->
<g id="edge19" class="edge">
<title>t3_x&#45;&gt;t3_x_f</title>
<path fill="none" stroke="black" d="M957.64,-141.41C975.87,-128.05 1001.64,-109.17 1021.49,-94.63"/>
<polygon fill="black" stroke="black" points="1023.59,-97.42 1029.59,-88.69 1019.46,-91.78 1023.59,-97.42"/>
<text text-anchor="middle" x="1002" y="-111.8" font-family="Times,serif" font-size="14.00">f</text>
</g>
</g>
</svg>
