<?xml version="1.0" encoding="UTF-8" standalone="no"?>
<!DOCTYPE svg PUBLIC "-//W3C//DTD SVG 1.1//EN"
 "http://www.w3.org/Graphics/SVG/1.1/DTD/svg11.dtd">
<!-- Generated by graphviz version 2.43.0 (0)
 -->
<!-- Title: %3 Pages: 1 -->
<svg width="1051pt" height="311pt"
 viewBox="0.00 0.00 1051.00 311.00" xmlns="http://www.w3.org/2000/svg" xmlns:xlink="http://www.w3.org/1999/xlink">
<g id="graph0" class="graph" transform="scale(1 1) rotate(0) translate(4 307)">
<title>%3</title>
<polygon fill="transparent" stroke="transparent" points="-4,4 -4,-307 1047,-307 1047,4 -4,4"/>
<text text-anchor="middle" x="521.5" y="-22.8" font-family="Times,serif" font-size="14.00">missing_demo_2 </text>
<text text-anchor="middle" x="521.5" y="-7.8" font-family="Times,serif" font-size="14.00">(Runnable, t3 is sum of t1 and t2, t1.a and t2.x.e&#39;s values are actually treated as [].)</text>
<g id="clust1" class="cluster">
<title>cluster_t1</title>
<polygon fill="transparent" stroke="black" points="8,-46 8,-295 324,-295 324,-46 8,-46"/>
<text text-anchor="middle" x="166" y="-279.8" font-family="Times,serif" font-size="14.00">Tree t1</text>
</g>
<g id="clust2" class="cluster">
<title>cluster_t2</title>
<polygon fill="transparent" stroke="black" points="332,-46 332,-295 593,-295 593,-46 332,-46"/>
<text text-anchor="middle" x="462.5" y="-279.8" font-family="Times,serif" font-size="14.00">Tree t2</text>
</g>
<g id="clust3" class="cluster">
<title>cluster_t3</title>
<polygon fill="transparent" stroke="black" points="601,-46 601,-295 1035,-295 1035,-46 601,-46"/>
<text text-anchor="middle" x="818" y="-279.8" font-family="Times,serif" font-size="14.00">Tree t3</text>
</g>
<!-- t1 -->
<g id="node1" class="node">
<title>t1</title>
<ellipse fill="none" stroke="black" cx="92" cy="-246" rx="27" ry="18"/>
<text text-anchor="middle" x="92" y="-242.3" font-family="Times,serif" font-size="14.00">t1</text>
</g>
<!-- t1_b -->
<g id="node2" class="node">
<title>t1_b</title>
<ellipse fill="none" stroke="black" cx="64" cy="-159" rx="35.19" ry="18"/>
<text text-anchor="middle" x="64" y="-155.3" font-family="Times,serif" font-size="14.00">[2, 3]</text>
</g>
<!-- t1&#45;&gt;t1_b -->
<g id="edge1" class="edge">
<title>t1&#45;&gt;t1_b</title>
<path fill="none" stroke="black" d="M86.47,-228.21C82.58,-216.41 77.3,-200.38 72.84,-186.82"/>
<polygon fill="black" stroke="black" points="76.07,-185.45 69.62,-177.05 69.42,-187.64 76.07,-185.45"/>
<text text-anchor="middle" x="84" y="-198.8" font-family="Times,serif" font-size="14.00">b</text>
</g>
<!-- t1_x -->
<g id="node3" class="node">
<title>t1_x</title>
<ellipse fill="none" stroke="black" cx="146" cy="-159" rx="28.7" ry="18"/>
<text text-anchor="middle" x="146" y="-155.3" font-family="Times,serif" font-size="14.00">t1.x</text>
</g>
<!-- t1&#45;&gt;t1_x -->
<g id="edge2" class="edge">
<title>t1&#45;&gt;t1_x</title>
<path fill="none" stroke="black" d="M102.16,-229.01C110.08,-216.55 121.22,-199.01 130.28,-184.74"/>
<polygon fill="black" stroke="black" points="133.48,-186.23 135.89,-175.92 127.57,-182.48 133.48,-186.23"/>
<text text-anchor="middle" x="126.5" y="-198.8" font-family="Times,serif" font-size="14.00">x</text>
</g>
<!-- t1_x_c -->
<g id="node4" class="node">
<title>t1_x_c</title>
<ellipse fill="none" stroke="black" cx="43" cy="-72" rx="27" ry="18"/>
<text text-anchor="middle" x="43" y="-68.3" font-family="Times,serif" font-size="14.00">[5]</text>
</g>
<!-- t1_x&#45;&gt;t1_x_c -->
<g id="edge3" class="edge">
<title>t1_x&#45;&gt;t1_x_c</title>
<path fill="none" stroke="black" d="M128.99,-143.96C112.17,-130.08 86.26,-108.7 67.27,-93.03"/>
<polygon fill="black" stroke="black" points="69.29,-90.16 59.35,-86.49 64.84,-95.56 69.29,-90.16"/>
<text text-anchor="middle" x="104" y="-111.8" font-family="Times,serif" font-size="14.00">c</text>
</g>
<!-- t1_x_d -->
<g id="node5" class="node">
<title>t1_x_d</title>
<ellipse fill="none" stroke="black" cx="146" cy="-72" rx="58.49" ry="18"/>
<text text-anchor="middle" x="146" y="-68.3" font-family="Times,serif" font-size="14.00">[7, 11, 13]</text>
</g>
<!-- t1_x&#45;&gt;t1_x_d -->
<g id="edge4" class="edge">
<title>t1_x&#45;&gt;t1_x_d</title>
<path fill="none" stroke="black" d="M146,-140.8C146,-129.16 146,-113.55 146,-100.24"/>
<polygon fill="black" stroke="black" points="149.5,-100.18 146,-90.18 142.5,-100.18 149.5,-100.18"/>
<text text-anchor="middle" x="151" y="-111.8" font-family="Times,serif" font-size="14.00">d</text>
</g>
<!-- t1_x_e -->
<g id="node6" class="node">
<title>t1_x_e</title>
<ellipse fill="none" stroke="black" cx="269" cy="-72" rx="46.59" ry="18"/>
<text text-anchor="middle" x="269" y="-68.3" font-family="Times,serif" font-size="14.00">[17, 19]</text>
</g>
<!-- t1_x&#45;&gt;t1_x_e -->
<g id="edge5" class="edge">
<title>t1_x&#45;&gt;t1_x_e</title>
<path fill="none" stroke="black" d="M164.68,-145.09C184.35,-131.5 215.61,-109.9 238.79,-93.88"/>
<polygon fill="black" stroke="black" points="241,-96.61 247.23,-88.04 237.02,-90.85 241,-96.61"/>
<text text-anchor="middle" x="218.5" y="-111.8" font-family="Times,serif" font-size="14.00">e</text>
</g>
<!-- t2 -->
<g id="node7" class="node">
<title>t2</title>
<ellipse fill="none" stroke="black" cx="463" cy="-246" rx="27" ry="18"/>
<text text-anchor="middle" x="463" y="-242.3" font-family="Times,serif" font-size="14.00">t2</text>
</g>
<!-- t2_a -->
<g id="node8" class="node">
<title>t2_a</title>
<ellipse fill="none" stroke="black" cx="369" cy="-159" rx="29.5" ry="18"/>
<text text-anchor="middle" x="369" y="-155.3" font-family="Times,serif" font-size="14.00">[23]</text>
</g>
<!-- t2&#45;&gt;t2_a -->
<g id="edge6" class="edge">
<title>t2&#45;&gt;t2_a</title>
<path fill="none" stroke="black" d="M447.48,-230.96C432.46,-217.39 409.52,-196.64 392.31,-181.08"/>
<polygon fill="black" stroke="black" points="394.62,-178.45 384.86,-174.34 389.93,-183.64 394.62,-178.45"/>
<text text-anchor="middle" x="425.5" y="-198.8" font-family="Times,serif" font-size="14.00">a</text>
</g>
<!-- t2_b -->
<g id="node9" class="node">
<title>t2_b</title>
<ellipse fill="none" stroke="black" cx="463" cy="-159" rx="46.59" ry="18"/>
<text text-anchor="middle" x="463" y="-155.3" font-family="Times,serif" font-size="14.00">[29, 31]</text>
</g>
<!-- t2&#45;&gt;t2_b -->
<g id="edge7" class="edge">
<title>t2&#45;&gt;t2_b</title>
<path fill="none" stroke="black" d="M463,-227.8C463,-216.16 463,-200.55 463,-187.24"/>
<polygon fill="black" stroke="black" points="466.5,-187.18 463,-177.18 459.5,-187.18 466.5,-187.18"/>
<text text-anchor="middle" x="468" y="-198.8" font-family="Times,serif" font-size="14.00">b</text>
</g>
<!-- t2_x -->
<g id="node10" class="node">
<title>t2_x</title>
<ellipse fill="none" stroke="black" cx="556" cy="-159" rx="28.7" ry="18"/>
<text text-anchor="middle" x="556" y="-155.3" font-family="Times,serif" font-size="14.00">t2.x</text>
</g>
<!-- t2&#45;&gt;t2_x -->
<g id="edge8" class="edge">
<title>t2&#45;&gt;t2_x</title>
<path fill="none" stroke="black" d="M478.36,-230.96C493.08,-217.51 515.5,-197.01 532.47,-181.5"/>
<polygon fill="black" stroke="black" points="535.29,-183.67 540.31,-174.34 530.57,-178.5 535.29,-183.67"/>
<text text-anchor="middle" x="519.5" y="-198.8" font-family="Times,serif" font-size="14.00">x</text>
</g>
<!-- t2_x_c -->
<g id="node11" class="node">
<title>t2_x_c</title>
<ellipse fill="none" stroke="black" cx="444" cy="-72" rx="29.5" ry="18"/>
<text text-anchor="middle" x="444" y="-68.3" font-family="Times,serif" font-size="14.00">[37]</text>
</g>
<!-- t2_x&#45;&gt;t2_x_c -->
<g id="edge9" class="edge">
<title>t2_x&#45;&gt;t2_x_c</title>
<path fill="none" stroke="black" d="M538.5,-144.72C520.12,-130.77 491,-108.67 469.94,-92.69"/>
<polygon fill="black" stroke="black" points="471.83,-89.73 461.75,-86.47 467.6,-95.3 471.83,-89.73"/>
<text text-anchor="middle" x="510" y="-111.8" font-family="Times,serif" font-size="14.00">c</text>
</g>
<!-- t2_x_d -->
<g id="node12" class="node">
<title>t2_x_d</title>
<ellipse fill="none" stroke="black" cx="538" cy="-72" rx="46.59" ry="18"/>
<text text-anchor="middle" x="538" y="-68.3" font-family="Times,serif" font-size="14.00">[41, 43]</text>
</g>
<!-- t2_x&#45;&gt;t2_x_d -->
<g id="edge10" class="edge">
<title>t2_x&#45;&gt;t2_x_d</title>
<path fill="none" stroke="black" d="M552.36,-140.8C549.89,-129.16 546.59,-113.55 543.77,-100.24"/>
<polygon fill="black" stroke="black" points="547.13,-99.23 541.64,-90.18 540.28,-100.68 547.13,-99.23"/>
<text text-anchor="middle" x="553" y="-111.8" font-family="Times,serif" font-size="14.00">d</text>
</g>
<!-- t3 -->
<g id="node13" class="node">
<title>t3</title>
<ellipse fill="none" stroke="black" cx="755" cy="-246" rx="67.69" ry="18"/>
<text text-anchor="middle" x="755" y="-242.3" font-family="Times,serif" font-size="14.00">t3 = t1 + t2</text>
</g>
<!-- t3_a -->
<g id="node14" class="node">
<title>t3_a</title>
<ellipse fill="none" stroke="black" cx="638" cy="-159" rx="29.5" ry="18"/>
<text text-anchor="middle" x="638" y="-155.3" font-family="Times,serif" font-size="14.00">[23]</text>
</g>
<!-- t3&#45;&gt;t3_a -->
<g id="edge11" class="edge">
<title>t3&#45;&gt;t3_a</title>
<path fill="none" stroke="black" d="M732.72,-228.81C713.34,-214.74 685.22,-194.31 664.66,-179.37"/>
<polygon fill="black" stroke="black" points="666.5,-176.38 656.35,-173.33 662.39,-182.04 666.5,-176.38"/>
<text text-anchor="middle" x="707.5" y="-198.8" font-family="Times,serif" font-size="14.00">a</text>
</g>
<!-- t3_b -->
<g id="node15" class="node">
<title>t3_b</title>
<ellipse fill="none" stroke="black" cx="755" cy="-159" rx="70.39" ry="18"/>
<text text-anchor="middle" x="755" y="-155.3" font-family="Times,serif" font-size="14.00">[2, 3, 29, 31]</text>
</g>
<!-- t3&#45;&gt;t3_b -->
<g id="edge12" class="edge">
<title>t3&#45;&gt;t3_b</title>
<path fill="none" stroke="black" d="M755,-227.8C755,-216.16 755,-200.55 755,-187.24"/>
<polygon fill="black" stroke="black" points="758.5,-187.18 755,-177.18 751.5,-187.18 758.5,-187.18"/>
<text text-anchor="middle" x="760" y="-198.8" font-family="Times,serif" font-size="14.00">b</text>
</g>
<!-- t3_x -->
<g id="node16" class="node">
<title>t3_x</title>
<ellipse fill="none" stroke="black" cx="935" cy="-159" rx="92.08" ry="18"/>
<text text-anchor="middle" x="935" y="-155.3" font-family="Times,serif" font-size="14.00">t3.x = t1.x + t2.x</text>
</g>
<!-- t3&#45;&gt;t3_x -->
<g id="edge13" class="edge">
<title>t3&#45;&gt;t3_x</title>
<path fill="none" stroke="black" d="M786.77,-230C816.07,-216.16 859.81,-195.51 892.18,-180.22"/>
<polygon fill="black" stroke="black" points="893.87,-183.29 901.41,-175.86 890.88,-176.96 893.87,-183.29"/>
<text text-anchor="middle" x="859.5" y="-198.8" font-family="Times,serif" font-size="14.00">x</text>
</g>
<!-- t3_x_c -->
<g id="node17" class="node">
<title>t3_x_c</title>
<ellipse fill="none" stroke="black" cx="669" cy="-72" rx="40.89" ry="18"/>
<text text-anchor="middle" x="669" y="-68.3" font-family="Times,serif" font-size="14.00">[5, 37]</text>
</g>
<!-- t3_x&#45;&gt;t3_x_c -->
<g id="edge14" class="edge">
<title>t3_x&#45;&gt;t3_x_c</title>
<path fill="none" stroke="black" d="M887.71,-143.45C843.88,-129.89 776.91,-108.96 719,-90 716.05,-89.03 713,-88.02 709.93,-87"/>
<polygon fill="black" stroke="black" points="710.76,-83.59 700.17,-83.72 708.53,-90.22 710.76,-83.59"/>
<text text-anchor="middle" x="823" y="-111.8" font-family="Times,serif" font-size="14.00">c</text>
</g>
<!-- t3_x_d -->
<g id="node18" class="node">
<title>t3_x_d</title>
<ellipse fill="none" stroke="black" cx="822" cy="-72" rx="93.68" ry="18"/>
<text text-anchor="middle" x="822" y="-68.3" font-family="Times,serif" font-size="14.00">[7, 11, 13, 41, 43]</text>
</g>
<!-- t3_x&#45;&gt;t3_x_d -->
<g id="edge15" class="edge">
<title>t3_x&#45;&gt;t3_x_d</title>
<path fill="none" stroke="black" d="M912.94,-141.41C895.6,-128.36 871.25,-110.05 852.11,-95.65"/>
<polygon fill="black" stroke="black" points="854.1,-92.76 844,-89.55 849.89,-98.36 854.1,-92.76"/>
<text text-anchor="middle" x="890" y="-111.8" font-family="Times,serif" font-size="14.00">d</text>
</g>
<!-- t3_x_e -->
<g id="node19" class="node">
<title>t3_x_e</title>
<ellipse fill="none" stroke="black" cx="980" cy="-72" rx="46.59" ry="18"/>
<text text-anchor="middle" x="980" y="-68.3" font-family="Times,serif" font-size="14.00">[17, 19]</text>
</g>
<!-- t3_x&#45;&gt;t3_x_e -->
<g id="edge16" class="edge">
<title>t3_x&#45;&gt;t3_x_e</title>
<path fill="none" stroke="black" d="M944.11,-140.8C950.49,-128.74 959.14,-112.4 966.35,-98.79"/>
<polygon fill="black" stroke="black" points="969.48,-100.36 971.06,-89.89 963.29,-97.09 969.48,-100.36"/>
<text text-anchor="middle" x="964.5" y="-111.8" font-family="Times,serif" font-size="14.00">e</text>
</g>
</g>
</svg>
