<?xml version="1.0" encoding="UTF-8" standalone="no"?>
<!DOCTYPE svg PUBLIC "-//W3C//DTD SVG 1.1//EN"
 "http://www.w3.org/Graphics/SVG/1.1/DTD/svg11.dtd">
<!-- Generated by graphviz version 2.43.0 (0)
 -->
<!-- Title: %3 Pages: 1 -->
<svg width="1027pt" height="296pt"
 viewBox="0.00 0.00 1027.00 296.00" xmlns="http://www.w3.org/2000/svg" xmlns:xlink="http://www.w3.org/1999/xlink">
<g id="graph0" class="graph" transform="scale(1 1) rotate(0) translate(4 292)">
<title>%3</title>
<polygon fill="transparent" stroke="transparent" points="-4,4 -4,-292 1023,-292 1023,4 -4,4"/>
<text text-anchor="middle" x="509.5" y="-7.8" font-family="Times,serif" font-size="14.00">An example of tree&#45;based function __add__ (f_T)</text>
<g id="clust1" class="cluster">
<title>cluster_t1</title>
<polygon fill="transparent" stroke="black" points="8,-31 8,-280 226,-280 226,-31 8,-31"/>
<text text-anchor="middle" x="117" y="-264.8" font-family="Times,serif" font-size="14.00">TreeValue t1</text>
</g>
<g id="clust2" class="cluster">
<title>cluster_t2</title>
<polygon fill="transparent" stroke="black" points="234,-31 234,-280 452,-280 452,-31 234,-31"/>
<text text-anchor="middle" x="343" y="-264.8" font-family="Times,serif" font-size="14.00">TreeValue t2</text>
</g>
<g id="clust3" class="cluster">
<title>cluster_sum</title>
<polygon fill="transparent" stroke="black" points="460,-31 460,-280 1011,-280 1011,-31 460,-31"/>
<text text-anchor="middle" x="735.5" y="-264.8" font-family="Times,serif" font-size="14.00">Result of __add__(t1, t2)</text>
</g>
<!-- root1 -->
<g id="node1" class="node">
<title>root1</title>
<polygon fill="none" stroke="black" points="115,-249 85.67,-231 115,-213 144.33,-231 115,-249"/>
<text text-anchor="middle" x="115" y="-227.3" font-family="Times,serif" font-size="14.00">t1</text>
</g>
<!-- root1_n1 -->
<g id="node2" class="node">
<title>root1_n1</title>
<polygon fill="none" stroke="black" points="70,-162 16,-162 16,-126 70,-126 70,-162"/>
<text text-anchor="middle" x="43" y="-140.3" font-family="Times,serif" font-size="14.00">1</text>
</g>
<!-- root1&#45;&gt;root1_n1 -->
<g id="edge1" class="edge">
<title>root1&#45;&gt;root1_n1</title>
<path fill="none" stroke="black" d="M105.29,-218.54C94.83,-206.19 77.86,-186.15 64.27,-170.11"/>
<polygon fill="black" stroke="black" points="66.66,-167.52 57.53,-162.15 61.32,-172.04 66.66,-167.52"/>
<text text-anchor="middle" x="87.5" y="-183.8" font-family="Times,serif" font-size="14.00">a</text>
</g>
<!-- root1_n2 -->
<g id="node3" class="node">
<title>root1_n2</title>
<polygon fill="none" stroke="black" points="142,-162 88,-162 88,-126 142,-126 142,-162"/>
<text text-anchor="middle" x="115" y="-140.3" font-family="Times,serif" font-size="14.00">2</text>
</g>
<!-- root1&#45;&gt;root1_n2 -->
<g id="edge2" class="edge">
<title>root1&#45;&gt;root1_n2</title>
<path fill="none" stroke="black" d="M115,-212.8C115,-201.16 115,-185.55 115,-172.24"/>
<polygon fill="black" stroke="black" points="118.5,-172.18 115,-162.18 111.5,-172.18 118.5,-172.18"/>
<text text-anchor="middle" x="120" y="-183.8" font-family="Times,serif" font-size="14.00">b</text>
</g>
<!-- root1_n3 -->
<g id="node4" class="node">
<title>root1_n3</title>
<ellipse fill="none" stroke="black" cx="189" cy="-144" rx="28.7" ry="18"/>
<text text-anchor="middle" x="189" y="-140.3" font-family="Times,serif" font-size="14.00">t1.x</text>
</g>
<!-- root1&#45;&gt;root1_n3 -->
<g id="edge3" class="edge">
<title>root1&#45;&gt;root1_n3</title>
<path fill="none" stroke="black" d="M124.67,-218.89C135.92,-205.97 154.77,-184.32 169.17,-167.78"/>
<polygon fill="black" stroke="black" points="171.9,-169.97 175.83,-160.13 166.62,-165.38 171.9,-169.97"/>
<text text-anchor="middle" x="160.5" y="-183.8" font-family="Times,serif" font-size="14.00">x</text>
</g>
<!-- root1_n4 -->
<g id="node5" class="node">
<title>root1_n4</title>
<polygon fill="none" stroke="black" points="145,-75 91,-75 91,-39 145,-39 145,-75"/>
<text text-anchor="middle" x="118" y="-53.3" font-family="Times,serif" font-size="14.00">3</text>
</g>
<!-- root1_n3&#45;&gt;root1_n4 -->
<g id="edge4" class="edge">
<title>root1_n3&#45;&gt;root1_n4</title>
<path fill="none" stroke="black" d="M176.31,-127.8C165.87,-115.31 150.88,-97.37 138.71,-82.8"/>
<polygon fill="black" stroke="black" points="141.39,-80.54 132.29,-75.11 136.02,-85.03 141.39,-80.54"/>
<text text-anchor="middle" x="161" y="-96.8" font-family="Times,serif" font-size="14.00">c</text>
</g>
<!-- root1_n5 -->
<g id="node6" class="node">
<title>root1_n5</title>
<polygon fill="none" stroke="black" points="217,-75 163,-75 163,-39 217,-39 217,-75"/>
<text text-anchor="middle" x="190" y="-53.3" font-family="Times,serif" font-size="14.00">4</text>
</g>
<!-- root1_n3&#45;&gt;root1_n5 -->
<g id="edge5" class="edge">
<title>root1_n3&#45;&gt;root1_n5</title>
<path fill="none" stroke="black" d="M189.2,-125.8C189.34,-114.16 189.52,-98.55 189.68,-85.24"/>
<polygon fill="black" stroke="black" points="193.18,-85.22 189.8,-75.18 186.18,-85.13 193.18,-85.22"/>
<text text-anchor="middle" x="194" y="-96.8" font-family="Times,serif" font-size="14.00">d</text>
</g>
<!-- root2 -->
<g id="node7" class="node">
<title>root2</title>
<polygon fill="none" stroke="black" points="341,-249 311.67,-231 341,-213 370.33,-231 341,-249"/>
<text text-anchor="middle" x="341" y="-227.3" font-family="Times,serif" font-size="14.00">t2</text>
</g>
<!-- root2_n1 -->
<g id="node8" class="node">
<title>root2_n1</title>
<polygon fill="none" stroke="black" points="296,-162 242,-162 242,-126 296,-126 296,-162"/>
<text text-anchor="middle" x="269" y="-140.3" font-family="Times,serif" font-size="14.00">11</text>
</g>
<!-- root2&#45;&gt;root2_n1 -->
<g id="edge6" class="edge">
<title>root2&#45;&gt;root2_n1</title>
<path fill="none" stroke="black" d="M331.29,-218.54C320.83,-206.19 303.86,-186.15 290.27,-170.11"/>
<polygon fill="black" stroke="black" points="292.66,-167.52 283.53,-162.15 287.32,-172.04 292.66,-167.52"/>
<text text-anchor="middle" x="313.5" y="-183.8" font-family="Times,serif" font-size="14.00">a</text>
</g>
<!-- root2_n2 -->
<g id="node9" class="node">
<title>root2_n2</title>
<polygon fill="none" stroke="black" points="368,-162 314,-162 314,-126 368,-126 368,-162"/>
<text text-anchor="middle" x="341" y="-140.3" font-family="Times,serif" font-size="14.00">22</text>
</g>
<!-- root2&#45;&gt;root2_n2 -->
<g id="edge7" class="edge">
<title>root2&#45;&gt;root2_n2</title>
<path fill="none" stroke="black" d="M341,-212.8C341,-201.16 341,-185.55 341,-172.24"/>
<polygon fill="black" stroke="black" points="344.5,-172.18 341,-162.18 337.5,-172.18 344.5,-172.18"/>
<text text-anchor="middle" x="346" y="-183.8" font-family="Times,serif" font-size="14.00">b</text>
</g>
<!-- root2_n3 -->
<g id="node10" class="node">
<title>root2_n3</title>
<ellipse fill="none" stroke="black" cx="415" cy="-144" rx="28.7" ry="18"/>
<text text-anchor="middle" x="415" y="-140.3" font-family="Times,serif" font-size="14.00">t2.x</text>
</g>
<!-- root2&#45;&gt;root2_n3 -->
<g id="edge8" class="edge">
<title>root2&#45;&gt;root2_n3</title>
<path fill="none" stroke="black" d="M350.67,-218.89C361.92,-205.97 380.77,-184.32 395.17,-167.78"/>
<polygon fill="black" stroke="black" points="397.9,-169.97 401.83,-160.13 392.62,-165.38 397.9,-169.97"/>
<text text-anchor="middle" x="386.5" y="-183.8" font-family="Times,serif" font-size="14.00">x</text>
</g>
<!-- root2_n4 -->
<g id="node11" class="node">
<title>root2_n4</title>
<polygon fill="none" stroke="black" points="371,-75 317,-75 317,-39 371,-39 371,-75"/>
<text text-anchor="middle" x="344" y="-53.3" font-family="Times,serif" font-size="14.00">30</text>
</g>
<!-- root2_n3&#45;&gt;root2_n4 -->
<g id="edge9" class="edge">
<title>root2_n3&#45;&gt;root2_n4</title>
<path fill="none" stroke="black" d="M402.31,-127.8C391.87,-115.31 376.88,-97.37 364.71,-82.8"/>
<polygon fill="black" stroke="black" points="367.39,-80.54 358.29,-75.11 362.02,-85.03 367.39,-80.54"/>
<text text-anchor="middle" x="387" y="-96.8" font-family="Times,serif" font-size="14.00">c</text>
</g>
<!-- root2_n5 -->
<g id="node12" class="node">
<title>root2_n5</title>
<polygon fill="none" stroke="black" points="443,-75 389,-75 389,-39 443,-39 443,-75"/>
<text text-anchor="middle" x="416" y="-53.3" font-family="Times,serif" font-size="14.00">48</text>
</g>
<!-- root2_n3&#45;&gt;root2_n5 -->
<g id="edge10" class="edge">
<title>root2_n3&#45;&gt;root2_n5</title>
<path fill="none" stroke="black" d="M415.2,-125.8C415.34,-114.16 415.52,-98.55 415.68,-85.24"/>
<polygon fill="black" stroke="black" points="419.18,-85.22 415.8,-75.18 412.18,-85.13 419.18,-85.22"/>
<text text-anchor="middle" x="420" y="-96.8" font-family="Times,serif" font-size="14.00">d</text>
</g>
<!-- root3 -->
<g id="node13" class="node">
<title>root3</title>
<polygon fill="none" stroke="black" points="719,-249 609.74,-231 719,-213 828.26,-231 719,-249"/>
<text text-anchor="middle" x="719" y="-227.3" font-family="Times,serif" font-size="14.00">__add__(t1, t2)</text>
</g>
<!-- root3_n1 -->
<g id="node14" class="node">
<title>root3_n1</title>
<polygon fill="none" stroke="black" points="623.5,-162 468.5,-162 468.5,-126 623.5,-126 623.5,-162"/>
<text text-anchor="middle" x="546" y="-140.3" font-family="Times,serif" font-size="14.00">12 = __add__(1, 11)</text>
</g>
<!-- root3&#45;&gt;root3_n1 -->
<g id="edge11" class="edge">
<title>root3&#45;&gt;root3_n1</title>
<path fill="none" stroke="black" d="M692.73,-217.09C665.54,-203.73 622.6,-182.63 590.18,-166.71"/>
<polygon fill="black" stroke="black" points="591.43,-163.42 580.91,-162.15 588.34,-169.7 591.43,-163.42"/>
<text text-anchor="middle" x="646.5" y="-183.8" font-family="Times,serif" font-size="14.00">a</text>
</g>
<!-- root3_n2 -->
<g id="node15" class="node">
<title>root3_n2</title>
<polygon fill="none" stroke="black" points="796.5,-162 641.5,-162 641.5,-126 796.5,-126 796.5,-162"/>
<text text-anchor="middle" x="719" y="-140.3" font-family="Times,serif" font-size="14.00">24 = __add__(2, 22)</text>
</g>
<!-- root3&#45;&gt;root3_n2 -->
<g id="edge12" class="edge">
<title>root3&#45;&gt;root3_n2</title>
<path fill="none" stroke="black" d="M719,-212.8C719,-201.16 719,-185.55 719,-172.24"/>
<polygon fill="black" stroke="black" points="722.5,-172.18 719,-162.18 715.5,-172.18 722.5,-172.18"/>
<text text-anchor="middle" x="724" y="-183.8" font-family="Times,serif" font-size="14.00">b</text>
</g>
<!-- root3_n3 -->
<g id="node16" class="node">
<title>root3_n3</title>
<ellipse fill="none" stroke="black" cx="909" cy="-144" rx="94.48" ry="18"/>
<text text-anchor="middle" x="909" y="-140.3" font-family="Times,serif" font-size="14.00">__add__(t1.x, t2.x)</text>
</g>
<!-- root3&#45;&gt;root3_n3 -->
<g id="edge13" class="edge">
<title>root3&#45;&gt;root3_n3</title>
<path fill="none" stroke="black" d="M747.04,-217.46C777.93,-203.64 828.04,-181.22 864.35,-164.98"/>
<polygon fill="black" stroke="black" points="866.03,-168.06 873.73,-160.78 863.17,-161.67 866.03,-168.06"/>
<text text-anchor="middle" x="829.5" y="-183.8" font-family="Times,serif" font-size="14.00">x</text>
</g>
<!-- root3_n4 -->
<g id="node17" class="node">
<title>root3_n4</title>
<polygon fill="none" stroke="black" points="825.5,-75 670.5,-75 670.5,-39 825.5,-39 825.5,-75"/>
<text text-anchor="middle" x="748" y="-53.3" font-family="Times,serif" font-size="14.00">33 = __add__(3, 30)</text>
</g>
<!-- root3_n3&#45;&gt;root3_n4 -->
<g id="edge14" class="edge">
<title>root3_n3&#45;&gt;root3_n4</title>
<path fill="none" stroke="black" d="M878.34,-126.81C853.09,-113.48 817.06,-94.46 789.28,-79.79"/>
<polygon fill="black" stroke="black" points="790.68,-76.58 780.2,-75 787.41,-82.77 790.68,-76.58"/>
<text text-anchor="middle" x="842" y="-96.8" font-family="Times,serif" font-size="14.00">c</text>
</g>
<!-- root3_n5 -->
<g id="node18" class="node">
<title>root3_n5</title>
<polygon fill="none" stroke="black" points="998.5,-75 843.5,-75 843.5,-39 998.5,-39 998.5,-75"/>
<text text-anchor="middle" x="921" y="-53.3" font-family="Times,serif" font-size="14.00">52 = __add__(4, 48)</text>
</g>
<!-- root3_n3&#45;&gt;root3_n5 -->
<g id="edge15" class="edge">
<title>root3_n3&#45;&gt;root3_n5</title>
<path fill="none" stroke="black" d="M911.43,-125.8C913.07,-114.16 915.28,-98.55 917.15,-85.24"/>
<polygon fill="black" stroke="black" points="920.64,-85.57 918.58,-75.18 913.71,-84.59 920.64,-85.57"/>
<text text-anchor="middle" x="920" y="-96.8" font-family="Times,serif" font-size="14.00">d</text>
</g>
</g>
</svg>
