<?xml version="1.0" encoding="UTF-8" standalone="no"?>
<svg version="1.1" xmlns="http://www.w3.org/2000/svg" style="font-family: Arial; " width="800" height="450" viewBox="0 0 800 450"><title>Time cost of stack operation</title><defs><clipPath id="chart-clipPath-exact"><rect height="293" width="542"></rect></clipPath><clipPath id="chart-clipPath-buffer"><rect x="-10" y="-10" height="313" width="562"></rect></clipPath></defs><g class="scaler"><rect width="800" height="450" fill="rgb(255, 255, 255)" fill-opacity="1"></rect><g class="canvas" transform="translate(93,72)"><g class="grid"><g class="axis-grid y" transform="translate(0,0)"><line class="grid" x1="0" x2="542" y1="0" y2="0" style="stroke: #232115; stroke-opacity: 0.2; stroke-width: 1px; " transform="translate(0,291)"></line><line class="grid" x1="0" x2="542" y1="0" y2="0" style="stroke: #232115; stroke-opacity: 0.2; stroke-width: 1px; " transform="translate(0,229.5191175889628)"></line><line class="grid" x1="0" x2="542" y1="0" y2="0" style="stroke: #232115; stroke-opacity: 0.2; stroke-width: 1px; " transform="translate(0,174.45013563089077)"></line><line class="grid" x1="0" x2="542" y1="0" y2="0" style="stroke: #232115; stroke-opacity: 0.2; stroke-width: 1px; " transform="translate(0,145.50000000000003)"></line><line class="grid" x1="0" x2="542" y1="0" y2="0" style="stroke: #232115; stroke-opacity: 0.2; stroke-width: 1px; " transform="translate(0,84.01911758896284)"></line><line class="grid" x1="0" x2="542" y1="0" y2="0" style="stroke: #232115; stroke-opacity: 0.2; stroke-width: 1px; " transform="translate(0,28.95013563089077)"></line><line class="grid" x1="0" x2="542" y1="0" y2="0" style="stroke: #232115; stroke-opacity: 0.2; stroke-width: 1px; " transform="translate(0,0)"></line></g><g class="axis-grid x" transform="translate(0,292)"></g><g class="axis-grid y2" transform="translate(541.5,0)"></g><g class="axis-grid x2" transform="translate(0,1)"></g></g><rect class="trigger-layer" height="379" width="724" opacity="0"></rect><g class="chart"><g class="series s0"><path class="line" clip-path="url(#chart-clipPath-exact)" visibility="visible" fill="none" stroke="rgb(233, 76, 59)" stroke-opacity="1" stroke-width="1" d="M0,263.44512449573386L54.199999999999996,257.39324697392635L108.39999999999999,249.65478655933063L162.6,238.65056535132663L216.79999999999998,224.48538390030222L271,206.58683363666387L325.19999999999993,183.8378256738663L379.3999999999999,165.01636791365615L433.59999999999997,143.46940263498945L487.79999999999995,122.44317661796063L542,99.04750979119083"></path><path class="point" clip-path="url(#chart-clipPath-buffer)" stroke="rgb(233, 76, 59)" stroke-opacity="1" fill="rgb(233, 76, 59)" fill-opacity="1" visibility="visible" d="M-2.5,-2.5L2.5,-2.5 2.5,2.5 -2.5,2.5Z" transform="translate(0,263.44512449573386)"></path><path class="point" clip-path="url(#chart-clipPath-buffer)" stroke="rgb(233, 76, 59)" stroke-opacity="1" fill="rgb(233, 76, 59)" fill-opacity="1" visibility="visible" d="M-2.5,-2.5L2.5,-2.5 2.5,2.5 -2.5,2.5Z" transform="translate(54.199999999999996,257.39324697392635)"></path><path class="point" clip-path="url(#chart-clipPath-buffer)" stroke="rgb(233, 76, 59)" stroke-opacity="1" fill="rgb(233, 76, 59)" fill-opacity="1" visibility="visible" d="M-2.5,-2.5L2.5,-2.5 2.5,2.5 -2.5,2.5Z" transform="translate(108.39999999999999,249.65478655933063)"></path><path class="point" clip-path="url(#chart-clipPath-buffer)" stroke="rgb(233, 76, 59)" stroke-opacity="1" fill="rgb(233, 76, 59)" fill-opacity="1" visibility="visible" d="M-2.5,-2.5L2.5,-2.5 2.5,2.5 -2.5,2.5Z" transform="translate(162.6,238.65056535132663)"></path><path class="point" clip-path="url(#chart-clipPath-buffer)" stroke="rgb(233, 76, 59)" stroke-opacity="1" fill="rgb(233, 76, 59)" fill-opacity="1" visibility="visible" d="M-2.5,-2.5L2.5,-2.5 2.5,2.5 -2.5,2.5Z" transform="translate(216.79999999999998,224.48538390030222)"></path><path class="point" clip-path="url(#chart-clipPath-buffer)" stroke="rgb(233, 76, 59)" stroke-opacity="1" fill="rgb(233, 76, 59)" fill-opacity="1" visibility="visible" d="M-2.5,-2.5L2.5,-2.5 2.5,2.5 -2.5,2.5Z" transform="translate(271,206.58683363666387)"></path><path class="point" clip-path="url(#chart-clipPath-buffer)" stroke="rgb(233, 76, 59)" stroke-opacity="1" fill="rgb(233, 76, 59)" fill-opacity="1" visibility="visible" d="M-2.5,-2.5L2.5,-2.5 2.5,2.5 -2.5,2.5Z" transform="translate(325.19999999999993,183.8378256738663)"></path><path class="point" clip-path="url(#chart-clipPath-buffer)" stroke="rgb(233, 76, 59)" stroke-opacity="1" fill="rgb(233, 76, 59)" fill-opacity="1" visibility="visible" d="M-2.5,-2.5L2.5,-2.5 2.5,2.5 -2.5,2.5Z" transform="translate(379.3999999999999,165.01636791365615)"></path><path class="point" clip-path="url(#chart-clipPath-buffer)" stroke="rgb(233, 76, 59)" stroke-opacity="1" fill="rgb(233, 76, 59)" fill-opacity="1" visibility="visible" d="M-2.5,-2.5L2.5,-2.5 2.5,2.5 -2.5,2.5Z" transform="translate(433.59999999999997,143.46940263498945)"></path><path class="point" clip-path="url(#chart-clipPath-buffer)" stroke="rgb(233, 76, 59)" stroke-opacity="1" fill="rgb(233, 76, 59)" fill-opacity="1" visibility="visible" d="M-2.5,-2.5L2.5,-2.5 2.5,2.5 -2.5,2.5Z" transform="translate(487.79999999999995,122.44317661796063)"></path><path class="point" clip-path="url(#chart-clipPath-buffer)" stroke="rgb(233, 76, 59)" stroke-opacity="1" fill="rgb(233, 76, 59)" fill-opacity="1" visibility="visible" d="M-2.5,-2.5L2.5,-2.5 2.5,2.5 -2.5,2.5Z" transform="translate(542,99.04750979119083)"></path><text class="data-label" font-size="10" fill="rgb(233, 76, 59)" fill-opacity="1" visibility="visible" text-anchor="middle" data-text-vanchor="bottom" transform="translate(0,244.44512449573386)"><tspan x="0" y="0" dy="0.91em">23.92</tspan></text><text class="data-label" font-size="10" fill="rgb(233, 76, 59)" fill-opacity="1" visibility="visible" text-anchor="middle" data-text-vanchor="bottom" transform="translate(54.199999999999996,238.39324697392635)"><tspan x="0" y="0" dy="0.91em">28.97</tspan></text><text class="data-label" font-size="10" fill="rgb(233, 76, 59)" fill-opacity="1" visibility="visible" text-anchor="middle" data-text-vanchor="bottom" transform="translate(108.39999999999999,230.65478655933063)"><tspan x="0" y="0" dy="0.91em">37.01</tspan></text><text class="data-label" font-size="10" fill="rgb(233, 76, 59)" fill-opacity="1" visibility="visible" text-anchor="middle" data-text-vanchor="bottom" transform="translate(162.6,219.65056535132663)"><tspan x="0" y="0" dy="0.91em">52.43</tspan></text><text class="data-label" font-size="10" fill="rgb(233, 76, 59)" fill-opacity="1" visibility="visible" text-anchor="middle" data-text-vanchor="bottom" transform="translate(216.79999999999998,205.48538390030222)"><tspan x="0" y="0" dy="0.91em">82.09</tspan></text><text class="data-label" font-size="10" fill="rgb(233, 76, 59)" fill-opacity="1" visibility="visible" text-anchor="middle" data-text-vanchor="bottom" transform="translate(271,187.58683363666387)"><tspan x="0" y="0" dy="0.91em">144.65</tspan></text><text class="data-label" font-size="10" fill="rgb(233, 76, 59)" fill-opacity="1" visibility="visible" text-anchor="middle" data-text-vanchor="bottom" transform="translate(325.19999999999993,164.8378256738663)"><tspan x="0" y="0" dy="0.91em">297.18</tspan></text><text class="data-label" font-size="10" fill="rgb(233, 76, 59)" fill-opacity="1" visibility="visible" text-anchor="middle" data-text-vanchor="bottom" transform="translate(379.3999999999999,146.01636791365615)"><tspan x="0" y="0" dy="0.91em">539.18</tspan></text><text class="data-label" font-size="10" fill="rgb(233, 76, 59)" fill-opacity="1" visibility="visible" text-anchor="middle" data-text-vanchor="bottom" transform="translate(433.59999999999997,124.46940263498945)"><tspan x="0" y="0" dy="0.91em">1.07K</tspan></text><text class="data-label" font-size="10" fill="rgb(233, 76, 59)" fill-opacity="1" visibility="visible" text-anchor="middle" data-text-vanchor="bottom" transform="translate(487.79999999999995,103.44317661796063)"><tspan x="0" y="0" dy="0.91em">2.07K</tspan></text><text class="data-label" font-size="10" fill="rgb(233, 76, 59)" fill-opacity="1" visibility="visible" text-anchor="middle" data-text-vanchor="bottom" transform="translate(542,80.04750979119083)"><tspan x="0" y="0" dy="0.91em">4.35K</tspan></text></g><g class="series s1"><path class="line" clip-path="url(#chart-clipPath-exact)" visibility="visible" fill="none" stroke="rgb(197, 116, 248)" stroke-opacity="1" stroke-width="1" d="M0,251.30191460263015L54.199999999999996,241.10577477095387L108.39999999999999,228.6422281794849L162.6,212.60562531178306L216.79999999999998,195.48679037805346L271,173.37543814207538L325.19999999999993,153.59817740550693L379.3999999999999,132.5389066011904L433.59999999999997,112.06888596605404L487.79999999999995,88.72531430713562L542,65.59625920925691"></path><path class="point" clip-path="url(#chart-clipPath-buffer)" stroke="rgb(197, 116, 248)" stroke-opacity="1" fill="rgb(197, 116, 248)" fill-opacity="1" visibility="visible" d="M-2.5,-2.5L2.5,-2.5 2.5,2.5 -2.5,2.5Z" transform="translate(0,251.30191460263015)"></path><path class="point" clip-path="url(#chart-clipPath-buffer)" stroke="rgb(197, 116, 248)" stroke-opacity="1" fill="rgb(197, 116, 248)" fill-opacity="1" visibility="visible" d="M-2.5,-2.5L2.5,-2.5 2.5,2.5 -2.5,2.5Z" transform="translate(54.199999999999996,241.10577477095387)"></path><path class="point" clip-path="url(#chart-clipPath-buffer)" stroke="rgb(197, 116, 248)" stroke-opacity="1" fill="rgb(197, 116, 248)" fill-opacity="1" visibility="visible" d="M-2.5,-2.5L2.5,-2.5 2.5,2.5 -2.5,2.5Z" transform="translate(108.39999999999999,228.6422281794849)"></path><path class="point" clip-path="url(#chart-clipPath-buffer)" stroke="rgb(197, 116, 248)" stroke-opacity="1" fill="rgb(197, 116, 248)" fill-opacity="1" visibility="visible" d="M-2.5,-2.5L2.5,-2.5 2.5,2.5 -2.5,2.5Z" transform="translate(162.6,212.60562531178306)"></path><path class="point" clip-path="url(#chart-clipPath-buffer)" stroke="rgb(197, 116, 248)" stroke-opacity="1" fill="rgb(197, 116, 248)" fill-opacity="1" visibility="visible" d="M-2.5,-2.5L2.5,-2.5 2.5,2.5 -2.5,2.5Z" transform="translate(216.79999999999998,195.48679037805346)"></path><path class="point" clip-path="url(#chart-clipPath-buffer)" stroke="rgb(197, 116, 248)" stroke-opacity="1" fill="rgb(197, 116, 248)" fill-opacity="1" visibility="visible" d="M-2.5,-2.5L2.5,-2.5 2.5,2.5 -2.5,2.5Z" transform="translate(271,173.37543814207538)"></path><path class="point" clip-path="url(#chart-clipPath-buffer)" stroke="rgb(197, 116, 248)" stroke-opacity="1" fill="rgb(197, 116, 248)" fill-opacity="1" visibility="visible" d="M-2.5,-2.5L2.5,-2.5 2.5,2.5 -2.5,2.5Z" transform="translate(325.19999999999993,153.59817740550693)"></path><path class="point" clip-path="url(#chart-clipPath-buffer)" stroke="rgb(197, 116, 248)" stroke-opacity="1" fill="rgb(197, 116, 248)" fill-opacity="1" visibility="visible" d="M-2.5,-2.5L2.5,-2.5 2.5,2.5 -2.5,2.5Z" transform="translate(379.3999999999999,132.5389066011904)"></path><path class="point" clip-path="url(#chart-clipPath-buffer)" stroke="rgb(197, 116, 248)" stroke-opacity="1" fill="rgb(197, 116, 248)" fill-opacity="1" visibility="visible" d="M-2.5,-2.5L2.5,-2.5 2.5,2.5 -2.5,2.5Z" transform="translate(433.59999999999997,112.06888596605404)"></path><path class="point" clip-path="url(#chart-clipPath-buffer)" stroke="rgb(197, 116, 248)" stroke-opacity="1" fill="rgb(197, 116, 248)" fill-opacity="1" visibility="visible" d="M-2.5,-2.5L2.5,-2.5 2.5,2.5 -2.5,2.5Z" transform="translate(487.79999999999995,88.72531430713562)"></path><path class="point" clip-path="url(#chart-clipPath-buffer)" stroke="rgb(197, 116, 248)" stroke-opacity="1" fill="rgb(197, 116, 248)" fill-opacity="1" visibility="visible" d="M-2.5,-2.5L2.5,-2.5 2.5,2.5 -2.5,2.5Z" transform="translate(542,65.59625920925691)"></path><text class="data-label" font-size="10" fill="rgb(197, 116, 248)" fill-opacity="1" visibility="visible" text-anchor="middle" data-text-vanchor="bottom" transform="translate(0,232.30191460263015)"><tspan x="0" y="0" dy="0.91em">35.13</tspan></text><text class="data-label" font-size="10" fill="rgb(197, 116, 248)" fill-opacity="1" visibility="visible" text-anchor="middle" data-text-vanchor="bottom" transform="translate(54.199999999999996,222.10577477095387)"><tspan x="0" y="0" dy="0.91em">48.51</tspan></text><text class="data-label" font-size="10" fill="rgb(197, 116, 248)" fill-opacity="1" visibility="visible" text-anchor="middle" data-text-vanchor="bottom" transform="translate(108.39999999999999,209.6422281794849)"><tspan x="0" y="0" dy="0.91em">71.97</tspan></text><text class="data-label" font-size="10" fill="rgb(197, 116, 248)" fill-opacity="1" visibility="visible" text-anchor="middle" data-text-vanchor="bottom" transform="translate(162.6,193.60562531178306)"><tspan x="0" y="0" dy="0.91em">119.56</tspan></text><text class="data-label" font-size="10" fill="rgb(197, 116, 248)" fill-opacity="1" visibility="visible" text-anchor="middle" data-text-vanchor="bottom" transform="translate(216.79999999999998,176.48679037805346)"><tspan x="0" y="0" dy="0.91em">205.54</tspan></text><text class="data-label" font-size="10" fill="rgb(197, 116, 248)" fill-opacity="1" visibility="visible" text-anchor="middle" data-text-vanchor="bottom" transform="translate(271,154.37543814207538)"><tspan x="0" y="0" dy="0.91em">413.84</tspan></text><text class="data-label" font-size="10" fill="rgb(197, 116, 248)" fill-opacity="1" visibility="visible" text-anchor="middle" data-text-vanchor="bottom" transform="translate(325.19999999999993,134.59817740550693)"><tspan x="0" y="0" dy="0.91em">773.9</tspan></text><text class="data-label" font-size="10" fill="rgb(197, 116, 248)" fill-opacity="1" visibility="visible" text-anchor="middle" data-text-vanchor="bottom" transform="translate(379.3999999999999,113.5389066011904)"><tspan x="0" y="0" dy="0.91em">1.51K</tspan></text><text class="data-label" font-size="10" fill="rgb(197, 116, 248)" fill-opacity="1" visibility="visible" text-anchor="middle" data-text-vanchor="bottom" transform="translate(433.59999999999997,93.06888596605404)"><tspan x="0" y="0" dy="0.91em">2.88K</tspan></text><text class="data-label" font-size="10" fill="rgb(197, 116, 248)" fill-opacity="1" visibility="visible" text-anchor="middle" data-text-vanchor="bottom" transform="translate(487.79999999999995,69.72531430713562)"><tspan x="0" y="0" dy="0.91em">6.03K</tspan></text><text class="data-label" font-size="10" fill="rgb(197, 116, 248)" fill-opacity="1" visibility="visible" text-anchor="middle" data-text-vanchor="bottom" transform="translate(542,46.596259209256914)"><tspan x="0" y="0" dy="0.91em">12.54K</tspan></text></g></g><g class="axes"><g class="axis-labels"><g class="left"><g class="label" transform="translate(-68,146.5)"><text style="text-anchor: middle; font-family: Arial; font-size: 16px; " fill="rgba(35, 33, 21, 0.9)" dy="16" transform="rotate(270)">Time cost (μs)</text></g></g><g class="bottom"><g class="label" transform="translate(271,332.8564147949219)"><text style="text-anchor: middle; font-family: Arial; font-size: 16px; " fill="rgba(35, 33, 21, 0.9)" dy="16" transform="rotate(0)">Elements of Stack</text></g></g></g><g class="axis left" transform="translate(0,0)"><g class="tick major" style="opacity: 1; display: block; " transform="translate(0,291)"><line x2="-6" y2="0"></line><text x="-9" y="0" dy="7" style="fill: #232115; fill-opacity: 0.9; font-family: Arial; font-size: 14px; text-anchor: end; " transform="rotate(0, -9, 0)translate(0,0)" data-org-x="-9" data-org-y="0">10</text></g><g class="tick major" style="opacity: 1; display: block; " transform="translate(0,229.5191175889628)"><line x2="-6" y2="0"></line><text x="-9" y="0" dy="7" style="fill: #232115; fill-opacity: 0.9; font-family: Arial; font-size: 14px; text-anchor: end; " transform="rotate(0, -9, 0)translate(0,0)" data-org-x="-9" data-org-y="0">70</text></g><g class="tick major" style="opacity: 1; display: block; " transform="translate(0,174.45013563089077)"><line x2="-6" y2="0"></line><text x="-9" y="0" dy="7" style="fill: #232115; fill-opacity: 0.9; font-family: Arial; font-size: 14px; text-anchor: end; " transform="rotate(0, -9, 0)translate(0,0)" data-org-x="-9" data-org-y="0">400</text></g><g class="tick major" style="opacity: 1; display: block; " transform="translate(0,145.50000000000003)"><line x2="-6" y2="0"></line><text x="-9" y="0" dy="7" style="fill: #232115; fill-opacity: 0.9; font-family: Arial; font-size: 14px; text-anchor: end; " transform="rotate(0, -9, 0)translate(0,0)" data-org-x="-9" data-org-y="0">1K</text></g><g class="tick major" style="opacity: 1; display: block; " transform="translate(0,84.01911758896284)"><line x2="-6" y2="0"></line><text x="-9" y="0" dy="7" style="fill: #232115; fill-opacity: 0.9; font-family: Arial; font-size: 14px; text-anchor: end; " transform="rotate(0, -9, 0)translate(0,0)" data-org-x="-9" data-org-y="0">7K</text></g><g class="tick major" style="opacity: 1; display: block; " transform="translate(0,28.95013563089077)"><line x2="-6" y2="0"></line><text x="-9" y="0" dy="7" style="fill: #232115; fill-opacity: 0.9; font-family: Arial; font-size: 14px; text-anchor: end; " transform="rotate(0, -9, 0)translate(0,0)" data-org-x="-9" data-org-y="0">40K</text></g><g class="tick major" style="opacity: 1; display: block; " transform="translate(0,0)"><line x2="-6" y2="0"></line><text x="-9" y="0" dy="7" style="fill: #232115; fill-opacity: 0.9; font-family: Arial; font-size: 14px; text-anchor: end; " transform="rotate(0, -9, 0)translate(0,0)" data-org-x="-9" data-org-y="0">100K</text></g><path class="domain" d="M0,0H0V291H0" stroke-width="0" fill="none" stroke="rgb(35, 33, 21)" stroke-opacity="0.9"></path></g><g class="axis bottom" transform="translate(0,292)"><g class="tick major" style="opacity: 1; display: block; " transform="translate(0,0)"><line y2="7" x2="0"></line><text y="10" x="0" dy="7" style="fill: #232115; fill-opacity: 0.9; font-family: Arial; font-size: 14px; text-anchor: start; " transform="rotate(30, 0, 10)translate(0,0)" data-org-x="0" data-org-y="10">2</text></g><g class="tick major" style="opacity: 1; display: block; " transform="translate(54.199999999999996,0)"><line y2="7" x2="0"></line><text y="10" x="0" dy="7" style="fill: #232115; fill-opacity: 0.9; font-family: Arial; font-size: 14px; text-anchor: start; " transform="rotate(30, 0, 10)translate(0,0)" data-org-x="0" data-org-y="10">4</text></g><g class="tick major" style="opacity: 1; display: block; " transform="translate(85.90496753908666,0)"><line y2="7" x2="0"></line><text y="10" x="0" dy="7" style="fill: #232115; fill-opacity: 0.9; font-family: Arial; font-size: 14px; text-anchor: start; " transform="rotate(30, 0, 10)translate(0,0)" data-org-x="0" data-org-y="10">6</text></g><g class="tick major" style="opacity: 1; display: block; " transform="translate(108.39999999999999,0)"><line y2="7" x2="0"></line><text y="10" x="0" dy="7" style="fill: #232115; fill-opacity: 0.9; font-family: Arial; font-size: 14px; text-anchor: start; " transform="rotate(30, 0, 10)translate(0,0)" data-org-x="0" data-org-y="10">8</text></g><g class="tick major" style="opacity: 1; display: block; " transform="translate(125.84850274289506,0)"><line y2="7" x2="0"></line><text y="10" x="0" dy="7" style="fill: #232115; fill-opacity: 0.9; font-family: Arial; font-size: 14px; text-anchor: start; " transform="rotate(30, 0, 10)translate(0,0)" data-org-x="0" data-org-y="10">10</text></g><g class="tick major" style="opacity: 1; display: block; " transform="translate(211.75347028198175,0)"><line y2="7" x2="0"></line><text y="10" x="0" dy="7" style="fill: #232115; fill-opacity: 0.9; font-family: Arial; font-size: 14px; text-anchor: start; " transform="rotate(30, 0, 10)translate(0,0)" data-org-x="0" data-org-y="10">30</text></g><g class="tick major" style="opacity: 1; display: block; " transform="translate(251.69700548579007,0)"><line y2="7" x2="0"></line><text y="10" x="0" dy="7" style="fill: #232115; fill-opacity: 0.9; font-family: Arial; font-size: 14px; text-anchor: start; " transform="rotate(30, 0, 10)translate(0,0)" data-org-x="0" data-org-y="10">50</text></g><g class="tick major" style="opacity: 1; display: block; " transform="translate(278.0071395184172,0)"><line y2="7" x2="0"></line><text y="10" x="0" dy="7" style="fill: #232115; fill-opacity: 0.9; font-family: Arial; font-size: 14px; text-anchor: start; " transform="rotate(30, 0, 10)translate(0,0)" data-org-x="0" data-org-y="10">70</text></g><g class="tick major" style="opacity: 1; display: block; " transform="translate(297.65843782106833,0)"><line y2="7" x2="0"></line><text y="10" x="0" dy="7" style="fill: #232115; fill-opacity: 0.9; font-family: Arial; font-size: 14px; text-anchor: start; " transform="rotate(30, 0, 10)translate(0,0)" data-org-x="0" data-org-y="10">90</text></g><g class="tick major" style="opacity: 1; display: block; " transform="translate(360.09700548579,0)"><line y2="7" x2="0"></line><text y="10" x="0" dy="7" style="fill: #232115; fill-opacity: 0.9; font-family: Arial; font-size: 14px; text-anchor: start; " transform="rotate(30, 0, 10)translate(0,0)" data-org-x="0" data-org-y="10">200</text></g><g class="tick major" style="opacity: 1; display: block; " transform="translate(414.29700548579,0)"><line y2="7" x2="0"></line><text y="10" x="0" dy="7" style="fill: #232115; fill-opacity: 0.9; font-family: Arial; font-size: 14px; text-anchor: start; " transform="rotate(30, 0, 10)translate(0,0)" data-org-x="0" data-org-y="10">400</text></g><g class="tick major" style="opacity: 1; display: block; " transform="translate(446.00197302487675,0)"><line y2="7" x2="0"></line><text y="10" x="0" dy="7" style="fill: #232115; fill-opacity: 0.9; font-family: Arial; font-size: 14px; text-anchor: start; " transform="rotate(30, 0, 10)translate(0,0)" data-org-x="0" data-org-y="10">600</text></g><g class="tick major" style="opacity: 1; display: block; " transform="translate(468.49700548579005,0)"><line y2="7" x2="0"></line><text y="10" x="0" dy="7" style="fill: #232115; fill-opacity: 0.9; font-family: Arial; font-size: 14px; text-anchor: start; " transform="rotate(30, 0, 10)translate(0,0)" data-org-x="0" data-org-y="10">800</text></g><g class="tick major" style="opacity: 1; display: block; " transform="translate(485.94550822868507,0)"><line y2="7" x2="0"></line><text y="10" x="0" dy="7" style="fill: #232115; fill-opacity: 0.9; font-family: Arial; font-size: 14px; text-anchor: start; " transform="rotate(30, 0, 10)translate(0,0)" data-org-x="0" data-org-y="10">1000</text></g><path class="domain" d="M0,0V0H542V0" stroke-width="2" fill="none" stroke="rgb(35, 33, 21)" stroke-opacity="0.9"></path><path class="filler" d="M0,0V0H0V0" stroke-width="2" fill="none" stroke="rgb(35, 33, 21)" stroke-opacity="0.9"></path></g></g></g><g class="label" transform="translate(262.5,25)"><text style="text-anchor: start; font-family: Arial; font-size: 22px; " fill="rgba(35, 33, 21, 0.9)" dy="22" transform="rotate(0)">Time cost of stack operation</text></g><g class="legend" transform="translate(659.1013488769531,201.86134719848633)"><g class="row" transform="translate(0,0)"><text class="key" style="font-size: 14px; fill: #232115; fill-opacity: 0.9; " dx="28" dy="14">treevalue</text><path class="shape" d="M0,7.898654169668588A7.898654169668588,7.898654169668588 0 1,1 0,-7.898654169668588A7.898654169668588,7.898654169668588 0 1,1 0,7.898654169668588Z" style="fill: #e94c3b; fill-opacity: 1; " transform="translate(14,9.24)"></path></g><g class="row" transform="translate(0,30.138652801513672)"><text class="key" style="font-size: 14px; fill: #232115; fill-opacity: 0.9; " dx="28" dy="14">tianshou Batch</text><path class="shape" d="M0,7.898654169668588A7.898654169668588,7.898654169668588 0 1,1 0,-7.898654169668588A7.898654169668588,7.898654169668588 0 1,1 0,7.898654169668588Z" style="fill: #c574f8; fill-opacity: 1; " transform="translate(14,9.24)"></path></g></g></g></svg>