<?xml version="1.0" encoding="UTF-8" standalone="no"?>
<svg version="1.1" xmlns="http://www.w3.org/2000/svg" style="font-family: Arial; " width="800" height="450" viewBox="0 0 800 450"><title>Time cost of flatten operation</title><defs><clipPath id="chart-clipPath-exact"><rect height="293" width="573"></rect></clipPath><clipPath id="chart-clipPath-buffer"><rect x="-10" y="-10" height="313" width="593"></rect></clipPath></defs><g class="scaler"><rect width="800" height="450" fill="rgb(255, 255, 255)" fill-opacity="1"></rect><g class="canvas" transform="translate(95,72)"><g class="grid"><g class="axis-grid y" transform="translate(0,0)"><line class="grid" x1="0" x2="573" y1="0" y2="0" style="stroke: #232115; stroke-opacity: 0.2; stroke-width: 1px; " transform="translate(0,291)"></line><line class="grid" x1="0" x2="573" y1="0" y2="0" style="stroke: #232115; stroke-opacity: 0.2; stroke-width: 1px; " transform="translate(0,242.50000000000003)"></line><line class="grid" x1="0" x2="573" y1="0" y2="0" style="stroke: #232115; stroke-opacity: 0.2; stroke-width: 1px; " transform="translate(0,194)"></line><line class="grid" x1="0" x2="573" y1="0" y2="0" style="stroke: #232115; stroke-opacity: 0.2; stroke-width: 1px; " transform="translate(0,145.5)"></line><line class="grid" x1="0" x2="573" y1="0" y2="0" style="stroke: #232115; stroke-opacity: 0.2; stroke-width: 1px; " transform="translate(0,97.00000000000006)"></line><line class="grid" x1="0" x2="573" y1="0" y2="0" style="stroke: #232115; stroke-opacity: 0.2; stroke-width: 1px; " transform="translate(0,48.50000000000003)"></line><line class="grid" x1="0" x2="573" y1="0" y2="0" style="stroke: #232115; stroke-opacity: 0.2; stroke-width: 1px; " transform="translate(0,0)"></line></g><g class="axis-grid x" transform="translate(0,292)"></g><g class="axis-grid y2" transform="translate(572.5,0)"></g><g class="axis-grid x2" transform="translate(0,1)"></g></g><rect class="trigger-layer" height="379" width="724" opacity="0"></rect><g class="chart"><g class="series s0"><path class="line" clip-path="url(#chart-clipPath-exact)" visibility="visible" fill="none" stroke="rgb(233, 76, 59)" stroke-opacity="1" stroke-width="1" d="M0,256.6101797250492L52.09090909090909,245.99941782118893L104.18181818181819,233.77299708230584L156.27272727272725,220.2411985257214L208.36363636363637,206.22801595766268L260.4545454545455,190.06652246695262L312.5454545454545,178.2020601146894L364.6363636363636,161.22906799986407L416.72727272727275,148.7080145053451L468.81818181818187,132.7395159016404L520.909090909091,116.90475617446569L573,100.61725123853972"></path><path class="point" clip-path="url(#chart-clipPath-buffer)" stroke="rgb(233, 76, 59)" stroke-opacity="1" fill="rgb(233, 76, 59)" fill-opacity="1" visibility="visible" d="M-2.5,-2.5L2.5,-2.5 2.5,2.5 -2.5,2.5Z" transform="translate(0,256.6101797250492)"></path><path class="point" clip-path="url(#chart-clipPath-buffer)" stroke="rgb(233, 76, 59)" stroke-opacity="1" fill="rgb(233, 76, 59)" fill-opacity="1" visibility="visible" d="M-2.5,-2.5L2.5,-2.5 2.5,2.5 -2.5,2.5Z" transform="translate(52.09090909090909,245.99941782118893)"></path><path class="point" clip-path="url(#chart-clipPath-buffer)" stroke="rgb(233, 76, 59)" stroke-opacity="1" fill="rgb(233, 76, 59)" fill-opacity="1" visibility="visible" d="M-2.5,-2.5L2.5,-2.5 2.5,2.5 -2.5,2.5Z" transform="translate(104.18181818181819,233.77299708230584)"></path><path class="point" clip-path="url(#chart-clipPath-buffer)" stroke="rgb(233, 76, 59)" stroke-opacity="1" fill="rgb(233, 76, 59)" fill-opacity="1" visibility="visible" d="M-2.5,-2.5L2.5,-2.5 2.5,2.5 -2.5,2.5Z" transform="translate(156.27272727272725,220.2411985257214)"></path><path class="point" clip-path="url(#chart-clipPath-buffer)" stroke="rgb(233, 76, 59)" stroke-opacity="1" fill="rgb(233, 76, 59)" fill-opacity="1" visibility="visible" d="M-2.5,-2.5L2.5,-2.5 2.5,2.5 -2.5,2.5Z" transform="translate(208.36363636363637,206.22801595766268)"></path><path class="point" clip-path="url(#chart-clipPath-buffer)" stroke="rgb(233, 76, 59)" stroke-opacity="1" fill="rgb(233, 76, 59)" fill-opacity="1" visibility="visible" d="M-2.5,-2.5L2.5,-2.5 2.5,2.5 -2.5,2.5Z" transform="translate(260.4545454545455,190.06652246695262)"></path><path class="point" clip-path="url(#chart-clipPath-buffer)" stroke="rgb(233, 76, 59)" stroke-opacity="1" fill="rgb(233, 76, 59)" fill-opacity="1" visibility="visible" d="M-2.5,-2.5L2.5,-2.5 2.5,2.5 -2.5,2.5Z" transform="translate(312.5454545454545,178.2020601146894)"></path><path class="point" clip-path="url(#chart-clipPath-buffer)" stroke="rgb(233, 76, 59)" stroke-opacity="1" fill="rgb(233, 76, 59)" fill-opacity="1" visibility="visible" d="M-2.5,-2.5L2.5,-2.5 2.5,2.5 -2.5,2.5Z" transform="translate(364.6363636363636,161.22906799986407)"></path><path class="point" clip-path="url(#chart-clipPath-buffer)" stroke="rgb(233, 76, 59)" stroke-opacity="1" fill="rgb(233, 76, 59)" fill-opacity="1" visibility="visible" d="M-2.5,-2.5L2.5,-2.5 2.5,2.5 -2.5,2.5Z" transform="translate(416.72727272727275,148.7080145053451)"></path><path class="point" clip-path="url(#chart-clipPath-buffer)" stroke="rgb(233, 76, 59)" stroke-opacity="1" fill="rgb(233, 76, 59)" fill-opacity="1" visibility="visible" d="M-2.5,-2.5L2.5,-2.5 2.5,2.5 -2.5,2.5Z" transform="translate(468.81818181818187,132.7395159016404)"></path><path class="point" clip-path="url(#chart-clipPath-buffer)" stroke="rgb(233, 76, 59)" stroke-opacity="1" fill="rgb(233, 76, 59)" fill-opacity="1" visibility="visible" d="M-2.5,-2.5L2.5,-2.5 2.5,2.5 -2.5,2.5Z" transform="translate(520.909090909091,116.90475617446569)"></path><path class="point" clip-path="url(#chart-clipPath-buffer)" stroke="rgb(233, 76, 59)" stroke-opacity="1" fill="rgb(233, 76, 59)" fill-opacity="1" visibility="visible" d="M-2.5,-2.5L2.5,-2.5 2.5,2.5 -2.5,2.5Z" transform="translate(573,100.61725123853972)"></path><text class="data-label" font-size="9" fill="rgb(233, 76, 59)" fill-opacity="1" visibility="visible" text-anchor="middle" data-text-vanchor="bottom" transform="translate(0,238.6101797250492)"><tspan x="0" y="0" dy="0.91em">511.76</tspan></text><text class="data-label" font-size="9" fill="rgb(233, 76, 59)" fill-opacity="1" visibility="visible" text-anchor="middle" data-text-vanchor="bottom" transform="translate(52.09090909090909,227.99941782118893)"><tspan x="0" y="0" dy="0.91em">846.93</tspan></text><text class="data-label" font-size="9" fill="rgb(233, 76, 59)" fill-opacity="1" visibility="visible" text-anchor="middle" data-text-vanchor="bottom" transform="translate(104.18181818181819,215.77299708230584)"><tspan x="0" y="0" dy="0.91em">1.51K</tspan></text><text class="data-label" font-size="9" fill="rgb(233, 76, 59)" fill-opacity="1" visibility="visible" text-anchor="middle" data-text-vanchor="bottom" transform="translate(156.27272727272725,202.2411985257214)"><tspan x="0" y="0" dy="0.91em">2.88K</tspan></text><text class="data-label" font-size="9" fill="rgb(233, 76, 59)" fill-opacity="1" visibility="visible" text-anchor="middle" data-text-vanchor="bottom" transform="translate(208.36363636363637,188.22801595766268)"><tspan x="0" y="0" dy="0.91em">5.6K</tspan></text><text class="data-label" font-size="9" fill="rgb(233, 76, 59)" fill-opacity="1" visibility="visible" text-anchor="middle" data-text-vanchor="bottom" transform="translate(260.4545454545455,172.06652246695262)"><tspan x="0" y="0" dy="0.91em">12.05K</tspan></text><text class="data-label" font-size="9" fill="rgb(233, 76, 59)" fill-opacity="1" visibility="visible" text-anchor="middle" data-text-vanchor="bottom" transform="translate(312.5454545454545,160.2020601146894)"><tspan x="0" y="0" dy="0.91em">21.17K</tspan></text><text class="data-label" font-size="9" fill="rgb(233, 76, 59)" fill-opacity="1" visibility="visible" text-anchor="middle" data-text-vanchor="bottom" transform="translate(364.6363636363636,143.22906799986407)"><tspan x="0" y="0" dy="0.91em">47.39K</tspan></text><text class="data-label" font-size="9" fill="rgb(233, 76, 59)" fill-opacity="1" visibility="visible" text-anchor="middle" data-text-vanchor="bottom" transform="translate(416.72727272727275,130.7080145053451)"><tspan x="0" y="0" dy="0.91em">85.87K</tspan></text><text class="data-label" font-size="9" fill="rgb(233, 76, 59)" fill-opacity="1" visibility="visible" text-anchor="middle" data-text-vanchor="bottom" transform="translate(468.81818181818187,114.7395159016404)"><tspan x="0" y="0" dy="0.91em">183.27K</tspan></text><text class="data-label" font-size="9" fill="rgb(233, 76, 59)" fill-opacity="1" visibility="visible" text-anchor="middle" data-text-vanchor="bottom" transform="translate(520.909090909091,98.90475617446569)"><tspan x="0" y="0" dy="0.91em">388.68K</tspan></text><text class="data-label" font-size="9" fill="rgb(233, 76, 59)" fill-opacity="1" visibility="visible" text-anchor="middle" data-text-vanchor="bottom" transform="translate(573,82.61725123853972)"><tspan x="0" y="0" dy="0.91em">842.2K</tspan></text></g><g class="series s1"><path class="line" clip-path="url(#chart-clipPath-exact)" visibility="visible" fill="none" stroke="rgb(50, 153, 187)" stroke-opacity="1" stroke-width="1" d="M0,182.69421253494409L52.09090909090909,170.1347807915688L104.18181818181819,156.8198132069498L156.27272727272725,142.5358375797696L208.36363636363637,128.3587749831896L260.4545454545455,113.50460943129289L312.5454545454545,99.4019714552341L364.6363636363636,85.04005384934842L416.72727272727275,70.02322875859551L468.81818181818187,55.629473296034604L520.909090909091,40.60671942717721L573,26.237024137866968"></path><path class="point" clip-path="url(#chart-clipPath-buffer)" stroke="rgb(50, 153, 187)" stroke-opacity="1" fill="rgb(50, 153, 187)" fill-opacity="1" visibility="visible" d="M-2.5,-2.5L2.5,-2.5 2.5,2.5 -2.5,2.5Z" transform="translate(0,182.69421253494409)"></path><path class="point" clip-path="url(#chart-clipPath-buffer)" stroke="rgb(50, 153, 187)" stroke-opacity="1" fill="rgb(50, 153, 187)" fill-opacity="1" visibility="visible" d="M-2.5,-2.5L2.5,-2.5 2.5,2.5 -2.5,2.5Z" transform="translate(52.09090909090909,170.1347807915688)"></path><path class="point" clip-path="url(#chart-clipPath-buffer)" stroke="rgb(50, 153, 187)" stroke-opacity="1" fill="rgb(50, 153, 187)" fill-opacity="1" visibility="visible" d="M-2.5,-2.5L2.5,-2.5 2.5,2.5 -2.5,2.5Z" transform="translate(104.18181818181819,156.8198132069498)"></path><path class="point" clip-path="url(#chart-clipPath-buffer)" stroke="rgb(50, 153, 187)" stroke-opacity="1" fill="rgb(50, 153, 187)" fill-opacity="1" visibility="visible" d="M-2.5,-2.5L2.5,-2.5 2.5,2.5 -2.5,2.5Z" transform="translate(156.27272727272725,142.5358375797696)"></path><path class="point" clip-path="url(#chart-clipPath-buffer)" stroke="rgb(50, 153, 187)" stroke-opacity="1" fill="rgb(50, 153, 187)" fill-opacity="1" visibility="visible" d="M-2.5,-2.5L2.5,-2.5 2.5,2.5 -2.5,2.5Z" transform="translate(208.36363636363637,128.3587749831896)"></path><path class="point" clip-path="url(#chart-clipPath-buffer)" stroke="rgb(50, 153, 187)" stroke-opacity="1" fill="rgb(50, 153, 187)" fill-opacity="1" visibility="visible" d="M-2.5,-2.5L2.5,-2.5 2.5,2.5 -2.5,2.5Z" transform="translate(260.4545454545455,113.50460943129289)"></path><path class="point" clip-path="url(#chart-clipPath-buffer)" stroke="rgb(50, 153, 187)" stroke-opacity="1" fill="rgb(50, 153, 187)" fill-opacity="1" visibility="visible" d="M-2.5,-2.5L2.5,-2.5 2.5,2.5 -2.5,2.5Z" transform="translate(312.5454545454545,99.4019714552341)"></path><path class="point" clip-path="url(#chart-clipPath-buffer)" stroke="rgb(50, 153, 187)" stroke-opacity="1" fill="rgb(50, 153, 187)" fill-opacity="1" visibility="visible" d="M-2.5,-2.5L2.5,-2.5 2.5,2.5 -2.5,2.5Z" transform="translate(364.6363636363636,85.04005384934842)"></path><path class="point" clip-path="url(#chart-clipPath-buffer)" stroke="rgb(50, 153, 187)" stroke-opacity="1" fill="rgb(50, 153, 187)" fill-opacity="1" visibility="visible" d="M-2.5,-2.5L2.5,-2.5 2.5,2.5 -2.5,2.5Z" transform="translate(416.72727272727275,70.02322875859551)"></path><path class="point" clip-path="url(#chart-clipPath-buffer)" stroke="rgb(50, 153, 187)" stroke-opacity="1" fill="rgb(50, 153, 187)" fill-opacity="1" visibility="visible" d="M-2.5,-2.5L2.5,-2.5 2.5,2.5 -2.5,2.5Z" transform="translate(468.81818181818187,55.629473296034604)"></path><path class="point" clip-path="url(#chart-clipPath-buffer)" stroke="rgb(50, 153, 187)" stroke-opacity="1" fill="rgb(50, 153, 187)" fill-opacity="1" visibility="visible" d="M-2.5,-2.5L2.5,-2.5 2.5,2.5 -2.5,2.5Z" transform="translate(520.909090909091,40.60671942717721)"></path><path class="point" clip-path="url(#chart-clipPath-buffer)" stroke="rgb(50, 153, 187)" stroke-opacity="1" fill="rgb(50, 153, 187)" fill-opacity="1" visibility="visible" d="M-2.5,-2.5L2.5,-2.5 2.5,2.5 -2.5,2.5Z" transform="translate(573,26.237024137866968)"></path><text class="data-label" font-size="9" fill="rgb(50, 153, 187)" fill-opacity="1" visibility="visible" text-anchor="middle" data-text-vanchor="bottom" transform="translate(0,164.69421253494409)"><tspan x="0" y="0" dy="0.91em">17.1K</tspan></text><text class="data-label" font-size="9" fill="rgb(50, 153, 187)" fill-opacity="1" visibility="visible" text-anchor="middle" data-text-vanchor="bottom" transform="translate(52.09090909090909,152.1347807915688)"><tspan x="0" y="0" dy="0.91em">31.05K</tspan></text><text class="data-label" font-size="9" fill="rgb(50, 153, 187)" fill-opacity="1" visibility="visible" text-anchor="middle" data-text-vanchor="bottom" transform="translate(104.18181818181819,138.8198132069498)"><tspan x="0" y="0" dy="0.91em">58.43K</tspan></text><text class="data-label" font-size="9" fill="rgb(50, 153, 187)" fill-opacity="1" visibility="visible" text-anchor="middle" data-text-vanchor="bottom" transform="translate(156.27272727272725,124.5358375797696)"><tspan x="0" y="0" dy="0.91em">115.11K</tspan></text><text class="data-label" font-size="9" fill="rgb(50, 153, 187)" fill-opacity="1" visibility="visible" text-anchor="middle" data-text-vanchor="bottom" transform="translate(208.36363636363637,110.35877498318959)"><tspan x="0" y="0" dy="0.91em">225.65K</tspan></text><text class="data-label" font-size="9" fill="rgb(50, 153, 187)" fill-opacity="1" visibility="visible" text-anchor="middle" data-text-vanchor="bottom" transform="translate(260.4545454545455,95.50460943129289)"><tspan x="0" y="0" dy="0.91em">456.77K</tspan></text><text class="data-label" font-size="9" fill="rgb(50, 153, 187)" fill-opacity="1" visibility="visible" text-anchor="middle" data-text-vanchor="bottom" transform="translate(312.5454545454545,81.4019714552341)"><tspan x="0" y="0" dy="0.91em">892.23K</tspan></text><text class="data-label" font-size="9" fill="rgb(50, 153, 187)" fill-opacity="1" visibility="visible" text-anchor="middle" data-text-vanchor="bottom" transform="translate(364.6363636363636,67.04005384934842)"><tspan x="0" y="0" dy="0.91em">1.76M</tspan></text><text class="data-label" font-size="9" fill="rgb(50, 153, 187)" fill-opacity="1" visibility="visible" text-anchor="middle" data-text-vanchor="bottom" transform="translate(416.72727272727275,52.02322875859551)"><tspan x="0" y="0" dy="0.91em">3.6M</tspan></text><text class="data-label" font-size="9" fill="rgb(50, 153, 187)" fill-opacity="1" visibility="visible" text-anchor="middle" data-text-vanchor="bottom" transform="translate(468.81818181818187,37.629473296034604)"><tspan x="0" y="0" dy="0.91em">7.13M</tspan></text><text class="data-label" font-size="9" fill="rgb(50, 153, 187)" fill-opacity="1" visibility="visible" text-anchor="middle" data-text-vanchor="bottom" transform="translate(520.909090909091,22.60671942717721)"><tspan x="0" y="0" dy="0.91em">14.55M</tspan></text><text class="data-label" font-size="9" fill="rgb(50, 153, 187)" fill-opacity="1" visibility="visible" text-anchor="middle" data-text-vanchor="bottom" transform="translate(573,8.237024137866968)"><tspan x="0" y="0" dy="0.91em">28.78M</tspan></text></g><g class="series s2"><path class="line" clip-path="url(#chart-clipPath-exact)" visibility="visible" fill="none" stroke="rgb(24, 189, 155)" stroke-opacity="1" stroke-width="1" d="M0,234.8172280808857L52.09090909090909,228.2908311606883L104.18181818181819,220.33761049420372L156.27272727272725,209.8738436488108L208.36363636363637,197.97145835096978L260.4545454545455,185.09357559936018L312.5454545454545,171.1270693165515L364.6363636363636,156.9560992537918L416.72727272727275,141.92138558889144L468.81818181818187,127.29436053491253L520.909090909091,112.54219496252736L573,97.89552121872885"></path><path class="point" clip-path="url(#chart-clipPath-buffer)" stroke="rgb(24, 189, 155)" stroke-opacity="1" fill="rgb(24, 189, 155)" fill-opacity="1" visibility="visible" d="M-2.5,-2.5L2.5,-2.5 2.5,2.5 -2.5,2.5Z" transform="translate(0,234.8172280808857)"></path><path class="point" clip-path="url(#chart-clipPath-buffer)" stroke="rgb(24, 189, 155)" stroke-opacity="1" fill="rgb(24, 189, 155)" fill-opacity="1" visibility="visible" d="M-2.5,-2.5L2.5,-2.5 2.5,2.5 -2.5,2.5Z" transform="translate(52.09090909090909,228.2908311606883)"></path><path class="point" clip-path="url(#chart-clipPath-buffer)" stroke="rgb(24, 189, 155)" stroke-opacity="1" fill="rgb(24, 189, 155)" fill-opacity="1" visibility="visible" d="M-2.5,-2.5L2.5,-2.5 2.5,2.5 -2.5,2.5Z" transform="translate(104.18181818181819,220.33761049420372)"></path><path class="point" clip-path="url(#chart-clipPath-buffer)" stroke="rgb(24, 189, 155)" stroke-opacity="1" fill="rgb(24, 189, 155)" fill-opacity="1" visibility="visible" d="M-2.5,-2.5L2.5,-2.5 2.5,2.5 -2.5,2.5Z" transform="translate(156.27272727272725,209.8738436488108)"></path><path class="point" clip-path="url(#chart-clipPath-buffer)" stroke="rgb(24, 189, 155)" stroke-opacity="1" fill="rgb(24, 189, 155)" fill-opacity="1" visibility="visible" d="M-2.5,-2.5L2.5,-2.5 2.5,2.5 -2.5,2.5Z" transform="translate(208.36363636363637,197.97145835096978)"></path><path class="point" clip-path="url(#chart-clipPath-buffer)" stroke="rgb(24, 189, 155)" stroke-opacity="1" fill="rgb(24, 189, 155)" fill-opacity="1" visibility="visible" d="M-2.5,-2.5L2.5,-2.5 2.5,2.5 -2.5,2.5Z" transform="translate(260.4545454545455,185.09357559936018)"></path><path class="point" clip-path="url(#chart-clipPath-buffer)" stroke="rgb(24, 189, 155)" stroke-opacity="1" fill="rgb(24, 189, 155)" fill-opacity="1" visibility="visible" d="M-2.5,-2.5L2.5,-2.5 2.5,2.5 -2.5,2.5Z" transform="translate(312.5454545454545,171.1270693165515)"></path><path class="point" clip-path="url(#chart-clipPath-buffer)" stroke="rgb(24, 189, 155)" stroke-opacity="1" fill="rgb(24, 189, 155)" fill-opacity="1" visibility="visible" d="M-2.5,-2.5L2.5,-2.5 2.5,2.5 -2.5,2.5Z" transform="translate(364.6363636363636,156.9560992537918)"></path><path class="point" clip-path="url(#chart-clipPath-buffer)" stroke="rgb(24, 189, 155)" stroke-opacity="1" fill="rgb(24, 189, 155)" fill-opacity="1" visibility="visible" d="M-2.5,-2.5L2.5,-2.5 2.5,2.5 -2.5,2.5Z" transform="translate(416.72727272727275,141.92138558889144)"></path><path class="point" clip-path="url(#chart-clipPath-buffer)" stroke="rgb(24, 189, 155)" stroke-opacity="1" fill="rgb(24, 189, 155)" fill-opacity="1" visibility="visible" d="M-2.5,-2.5L2.5,-2.5 2.5,2.5 -2.5,2.5Z" transform="translate(468.81818181818187,127.29436053491253)"></path><path class="point" clip-path="url(#chart-clipPath-buffer)" stroke="rgb(24, 189, 155)" stroke-opacity="1" fill="rgb(24, 189, 155)" fill-opacity="1" visibility="visible" d="M-2.5,-2.5L2.5,-2.5 2.5,2.5 -2.5,2.5Z" transform="translate(520.909090909091,112.54219496252736)"></path><path class="point" clip-path="url(#chart-clipPath-buffer)" stroke="rgb(24, 189, 155)" stroke-opacity="1" fill="rgb(24, 189, 155)" fill-opacity="1" visibility="visible" d="M-2.5,-2.5L2.5,-2.5 2.5,2.5 -2.5,2.5Z" transform="translate(573,97.89552121872885)"></path><text class="data-label" font-size="9" fill="rgb(24, 189, 155)" fill-opacity="1" visibility="visible" text-anchor="middle" data-text-vanchor="bottom" transform="translate(0,216.8172280808857)"><tspan x="0" y="0" dy="0.91em">1.44K</tspan></text><text class="data-label" font-size="9" fill="rgb(24, 189, 155)" fill-opacity="1" visibility="visible" text-anchor="middle" data-text-vanchor="bottom" transform="translate(52.09090909090909,210.2908311606883)"><tspan x="0" y="0" dy="0.91em">1.96K</tspan></text><text class="data-label" font-size="9" fill="rgb(24, 189, 155)" fill-opacity="1" visibility="visible" text-anchor="middle" data-text-vanchor="bottom" transform="translate(104.18181818181819,202.33761049420372)"><tspan x="0" y="0" dy="0.91em">2.86K</tspan></text><text class="data-label" font-size="9" fill="rgb(24, 189, 155)" fill-opacity="1" visibility="visible" text-anchor="middle" data-text-vanchor="bottom" transform="translate(156.27272727272725,191.8738436488108)"><tspan x="0" y="0" dy="0.91em">4.71K</tspan></text><text class="data-label" font-size="9" fill="rgb(24, 189, 155)" fill-opacity="1" visibility="visible" text-anchor="middle" data-text-vanchor="bottom" transform="translate(208.36363636363637,179.97145835096978)"><tspan x="0" y="0" dy="0.91em">8.28K</tspan></text><text class="data-label" font-size="9" fill="rgb(24, 189, 155)" fill-opacity="1" visibility="visible" text-anchor="middle" data-text-vanchor="bottom" transform="translate(260.4545454545455,167.09357559936018)"><tspan x="0" y="0" dy="0.91em">15.26K</tspan></text><text class="data-label" font-size="9" fill="rgb(24, 189, 155)" fill-opacity="1" visibility="visible" text-anchor="middle" data-text-vanchor="bottom" transform="translate(312.5454545454545,153.1270693165515)"><tspan x="0" y="0" dy="0.91em">29.62K</tspan></text><text class="data-label" font-size="9" fill="rgb(24, 189, 155)" fill-opacity="1" visibility="visible" text-anchor="middle" data-text-vanchor="bottom" transform="translate(364.6363636363636,138.9560992537918)"><tspan x="0" y="0" dy="0.91em">58.05K</tspan></text><text class="data-label" font-size="9" fill="rgb(24, 189, 155)" fill-opacity="1" visibility="visible" text-anchor="middle" data-text-vanchor="bottom" transform="translate(416.72727272727275,123.92138558889144)"><tspan x="0" y="0" dy="0.91em">118.52K</tspan></text><text class="data-label" font-size="9" fill="rgb(24, 189, 155)" fill-opacity="1" visibility="visible" text-anchor="middle" data-text-vanchor="bottom" transform="translate(468.81818181818187,109.29436053491253)"><tspan x="0" y="0" dy="0.91em">237.34K</tspan></text><text class="data-label" font-size="9" fill="rgb(24, 189, 155)" fill-opacity="1" visibility="visible" text-anchor="middle" data-text-vanchor="bottom" transform="translate(520.909090909091,94.54219496252736)"><tspan x="0" y="0" dy="0.91em">478.13K</tspan></text><text class="data-label" font-size="9" fill="rgb(24, 189, 155)" fill-opacity="1" visibility="visible" text-anchor="middle" data-text-vanchor="bottom" transform="translate(573,79.89552121872885)"><tspan x="0" y="0" dy="0.91em">958.38K</tspan></text></g></g><g class="axes"><g class="axis-labels"><g class="left"><g class="label" transform="translate(-70,146.5)"><text style="text-anchor: middle; font-family: Arial; font-size: 16px; " fill="rgba(35, 33, 21, 0.9)" dy="16" transform="rotate(270)">Time cost (ns)</text></g></g><g class="bottom"><g class="label" transform="translate(286.5,332.8564147949219)"><text style="text-anchor: middle; font-family: Arial; font-size: 16px; " fill="rgba(35, 33, 21, 0.9)" dy="16" transform="rotate(0)">Scale of the tree</text></g></g></g><g class="axis left" transform="translate(0,0)"><g class="tick major" style="opacity: 1; display: block; " transform="translate(0,291)"><line x2="-6" y2="0"></line><text x="-9" y="0" dy="7" style="fill: #232115; fill-opacity: 0.9; font-family: Arial; font-size: 14px; text-anchor: end; " transform="rotate(0, -9, 0)translate(0,0)" data-org-x="-9" data-org-y="0">100</text></g><g class="tick major" style="opacity: 1; display: block; " transform="translate(0,242.50000000000003)"><line x2="-6" y2="0"></line><text x="-9" y="0" dy="7" style="fill: #232115; fill-opacity: 0.9; font-family: Arial; font-size: 14px; text-anchor: end; " transform="rotate(0, -9, 0)translate(0,0)" data-org-x="-9" data-org-y="0">1K</text></g><g class="tick major" style="opacity: 1; display: block; " transform="translate(0,194)"><line x2="-6" y2="0"></line><text x="-9" y="0" dy="7" style="fill: #232115; fill-opacity: 0.9; font-family: Arial; font-size: 14px; text-anchor: end; " transform="rotate(0, -9, 0)translate(0,0)" data-org-x="-9" data-org-y="0">10K</text></g><g class="tick major" style="opacity: 1; display: block; " transform="translate(0,145.5)"><line x2="-6" y2="0"></line><text x="-9" y="0" dy="7" style="fill: #232115; fill-opacity: 0.9; font-family: Arial; font-size: 14px; text-anchor: end; " transform="rotate(0, -9, 0)translate(0,0)" data-org-x="-9" data-org-y="0">100K</text></g><g class="tick major" style="opacity: 1; display: block; " transform="translate(0,97.00000000000006)"><line x2="-6" y2="0"></line><text x="-9" y="0" dy="7" style="fill: #232115; fill-opacity: 0.9; font-family: Arial; font-size: 14px; text-anchor: end; " transform="rotate(0, -9, 0)translate(0,0)" data-org-x="-9" data-org-y="0">1M</text></g><g class="tick major" style="opacity: 1; display: block; " transform="translate(0,48.50000000000003)"><line x2="-6" y2="0"></line><text x="-9" y="0" dy="7" style="fill: #232115; fill-opacity: 0.9; font-family: Arial; font-size: 14px; text-anchor: end; " transform="rotate(0, -9, 0)translate(0,0)" data-org-x="-9" data-org-y="0">10M</text></g><g class="tick major" style="opacity: 1; display: block; " transform="translate(0,0)"><line x2="-6" y2="0"></line><text x="-9" y="0" dy="7" style="fill: #232115; fill-opacity: 0.9; font-family: Arial; font-size: 14px; text-anchor: end; " transform="rotate(0, -9, 0)translate(0,0)" data-org-x="-9" data-org-y="0">100M</text></g><path class="domain" d="M0,0H0V291H0" stroke-width="0" fill="none" stroke="rgb(35, 33, 21)" stroke-opacity="0.9"></path></g><g class="axis bottom" transform="translate(0,292)"><g class="tick major" style="opacity: 1; display: block; " transform="translate(0,0)"><line y2="7" x2="0"></line><text y="10" x="0" dy="7" style="fill: #232115; fill-opacity: 0.9; font-family: Arial; font-size: 14px; text-anchor: start; " transform="rotate(30, 0, 10)translate(0,0)" data-org-x="0" data-org-y="10">1</text></g><g class="tick major" style="opacity: 1; display: block; " transform="translate(82.56213753756569,0)"><line y2="7" x2="0"></line><text y="10" x="0" dy="7" style="fill: #232115; fill-opacity: 0.9; font-family: Arial; font-size: 14px; text-anchor: start; " transform="rotate(30, 0, 10)translate(0,0)" data-org-x="0" data-org-y="10">3</text></g><g class="tick major" style="opacity: 1; display: block; " transform="translate(120.95134530640533,0)"><line y2="7" x2="0"></line><text y="10" x="0" dy="7" style="fill: #232115; fill-opacity: 0.9; font-family: Arial; font-size: 14px; text-anchor: start; " transform="rotate(30, 0, 10)translate(0,0)" data-org-x="0" data-org-y="10">5</text></g><g class="tick major" style="opacity: 1; display: block; " transform="translate(146.23767003081883,0)"><line y2="7" x2="0"></line><text y="10" x="0" dy="7" style="fill: #232115; fill-opacity: 0.9; font-family: Arial; font-size: 14px; text-anchor: start; " transform="rotate(30, 0, 10)translate(0,0)" data-org-x="0" data-org-y="10">7</text></g><g class="tick major" style="opacity: 1; display: block; " transform="translate(165.12427507513138,0)"><line y2="7" x2="0"></line><text y="10" x="0" dy="7" style="fill: #232115; fill-opacity: 0.9; font-family: Arial; font-size: 14px; text-anchor: start; " transform="rotate(30, 0, 10)translate(0,0)" data-org-x="0" data-org-y="10">9</text></g><g class="tick major" style="opacity: 1; display: block; " transform="translate(225.13316348822352,0)"><line y2="7" x2="0"></line><text y="10" x="0" dy="7" style="fill: #232115; fill-opacity: 0.9; font-family: Arial; font-size: 14px; text-anchor: start; " transform="rotate(30, 0, 10)translate(0,0)" data-org-x="0" data-org-y="10">20</text></g><g class="tick major" style="opacity: 1; display: block; " transform="translate(277.2240725791326,0)"><line y2="7" x2="0"></line><text y="10" x="0" dy="7" style="fill: #232115; fill-opacity: 0.9; font-family: Arial; font-size: 14px; text-anchor: start; " transform="rotate(30, 0, 10)translate(0,0)" data-org-x="0" data-org-y="10">40</text></g><g class="tick major" style="opacity: 1; display: block; " transform="translate(307.69530102578915,0)"><line y2="7" x2="0"></line><text y="10" x="0" dy="7" style="fill: #232115; fill-opacity: 0.9; font-family: Arial; font-size: 14px; text-anchor: start; " transform="rotate(30, 0, 10)translate(0,0)" data-org-x="0" data-org-y="10">60</text></g><g class="tick major" style="opacity: 1; display: block; " transform="translate(329.3149816700417,0)"><line y2="7" x2="0"></line><text y="10" x="0" dy="7" style="fill: #232115; fill-opacity: 0.9; font-family: Arial; font-size: 14px; text-anchor: start; " transform="rotate(30, 0, 10)translate(0,0)" data-org-x="0" data-org-y="10">80</text></g><g class="tick major" style="opacity: 1; display: block; " transform="translate(346.0845087946289,0)"><line y2="7" x2="0"></line><text y="10" x="0" dy="7" style="fill: #232115; fill-opacity: 0.9; font-family: Arial; font-size: 14px; text-anchor: start; " transform="rotate(30, 0, 10)translate(0,0)" data-org-x="0" data-org-y="10">100</text></g><g class="tick major" style="opacity: 1; display: block; " transform="translate(428.6466463321945,0)"><line y2="7" x2="0"></line><text y="10" x="0" dy="7" style="fill: #232115; fill-opacity: 0.9; font-family: Arial; font-size: 14px; text-anchor: start; " transform="rotate(30, 0, 10)translate(0,0)" data-org-x="0" data-org-y="10">300</text></g><g class="tick major" style="opacity: 1; display: block; " transform="translate(467.03585410103415,0)"><line y2="7" x2="0"></line><text y="10" x="0" dy="7" style="fill: #232115; fill-opacity: 0.9; font-family: Arial; font-size: 14px; text-anchor: start; " transform="rotate(30, 0, 10)translate(0,0)" data-org-x="0" data-org-y="10">500</text></g><g class="tick major" style="opacity: 1; display: block; " transform="translate(492.3221788254477,0)"><line y2="7" x2="0"></line><text y="10" x="0" dy="7" style="fill: #232115; fill-opacity: 0.9; font-family: Arial; font-size: 14px; text-anchor: start; " transform="rotate(30, 0, 10)translate(0,0)" data-org-x="0" data-org-y="10">700</text></g><g class="tick major" style="opacity: 1; display: block; " transform="translate(511.2087838697602,0)"><line y2="7" x2="0"></line><text y="10" x="0" dy="7" style="fill: #232115; fill-opacity: 0.9; font-family: Arial; font-size: 14px; text-anchor: start; " transform="rotate(30, 0, 10)translate(0,0)" data-org-x="0" data-org-y="10">900</text></g><g class="tick major" style="opacity: 1; display: block; " transform="translate(571.2176722828524,0)"><line y2="7" x2="0"></line><text y="10" x="0" dy="7" style="fill: #232115; fill-opacity: 0.9; font-family: Arial; font-size: 14px; text-anchor: start; " transform="rotate(30, 0, 10)translate(0,0)" data-org-x="0" data-org-y="10">2000</text></g><path class="domain" d="M0,0V0H573V0" stroke-width="2" fill="none" stroke="rgb(35, 33, 21)" stroke-opacity="0.9"></path><path class="filler" d="M0,0V0H0V0" stroke-width="2" fill="none" stroke="rgb(35, 33, 21)" stroke-opacity="0.9"></path></g></g></g><g class="label" transform="translate(258.5,25)"><text style="text-anchor: start; font-family: Arial; font-size: 22px; " fill="rgba(35, 33, 21, 0.9)" dy="22" transform="rotate(0)">Time cost of flatten operation</text></g><g class="legend" transform="translate(692.1013488769531,186.79202270507813)"><g class="row" transform="translate(0,0)"><text class="key" style="font-size: 14px; fill: #232115; fill-opacity: 0.9; " dx="28" dy="14">treevalue</text><path class="shape" d="M0,7.898654169668588A7.898654169668588,7.898654169668588 0 1,1 0,-7.898654169668588A7.898654169668588,7.898654169668588 0 1,1 0,7.898654169668588Z" style="fill: #e94c3b; fill-opacity: 1; " transform="translate(14,9.24)"></path></g><g class="row" transform="translate(0,30.138652801513672)"><text class="key" style="font-size: 14px; fill: #232115; fill-opacity: 0.9; " dx="28" dy="14">dm-tree</text><path class="shape" d="M0,7.898654169668588A7.898654169668588,7.898654169668588 0 1,1 0,-7.898654169668588A7.898654169668588,7.898654169668588 0 1,1 0,7.898654169668588Z" style="fill: #3299bb; fill-opacity: 1; " transform="translate(14,9.24)"></path></g><g class="row" transform="translate(0,60.277305603027344)"><text class="key" style="font-size: 14px; fill: #232115; fill-opacity: 0.9; " dx="28" dy="14">jax-libtree</text><path class="shape" d="M0,7.898654169668588A7.898654169668588,7.898654169668588 0 1,1 0,-7.898654169668588A7.898654169668588,7.898654169668588 0 1,1 0,7.898654169668588Z" style="fill: #18bd9b; fill-opacity: 1; " transform="translate(14,9.24)"></path></g></g></g></svg>