<?xml version="1.0" encoding="UTF-8" standalone="no"?>
<!DOCTYPE svg PUBLIC "-//W3C//DTD SVG 1.1//EN"
 "http://www.w3.org/Graphics/SVG/1.1/DTD/svg11.dtd">
<!-- Generated by graphviz version 2.43.0 (0)
 -->
<!-- Title: %3 Pages: 1 -->
<svg width="979pt" height="311pt"
 viewBox="0.00 0.00 979.00 311.00" xmlns="http://www.w3.org/2000/svg" xmlns:xlink="http://www.w3.org/1999/xlink">
<g id="graph0" class="graph" transform="scale(1 1) rotate(0) translate(4 307)">
<title>%3</title>
<polygon fill="transparent" stroke="transparent" points="-4,4 -4,-307 975,-307 975,4 -4,4"/>
<text text-anchor="middle" x="485.5" y="-22.8" font-family="Times,serif" font-size="14.00">inherit_demo_1 </text>
<text text-anchor="middle" x="485.5" y="-7.8" font-family="Times,serif" font-size="14.00">(Runnable, t3 is sum of t1 and t2 due to enablement of inheriting)</text>
<g id="clust1" class="cluster">
<title>cluster_t1</title>
<polygon fill="transparent" stroke="black" points="8,-133 8,-295 222,-295 222,-133 8,-133"/>
<text text-anchor="middle" x="115" y="-279.8" font-family="Times,serif" font-size="14.00">Tree t1</text>
</g>
<g id="clust2" class="cluster">
<title>cluster_t2</title>
<polygon fill="transparent" stroke="black" points="230,-46 230,-295 448,-295 448,-46 230,-46"/>
<text text-anchor="middle" x="339" y="-279.8" font-family="Times,serif" font-size="14.00">Tree t2</text>
</g>
<g id="clust3" class="cluster">
<title>cluster_t3</title>
<polygon fill="transparent" stroke="black" points="456,-46 456,-295 963,-295 963,-46 456,-46"/>
<text text-anchor="middle" x="709.5" y="-279.8" font-family="Times,serif" font-size="14.00">Tree t3</text>
</g>
<!-- t1 -->
<g id="node1" class="node">
<title>t1</title>
<ellipse fill="none" stroke="black" cx="115" cy="-246" rx="27" ry="18"/>
<text text-anchor="middle" x="115" y="-242.3" font-family="Times,serif" font-size="14.00">t1</text>
</g>
<!-- t1_a -->
<g id="node2" class="node">
<title>t1_a</title>
<ellipse fill="none" stroke="black" cx="43" cy="-159" rx="27" ry="18"/>
<text text-anchor="middle" x="43" y="-155.3" font-family="Times,serif" font-size="14.00">1</text>
</g>
<!-- t1&#45;&gt;t1_a -->
<g id="edge1" class="edge">
<title>t1&#45;&gt;t1_a</title>
<path fill="none" stroke="black" d="M102.13,-229.8C91.07,-216.75 74.96,-197.74 62.35,-182.85"/>
<polygon fill="black" stroke="black" points="64.89,-180.43 55.76,-175.06 59.55,-184.96 64.89,-180.43"/>
<text text-anchor="middle" x="87.5" y="-198.8" font-family="Times,serif" font-size="14.00">a</text>
</g>
<!-- t1_b -->
<g id="node3" class="node">
<title>t1_b</title>
<ellipse fill="none" stroke="black" cx="115" cy="-159" rx="27" ry="18"/>
<text text-anchor="middle" x="115" y="-155.3" font-family="Times,serif" font-size="14.00">2</text>
</g>
<!-- t1&#45;&gt;t1_b -->
<g id="edge2" class="edge">
<title>t1&#45;&gt;t1_b</title>
<path fill="none" stroke="black" d="M115,-227.8C115,-216.16 115,-200.55 115,-187.24"/>
<polygon fill="black" stroke="black" points="118.5,-187.18 115,-177.18 111.5,-187.18 118.5,-187.18"/>
<text text-anchor="middle" x="120" y="-198.8" font-family="Times,serif" font-size="14.00">b</text>
</g>
<!-- t1_x -->
<g id="node4" class="node">
<title>t1_x</title>
<ellipse fill="none" stroke="black" cx="187" cy="-159" rx="27" ry="18"/>
<text text-anchor="middle" x="187" y="-155.3" font-family="Times,serif" font-size="14.00">9</text>
</g>
<!-- t1&#45;&gt;t1_x -->
<g id="edge3" class="edge">
<title>t1&#45;&gt;t1_x</title>
<path fill="none" stroke="black" d="M127.87,-229.8C138.93,-216.75 155.04,-197.74 167.65,-182.85"/>
<polygon fill="black" stroke="black" points="170.45,-184.96 174.24,-175.06 165.11,-180.43 170.45,-184.96"/>
<text text-anchor="middle" x="159.5" y="-198.8" font-family="Times,serif" font-size="14.00">x</text>
</g>
<!-- t2 -->
<g id="node5" class="node">
<title>t2</title>
<ellipse fill="none" stroke="black" cx="337" cy="-246" rx="27" ry="18"/>
<text text-anchor="middle" x="337" y="-242.3" font-family="Times,serif" font-size="14.00">t2</text>
</g>
<!-- t2_a -->
<g id="node6" class="node">
<title>t2_a</title>
<ellipse fill="none" stroke="black" cx="265" cy="-159" rx="27" ry="18"/>
<text text-anchor="middle" x="265" y="-155.3" font-family="Times,serif" font-size="14.00">11</text>
</g>
<!-- t2&#45;&gt;t2_a -->
<g id="edge4" class="edge">
<title>t2&#45;&gt;t2_a</title>
<path fill="none" stroke="black" d="M324.13,-229.8C313.07,-216.75 296.96,-197.74 284.35,-182.85"/>
<polygon fill="black" stroke="black" points="286.89,-180.43 277.76,-175.06 281.55,-184.96 286.89,-180.43"/>
<text text-anchor="middle" x="309.5" y="-198.8" font-family="Times,serif" font-size="14.00">a</text>
</g>
<!-- t2_b -->
<g id="node7" class="node">
<title>t2_b</title>
<ellipse fill="none" stroke="black" cx="337" cy="-159" rx="27" ry="18"/>
<text text-anchor="middle" x="337" y="-155.3" font-family="Times,serif" font-size="14.00">22</text>
</g>
<!-- t2&#45;&gt;t2_b -->
<g id="edge5" class="edge">
<title>t2&#45;&gt;t2_b</title>
<path fill="none" stroke="black" d="M337,-227.8C337,-216.16 337,-200.55 337,-187.24"/>
<polygon fill="black" stroke="black" points="340.5,-187.18 337,-177.18 333.5,-187.18 340.5,-187.18"/>
<text text-anchor="middle" x="342" y="-198.8" font-family="Times,serif" font-size="14.00">b</text>
</g>
<!-- t2_x -->
<g id="node8" class="node">
<title>t2_x</title>
<ellipse fill="none" stroke="black" cx="411" cy="-159" rx="28.7" ry="18"/>
<text text-anchor="middle" x="411" y="-155.3" font-family="Times,serif" font-size="14.00">t2.x</text>
</g>
<!-- t2&#45;&gt;t2_x -->
<g id="edge6" class="edge">
<title>t2&#45;&gt;t2_x</title>
<path fill="none" stroke="black" d="M350.23,-229.8C361.59,-216.75 378.15,-197.74 391.11,-182.85"/>
<polygon fill="black" stroke="black" points="393.96,-184.91 397.88,-175.06 388.68,-180.31 393.96,-184.91"/>
<text text-anchor="middle" x="382.5" y="-198.8" font-family="Times,serif" font-size="14.00">x</text>
</g>
<!-- t2_x_c -->
<g id="node9" class="node">
<title>t2_x_c</title>
<ellipse fill="none" stroke="black" cx="269" cy="-72" rx="27" ry="18"/>
<text text-anchor="middle" x="269" y="-68.3" font-family="Times,serif" font-size="14.00">30</text>
</g>
<!-- t2_x&#45;&gt;t2_x_c -->
<g id="edge7" class="edge">
<title>t2_x&#45;&gt;t2_x_c</title>
<path fill="none" stroke="black" d="M392.2,-145.32C386.12,-141.3 379.32,-136.9 373,-133 347.96,-117.56 318.93,-100.91 297.91,-89.08"/>
<polygon fill="black" stroke="black" points="299.58,-86 289.14,-84.16 296.15,-92.1 299.58,-86"/>
<text text-anchor="middle" x="360" y="-111.8" font-family="Times,serif" font-size="14.00">c</text>
</g>
<!-- t2_x_d -->
<g id="node10" class="node">
<title>t2_x_d</title>
<ellipse fill="none" stroke="black" cx="341" cy="-72" rx="27" ry="18"/>
<text text-anchor="middle" x="341" y="-68.3" font-family="Times,serif" font-size="14.00">48</text>
</g>
<!-- t2_x&#45;&gt;t2_x_d -->
<g id="edge8" class="edge">
<title>t2_x&#45;&gt;t2_x_d</title>
<path fill="none" stroke="black" d="M398.49,-142.8C387.73,-129.75 372.08,-110.74 359.82,-95.85"/>
<polygon fill="black" stroke="black" points="362.47,-93.56 353.41,-88.06 357.06,-98.01 362.47,-93.56"/>
<text text-anchor="middle" x="385" y="-111.8" font-family="Times,serif" font-size="14.00">d</text>
</g>
<!-- t2_x_e -->
<g id="node11" class="node">
<title>t2_x_e</title>
<ellipse fill="none" stroke="black" cx="413" cy="-72" rx="27" ry="18"/>
<text text-anchor="middle" x="413" y="-68.3" font-family="Times,serif" font-size="14.00">54</text>
</g>
<!-- t2_x&#45;&gt;t2_x_e -->
<g id="edge9" class="edge">
<title>t2_x&#45;&gt;t2_x_e</title>
<path fill="none" stroke="black" d="M411.4,-140.8C411.68,-129.16 412.05,-113.55 412.36,-100.24"/>
<polygon fill="black" stroke="black" points="415.86,-100.26 412.6,-90.18 408.86,-100.09 415.86,-100.26"/>
<text text-anchor="middle" x="416.5" y="-111.8" font-family="Times,serif" font-size="14.00">e</text>
</g>
<!-- t3 -->
<g id="node12" class="node">
<title>t3</title>
<ellipse fill="none" stroke="black" cx="685" cy="-246" rx="67.69" ry="18"/>
<text text-anchor="middle" x="685" y="-242.3" font-family="Times,serif" font-size="14.00">t3 = t1 + t2</text>
</g>
<!-- t3_a -->
<g id="node13" class="node">
<title>t3_a</title>
<ellipse fill="none" stroke="black" cx="532" cy="-159" rx="67.69" ry="18"/>
<text text-anchor="middle" x="532" y="-155.3" font-family="Times,serif" font-size="14.00">12 = 1 + 11</text>
</g>
<!-- t3&#45;&gt;t3_a -->
<g id="edge10" class="edge">
<title>t3&#45;&gt;t3_a</title>
<path fill="none" stroke="black" d="M656.94,-229.41C632.14,-215.63 595.79,-195.44 568.69,-180.38"/>
<polygon fill="black" stroke="black" points="570.33,-177.29 559.88,-175.49 566.93,-183.41 570.33,-177.29"/>
<text text-anchor="middle" x="621.5" y="-198.8" font-family="Times,serif" font-size="14.00">a</text>
</g>
<!-- t3_b -->
<g id="node14" class="node">
<title>t3_b</title>
<ellipse fill="none" stroke="black" cx="685" cy="-159" rx="67.69" ry="18"/>
<text text-anchor="middle" x="685" y="-155.3" font-family="Times,serif" font-size="14.00">24 = 2 + 22</text>
</g>
<!-- t3&#45;&gt;t3_b -->
<g id="edge11" class="edge">
<title>t3&#45;&gt;t3_b</title>
<path fill="none" stroke="black" d="M685,-227.8C685,-216.16 685,-200.55 685,-187.24"/>
<polygon fill="black" stroke="black" points="688.5,-187.18 685,-177.18 681.5,-187.18 688.5,-187.18"/>
<text text-anchor="middle" x="690" y="-198.8" font-family="Times,serif" font-size="14.00">b</text>
</g>
<!-- t3_x -->
<g id="node15" class="node">
<title>t3_x</title>
<ellipse fill="none" stroke="black" cx="863" cy="-159" rx="92.08" ry="18"/>
<text text-anchor="middle" x="863" y="-155.3" font-family="Times,serif" font-size="14.00">t3.x = t1.x + t2.x</text>
</g>
<!-- t3&#45;&gt;t3_x -->
<g id="edge12" class="edge">
<title>t3&#45;&gt;t3_x</title>
<path fill="none" stroke="black" d="M716.41,-230C745.39,-216.16 788.64,-195.51 820.66,-180.22"/>
<polygon fill="black" stroke="black" points="822.27,-183.33 829.79,-175.86 819.26,-177.01 822.27,-183.33"/>
<text text-anchor="middle" x="788.5" y="-198.8" font-family="Times,serif" font-size="14.00">x</text>
</g>
<!-- t3_x_c -->
<g id="node16" class="node">
<title>t3_x_c</title>
<ellipse fill="none" stroke="black" cx="581" cy="-72" rx="67.69" ry="18"/>
<text text-anchor="middle" x="581" y="-68.3" font-family="Times,serif" font-size="14.00">39 = 9 + 30</text>
</g>
<!-- t3_x&#45;&gt;t3_x_c -->
<g id="edge13" class="edge">
<title>t3_x&#45;&gt;t3_x_c</title>
<path fill="none" stroke="black" d="M815.16,-143.58C764.82,-128.41 685.8,-104.59 633.7,-88.89"/>
<polygon fill="black" stroke="black" points="634.57,-85.49 623.98,-85.96 632.55,-92.19 634.57,-85.49"/>
<text text-anchor="middle" x="742" y="-111.8" font-family="Times,serif" font-size="14.00">c</text>
</g>
<!-- t3_x_d -->
<g id="node17" class="node">
<title>t3_x_d</title>
<ellipse fill="none" stroke="black" cx="734" cy="-72" rx="67.69" ry="18"/>
<text text-anchor="middle" x="734" y="-68.3" font-family="Times,serif" font-size="14.00">57 = 9 + 48</text>
</g>
<!-- t3_x&#45;&gt;t3_x_d -->
<g id="edge14" class="edge">
<title>t3_x&#45;&gt;t3_x_d</title>
<path fill="none" stroke="black" d="M838.13,-141.61C817.83,-128.24 788.99,-109.23 766.81,-94.62"/>
<polygon fill="black" stroke="black" points="768.63,-91.63 758.36,-89.05 764.78,-97.48 768.63,-91.63"/>
<text text-anchor="middle" x="811" y="-111.8" font-family="Times,serif" font-size="14.00">d</text>
</g>
<!-- t3_x_e -->
<g id="node18" class="node">
<title>t3_x_e</title>
<ellipse fill="none" stroke="black" cx="887" cy="-72" rx="67.69" ry="18"/>
<text text-anchor="middle" x="887" y="-68.3" font-family="Times,serif" font-size="14.00">63 = 9 + 54</text>
</g>
<!-- t3_x&#45;&gt;t3_x_e -->
<g id="edge15" class="edge">
<title>t3_x&#45;&gt;t3_x_e</title>
<path fill="none" stroke="black" d="M867.86,-140.8C871.17,-129.05 875.64,-113.24 879.42,-99.84"/>
<polygon fill="black" stroke="black" points="882.8,-100.75 882.15,-90.18 876.06,-98.85 882.8,-100.75"/>
<text text-anchor="middle" x="880.5" y="-111.8" font-family="Times,serif" font-size="14.00">e</text>
</g>
</g>
</svg>
