<?xml version="1.0" encoding="UTF-8" standalone="no"?>
<!DOCTYPE svg PUBLIC "-//W3C//DTD SVG 1.1//EN"
 "http://www.w3.org/Graphics/SVG/1.1/DTD/svg11.dtd">
<!-- Generated by graphviz version 2.43.0 (0)
 -->
<!-- Title: %3 Pages: 1 -->
<svg width="536pt" height="311pt"
 viewBox="0.00 0.00 536.00 311.00" xmlns="http://www.w3.org/2000/svg" xmlns:xlink="http://www.w3.org/1999/xlink">
<g id="graph0" class="graph" transform="scale(1 1) rotate(0) translate(4 307)">
<title>%3</title>
<polygon fill="transparent" stroke="transparent" points="-4,4 -4,-307 532,-307 532,4 -4,4"/>
<text text-anchor="middle" x="264" y="-22.8" font-family="Times,serif" font-size="14.00">left_demo_2 </text>
<text text-anchor="middle" x="264" y="-7.8" font-family="Times,serif" font-size="14.00">(KeyError raised due to t2.x.f&#39;s non&#45;existence)</text>
<g id="clust1" class="cluster">
<title>cluster_t1</title>
<polygon fill="transparent" stroke="black" points="8,-46 8,-295 294,-295 294,-46 8,-46"/>
<text text-anchor="middle" x="151" y="-279.8" font-family="Times,serif" font-size="14.00">Tree t1</text>
</g>
<g id="clust2" class="cluster">
<title>cluster_t2</title>
<polygon fill="transparent" stroke="black" points="302,-46 302,-295 520,-295 520,-46 302,-46"/>
<text text-anchor="middle" x="411" y="-279.8" font-family="Times,serif" font-size="14.00">Tree t2</text>
</g>
<!-- t1 -->
<g id="node1" class="node">
<title>t1</title>
<ellipse fill="none" stroke="black" cx="113" cy="-246" rx="27" ry="18"/>
<text text-anchor="middle" x="113" y="-242.3" font-family="Times,serif" font-size="14.00">t1</text>
</g>
<!-- t1_b -->
<g id="node2" class="node">
<title>t1_b</title>
<ellipse fill="none" stroke="black" cx="77" cy="-159" rx="27" ry="18"/>
<text text-anchor="middle" x="77" y="-155.3" font-family="Times,serif" font-size="14.00">2</text>
</g>
<!-- t1&#45;&gt;t1_b -->
<g id="edge1" class="edge">
<title>t1&#45;&gt;t1_b</title>
<path fill="none" stroke="black" d="M105.89,-228.21C100.78,-216.14 93.79,-199.64 87.97,-185.89"/>
<polygon fill="black" stroke="black" points="91.1,-184.31 83.98,-176.47 84.65,-187.04 91.1,-184.31"/>
<text text-anchor="middle" x="102" y="-198.8" font-family="Times,serif" font-size="14.00">b</text>
</g>
<!-- t1_x -->
<g id="node3" class="node">
<title>t1_x</title>
<ellipse fill="none" stroke="black" cx="151" cy="-159" rx="28.7" ry="18"/>
<text text-anchor="middle" x="151" y="-155.3" font-family="Times,serif" font-size="14.00">t1.x</text>
</g>
<!-- t1&#45;&gt;t1_x -->
<g id="edge2" class="edge">
<title>t1&#45;&gt;t1_x</title>
<path fill="none" stroke="black" d="M120.33,-228.61C125.71,-216.58 133.13,-199.98 139.32,-186.13"/>
<polygon fill="black" stroke="black" points="142.68,-187.19 143.57,-176.63 136.29,-184.33 142.68,-187.19"/>
<text text-anchor="middle" x="138.5" y="-198.8" font-family="Times,serif" font-size="14.00">x</text>
</g>
<!-- t1_x_c -->
<g id="node4" class="node">
<title>t1_x_c</title>
<ellipse fill="none" stroke="black" cx="43" cy="-72" rx="27" ry="18"/>
<text text-anchor="middle" x="43" y="-68.3" font-family="Times,serif" font-size="14.00">3</text>
</g>
<!-- t1_x&#45;&gt;t1_x_c -->
<g id="edge3" class="edge">
<title>t1_x&#45;&gt;t1_x_c</title>
<path fill="none" stroke="black" d="M133.65,-144.34C115.91,-130.38 88.18,-108.56 68.06,-92.72"/>
<polygon fill="black" stroke="black" points="69.98,-89.78 59.95,-86.34 65.65,-95.28 69.98,-89.78"/>
<text text-anchor="middle" x="107" y="-111.8" font-family="Times,serif" font-size="14.00">c</text>
</g>
<!-- t1_x_d -->
<g id="node5" class="node">
<title>t1_x_d</title>
<ellipse fill="none" stroke="black" cx="115" cy="-72" rx="27" ry="18"/>
<text text-anchor="middle" x="115" y="-68.3" font-family="Times,serif" font-size="14.00">4</text>
</g>
<!-- t1_x&#45;&gt;t1_x_d -->
<g id="edge4" class="edge">
<title>t1_x&#45;&gt;t1_x_d</title>
<path fill="none" stroke="black" d="M143.89,-141.21C138.78,-129.14 131.79,-112.64 125.97,-98.89"/>
<polygon fill="black" stroke="black" points="129.1,-97.31 121.98,-89.47 122.65,-100.04 129.1,-97.31"/>
<text text-anchor="middle" x="140" y="-111.8" font-family="Times,serif" font-size="14.00">d</text>
</g>
<!-- t1_x_e -->
<g id="node6" class="node">
<title>t1_x_e</title>
<ellipse fill="none" stroke="black" cx="187" cy="-72" rx="27" ry="18"/>
<text text-anchor="middle" x="187" y="-68.3" font-family="Times,serif" font-size="14.00">5</text>
</g>
<!-- t1_x&#45;&gt;t1_x_e -->
<g id="edge5" class="edge">
<title>t1_x&#45;&gt;t1_x_e</title>
<path fill="none" stroke="black" d="M158.11,-141.21C163.22,-129.14 170.21,-112.64 176.03,-98.89"/>
<polygon fill="black" stroke="black" points="179.35,-100.04 180.02,-89.47 172.9,-97.31 179.35,-100.04"/>
<text text-anchor="middle" x="175.5" y="-111.8" font-family="Times,serif" font-size="14.00">e</text>
</g>
<!-- t1_x_f -->
<g id="node7" class="node">
<title>t1_x_f</title>
<ellipse fill="none" stroke="black" cx="259" cy="-72" rx="27" ry="18"/>
<text text-anchor="middle" x="259" y="-68.3" font-family="Times,serif" font-size="14.00">6</text>
</g>
<!-- t1_x&#45;&gt;t1_x_f -->
<g id="edge6" class="edge">
<title>t1_x&#45;&gt;t1_x_f</title>
<path fill="none" stroke="black" d="M168.35,-144.34C186.09,-130.38 213.82,-108.56 233.94,-92.72"/>
<polygon fill="black" stroke="black" points="236.35,-95.28 242.05,-86.34 232.02,-89.78 236.35,-95.28"/>
<text text-anchor="middle" x="214" y="-111.8" font-family="Times,serif" font-size="14.00">f</text>
</g>
<!-- t2 -->
<g id="node8" class="node">
<title>t2</title>
<ellipse fill="none" stroke="black" cx="409" cy="-246" rx="27" ry="18"/>
<text text-anchor="middle" x="409" y="-242.3" font-family="Times,serif" font-size="14.00">t2</text>
</g>
<!-- t2_a -->
<g id="node9" class="node">
<title>t2_a</title>
<ellipse fill="none" stroke="black" cx="337" cy="-159" rx="27" ry="18"/>
<text text-anchor="middle" x="337" y="-155.3" font-family="Times,serif" font-size="14.00">11</text>
</g>
<!-- t2&#45;&gt;t2_a -->
<g id="edge7" class="edge">
<title>t2&#45;&gt;t2_a</title>
<path fill="none" stroke="black" d="M396.13,-229.8C385.07,-216.75 368.96,-197.74 356.35,-182.85"/>
<polygon fill="black" stroke="black" points="358.89,-180.43 349.76,-175.06 353.55,-184.96 358.89,-180.43"/>
<text text-anchor="middle" x="381.5" y="-198.8" font-family="Times,serif" font-size="14.00">a</text>
</g>
<!-- t2_b -->
<g id="node10" class="node">
<title>t2_b</title>
<ellipse fill="none" stroke="black" cx="409" cy="-159" rx="27" ry="18"/>
<text text-anchor="middle" x="409" y="-155.3" font-family="Times,serif" font-size="14.00">22</text>
</g>
<!-- t2&#45;&gt;t2_b -->
<g id="edge8" class="edge">
<title>t2&#45;&gt;t2_b</title>
<path fill="none" stroke="black" d="M409,-227.8C409,-216.16 409,-200.55 409,-187.24"/>
<polygon fill="black" stroke="black" points="412.5,-187.18 409,-177.18 405.5,-187.18 412.5,-187.18"/>
<text text-anchor="middle" x="414" y="-198.8" font-family="Times,serif" font-size="14.00">b</text>
</g>
<!-- t2_x -->
<g id="node11" class="node">
<title>t2_x</title>
<ellipse fill="none" stroke="black" cx="483" cy="-159" rx="28.7" ry="18"/>
<text text-anchor="middle" x="483" y="-155.3" font-family="Times,serif" font-size="14.00">t2.x</text>
</g>
<!-- t2&#45;&gt;t2_x -->
<g id="edge9" class="edge">
<title>t2&#45;&gt;t2_x</title>
<path fill="none" stroke="black" d="M422.23,-229.8C433.59,-216.75 450.15,-197.74 463.11,-182.85"/>
<polygon fill="black" stroke="black" points="465.96,-184.91 469.88,-175.06 460.68,-180.31 465.96,-184.91"/>
<text text-anchor="middle" x="454.5" y="-198.8" font-family="Times,serif" font-size="14.00">x</text>
</g>
<!-- t2_x_c -->
<g id="node12" class="node">
<title>t2_x_c</title>
<ellipse fill="none" stroke="black" cx="341" cy="-72" rx="27" ry="18"/>
<text text-anchor="middle" x="341" y="-68.3" font-family="Times,serif" font-size="14.00">30</text>
</g>
<!-- t2_x&#45;&gt;t2_x_c -->
<g id="edge10" class="edge">
<title>t2_x&#45;&gt;t2_x_c</title>
<path fill="none" stroke="black" d="M462.96,-146C438.5,-131.37 397.01,-106.53 369.31,-89.94"/>
<polygon fill="black" stroke="black" points="370.86,-86.8 360.49,-84.66 367.27,-92.8 370.86,-86.8"/>
<text text-anchor="middle" x="424" y="-111.8" font-family="Times,serif" font-size="14.00">c</text>
</g>
<!-- t2_x_d -->
<g id="node13" class="node">
<title>t2_x_d</title>
<ellipse fill="none" stroke="black" cx="413" cy="-72" rx="27" ry="18"/>
<text text-anchor="middle" x="413" y="-68.3" font-family="Times,serif" font-size="14.00">48</text>
</g>
<!-- t2_x&#45;&gt;t2_x_d -->
<g id="edge11" class="edge">
<title>t2_x&#45;&gt;t2_x_d</title>
<path fill="none" stroke="black" d="M470.49,-142.8C459.73,-129.75 444.08,-110.74 431.82,-95.85"/>
<polygon fill="black" stroke="black" points="434.47,-93.56 425.41,-88.06 429.06,-98.01 434.47,-93.56"/>
<text text-anchor="middle" x="457" y="-111.8" font-family="Times,serif" font-size="14.00">d</text>
</g>
<!-- t2_x_e -->
<g id="node14" class="node">
<title>t2_x_e</title>
<ellipse fill="none" stroke="black" cx="485" cy="-72" rx="27" ry="18"/>
<text text-anchor="middle" x="485" y="-68.3" font-family="Times,serif" font-size="14.00">54</text>
</g>
<!-- t2_x&#45;&gt;t2_x_e -->
<g id="edge12" class="edge">
<title>t2_x&#45;&gt;t2_x_e</title>
<path fill="none" stroke="black" d="M483.4,-140.8C483.68,-129.16 484.05,-113.55 484.36,-100.24"/>
<polygon fill="black" stroke="black" points="487.86,-100.26 484.6,-90.18 480.86,-100.09 487.86,-100.26"/>
<text text-anchor="middle" x="488.5" y="-111.8" font-family="Times,serif" font-size="14.00">e</text>
</g>
</g>
</svg>
