<?xml version="1.0" encoding="UTF-8" standalone="no"?>
<!DOCTYPE svg PUBLIC "-//W3C//DTD SVG 1.1//EN"
 "http://www.w3.org/Graphics/SVG/1.1/DTD/svg11.dtd">
<!-- Generated by graphviz version 2.43.0 (0)
 -->
<!-- Title: slice_index Pages: 1 -->
<svg width="964pt" height="273pt"
 viewBox="0.00 0.00 964.00 273.00" xmlns="http://www.w3.org/2000/svg" xmlns:xlink="http://www.w3.org/1999/xlink">
<g id="graph0" class="graph" transform="scale(1 1) rotate(0) translate(4 269)">
<title>slice_index</title>
<polygon fill="transparent" stroke="transparent" points="-4,4 -4,-269 960,-269 960,4 -4,4"/>
<g id="clust1" class="cluster">
<title>cluster_t_xx_1</title>
<polygon fill="transparent" stroke="black" points="8,-8 8,-257 532,-257 532,-8 8,-8"/>
<text text-anchor="middle" x="270" y="-241.8" font-family="Times,serif" font-size="14.00">Result of t[::&#45;1]</text>
</g>
<g id="clust2" class="cluster">
<title>cluster_t_x_1_0</title>
<polygon fill="transparent" stroke="black" points="540,-95 540,-257 948,-257 948,-95 540,-95"/>
<text text-anchor="middle" x="744" y="-241.8" font-family="Times,serif" font-size="14.00">Result of t.x[1:]</text>
</g>
<!-- root2 -->
<g id="node1" class="node">
<title>root2</title>
<ellipse fill="none" stroke="black" cx="317" cy="-208" rx="36.29" ry="18"/>
<text text-anchor="middle" x="317" y="-204.3" font-family="Times,serif" font-size="14.00">t[::&#45;1]</text>
</g>
<!-- n21 -->
<g id="node2" class="node">
<title>n21</title>
<ellipse fill="none" stroke="black" cx="107" cy="-121" rx="90.98" ry="18"/>
<text text-anchor="middle" x="107" y="-117.3" font-family="Times,serif" font-size="14.00">[3, 2, 1] = t.a[::&#45;1</text>
</g>
<!-- root2&#45;&gt;n21 -->
<g id="edge1" class="edge">
<title>root2&#45;&gt;n21</title>
<path fill="none" stroke="black" d="M289.55,-195.89C255.3,-182.03 196.2,-158.1 154.53,-141.24"/>
<polygon fill="black" stroke="black" points="155.72,-137.94 145.14,-137.44 153.09,-144.43 155.72,-137.94"/>
<text text-anchor="middle" x="228.5" y="-160.8" font-family="Times,serif" font-size="14.00">a</text>
</g>
<!-- n22 -->
<g id="node3" class="node">
<title>n22</title>
<ellipse fill="none" stroke="black" cx="317" cy="-121" rx="100.98" ry="18"/>
<text text-anchor="middle" x="317" y="-117.3" font-family="Times,serif" font-size="14.00">[16, 9, 4] = t.b[::&#45;1]</text>
</g>
<!-- root2&#45;&gt;n22 -->
<g id="edge2" class="edge">
<title>root2&#45;&gt;n22</title>
<path fill="none" stroke="black" d="M317,-189.8C317,-178.16 317,-162.55 317,-149.24"/>
<polygon fill="black" stroke="black" points="320.5,-149.18 317,-139.18 313.5,-149.18 320.5,-149.18"/>
<text text-anchor="middle" x="322" y="-160.8" font-family="Times,serif" font-size="14.00">b</text>
</g>
<!-- n23 -->
<g id="node4" class="node">
<title>n23</title>
<ellipse fill="none" stroke="black" cx="480" cy="-121" rx="44.39" ry="18"/>
<text text-anchor="middle" x="480" y="-117.3" font-family="Times,serif" font-size="14.00">t[::&#45;1].x</text>
</g>
<!-- root2&#45;&gt;n23 -->
<g id="edge3" class="edge">
<title>root2&#45;&gt;n23</title>
<path fill="none" stroke="black" d="M341.05,-194.46C368.42,-180.19 413.37,-156.75 444.71,-140.4"/>
<polygon fill="black" stroke="black" points="446.71,-143.31 453.96,-135.58 443.48,-137.1 446.71,-143.31"/>
<text text-anchor="middle" x="412.5" y="-160.8" font-family="Times,serif" font-size="14.00">x</text>
</g>
<!-- n24 -->
<g id="node5" class="node">
<title>n24</title>
<ellipse fill="none" stroke="black" cx="163" cy="-34" rx="119.68" ry="18"/>
<text text-anchor="middle" x="163" y="-30.3" font-family="Times,serif" font-size="14.00">[17, 13, 11] = t.x.c[::&#45;1]</text>
</g>
<!-- n23&#45;&gt;n24 -->
<g id="edge4" class="edge">
<title>n23&#45;&gt;n24</title>
<path fill="none" stroke="black" d="M454.05,-106.38C445.59,-102.32 436.04,-98.12 427,-95 369.08,-75.02 301.7,-59.84 249.51,-49.74"/>
<polygon fill="black" stroke="black" points="250.09,-46.29 239.61,-47.85 248.78,-53.16 250.09,-46.29"/>
<text text-anchor="middle" x="395" y="-73.8" font-family="Times,serif" font-size="14.00">c</text>
</g>
<!-- n25 -->
<g id="node6" class="node">
<title>n25</title>
<ellipse fill="none" stroke="black" cx="412" cy="-34" rx="111.58" ry="18"/>
<text text-anchor="middle" x="412" y="-30.3" font-family="Times,serif" font-size="14.00">[&#45;8, &#45;4, &#45;2] = t.x.d[::&#45;1]</text>
</g>
<!-- n23&#45;&gt;n25 -->
<g id="edge5" class="edge">
<title>n23&#45;&gt;n25</title>
<path fill="none" stroke="black" d="M466.89,-103.61C456.95,-91.19 443.13,-73.91 431.84,-59.8"/>
<polygon fill="black" stroke="black" points="434.52,-57.54 425.54,-51.92 429.05,-61.92 434.52,-57.54"/>
<text text-anchor="middle" x="455" y="-73.8" font-family="Times,serif" font-size="14.00">d</text>
</g>
<!-- n33 -->
<g id="node7" class="node">
<title>n33</title>
<ellipse fill="none" stroke="black" cx="702" cy="-208" rx="38.19" ry="18"/>
<text text-anchor="middle" x="702" y="-204.3" font-family="Times,serif" font-size="14.00">t.x[1:]</text>
</g>
<!-- n34 -->
<g id="node8" class="node">
<title>n34</title>
<ellipse fill="none" stroke="black" cx="644" cy="-121" rx="96.38" ry="18"/>
<text text-anchor="middle" x="644" y="-117.3" font-family="Times,serif" font-size="14.00">[13, 17] = t.x.c[1:]</text>
</g>
<!-- n33&#45;&gt;n34 -->
<g id="edge6" class="edge">
<title>n33&#45;&gt;n34</title>
<path fill="none" stroke="black" d="M690.82,-190.61C682.42,-178.31 670.77,-161.23 661.19,-147.2"/>
<polygon fill="black" stroke="black" points="664.07,-145.21 655.55,-138.92 658.29,-149.15 664.07,-145.21"/>
<text text-anchor="middle" x="680" y="-160.8" font-family="Times,serif" font-size="14.00">c</text>
</g>
<!-- n35 -->
<g id="node9" class="node">
<title>n35</title>
<ellipse fill="none" stroke="black" cx="849" cy="-121" rx="90.98" ry="18"/>
<text text-anchor="middle" x="849" y="-117.3" font-family="Times,serif" font-size="14.00">[&#45;4, &#45;8] = t.x.d[1:]</text>
</g>
<!-- n33&#45;&gt;n35 -->
<g id="edge7" class="edge">
<title>n33&#45;&gt;n35</title>
<path fill="none" stroke="black" d="M725.29,-193.53C748.64,-180.03 784.94,-159.04 812.18,-143.29"/>
<polygon fill="black" stroke="black" points="814.14,-146.2 821.05,-138.16 810.64,-140.14 814.14,-146.2"/>
<text text-anchor="middle" x="789" y="-160.8" font-family="Times,serif" font-size="14.00">d</text>
</g>
</g>
</svg>
