<?xml version="1.0" encoding="UTF-8" standalone="no"?>
<!DOCTYPE svg PUBLIC "-//W3C//DTD SVG 1.1//EN"
 "http://www.w3.org/Graphics/SVG/1.1/DTD/svg11.dtd">
<!-- Generated by graphviz version 2.43.0 (0)
 -->
<!-- Title: shared_all_values Pages: 1 -->
<svg width="330pt" height="258pt"
 viewBox="0.00 0.00 330.40 258.00" xmlns="http://www.w3.org/2000/svg" xmlns:xlink="http://www.w3.org/1999/xlink">
<g id="graph0" class="graph" transform="scale(1 1) rotate(0) translate(4 254)">
<title>shared_all_values</title>
<polygon fill="transparent" stroke="transparent" points="-4,4 -4,-254 326.4,-254 326.4,4 -4,4"/>
<text text-anchor="middle" x="161.2" y="-7.8" font-family="Times,serif" font-size="14.00">Shared All Values</text>
<!-- node_7f5ccf76b850 -->
<g id="node1" class="node">
<title>node_7f5ccf76b850</title>
<polygon fill="#73ff7e" fill-opacity="0.600000" stroke="#3eb248" stroke-width="3" stroke-opacity="0.600000" points="216.01,-250 178.14,-232 216.01,-214 253.88,-232 216.01,-250"/>
<text text-anchor="middle" x="216.01" y="-228.3" font-family="Times-Roman bold" font-size="14.00" fill="#003304">st1</text>
</g>
<!-- value_7f5cd1151460 -->
<g id="node3" class="node">
<title>value_7f5cd1151460</title>
<polygon fill="#73ff7e" fill-opacity="0.600000" stroke="transparent" stroke-width="1.5" points="160.01,-163 106.01,-163 106.01,-127 160.01,-127 160.01,-163"/>
<text text-anchor="middle" x="133.01" y="-141.3" font-family="Times,serif" font-size="14.00" fill="#003304">1</text>
</g>
<!-- node_7f5ccf76b850&#45;&gt;value_7f5cd1151460 -->
<g id="edge1" class="edge">
<title>node_7f5ccf76b850&#45;&gt;value_7f5cd1151460</title>
<path fill="none" stroke="#1f9929" stroke-opacity="0.800000" d="M204.47,-219.18C191.19,-205.58 169.14,-183.01 153.05,-166.52"/>
<ellipse fill="#1f9929" fill-opacity="0.800000" stroke="#1f9929" stroke-opacity="0.800000" cx="151.31" cy="-164.74" rx="2" ry="2"/>
<text text-anchor="middle" x="184.01" y="-184.8" font-family="Times-Roman bold" font-size="14.00" fill="#00730a">a</text>
</g>
<!-- value_7f5cc7ad0960 -->
<g id="node4" class="node">
<title>value_7f5cc7ad0960</title>
<polygon fill="#73ff7e" fill-opacity="0.600000" stroke="transparent" stroke-width="1.5" points="232.01,-163 178.01,-163 178.01,-127 232.01,-127 232.01,-163"/>
<text text-anchor="middle" x="205.01" y="-141.3" font-family="Times,serif" font-size="14.00" fill="#003304">[1, 2]</text>
</g>
<!-- node_7f5ccf76b850&#45;&gt;value_7f5cc7ad0960 -->
<g id="edge2" class="edge">
<title>node_7f5ccf76b850&#45;&gt;value_7f5cc7ad0960</title>
<path fill="none" stroke="#1f9929" stroke-opacity="0.800000" d="M213.89,-214.61C212.14,-201.12 209.65,-181.89 207.75,-167.22"/>
<ellipse fill="#1f9929" fill-opacity="0.800000" stroke="#1f9929" stroke-opacity="0.800000" cx="207.49" cy="-165.2" rx="2" ry="2"/>
<text text-anchor="middle" x="216.01" y="-184.8" font-family="Times-Roman bold" font-size="14.00" fill="#00730a">b</text>
</g>
<!-- node_7f5ccf76b090 -->
<g id="node5" class="node">
<title>node_7f5ccf76b090</title>
<ellipse fill="#73ff7e" fill-opacity="0.600000" stroke="#3eb248" stroke-width="1.5" stroke-opacity="0.600000" cx="286.01" cy="-145" rx="36.29" ry="18"/>
<text text-anchor="middle" x="286.01" y="-141.3" font-family="Times-Roman bold" font-size="14.00" fill="#003304">st1.x</text>
</g>
<!-- node_7f5ccf76b850&#45;&gt;node_7f5ccf76b090 -->
<g id="edge3" class="edge">
<title>node_7f5ccf76b850&#45;&gt;node_7f5ccf76b090</title>
<path fill="none" stroke="#1f9929" stroke-opacity="0.800000" d="M226.34,-218.46C236.83,-205.72 253.34,-185.67 266.34,-169.88"/>
<polygon fill="#1f9929" fill-opacity="0.800000" stroke="#1f9929" stroke-opacity="0.800000" points="272.76,-162.08 269.88,-172.66 269.59,-165.94 266.41,-169.8 266.41,-169.8 266.41,-169.8 269.59,-165.94 262.93,-166.94 272.76,-162.08 272.76,-162.08"/>
<text text-anchor="middle" x="260.01" y="-184.8" font-family="Times-Roman bold" font-size="14.00" fill="#00730a">x</text>
</g>
<!-- node_7f5ccf76ba10 -->
<g id="node2" class="node">
<title>node_7f5ccf76ba10</title>
<polygon fill="#9673ff" fill-opacity="0.600000" stroke="#5b3eb2" stroke-width="3" stroke-opacity="0.600000" points="86.01,-250 48.14,-232 86.01,-214 123.88,-232 86.01,-250"/>
<text text-anchor="middle" x="86.01" y="-228.3" font-family="Times-Roman bold" font-size="14.00" fill="#0d0033">st2</text>
</g>
<!-- node_7f5ccf76ba10&#45;&gt;value_7f5cd1151460 -->
<g id="edge6" class="edge">
<title>node_7f5ccf76ba10&#45;&gt;value_7f5cd1151460</title>
<path fill="none" stroke="#3d1f99" stroke-opacity="0.800000" d="M92.65,-216.8C97.49,-206.69 104.35,-192.84 111.01,-181 113.64,-176.31 116.62,-171.37 119.51,-166.73"/>
<ellipse fill="#3d1f99" fill-opacity="0.800000" stroke="#3d1f99" stroke-opacity="0.800000" cx="120.64" cy="-164.94" rx="2" ry="2"/>
<text text-anchor="middle" x="116.01" y="-184.8" font-family="Times-Roman bold" font-size="14.00" fill="#1d0073">a</text>
</g>
<!-- node_7f5ccf76ba10&#45;&gt;value_7f5cc7ad0960 -->
<g id="edge5" class="edge">
<title>node_7f5ccf76ba10&#45;&gt;value_7f5cc7ad0960</title>
<path fill="none" stroke="#3d1f99" stroke-opacity="0.800000" d="M98.93,-219.77C111.22,-209.29 130.38,-193.44 148.01,-181 156.31,-175.14 165.59,-169.2 174.22,-163.91"/>
<ellipse fill="#3d1f99" fill-opacity="0.800000" stroke="#3d1f99" stroke-opacity="0.800000" cx="176.17" cy="-162.73" rx="2" ry="2"/>
<text text-anchor="middle" x="156.51" y="-184.8" font-family="Times-Roman bold" font-size="14.00" fill="#1d0073">ar</text>
</g>
<!-- value_7f5ccf8177b0 -->
<g id="node6" class="node">
<title>value_7f5ccf8177b0</title>
<polygon fill="#9673ff" fill-opacity="0.600000" stroke="transparent" stroke-width="1.5" points="148.01,-76 32.01,-76 32.01,-23 148.01,-23 148.01,-76"/>
<text text-anchor="middle" x="90.01" y="-60.8" font-family="Times,serif" font-size="14.00" fill="#0d0033">array([[0., 0.],</text>
<text text-anchor="middle" x="90.01" y="-45.8" font-family="Times,serif" font-size="14.00" fill="#0d0033"> &#160;&#160;&#160;&#160;&#160;&#160;[0., 0.],</text>
<text text-anchor="middle" x="90.01" y="-30.8" font-family="Times,serif" font-size="14.00" fill="#0d0033"> &#160;&#160;&#160;&#160;&#160;&#160;[0., 0.]])</text>
</g>
<!-- node_7f5ccf76ba10&#45;&gt;value_7f5ccf8177b0 -->
<g id="edge4" class="edge">
<title>node_7f5ccf76ba10&#45;&gt;value_7f5ccf8177b0</title>
<path fill="none" stroke="#3d1f99" stroke-opacity="0.800000" d="M68.14,-222.14C48.49,-211.26 17.96,-190.79 5.01,-163 -1.75,-148.5 -1.5,-141.62 5.01,-127 13.56,-107.79 29.59,-91.38 45.45,-78.74"/>
<ellipse fill="#3d1f99" fill-opacity="0.800000" stroke="#3d1f99" stroke-opacity="0.800000" cx="47.04" cy="-77.49" rx="2" ry="2"/>
<text text-anchor="middle" x="15.01" y="-141.3" font-family="Times-Roman bold" font-size="14.00" fill="#1d0073">np</text>
</g>
<!-- value_7f5cc7ad0500 -->
<g id="node7" class="node">
<title>value_7f5cc7ad0500</title>
<polygon fill="#9673ff" fill-opacity="0.600000" stroke="transparent" stroke-width="1.5" points="88.01,-163 34.01,-163 34.01,-127 88.01,-127 88.01,-163"/>
<text text-anchor="middle" x="61.01" y="-141.3" font-family="Times,serif" font-size="14.00" fill="#0d0033">[1, 2]</text>
</g>
<!-- node_7f5ccf76ba10&#45;&gt;value_7f5cc7ad0500 -->
<g id="edge7" class="edge">
<title>node_7f5ccf76ba10&#45;&gt;value_7f5cc7ad0500</title>
<path fill="none" stroke="#3d1f99" stroke-opacity="0.800000" d="M75.17,-218.99C70.15,-212.63 64.71,-204.42 62.01,-196 59.09,-186.91 58.49,-176.4 58.76,-167.37"/>
<ellipse fill="#3d1f99" fill-opacity="0.800000" stroke="#3d1f99" stroke-opacity="0.800000" cx="58.87" cy="-165.06" rx="2" ry="2"/>
<text text-anchor="middle" x="75.01" y="-184.8" font-family="Times-Roman bold" font-size="14.00" fill="#1d0073">arx</text>
</g>
<!-- node_7f5ccf76b090&#45;&gt;value_7f5ccf8177b0 -->
<g id="edge9" class="edge">
<title>node_7f5ccf76b090&#45;&gt;value_7f5ccf8177b0</title>
<path fill="none" stroke="#1f9929" stroke-opacity="0.800000" d="M260.79,-131.97C232.24,-118.35 184.82,-95.73 147.18,-77.78"/>
<ellipse fill="#1f9929" fill-opacity="0.800000" stroke="#1f9929" stroke-opacity="0.800000" cx="145.38" cy="-76.91" rx="2" ry="2"/>
<text text-anchor="middle" x="216.01" y="-97.8" font-family="Times-Roman bold" font-size="14.00" fill="#00730a">d</text>
</g>
<!-- value_7f5cd11514a0 -->
<g id="node8" class="node">
<title>value_7f5cd11514a0</title>
<polygon fill="#73ff7e" fill-opacity="0.600000" stroke="transparent" stroke-width="1.5" points="313.01,-67.5 259.01,-67.5 259.01,-31.5 313.01,-31.5 313.01,-67.5"/>
<text text-anchor="middle" x="286.01" y="-45.8" font-family="Times,serif" font-size="14.00" fill="#003304">3</text>
</g>
<!-- node_7f5ccf76b090&#45;&gt;value_7f5cd11514a0 -->
<g id="edge8" class="edge">
<title>node_7f5ccf76b090&#45;&gt;value_7f5cd11514a0</title>
<path fill="none" stroke="#1f9929" stroke-opacity="0.800000" d="M286.01,-126.85C286.01,-111.3 286.01,-88.32 286.01,-71.64"/>
<ellipse fill="#1f9929" fill-opacity="0.800000" stroke="#1f9929" stroke-opacity="0.800000" cx="286.01" cy="-69.54" rx="2" ry="2"/>
<text text-anchor="middle" x="290.51" y="-97.8" font-family="Times-Roman bold" font-size="14.00" fill="#00730a">c</text>
</g>
</g>
</svg>
