<?xml version="1.0" encoding="UTF-8" standalone="no"?>
<!DOCTYPE svg PUBLIC "-//W3C//DTD SVG 1.1//EN"
 "http://www.w3.org/Graphics/SVG/1.1/DTD/svg11.dtd">
<!-- Generated by graphviz version 2.43.0 (0)
 -->
<!-- Title: %3 Pages: 1 -->
<svg width="983pt" height="311pt"
 viewBox="0.00 0.00 983.00 311.00" xmlns="http://www.w3.org/2000/svg" xmlns:xlink="http://www.w3.org/1999/xlink">
<g id="graph0" class="graph" transform="scale(1 1) rotate(0) translate(4 307)">
<title>%3</title>
<polygon fill="transparent" stroke="transparent" points="-4,4 -4,-307 979,-307 979,4 -4,4"/>
<text text-anchor="middle" x="487.5" y="-22.8" font-family="Times,serif" font-size="14.00">strict_demo_1 </text>
<text text-anchor="middle" x="487.5" y="-7.8" font-family="Times,serif" font-size="14.00">(Runnable, t3 is sum of t1 and t2)</text>
<g id="clust1" class="cluster">
<title>cluster_t1</title>
<polygon fill="transparent" stroke="black" points="8,-46 8,-295 226,-295 226,-46 8,-46"/>
<text text-anchor="middle" x="117" y="-279.8" font-family="Times,serif" font-size="14.00">Tree t1</text>
</g>
<g id="clust2" class="cluster">
<title>cluster_t2</title>
<polygon fill="transparent" stroke="black" points="234,-46 234,-295 452,-295 452,-46 234,-46"/>
<text text-anchor="middle" x="343" y="-279.8" font-family="Times,serif" font-size="14.00">Tree t2</text>
</g>
<g id="clust3" class="cluster">
<title>cluster_t3</title>
<polygon fill="transparent" stroke="black" points="460,-46 460,-295 967,-295 967,-46 460,-46"/>
<text text-anchor="middle" x="713.5" y="-279.8" font-family="Times,serif" font-size="14.00">Tree t3</text>
</g>
<!-- t1 -->
<g id="node1" class="node">
<title>t1</title>
<ellipse fill="none" stroke="black" cx="115" cy="-246" rx="27" ry="18"/>
<text text-anchor="middle" x="115" y="-242.3" font-family="Times,serif" font-size="14.00">t1</text>
</g>
<!-- t1_a -->
<g id="node2" class="node">
<title>t1_a</title>
<ellipse fill="none" stroke="black" cx="43" cy="-159" rx="27" ry="18"/>
<text text-anchor="middle" x="43" y="-155.3" font-family="Times,serif" font-size="14.00">1</text>
</g>
<!-- t1&#45;&gt;t1_a -->
<g id="edge1" class="edge">
<title>t1&#45;&gt;t1_a</title>
<path fill="none" stroke="black" d="M102.13,-229.8C91.07,-216.75 74.96,-197.74 62.35,-182.85"/>
<polygon fill="black" stroke="black" points="64.89,-180.43 55.76,-175.06 59.55,-184.96 64.89,-180.43"/>
<text text-anchor="middle" x="87.5" y="-198.8" font-family="Times,serif" font-size="14.00">a</text>
</g>
<!-- t1_b -->
<g id="node3" class="node">
<title>t1_b</title>
<ellipse fill="none" stroke="black" cx="115" cy="-159" rx="27" ry="18"/>
<text text-anchor="middle" x="115" y="-155.3" font-family="Times,serif" font-size="14.00">2</text>
</g>
<!-- t1&#45;&gt;t1_b -->
<g id="edge2" class="edge">
<title>t1&#45;&gt;t1_b</title>
<path fill="none" stroke="black" d="M115,-227.8C115,-216.16 115,-200.55 115,-187.24"/>
<polygon fill="black" stroke="black" points="118.5,-187.18 115,-177.18 111.5,-187.18 118.5,-187.18"/>
<text text-anchor="middle" x="120" y="-198.8" font-family="Times,serif" font-size="14.00">b</text>
</g>
<!-- t1_x -->
<g id="node4" class="node">
<title>t1_x</title>
<ellipse fill="none" stroke="black" cx="189" cy="-159" rx="28.7" ry="18"/>
<text text-anchor="middle" x="189" y="-155.3" font-family="Times,serif" font-size="14.00">t1.x</text>
</g>
<!-- t1&#45;&gt;t1_x -->
<g id="edge3" class="edge">
<title>t1&#45;&gt;t1_x</title>
<path fill="none" stroke="black" d="M128.23,-229.8C139.59,-216.75 156.15,-197.74 169.11,-182.85"/>
<polygon fill="black" stroke="black" points="171.96,-184.91 175.88,-175.06 166.68,-180.31 171.96,-184.91"/>
<text text-anchor="middle" x="160.5" y="-198.8" font-family="Times,serif" font-size="14.00">x</text>
</g>
<!-- t1_x_c -->
<g id="node5" class="node">
<title>t1_x_c</title>
<ellipse fill="none" stroke="black" cx="47" cy="-72" rx="27" ry="18"/>
<text text-anchor="middle" x="47" y="-68.3" font-family="Times,serif" font-size="14.00">3</text>
</g>
<!-- t1_x&#45;&gt;t1_x_c -->
<g id="edge4" class="edge">
<title>t1_x&#45;&gt;t1_x_c</title>
<path fill="none" stroke="black" d="M168.96,-146C144.5,-131.37 103.01,-106.53 75.31,-89.94"/>
<polygon fill="black" stroke="black" points="76.86,-86.8 66.49,-84.66 73.27,-92.8 76.86,-86.8"/>
<text text-anchor="middle" x="130" y="-111.8" font-family="Times,serif" font-size="14.00">c</text>
</g>
<!-- t1_x_d -->
<g id="node6" class="node">
<title>t1_x_d</title>
<ellipse fill="none" stroke="black" cx="119" cy="-72" rx="27" ry="18"/>
<text text-anchor="middle" x="119" y="-68.3" font-family="Times,serif" font-size="14.00">4</text>
</g>
<!-- t1_x&#45;&gt;t1_x_d -->
<g id="edge5" class="edge">
<title>t1_x&#45;&gt;t1_x_d</title>
<path fill="none" stroke="black" d="M176.49,-142.8C165.73,-129.75 150.08,-110.74 137.82,-95.85"/>
<polygon fill="black" stroke="black" points="140.47,-93.56 131.41,-88.06 135.06,-98.01 140.47,-93.56"/>
<text text-anchor="middle" x="163" y="-111.8" font-family="Times,serif" font-size="14.00">d</text>
</g>
<!-- t1_x_e -->
<g id="node7" class="node">
<title>t1_x_e</title>
<ellipse fill="none" stroke="black" cx="191" cy="-72" rx="27" ry="18"/>
<text text-anchor="middle" x="191" y="-68.3" font-family="Times,serif" font-size="14.00">5</text>
</g>
<!-- t1_x&#45;&gt;t1_x_e -->
<g id="edge6" class="edge">
<title>t1_x&#45;&gt;t1_x_e</title>
<path fill="none" stroke="black" d="M189.4,-140.8C189.68,-129.16 190.05,-113.55 190.36,-100.24"/>
<polygon fill="black" stroke="black" points="193.86,-100.26 190.6,-90.18 186.86,-100.09 193.86,-100.26"/>
<text text-anchor="middle" x="194.5" y="-111.8" font-family="Times,serif" font-size="14.00">e</text>
</g>
<!-- t2 -->
<g id="node8" class="node">
<title>t2</title>
<ellipse fill="none" stroke="black" cx="341" cy="-246" rx="27" ry="18"/>
<text text-anchor="middle" x="341" y="-242.3" font-family="Times,serif" font-size="14.00">t2</text>
</g>
<!-- t2_a -->
<g id="node9" class="node">
<title>t2_a</title>
<ellipse fill="none" stroke="black" cx="269" cy="-159" rx="27" ry="18"/>
<text text-anchor="middle" x="269" y="-155.3" font-family="Times,serif" font-size="14.00">11</text>
</g>
<!-- t2&#45;&gt;t2_a -->
<g id="edge7" class="edge">
<title>t2&#45;&gt;t2_a</title>
<path fill="none" stroke="black" d="M328.13,-229.8C317.07,-216.75 300.96,-197.74 288.35,-182.85"/>
<polygon fill="black" stroke="black" points="290.89,-180.43 281.76,-175.06 285.55,-184.96 290.89,-180.43"/>
<text text-anchor="middle" x="313.5" y="-198.8" font-family="Times,serif" font-size="14.00">a</text>
</g>
<!-- t2_b -->
<g id="node10" class="node">
<title>t2_b</title>
<ellipse fill="none" stroke="black" cx="341" cy="-159" rx="27" ry="18"/>
<text text-anchor="middle" x="341" y="-155.3" font-family="Times,serif" font-size="14.00">22</text>
</g>
<!-- t2&#45;&gt;t2_b -->
<g id="edge8" class="edge">
<title>t2&#45;&gt;t2_b</title>
<path fill="none" stroke="black" d="M341,-227.8C341,-216.16 341,-200.55 341,-187.24"/>
<polygon fill="black" stroke="black" points="344.5,-187.18 341,-177.18 337.5,-187.18 344.5,-187.18"/>
<text text-anchor="middle" x="346" y="-198.8" font-family="Times,serif" font-size="14.00">b</text>
</g>
<!-- t2_x -->
<g id="node11" class="node">
<title>t2_x</title>
<ellipse fill="none" stroke="black" cx="415" cy="-159" rx="28.7" ry="18"/>
<text text-anchor="middle" x="415" y="-155.3" font-family="Times,serif" font-size="14.00">t2.x</text>
</g>
<!-- t2&#45;&gt;t2_x -->
<g id="edge9" class="edge">
<title>t2&#45;&gt;t2_x</title>
<path fill="none" stroke="black" d="M354.23,-229.8C365.59,-216.75 382.15,-197.74 395.11,-182.85"/>
<polygon fill="black" stroke="black" points="397.96,-184.91 401.88,-175.06 392.68,-180.31 397.96,-184.91"/>
<text text-anchor="middle" x="386.5" y="-198.8" font-family="Times,serif" font-size="14.00">x</text>
</g>
<!-- t2_x_c -->
<g id="node12" class="node">
<title>t2_x_c</title>
<ellipse fill="none" stroke="black" cx="273" cy="-72" rx="27" ry="18"/>
<text text-anchor="middle" x="273" y="-68.3" font-family="Times,serif" font-size="14.00">30</text>
</g>
<!-- t2_x&#45;&gt;t2_x_c -->
<g id="edge10" class="edge">
<title>t2_x&#45;&gt;t2_x_c</title>
<path fill="none" stroke="black" d="M394.96,-146C370.5,-131.37 329.01,-106.53 301.31,-89.94"/>
<polygon fill="black" stroke="black" points="302.86,-86.8 292.49,-84.66 299.27,-92.8 302.86,-86.8"/>
<text text-anchor="middle" x="356" y="-111.8" font-family="Times,serif" font-size="14.00">c</text>
</g>
<!-- t2_x_d -->
<g id="node13" class="node">
<title>t2_x_d</title>
<ellipse fill="none" stroke="black" cx="345" cy="-72" rx="27" ry="18"/>
<text text-anchor="middle" x="345" y="-68.3" font-family="Times,serif" font-size="14.00">48</text>
</g>
<!-- t2_x&#45;&gt;t2_x_d -->
<g id="edge11" class="edge">
<title>t2_x&#45;&gt;t2_x_d</title>
<path fill="none" stroke="black" d="M402.49,-142.8C391.73,-129.75 376.08,-110.74 363.82,-95.85"/>
<polygon fill="black" stroke="black" points="366.47,-93.56 357.41,-88.06 361.06,-98.01 366.47,-93.56"/>
<text text-anchor="middle" x="389" y="-111.8" font-family="Times,serif" font-size="14.00">d</text>
</g>
<!-- t2_x_e -->
<g id="node14" class="node">
<title>t2_x_e</title>
<ellipse fill="none" stroke="black" cx="417" cy="-72" rx="27" ry="18"/>
<text text-anchor="middle" x="417" y="-68.3" font-family="Times,serif" font-size="14.00">54</text>
</g>
<!-- t2_x&#45;&gt;t2_x_e -->
<g id="edge12" class="edge">
<title>t2_x&#45;&gt;t2_x_e</title>
<path fill="none" stroke="black" d="M415.4,-140.8C415.68,-129.16 416.05,-113.55 416.36,-100.24"/>
<polygon fill="black" stroke="black" points="419.86,-100.26 416.6,-90.18 412.86,-100.09 419.86,-100.26"/>
<text text-anchor="middle" x="420.5" y="-111.8" font-family="Times,serif" font-size="14.00">e</text>
</g>
<!-- t3 -->
<g id="node15" class="node">
<title>t3</title>
<ellipse fill="none" stroke="black" cx="689" cy="-246" rx="67.69" ry="18"/>
<text text-anchor="middle" x="689" y="-242.3" font-family="Times,serif" font-size="14.00">t3 = t1 + t2</text>
</g>
<!-- t3_a -->
<g id="node16" class="node">
<title>t3_a</title>
<ellipse fill="none" stroke="black" cx="536" cy="-159" rx="67.69" ry="18"/>
<text text-anchor="middle" x="536" y="-155.3" font-family="Times,serif" font-size="14.00">12 = 1 + 11</text>
</g>
<!-- t3&#45;&gt;t3_a -->
<g id="edge13" class="edge">
<title>t3&#45;&gt;t3_a</title>
<path fill="none" stroke="black" d="M660.94,-229.41C636.14,-215.63 599.79,-195.44 572.69,-180.38"/>
<polygon fill="black" stroke="black" points="574.33,-177.29 563.88,-175.49 570.93,-183.41 574.33,-177.29"/>
<text text-anchor="middle" x="625.5" y="-198.8" font-family="Times,serif" font-size="14.00">a</text>
</g>
<!-- t3_b -->
<g id="node17" class="node">
<title>t3_b</title>
<ellipse fill="none" stroke="black" cx="689" cy="-159" rx="67.69" ry="18"/>
<text text-anchor="middle" x="689" y="-155.3" font-family="Times,serif" font-size="14.00">24 = 2 + 22</text>
</g>
<!-- t3&#45;&gt;t3_b -->
<g id="edge14" class="edge">
<title>t3&#45;&gt;t3_b</title>
<path fill="none" stroke="black" d="M689,-227.8C689,-216.16 689,-200.55 689,-187.24"/>
<polygon fill="black" stroke="black" points="692.5,-187.18 689,-177.18 685.5,-187.18 692.5,-187.18"/>
<text text-anchor="middle" x="694" y="-198.8" font-family="Times,serif" font-size="14.00">b</text>
</g>
<!-- t3_x -->
<g id="node18" class="node">
<title>t3_x</title>
<ellipse fill="none" stroke="black" cx="867" cy="-159" rx="92.08" ry="18"/>
<text text-anchor="middle" x="867" y="-155.3" font-family="Times,serif" font-size="14.00">t3.x = t1.x + t2.x</text>
</g>
<!-- t3&#45;&gt;t3_x -->
<g id="edge15" class="edge">
<title>t3&#45;&gt;t3_x</title>
<path fill="none" stroke="black" d="M720.41,-230C749.39,-216.16 792.64,-195.51 824.66,-180.22"/>
<polygon fill="black" stroke="black" points="826.27,-183.33 833.79,-175.86 823.26,-177.01 826.27,-183.33"/>
<text text-anchor="middle" x="792.5" y="-198.8" font-family="Times,serif" font-size="14.00">x</text>
</g>
<!-- t3_x_c -->
<g id="node19" class="node">
<title>t3_x_c</title>
<ellipse fill="none" stroke="black" cx="585" cy="-72" rx="67.69" ry="18"/>
<text text-anchor="middle" x="585" y="-68.3" font-family="Times,serif" font-size="14.00">33 = 3 + 30</text>
</g>
<!-- t3_x&#45;&gt;t3_x_c -->
<g id="edge16" class="edge">
<title>t3_x&#45;&gt;t3_x_c</title>
<path fill="none" stroke="black" d="M819.16,-143.58C768.82,-128.41 689.8,-104.59 637.7,-88.89"/>
<polygon fill="black" stroke="black" points="638.57,-85.49 627.98,-85.96 636.55,-92.19 638.57,-85.49"/>
<text text-anchor="middle" x="746" y="-111.8" font-family="Times,serif" font-size="14.00">c</text>
</g>
<!-- t3_x_d -->
<g id="node20" class="node">
<title>t3_x_d</title>
<ellipse fill="none" stroke="black" cx="738" cy="-72" rx="67.69" ry="18"/>
<text text-anchor="middle" x="738" y="-68.3" font-family="Times,serif" font-size="14.00">52 = 4 + 48</text>
</g>
<!-- t3_x&#45;&gt;t3_x_d -->
<g id="edge17" class="edge">
<title>t3_x&#45;&gt;t3_x_d</title>
<path fill="none" stroke="black" d="M842.13,-141.61C821.83,-128.24 792.99,-109.23 770.81,-94.62"/>
<polygon fill="black" stroke="black" points="772.63,-91.63 762.36,-89.05 768.78,-97.48 772.63,-91.63"/>
<text text-anchor="middle" x="815" y="-111.8" font-family="Times,serif" font-size="14.00">d</text>
</g>
<!-- t3_x_e -->
<g id="node21" class="node">
<title>t3_x_e</title>
<ellipse fill="none" stroke="black" cx="891" cy="-72" rx="67.69" ry="18"/>
<text text-anchor="middle" x="891" y="-68.3" font-family="Times,serif" font-size="14.00">59 = 5 + 54</text>
</g>
<!-- t3_x&#45;&gt;t3_x_e -->
<g id="edge18" class="edge">
<title>t3_x&#45;&gt;t3_x_e</title>
<path fill="none" stroke="black" d="M871.86,-140.8C875.17,-129.05 879.64,-113.24 883.42,-99.84"/>
<polygon fill="black" stroke="black" points="886.8,-100.75 886.15,-90.18 880.06,-98.85 886.8,-100.75"/>
<text text-anchor="middle" x="884.5" y="-111.8" font-family="Times,serif" font-size="14.00">e</text>
</g>
</g>
</svg>
