<?xml version="1.0" encoding="UTF-8" standalone="no"?>
<!DOCTYPE svg PUBLIC "-//W3C//DTD SVG 1.1//EN"
 "http://www.w3.org/Graphics/SVG/1.1/DTD/svg11.dtd">
<!-- Generated by graphviz version 2.43.0 (0)
 -->
<!-- Title: edit_tree Pages: 1 -->
<svg width="690pt" height="273pt"
 viewBox="0.00 0.00 690.00 273.00" xmlns="http://www.w3.org/2000/svg" xmlns:xlink="http://www.w3.org/1999/xlink">
<g id="graph0" class="graph" transform="scale(1 1) rotate(0) translate(4 269)">
<title>edit_tree</title>
<polygon fill="transparent" stroke="transparent" points="-4,4 -4,-269 686,-269 686,4 -4,4"/>
<g id="clust1" class="cluster">
<title>cluster_original</title>
<polygon fill="transparent" stroke="black" points="8,-8 8,-257 222,-257 222,-8 8,-8"/>
<text text-anchor="middle" x="115" y="-241.8" font-family="Times,serif" font-size="14.00">(0) Original tree &#39;t&#39;</text>
</g>
<g id="clust2" class="cluster">
<title>cluster_step1</title>
<polygon fill="transparent" stroke="black" points="230,-8 230,-257 448,-257 448,-8 230,-8"/>
<text text-anchor="middle" x="339" y="-241.8" font-family="Times,serif" font-size="14.00">(1) After t.a = 233</text>
</g>
<g id="clust3" class="cluster">
<title>cluster_step2</title>
<polygon fill="transparent" stroke="black" points="456,-8 456,-257 674,-257 674,-8 456,-8"/>
<text text-anchor="middle" x="565" y="-241.8" font-family="Times,serif" font-size="14.00">(2) After t.x.d = &#45;1</text>
</g>
<!-- root0 -->
<g id="node1" class="node">
<title>root0</title>
<ellipse fill="none" stroke="black" cx="115" cy="-208" rx="27" ry="18"/>
<text text-anchor="middle" x="115" y="-204.3" font-family="Times,serif" font-size="14.00">t</text>
</g>
<!-- n01 -->
<g id="node2" class="node">
<title>n01</title>
<ellipse fill="none" stroke="black" cx="43" cy="-121" rx="27" ry="18"/>
<text text-anchor="middle" x="43" y="-117.3" font-family="Times,serif" font-size="14.00">1</text>
</g>
<!-- root0&#45;&gt;n01 -->
<g id="edge1" class="edge">
<title>root0&#45;&gt;n01</title>
<path fill="none" stroke="black" d="M102.13,-191.8C91.07,-178.75 74.96,-159.74 62.35,-144.85"/>
<polygon fill="black" stroke="black" points="64.89,-142.43 55.76,-137.06 59.55,-146.96 64.89,-142.43"/>
<text text-anchor="middle" x="87.5" y="-160.8" font-family="Times,serif" font-size="14.00">a</text>
</g>
<!-- n02 -->
<g id="node3" class="node">
<title>n02</title>
<ellipse fill="none" stroke="black" cx="115" cy="-121" rx="27" ry="18"/>
<text text-anchor="middle" x="115" y="-117.3" font-family="Times,serif" font-size="14.00">2</text>
</g>
<!-- root0&#45;&gt;n02 -->
<g id="edge2" class="edge">
<title>root0&#45;&gt;n02</title>
<path fill="none" stroke="black" d="M115,-189.8C115,-178.16 115,-162.55 115,-149.24"/>
<polygon fill="black" stroke="black" points="118.5,-149.18 115,-139.18 111.5,-149.18 118.5,-149.18"/>
<text text-anchor="middle" x="120" y="-160.8" font-family="Times,serif" font-size="14.00">b</text>
</g>
<!-- n03 -->
<g id="node4" class="node">
<title>n03</title>
<ellipse fill="none" stroke="black" cx="187" cy="-121" rx="27" ry="18"/>
<text text-anchor="middle" x="187" y="-117.3" font-family="Times,serif" font-size="14.00">t.x</text>
</g>
<!-- root0&#45;&gt;n03 -->
<g id="edge3" class="edge">
<title>root0&#45;&gt;n03</title>
<path fill="none" stroke="black" d="M127.87,-191.8C138.93,-178.75 155.04,-159.74 167.65,-144.85"/>
<polygon fill="black" stroke="black" points="170.45,-146.96 174.24,-137.06 165.11,-142.43 170.45,-146.96"/>
<text text-anchor="middle" x="159.5" y="-160.8" font-family="Times,serif" font-size="14.00">x</text>
</g>
<!-- n04 -->
<g id="node5" class="node">
<title>n04</title>
<ellipse fill="none" stroke="black" cx="115" cy="-34" rx="27" ry="18"/>
<text text-anchor="middle" x="115" y="-30.3" font-family="Times,serif" font-size="14.00">3</text>
</g>
<!-- n03&#45;&gt;n04 -->
<g id="edge4" class="edge">
<title>n03&#45;&gt;n04</title>
<path fill="none" stroke="black" d="M174.13,-104.8C163.07,-91.75 146.96,-72.74 134.35,-57.85"/>
<polygon fill="black" stroke="black" points="136.89,-55.43 127.76,-50.06 131.55,-59.96 136.89,-55.43"/>
<text text-anchor="middle" x="159" y="-73.8" font-family="Times,serif" font-size="14.00">c</text>
</g>
<!-- n05 -->
<g id="node6" class="node">
<title>n05</title>
<ellipse fill="none" stroke="black" cx="187" cy="-34" rx="27" ry="18"/>
<text text-anchor="middle" x="187" y="-30.3" font-family="Times,serif" font-size="14.00">4</text>
</g>
<!-- n03&#45;&gt;n05 -->
<g id="edge5" class="edge">
<title>n03&#45;&gt;n05</title>
<path fill="none" stroke="black" d="M187,-102.8C187,-91.16 187,-75.55 187,-62.24"/>
<polygon fill="black" stroke="black" points="190.5,-62.18 187,-52.18 183.5,-62.18 190.5,-62.18"/>
<text text-anchor="middle" x="192" y="-73.8" font-family="Times,serif" font-size="14.00">d</text>
</g>
<!-- root1 -->
<g id="node7" class="node">
<title>root1</title>
<ellipse fill="none" stroke="black" cx="341" cy="-208" rx="27" ry="18"/>
<text text-anchor="middle" x="341" y="-204.3" font-family="Times,serif" font-size="14.00">t</text>
</g>
<!-- n11 -->
<g id="node8" class="node">
<title>n11</title>
<ellipse fill="none" stroke="black" cx="267" cy="-121" rx="28.7" ry="18"/>
<text text-anchor="middle" x="267" y="-117.3" font-family="Times,serif" font-size="14.00">233</text>
</g>
<!-- root1&#45;&gt;n11 -->
<g id="edge6" class="edge">
<title>root1&#45;&gt;n11</title>
<path fill="none" stroke="black" d="M327.77,-191.8C316.41,-178.75 299.85,-159.74 286.89,-144.85"/>
<polygon fill="black" stroke="black" points="289.32,-142.31 280.12,-137.06 284.04,-146.91 289.32,-142.31"/>
<text text-anchor="middle" x="312.5" y="-160.8" font-family="Times,serif" font-size="14.00">a</text>
</g>
<!-- n12 -->
<g id="node9" class="node">
<title>n12</title>
<ellipse fill="none" stroke="black" cx="341" cy="-121" rx="27" ry="18"/>
<text text-anchor="middle" x="341" y="-117.3" font-family="Times,serif" font-size="14.00">2</text>
</g>
<!-- root1&#45;&gt;n12 -->
<g id="edge7" class="edge">
<title>root1&#45;&gt;n12</title>
<path fill="none" stroke="black" d="M341,-189.8C341,-178.16 341,-162.55 341,-149.24"/>
<polygon fill="black" stroke="black" points="344.5,-149.18 341,-139.18 337.5,-149.18 344.5,-149.18"/>
<text text-anchor="middle" x="346" y="-160.8" font-family="Times,serif" font-size="14.00">b</text>
</g>
<!-- n13 -->
<g id="node10" class="node">
<title>n13</title>
<ellipse fill="none" stroke="black" cx="413" cy="-121" rx="27" ry="18"/>
<text text-anchor="middle" x="413" y="-117.3" font-family="Times,serif" font-size="14.00">t.x</text>
</g>
<!-- root1&#45;&gt;n13 -->
<g id="edge8" class="edge">
<title>root1&#45;&gt;n13</title>
<path fill="none" stroke="black" d="M353.87,-191.8C364.93,-178.75 381.04,-159.74 393.65,-144.85"/>
<polygon fill="black" stroke="black" points="396.45,-146.96 400.24,-137.06 391.11,-142.43 396.45,-146.96"/>
<text text-anchor="middle" x="385.5" y="-160.8" font-family="Times,serif" font-size="14.00">x</text>
</g>
<!-- n14 -->
<g id="node11" class="node">
<title>n14</title>
<ellipse fill="none" stroke="black" cx="341" cy="-34" rx="27" ry="18"/>
<text text-anchor="middle" x="341" y="-30.3" font-family="Times,serif" font-size="14.00">3</text>
</g>
<!-- n13&#45;&gt;n14 -->
<g id="edge9" class="edge">
<title>n13&#45;&gt;n14</title>
<path fill="none" stroke="black" d="M400.13,-104.8C389.07,-91.75 372.96,-72.74 360.35,-57.85"/>
<polygon fill="black" stroke="black" points="362.89,-55.43 353.76,-50.06 357.55,-59.96 362.89,-55.43"/>
<text text-anchor="middle" x="385" y="-73.8" font-family="Times,serif" font-size="14.00">c</text>
</g>
<!-- n15 -->
<g id="node12" class="node">
<title>n15</title>
<ellipse fill="none" stroke="black" cx="413" cy="-34" rx="27" ry="18"/>
<text text-anchor="middle" x="413" y="-30.3" font-family="Times,serif" font-size="14.00">4</text>
</g>
<!-- n13&#45;&gt;n15 -->
<g id="edge10" class="edge">
<title>n13&#45;&gt;n15</title>
<path fill="none" stroke="black" d="M413,-102.8C413,-91.16 413,-75.55 413,-62.24"/>
<polygon fill="black" stroke="black" points="416.5,-62.18 413,-52.18 409.5,-62.18 416.5,-62.18"/>
<text text-anchor="middle" x="418" y="-73.8" font-family="Times,serif" font-size="14.00">d</text>
</g>
<!-- root2 -->
<g id="node13" class="node">
<title>root2</title>
<ellipse fill="none" stroke="black" cx="567" cy="-208" rx="27" ry="18"/>
<text text-anchor="middle" x="567" y="-204.3" font-family="Times,serif" font-size="14.00">t</text>
</g>
<!-- n21 -->
<g id="node14" class="node">
<title>n21</title>
<ellipse fill="none" stroke="black" cx="493" cy="-121" rx="28.7" ry="18"/>
<text text-anchor="middle" x="493" y="-117.3" font-family="Times,serif" font-size="14.00">233</text>
</g>
<!-- root2&#45;&gt;n21 -->
<g id="edge11" class="edge">
<title>root2&#45;&gt;n21</title>
<path fill="none" stroke="black" d="M553.77,-191.8C542.41,-178.75 525.85,-159.74 512.89,-144.85"/>
<polygon fill="black" stroke="black" points="515.32,-142.31 506.12,-137.06 510.04,-146.91 515.32,-142.31"/>
<text text-anchor="middle" x="538.5" y="-160.8" font-family="Times,serif" font-size="14.00">a</text>
</g>
<!-- n22 -->
<g id="node15" class="node">
<title>n22</title>
<ellipse fill="none" stroke="black" cx="567" cy="-121" rx="27" ry="18"/>
<text text-anchor="middle" x="567" y="-117.3" font-family="Times,serif" font-size="14.00">2</text>
</g>
<!-- root2&#45;&gt;n22 -->
<g id="edge12" class="edge">
<title>root2&#45;&gt;n22</title>
<path fill="none" stroke="black" d="M567,-189.8C567,-178.16 567,-162.55 567,-149.24"/>
<polygon fill="black" stroke="black" points="570.5,-149.18 567,-139.18 563.5,-149.18 570.5,-149.18"/>
<text text-anchor="middle" x="572" y="-160.8" font-family="Times,serif" font-size="14.00">b</text>
</g>
<!-- n23 -->
<g id="node16" class="node">
<title>n23</title>
<ellipse fill="none" stroke="black" cx="639" cy="-121" rx="27" ry="18"/>
<text text-anchor="middle" x="639" y="-117.3" font-family="Times,serif" font-size="14.00">t.x</text>
</g>
<!-- root2&#45;&gt;n23 -->
<g id="edge13" class="edge">
<title>root2&#45;&gt;n23</title>
<path fill="none" stroke="black" d="M579.87,-191.8C590.93,-178.75 607.04,-159.74 619.65,-144.85"/>
<polygon fill="black" stroke="black" points="622.45,-146.96 626.24,-137.06 617.11,-142.43 622.45,-146.96"/>
<text text-anchor="middle" x="611.5" y="-160.8" font-family="Times,serif" font-size="14.00">x</text>
</g>
<!-- n24 -->
<g id="node17" class="node">
<title>n24</title>
<ellipse fill="none" stroke="black" cx="567" cy="-34" rx="27" ry="18"/>
<text text-anchor="middle" x="567" y="-30.3" font-family="Times,serif" font-size="14.00">3</text>
</g>
<!-- n23&#45;&gt;n24 -->
<g id="edge14" class="edge">
<title>n23&#45;&gt;n24</title>
<path fill="none" stroke="black" d="M626.13,-104.8C615.07,-91.75 598.96,-72.74 586.35,-57.85"/>
<polygon fill="black" stroke="black" points="588.89,-55.43 579.76,-50.06 583.55,-59.96 588.89,-55.43"/>
<text text-anchor="middle" x="611" y="-73.8" font-family="Times,serif" font-size="14.00">c</text>
</g>
<!-- n25 -->
<g id="node18" class="node">
<title>n25</title>
<ellipse fill="none" stroke="black" cx="639" cy="-34" rx="27" ry="18"/>
<text text-anchor="middle" x="639" y="-30.3" font-family="Times,serif" font-size="14.00">&#45;1</text>
</g>
<!-- n23&#45;&gt;n25 -->
<g id="edge15" class="edge">
<title>n23&#45;&gt;n25</title>
<path fill="none" stroke="black" d="M639,-102.8C639,-91.16 639,-75.55 639,-62.24"/>
<polygon fill="black" stroke="black" points="642.5,-62.18 639,-52.18 635.5,-62.18 642.5,-62.18"/>
<text text-anchor="middle" x="644" y="-73.8" font-family="Times,serif" font-size="14.00">d</text>
</g>
</g>
</svg>
