<?xml version="1.0" encoding="UTF-8" standalone="no"?>
<!DOCTYPE svg PUBLIC "-//W3C//DTD SVG 1.1//EN"
 "http://www.w3.org/Graphics/SVG/1.1/DTD/svg11.dtd">
<!-- Generated by graphviz version 2.43.0 (0)
 -->
<!-- Title: %3 Pages: 1 -->
<svg width="733pt" height="311pt"
 viewBox="0.00 0.00 733.00 311.00" xmlns="http://www.w3.org/2000/svg" xmlns:xlink="http://www.w3.org/1999/xlink">
<g id="graph0" class="graph" transform="scale(1 1) rotate(0) translate(4 307)">
<title>%3</title>
<polygon fill="transparent" stroke="transparent" points="-4,4 -4,-307 729,-307 729,4 -4,4"/>
<text text-anchor="middle" x="362.5" y="-22.8" font-family="Times,serif" font-size="14.00">inherit_demo_2 </text>
<text text-anchor="middle" x="362.5" y="-7.8" font-family="Times,serif" font-size="14.00">(Runnable, t2 is sum of t1 and 5 due to enablement of inheriting)</text>
<g id="clust1" class="cluster">
<title>cluster_t1</title>
<polygon fill="transparent" stroke="black" points="8,-46 8,-295 226,-295 226,-46 8,-46"/>
<text text-anchor="middle" x="117" y="-279.8" font-family="Times,serif" font-size="14.00">Tree t1</text>
</g>
<g id="clust2" class="cluster">
<title>cluster_t2</title>
<polygon fill="transparent" stroke="black" points="234,-46 234,-295 717,-295 717,-46 234,-46"/>
<text text-anchor="middle" x="475.5" y="-279.8" font-family="Times,serif" font-size="14.00">Tree t2</text>
</g>
<!-- t1 -->
<g id="node1" class="node">
<title>t1</title>
<ellipse fill="none" stroke="black" cx="115" cy="-246" rx="27" ry="18"/>
<text text-anchor="middle" x="115" y="-242.3" font-family="Times,serif" font-size="14.00">t1</text>
</g>
<!-- t1_a -->
<g id="node2" class="node">
<title>t1_a</title>
<ellipse fill="none" stroke="black" cx="43" cy="-159" rx="27" ry="18"/>
<text text-anchor="middle" x="43" y="-155.3" font-family="Times,serif" font-size="14.00">11</text>
</g>
<!-- t1&#45;&gt;t1_a -->
<g id="edge1" class="edge">
<title>t1&#45;&gt;t1_a</title>
<path fill="none" stroke="black" d="M102.13,-229.8C91.07,-216.75 74.96,-197.74 62.35,-182.85"/>
<polygon fill="black" stroke="black" points="64.89,-180.43 55.76,-175.06 59.55,-184.96 64.89,-180.43"/>
<text text-anchor="middle" x="87.5" y="-198.8" font-family="Times,serif" font-size="14.00">a</text>
</g>
<!-- t1_b -->
<g id="node3" class="node">
<title>t1_b</title>
<ellipse fill="none" stroke="black" cx="115" cy="-159" rx="27" ry="18"/>
<text text-anchor="middle" x="115" y="-155.3" font-family="Times,serif" font-size="14.00">22</text>
</g>
<!-- t1&#45;&gt;t1_b -->
<g id="edge2" class="edge">
<title>t1&#45;&gt;t1_b</title>
<path fill="none" stroke="black" d="M115,-227.8C115,-216.16 115,-200.55 115,-187.24"/>
<polygon fill="black" stroke="black" points="118.5,-187.18 115,-177.18 111.5,-187.18 118.5,-187.18"/>
<text text-anchor="middle" x="120" y="-198.8" font-family="Times,serif" font-size="14.00">b</text>
</g>
<!-- t1_x -->
<g id="node4" class="node">
<title>t1_x</title>
<ellipse fill="none" stroke="black" cx="189" cy="-159" rx="28.7" ry="18"/>
<text text-anchor="middle" x="189" y="-155.3" font-family="Times,serif" font-size="14.00">t1.x</text>
</g>
<!-- t1&#45;&gt;t1_x -->
<g id="edge3" class="edge">
<title>t1&#45;&gt;t1_x</title>
<path fill="none" stroke="black" d="M128.23,-229.8C139.59,-216.75 156.15,-197.74 169.11,-182.85"/>
<polygon fill="black" stroke="black" points="171.96,-184.91 175.88,-175.06 166.68,-180.31 171.96,-184.91"/>
<text text-anchor="middle" x="160.5" y="-198.8" font-family="Times,serif" font-size="14.00">x</text>
</g>
<!-- t1_x_c -->
<g id="node5" class="node">
<title>t1_x_c</title>
<ellipse fill="none" stroke="black" cx="47" cy="-72" rx="27" ry="18"/>
<text text-anchor="middle" x="47" y="-68.3" font-family="Times,serif" font-size="14.00">30</text>
</g>
<!-- t1_x&#45;&gt;t1_x_c -->
<g id="edge4" class="edge">
<title>t1_x&#45;&gt;t1_x_c</title>
<path fill="none" stroke="black" d="M168.96,-146C144.5,-131.37 103.01,-106.53 75.31,-89.94"/>
<polygon fill="black" stroke="black" points="76.86,-86.8 66.49,-84.66 73.27,-92.8 76.86,-86.8"/>
<text text-anchor="middle" x="130" y="-111.8" font-family="Times,serif" font-size="14.00">c</text>
</g>
<!-- t1_x_d -->
<g id="node6" class="node">
<title>t1_x_d</title>
<ellipse fill="none" stroke="black" cx="119" cy="-72" rx="27" ry="18"/>
<text text-anchor="middle" x="119" y="-68.3" font-family="Times,serif" font-size="14.00">48</text>
</g>
<!-- t1_x&#45;&gt;t1_x_d -->
<g id="edge5" class="edge">
<title>t1_x&#45;&gt;t1_x_d</title>
<path fill="none" stroke="black" d="M176.49,-142.8C165.73,-129.75 150.08,-110.74 137.82,-95.85"/>
<polygon fill="black" stroke="black" points="140.47,-93.56 131.41,-88.06 135.06,-98.01 140.47,-93.56"/>
<text text-anchor="middle" x="163" y="-111.8" font-family="Times,serif" font-size="14.00">d</text>
</g>
<!-- t1_x_e -->
<g id="node7" class="node">
<title>t1_x_e</title>
<ellipse fill="none" stroke="black" cx="191" cy="-72" rx="27" ry="18"/>
<text text-anchor="middle" x="191" y="-68.3" font-family="Times,serif" font-size="14.00">54</text>
</g>
<!-- t1_x&#45;&gt;t1_x_e -->
<g id="edge6" class="edge">
<title>t1_x&#45;&gt;t1_x_e</title>
<path fill="none" stroke="black" d="M189.4,-140.8C189.68,-129.16 190.05,-113.55 190.36,-100.24"/>
<polygon fill="black" stroke="black" points="193.86,-100.26 190.6,-90.18 186.86,-100.09 193.86,-100.26"/>
<text text-anchor="middle" x="194.5" y="-111.8" font-family="Times,serif" font-size="14.00">e</text>
</g>
<!-- t2 -->
<g id="node8" class="node">
<title>t2</title>
<ellipse fill="none" stroke="black" cx="463" cy="-246" rx="63.89" ry="18"/>
<text text-anchor="middle" x="463" y="-242.3" font-family="Times,serif" font-size="14.00">t2 = t1 + 5</text>
</g>
<!-- t2_a -->
<g id="node9" class="node">
<title>t2_a</title>
<ellipse fill="none" stroke="black" cx="310" cy="-159" rx="67.69" ry="18"/>
<text text-anchor="middle" x="310" y="-155.3" font-family="Times,serif" font-size="14.00">16 = 11 + 5</text>
</g>
<!-- t2&#45;&gt;t2_a -->
<g id="edge7" class="edge">
<title>t2&#45;&gt;t2_a</title>
<path fill="none" stroke="black" d="M435.29,-229.61C410.46,-215.81 373.85,-195.47 346.61,-180.34"/>
<polygon fill="black" stroke="black" points="348.2,-177.22 337.76,-175.42 344.8,-183.34 348.2,-177.22"/>
<text text-anchor="middle" x="399.5" y="-198.8" font-family="Times,serif" font-size="14.00">a</text>
</g>
<!-- t2_b -->
<g id="node10" class="node">
<title>t2_b</title>
<ellipse fill="none" stroke="black" cx="463" cy="-159" rx="67.69" ry="18"/>
<text text-anchor="middle" x="463" y="-155.3" font-family="Times,serif" font-size="14.00">27 = 22 + 5</text>
</g>
<!-- t2&#45;&gt;t2_b -->
<g id="edge8" class="edge">
<title>t2&#45;&gt;t2_b</title>
<path fill="none" stroke="black" d="M463,-227.8C463,-216.16 463,-200.55 463,-187.24"/>
<polygon fill="black" stroke="black" points="466.5,-187.18 463,-177.18 459.5,-187.18 466.5,-187.18"/>
<text text-anchor="middle" x="468" y="-198.8" font-family="Times,serif" font-size="14.00">b</text>
</g>
<!-- t2_x -->
<g id="node11" class="node">
<title>t2_x</title>
<ellipse fill="none" stroke="black" cx="629" cy="-159" rx="79.89" ry="18"/>
<text text-anchor="middle" x="629" y="-155.3" font-family="Times,serif" font-size="14.00">t2.x = t1.x + 5</text>
</g>
<!-- t2&#45;&gt;t2_x -->
<g id="edge9" class="edge">
<title>t2&#45;&gt;t2_x</title>
<path fill="none" stroke="black" d="M492.3,-230C519.29,-216.18 559.56,-195.56 589.41,-180.27"/>
<polygon fill="black" stroke="black" points="591.01,-183.39 598.31,-175.71 587.81,-177.16 591.01,-183.39"/>
<text text-anchor="middle" x="559.5" y="-198.8" font-family="Times,serif" font-size="14.00">x</text>
</g>
<!-- t2_x_c -->
<g id="node12" class="node">
<title>t2_x_c</title>
<ellipse fill="none" stroke="black" cx="335" cy="-72" rx="67.69" ry="18"/>
<text text-anchor="middle" x="335" y="-68.3" font-family="Times,serif" font-size="14.00">35 = 30 + 5</text>
</g>
<!-- t2_x&#45;&gt;t2_x_c -->
<g id="edge10" class="edge">
<title>t2_x&#45;&gt;t2_x_c</title>
<path fill="none" stroke="black" d="M581.76,-144.34C529.09,-129.11 444.06,-104.53 388.84,-88.57"/>
<polygon fill="black" stroke="black" points="389.81,-85.2 379.23,-85.79 387.87,-91.93 389.81,-85.2"/>
<text text-anchor="middle" x="503" y="-111.8" font-family="Times,serif" font-size="14.00">c</text>
</g>
<!-- t2_x_d -->
<g id="node13" class="node">
<title>t2_x_d</title>
<ellipse fill="none" stroke="black" cx="488" cy="-72" rx="67.69" ry="18"/>
<text text-anchor="middle" x="488" y="-68.3" font-family="Times,serif" font-size="14.00">53 = 48 + 5</text>
</g>
<!-- t2_x&#45;&gt;t2_x_d -->
<g id="edge11" class="edge">
<title>t2_x&#45;&gt;t2_x_d</title>
<path fill="none" stroke="black" d="M602.48,-142.01C579.89,-128.39 547.26,-108.72 522.61,-93.87"/>
<polygon fill="black" stroke="black" points="524.3,-90.79 513.93,-88.63 520.68,-96.79 524.3,-90.79"/>
<text text-anchor="middle" x="571" y="-111.8" font-family="Times,serif" font-size="14.00">d</text>
</g>
<!-- t2_x_e -->
<g id="node14" class="node">
<title>t2_x_e</title>
<ellipse fill="none" stroke="black" cx="641" cy="-72" rx="67.69" ry="18"/>
<text text-anchor="middle" x="641" y="-68.3" font-family="Times,serif" font-size="14.00">59 = 54 + 5</text>
</g>
<!-- t2_x&#45;&gt;t2_x_e -->
<g id="edge12" class="edge">
<title>t2_x&#45;&gt;t2_x_e</title>
<path fill="none" stroke="black" d="M631.43,-140.8C633.07,-129.16 635.28,-113.55 637.15,-100.24"/>
<polygon fill="black" stroke="black" points="640.64,-100.57 638.58,-90.18 633.71,-99.59 640.64,-100.57"/>
<text text-anchor="middle" x="639.5" y="-111.8" font-family="Times,serif" font-size="14.00">e</text>
</g>
</g>
</svg>
