<?xml version="1.0" encoding="UTF-8" standalone="no"?>
<svg version="1.1" xmlns="http://www.w3.org/2000/svg" style="font-family: Arial; " width="800" height="450" viewBox="0 0 800 450"><title>Time cost of cat operation</title><defs><clipPath id="chart-clipPath-exact"><rect height="293" width="542"></rect></clipPath><clipPath id="chart-clipPath-buffer"><rect x="-10" y="-10" height="313" width="562"></rect></clipPath></defs><g class="scaler"><rect width="800" height="450" fill="rgb(255, 255, 255)" fill-opacity="1"></rect><g class="canvas" transform="translate(93,72)"><g class="grid"><g class="axis-grid y" transform="translate(0,0)"><line class="grid" x1="0" x2="542" y1="0" y2="0" style="stroke: #232115; stroke-opacity: 0.2; stroke-width: 1px; " transform="translate(0,291)"></line><line class="grid" x1="0" x2="542" y1="0" y2="0" style="stroke: #232115; stroke-opacity: 0.2; stroke-width: 1px; " transform="translate(0,229.5191175889628)"></line><line class="grid" x1="0" x2="542" y1="0" y2="0" style="stroke: #232115; stroke-opacity: 0.2; stroke-width: 1px; " transform="translate(0,174.45013563089077)"></line><line class="grid" x1="0" x2="542" y1="0" y2="0" style="stroke: #232115; stroke-opacity: 0.2; stroke-width: 1px; " transform="translate(0,145.50000000000003)"></line><line class="grid" x1="0" x2="542" y1="0" y2="0" style="stroke: #232115; stroke-opacity: 0.2; stroke-width: 1px; " transform="translate(0,84.01911758896284)"></line><line class="grid" x1="0" x2="542" y1="0" y2="0" style="stroke: #232115; stroke-opacity: 0.2; stroke-width: 1px; " transform="translate(0,28.95013563089077)"></line><line class="grid" x1="0" x2="542" y1="0" y2="0" style="stroke: #232115; stroke-opacity: 0.2; stroke-width: 1px; " transform="translate(0,0)"></line></g><g class="axis-grid x" transform="translate(0,292)"></g><g class="axis-grid y2" transform="translate(542,0)"></g><g class="axis-grid x2" transform="translate(0,1)"></g></g><rect class="trigger-layer" height="379" width="724" opacity="0"></rect><g class="chart"><g class="series s0"><path class="line" clip-path="url(#chart-clipPath-exact)" visibility="visible" fill="none" stroke="rgb(233, 76, 59)" stroke-opacity="1" stroke-width="1" d="M0,268.0895659265515L54.199999999999996,262.43129665035934L108.39999999999999,256.6069683121728L162.6,246.64424480189868L216.79999999999998,234.7869221968742L271,216.40005760762324L325.19999999999993,196.13594951519275L379.3999999999999,175.2670670719431L433.59999999999997,155.72803009888221L487.79999999999995,134.44840223956524L542,112.18589965547733"></path><path class="point" clip-path="url(#chart-clipPath-buffer)" stroke="rgb(233, 76, 59)" stroke-opacity="1" fill="rgb(233, 76, 59)" fill-opacity="1" visibility="visible" d="M-2.5,-2.5L2.5,-2.5 2.5,2.5 -2.5,2.5Z" transform="translate(0,268.0895659265515)"></path><path class="point" clip-path="url(#chart-clipPath-buffer)" stroke="rgb(233, 76, 59)" stroke-opacity="1" fill="rgb(233, 76, 59)" fill-opacity="1" visibility="visible" d="M-2.5,-2.5L2.5,-2.5 2.5,2.5 -2.5,2.5Z" transform="translate(54.199999999999996,262.43129665035934)"></path><path class="point" clip-path="url(#chart-clipPath-buffer)" stroke="rgb(233, 76, 59)" stroke-opacity="1" fill="rgb(233, 76, 59)" fill-opacity="1" visibility="visible" d="M-2.5,-2.5L2.5,-2.5 2.5,2.5 -2.5,2.5Z" transform="translate(108.39999999999999,256.6069683121728)"></path><path class="point" clip-path="url(#chart-clipPath-buffer)" stroke="rgb(233, 76, 59)" stroke-opacity="1" fill="rgb(233, 76, 59)" fill-opacity="1" visibility="visible" d="M-2.5,-2.5L2.5,-2.5 2.5,2.5 -2.5,2.5Z" transform="translate(162.6,246.64424480189868)"></path><path class="point" clip-path="url(#chart-clipPath-buffer)" stroke="rgb(233, 76, 59)" stroke-opacity="1" fill="rgb(233, 76, 59)" fill-opacity="1" visibility="visible" d="M-2.5,-2.5L2.5,-2.5 2.5,2.5 -2.5,2.5Z" transform="translate(216.79999999999998,234.7869221968742)"></path><path class="point" clip-path="url(#chart-clipPath-buffer)" stroke="rgb(233, 76, 59)" stroke-opacity="1" fill="rgb(233, 76, 59)" fill-opacity="1" visibility="visible" d="M-2.5,-2.5L2.5,-2.5 2.5,2.5 -2.5,2.5Z" transform="translate(271,216.40005760762324)"></path><path class="point" clip-path="url(#chart-clipPath-buffer)" stroke="rgb(233, 76, 59)" stroke-opacity="1" fill="rgb(233, 76, 59)" fill-opacity="1" visibility="visible" d="M-2.5,-2.5L2.5,-2.5 2.5,2.5 -2.5,2.5Z" transform="translate(325.19999999999993,196.13594951519275)"></path><path class="point" clip-path="url(#chart-clipPath-buffer)" stroke="rgb(233, 76, 59)" stroke-opacity="1" fill="rgb(233, 76, 59)" fill-opacity="1" visibility="visible" d="M-2.5,-2.5L2.5,-2.5 2.5,2.5 -2.5,2.5Z" transform="translate(379.3999999999999,175.2670670719431)"></path><path class="point" clip-path="url(#chart-clipPath-buffer)" stroke="rgb(233, 76, 59)" stroke-opacity="1" fill="rgb(233, 76, 59)" fill-opacity="1" visibility="visible" d="M-2.5,-2.5L2.5,-2.5 2.5,2.5 -2.5,2.5Z" transform="translate(433.59999999999997,155.72803009888221)"></path><path class="point" clip-path="url(#chart-clipPath-buffer)" stroke="rgb(233, 76, 59)" stroke-opacity="1" fill="rgb(233, 76, 59)" fill-opacity="1" visibility="visible" d="M-2.5,-2.5L2.5,-2.5 2.5,2.5 -2.5,2.5Z" transform="translate(487.79999999999995,134.44840223956524)"></path><path class="point" clip-path="url(#chart-clipPath-buffer)" stroke="rgb(233, 76, 59)" stroke-opacity="1" fill="rgb(233, 76, 59)" fill-opacity="1" visibility="visible" d="M-2.5,-2.5L2.5,-2.5 2.5,2.5 -2.5,2.5Z" transform="translate(542,112.18589965547733)"></path><text class="data-label" font-size="10" fill="rgb(233, 76, 59)" fill-opacity="1" visibility="visible" text-anchor="middle" data-text-vanchor="bottom" transform="translate(0,249.08956592655147)"><tspan x="0" y="0" dy="0.91em">20.65</tspan></text><text class="data-label" font-size="10" fill="rgb(233, 76, 59)" fill-opacity="1" visibility="visible" text-anchor="middle" data-text-vanchor="bottom" transform="translate(54.199999999999996,243.43129665035934)"><tspan x="0" y="0" dy="0.91em">24.7</tspan></text><text class="data-label" font-size="10" fill="rgb(233, 76, 59)" fill-opacity="1" visibility="visible" text-anchor="middle" data-text-vanchor="bottom" transform="translate(108.39999999999999,237.6069683121728)"><tspan x="0" y="0" dy="0.91em">29.7</tspan></text><text class="data-label" font-size="10" fill="rgb(233, 76, 59)" fill-opacity="1" visibility="visible" text-anchor="middle" data-text-vanchor="bottom" transform="translate(162.6,227.64424480189868)"><tspan x="0" y="0" dy="0.91em">40.71</tspan></text><text class="data-label" font-size="10" fill="rgb(233, 76, 59)" fill-opacity="1" visibility="visible" text-anchor="middle" data-text-vanchor="bottom" transform="translate(216.79999999999998,215.7869221968742)"><tspan x="0" y="0" dy="0.91em">59.25</tspan></text><text class="data-label" font-size="10" fill="rgb(233, 76, 59)" fill-opacity="1" visibility="visible" text-anchor="middle" data-text-vanchor="bottom" transform="translate(271,197.40005760762324)"><tspan x="0" y="0" dy="0.91em">106.03</tspan></text><text class="data-label" font-size="10" fill="rgb(233, 76, 59)" fill-opacity="1" visibility="visible" text-anchor="middle" data-text-vanchor="bottom" transform="translate(325.19999999999993,177.13594951519275)"><tspan x="0" y="0" dy="0.91em">201.36</tspan></text><text class="data-label" font-size="10" fill="rgb(233, 76, 59)" fill-opacity="1" visibility="visible" text-anchor="middle" data-text-vanchor="bottom" transform="translate(379.3999999999999,156.2670670719431)"><tspan x="0" y="0" dy="0.91em">389.79</tspan></text><text class="data-label" font-size="10" fill="rgb(233, 76, 59)" fill-opacity="1" visibility="visible" text-anchor="middle" data-text-vanchor="bottom" transform="translate(433.59999999999997,136.72803009888221)"><tspan x="0" y="0" dy="0.91em">723.45</tspan></text><text class="data-label" font-size="10" fill="rgb(233, 76, 59)" fill-opacity="1" visibility="visible" text-anchor="middle" data-text-vanchor="bottom" transform="translate(487.79999999999995,115.44840223956524)"><tspan x="0" y="0" dy="0.91em">1.42K</tspan></text><text class="data-label" font-size="10" fill="rgb(233, 76, 59)" fill-opacity="1" visibility="visible" text-anchor="middle" data-text-vanchor="bottom" transform="translate(542,93.18589965547733)"><tspan x="0" y="0" dy="0.91em">2.87K</tspan></text></g><g class="series s1"><path class="line" clip-path="url(#chart-clipPath-exact)" visibility="visible" fill="none" stroke="rgb(197, 116, 248)" stroke-opacity="1" stroke-width="1" d="M0,240.9045118628449L54.199999999999996,229.59594144151606L108.39999999999999,214.76827758110755L162.6,197.59543646140372L216.79999999999998,178.28235692410658L271,156.9642534047986L325.19999999999993,136.18952855629487L379.3999999999999,114.99041406923226L433.59999999999997,92.51155369472065L487.79999999999995,70.28269292687207L542,48.07554869068079"></path><path class="point" clip-path="url(#chart-clipPath-buffer)" stroke="rgb(197, 116, 248)" stroke-opacity="1" fill="rgb(197, 116, 248)" fill-opacity="1" visibility="visible" d="M-2.5,-2.5L2.5,-2.5 2.5,2.5 -2.5,2.5Z" transform="translate(0,240.9045118628449)"></path><path class="point" clip-path="url(#chart-clipPath-buffer)" stroke="rgb(197, 116, 248)" stroke-opacity="1" fill="rgb(197, 116, 248)" fill-opacity="1" visibility="visible" d="M-2.5,-2.5L2.5,-2.5 2.5,2.5 -2.5,2.5Z" transform="translate(54.199999999999996,229.59594144151606)"></path><path class="point" clip-path="url(#chart-clipPath-buffer)" stroke="rgb(197, 116, 248)" stroke-opacity="1" fill="rgb(197, 116, 248)" fill-opacity="1" visibility="visible" d="M-2.5,-2.5L2.5,-2.5 2.5,2.5 -2.5,2.5Z" transform="translate(108.39999999999999,214.76827758110755)"></path><path class="point" clip-path="url(#chart-clipPath-buffer)" stroke="rgb(197, 116, 248)" stroke-opacity="1" fill="rgb(197, 116, 248)" fill-opacity="1" visibility="visible" d="M-2.5,-2.5L2.5,-2.5 2.5,2.5 -2.5,2.5Z" transform="translate(162.6,197.59543646140372)"></path><path class="point" clip-path="url(#chart-clipPath-buffer)" stroke="rgb(197, 116, 248)" stroke-opacity="1" fill="rgb(197, 116, 248)" fill-opacity="1" visibility="visible" d="M-2.5,-2.5L2.5,-2.5 2.5,2.5 -2.5,2.5Z" transform="translate(216.79999999999998,178.28235692410658)"></path><path class="point" clip-path="url(#chart-clipPath-buffer)" stroke="rgb(197, 116, 248)" stroke-opacity="1" fill="rgb(197, 116, 248)" fill-opacity="1" visibility="visible" d="M-2.5,-2.5L2.5,-2.5 2.5,2.5 -2.5,2.5Z" transform="translate(271,156.9642534047986)"></path><path class="point" clip-path="url(#chart-clipPath-buffer)" stroke="rgb(197, 116, 248)" stroke-opacity="1" fill="rgb(197, 116, 248)" fill-opacity="1" visibility="visible" d="M-2.5,-2.5L2.5,-2.5 2.5,2.5 -2.5,2.5Z" transform="translate(325.19999999999993,136.18952855629487)"></path><path class="point" clip-path="url(#chart-clipPath-buffer)" stroke="rgb(197, 116, 248)" stroke-opacity="1" fill="rgb(197, 116, 248)" fill-opacity="1" visibility="visible" d="M-2.5,-2.5L2.5,-2.5 2.5,2.5 -2.5,2.5Z" transform="translate(379.3999999999999,114.99041406923226)"></path><path class="point" clip-path="url(#chart-clipPath-buffer)" stroke="rgb(197, 116, 248)" stroke-opacity="1" fill="rgb(197, 116, 248)" fill-opacity="1" visibility="visible" d="M-2.5,-2.5L2.5,-2.5 2.5,2.5 -2.5,2.5Z" transform="translate(433.59999999999997,92.51155369472065)"></path><path class="point" clip-path="url(#chart-clipPath-buffer)" stroke="rgb(197, 116, 248)" stroke-opacity="1" fill="rgb(197, 116, 248)" fill-opacity="1" visibility="visible" d="M-2.5,-2.5L2.5,-2.5 2.5,2.5 -2.5,2.5Z" transform="translate(487.79999999999995,70.28269292687207)"></path><path class="point" clip-path="url(#chart-clipPath-buffer)" stroke="rgb(197, 116, 248)" stroke-opacity="1" fill="rgb(197, 116, 248)" fill-opacity="1" visibility="visible" d="M-2.5,-2.5L2.5,-2.5 2.5,2.5 -2.5,2.5Z" transform="translate(542,48.07554869068079)"></path><text class="data-label" font-size="10" fill="rgb(197, 116, 248)" fill-opacity="1" visibility="visible" text-anchor="middle" data-text-vanchor="bottom" transform="translate(0,221.9045118628449)"><tspan x="0" y="0" dy="0.91em">48.82</tspan></text><text class="data-label" font-size="10" fill="rgb(197, 116, 248)" fill-opacity="1" visibility="visible" text-anchor="middle" data-text-vanchor="bottom" transform="translate(54.199999999999996,210.59594144151606)"><tspan x="0" y="0" dy="0.91em">69.83</tspan></text><text class="data-label" font-size="10" fill="rgb(197, 116, 248)" fill-opacity="1" visibility="visible" text-anchor="middle" data-text-vanchor="bottom" transform="translate(108.39999999999999,195.76827758110755)"><tspan x="0" y="0" dy="0.91em">111.65</tspan></text><text class="data-label" font-size="10" fill="rgb(197, 116, 248)" fill-opacity="1" visibility="visible" text-anchor="middle" data-text-vanchor="bottom" transform="translate(162.6,178.59543646140372)"><tspan x="0" y="0" dy="0.91em">192.27</tspan></text><text class="data-label" font-size="10" fill="rgb(197, 116, 248)" fill-opacity="1" visibility="visible" text-anchor="middle" data-text-vanchor="bottom" transform="translate(216.79999999999998,159.28235692410658)"><tspan x="0" y="0" dy="0.91em">354.31</tspan></text><text class="data-label" font-size="10" fill="rgb(197, 116, 248)" fill-opacity="1" visibility="visible" text-anchor="middle" data-text-vanchor="bottom" transform="translate(271,137.9642534047986)"><tspan x="0" y="0" dy="0.91em">695.69</tspan></text><text class="data-label" font-size="10" fill="rgb(197, 116, 248)" fill-opacity="1" visibility="visible" text-anchor="middle" data-text-vanchor="bottom" transform="translate(325.19999999999993,117.18952855629487)"><tspan x="0" y="0" dy="0.91em">1.34K</tspan></text><text class="data-label" font-size="10" fill="rgb(197, 116, 248)" fill-opacity="1" visibility="visible" text-anchor="middle" data-text-vanchor="bottom" transform="translate(379.3999999999999,95.99041406923226)"><tspan x="0" y="0" dy="0.91em">2.63K</tspan></text><text class="data-label" font-size="10" fill="rgb(197, 116, 248)" fill-opacity="1" visibility="visible" text-anchor="middle" data-text-vanchor="bottom" transform="translate(433.59999999999997,73.51155369472065)"><tspan x="0" y="0" dy="0.91em">5.35K</tspan></text><text class="data-label" font-size="10" fill="rgb(197, 116, 248)" fill-opacity="1" visibility="visible" text-anchor="middle" data-text-vanchor="bottom" transform="translate(487.79999999999995,51.28269292687207)"><tspan x="0" y="0" dy="0.91em">10.81K</tspan></text><text class="data-label" font-size="10" fill="rgb(197, 116, 248)" fill-opacity="1" visibility="visible" text-anchor="middle" data-text-vanchor="bottom" transform="translate(542,29.07554869068079)"><tspan x="0" y="0" dy="0.91em">21.84K</tspan></text></g></g><g class="axes"><g class="axis-labels"><g class="left"><g class="label" transform="translate(-68,146.5)"><text style="text-anchor: middle; font-family: Arial; font-size: 16px; " fill="rgba(35, 33, 21, 0.9)" dy="16" transform="rotate(270)">Time cost (μs)</text></g></g><g class="bottom"><g class="label" transform="translate(271,332.8564147949219)"><text style="text-anchor: middle; font-family: Arial; font-size: 16px; " fill="rgba(35, 33, 21, 0.9)" dy="16" transform="rotate(0)">Elements of Cat</text></g></g></g><g class="axis left" transform="translate(0,0)"><g class="tick major" style="opacity: 1; display: block; " transform="translate(0,291)"><line x2="-6" y2="0"></line><text x="-9" y="0" dy="7" style="fill: #232115; fill-opacity: 0.9; font-family: Arial; font-size: 14px; text-anchor: end; " transform="rotate(0, -9, 0)translate(0,0)" data-org-x="-9" data-org-y="0">10</text></g><g class="tick major" style="opacity: 1; display: block; " transform="translate(0,229.5191175889628)"><line x2="-6" y2="0"></line><text x="-9" y="0" dy="7" style="fill: #232115; fill-opacity: 0.9; font-family: Arial; font-size: 14px; text-anchor: end; " transform="rotate(0, -9, 0)translate(0,0)" data-org-x="-9" data-org-y="0">70</text></g><g class="tick major" style="opacity: 1; display: block; " transform="translate(0,174.45013563089077)"><line x2="-6" y2="0"></line><text x="-9" y="0" dy="7" style="fill: #232115; fill-opacity: 0.9; font-family: Arial; font-size: 14px; text-anchor: end; " transform="rotate(0, -9, 0)translate(0,0)" data-org-x="-9" data-org-y="0">400</text></g><g class="tick major" style="opacity: 1; display: block; " transform="translate(0,145.50000000000003)"><line x2="-6" y2="0"></line><text x="-9" y="0" dy="7" style="fill: #232115; fill-opacity: 0.9; font-family: Arial; font-size: 14px; text-anchor: end; " transform="rotate(0, -9, 0)translate(0,0)" data-org-x="-9" data-org-y="0">1K</text></g><g class="tick major" style="opacity: 1; display: block; " transform="translate(0,84.01911758896284)"><line x2="-6" y2="0"></line><text x="-9" y="0" dy="7" style="fill: #232115; fill-opacity: 0.9; font-family: Arial; font-size: 14px; text-anchor: end; " transform="rotate(0, -9, 0)translate(0,0)" data-org-x="-9" data-org-y="0">7K</text></g><g class="tick major" style="opacity: 1; display: block; " transform="translate(0,28.95013563089077)"><line x2="-6" y2="0"></line><text x="-9" y="0" dy="7" style="fill: #232115; fill-opacity: 0.9; font-family: Arial; font-size: 14px; text-anchor: end; " transform="rotate(0, -9, 0)translate(0,0)" data-org-x="-9" data-org-y="0">40K</text></g><g class="tick major" style="opacity: 1; display: block; " transform="translate(0,0)"><line x2="-6" y2="0"></line><text x="-9" y="0" dy="7" style="fill: #232115; fill-opacity: 0.9; font-family: Arial; font-size: 14px; text-anchor: end; " transform="rotate(0, -9, 0)translate(0,0)" data-org-x="-9" data-org-y="0">100K</text></g><path class="domain" d="M0,0H0V291H0" stroke-width="0" fill="none" stroke="rgb(35, 33, 21)" stroke-opacity="0.9"></path></g><g class="axis bottom" transform="translate(0,292)"><g class="tick major" style="opacity: 1; display: block; " transform="translate(0,0)"><line y2="7" x2="0"></line><text y="10" x="0" dy="7" style="fill: #232115; fill-opacity: 0.9; font-family: Arial; font-size: 14px; text-anchor: start; " transform="rotate(30, 0, 10)translate(0,0)" data-org-x="0" data-org-y="10">2</text></g><g class="tick major" style="opacity: 1; display: block; " transform="translate(54.199999999999996,0)"><line y2="7" x2="0"></line><text y="10" x="0" dy="7" style="fill: #232115; fill-opacity: 0.9; font-family: Arial; font-size: 14px; text-anchor: start; " transform="rotate(30, 0, 10)translate(0,0)" data-org-x="0" data-org-y="10">4</text></g><g class="tick major" style="opacity: 1; display: block; " transform="translate(85.90496753908666,0)"><line y2="7" x2="0"></line><text y="10" x="0" dy="7" style="fill: #232115; fill-opacity: 0.9; font-family: Arial; font-size: 14px; text-anchor: start; " transform="rotate(30, 0, 10)translate(0,0)" data-org-x="0" data-org-y="10">6</text></g><g class="tick major" style="opacity: 1; display: block; " transform="translate(108.39999999999999,0)"><line y2="7" x2="0"></line><text y="10" x="0" dy="7" style="fill: #232115; fill-opacity: 0.9; font-family: Arial; font-size: 14px; text-anchor: start; " transform="rotate(30, 0, 10)translate(0,0)" data-org-x="0" data-org-y="10">8</text></g><g class="tick major" style="opacity: 1; display: block; " transform="translate(125.84850274289506,0)"><line y2="7" x2="0"></line><text y="10" x="0" dy="7" style="fill: #232115; fill-opacity: 0.9; font-family: Arial; font-size: 14px; text-anchor: start; " transform="rotate(30, 0, 10)translate(0,0)" data-org-x="0" data-org-y="10">10</text></g><g class="tick major" style="opacity: 1; display: block; " transform="translate(211.75347028198175,0)"><line y2="7" x2="0"></line><text y="10" x="0" dy="7" style="fill: #232115; fill-opacity: 0.9; font-family: Arial; font-size: 14px; text-anchor: start; " transform="rotate(30, 0, 10)translate(0,0)" data-org-x="0" data-org-y="10">30</text></g><g class="tick major" style="opacity: 1; display: block; " transform="translate(251.69700548579007,0)"><line y2="7" x2="0"></line><text y="10" x="0" dy="7" style="fill: #232115; fill-opacity: 0.9; font-family: Arial; font-size: 14px; text-anchor: start; " transform="rotate(30, 0, 10)translate(0,0)" data-org-x="0" data-org-y="10">50</text></g><g class="tick major" style="opacity: 1; display: block; " transform="translate(278.0071395184172,0)"><line y2="7" x2="0"></line><text y="10" x="0" dy="7" style="fill: #232115; fill-opacity: 0.9; font-family: Arial; font-size: 14px; text-anchor: start; " transform="rotate(30, 0, 10)translate(0,0)" data-org-x="0" data-org-y="10">70</text></g><g class="tick major" style="opacity: 1; display: block; " transform="translate(297.65843782106833,0)"><line y2="7" x2="0"></line><text y="10" x="0" dy="7" style="fill: #232115; fill-opacity: 0.9; font-family: Arial; font-size: 14px; text-anchor: start; " transform="rotate(30, 0, 10)translate(0,0)" data-org-x="0" data-org-y="10">90</text></g><g class="tick major" style="opacity: 1; display: block; " transform="translate(360.09700548579,0)"><line y2="7" x2="0"></line><text y="10" x="0" dy="7" style="fill: #232115; fill-opacity: 0.9; font-family: Arial; font-size: 14px; text-anchor: start; " transform="rotate(30, 0, 10)translate(0,0)" data-org-x="0" data-org-y="10">200</text></g><g class="tick major" style="opacity: 1; display: block; " transform="translate(414.29700548579,0)"><line y2="7" x2="0"></line><text y="10" x="0" dy="7" style="fill: #232115; fill-opacity: 0.9; font-family: Arial; font-size: 14px; text-anchor: start; " transform="rotate(30, 0, 10)translate(0,0)" data-org-x="0" data-org-y="10">400</text></g><g class="tick major" style="opacity: 1; display: block; " transform="translate(446.00197302487675,0)"><line y2="7" x2="0"></line><text y="10" x="0" dy="7" style="fill: #232115; fill-opacity: 0.9; font-family: Arial; font-size: 14px; text-anchor: start; " transform="rotate(30, 0, 10)translate(0,0)" data-org-x="0" data-org-y="10">600</text></g><g class="tick major" style="opacity: 1; display: block; " transform="translate(468.49700548579005,0)"><line y2="7" x2="0"></line><text y="10" x="0" dy="7" style="fill: #232115; fill-opacity: 0.9; font-family: Arial; font-size: 14px; text-anchor: start; " transform="rotate(30, 0, 10)translate(0,0)" data-org-x="0" data-org-y="10">800</text></g><g class="tick major" style="opacity: 1; display: block; " transform="translate(485.94550822868507,0)"><line y2="7" x2="0"></line><text y="10" x="0" dy="7" style="fill: #232115; fill-opacity: 0.9; font-family: Arial; font-size: 14px; text-anchor: start; " transform="rotate(30, 0, 10)translate(0,0)" data-org-x="0" data-org-y="10">1000</text></g><path class="domain" d="M0,0V0H542V0" stroke-width="2" fill="none" stroke="rgb(35, 33, 21)" stroke-opacity="0.9"></path><path class="filler" d="M0,0V0H0V0" stroke-width="2" fill="none" stroke="rgb(35, 33, 21)" stroke-opacity="0.9"></path></g></g></g><g class="label" transform="translate(273,25)"><text style="text-anchor: start; font-family: Arial; font-size: 22px; " fill="rgba(35, 33, 21, 0.9)" dy="22" transform="rotate(0)">Time cost of cat operation</text></g><g class="legend" transform="translate(659.1013488769531,201.86134719848633)"><g class="row" transform="translate(0,0)"><text class="key" style="font-size: 14px; fill: #232115; fill-opacity: 0.9; " dx="28" dy="14">treevalue</text><path class="shape" d="M0,7.898654169668588A7.898654169668588,7.898654169668588 0 1,1 0,-7.898654169668588A7.898654169668588,7.898654169668588 0 1,1 0,7.898654169668588Z" style="fill: #e94c3b; fill-opacity: 1; " transform="translate(14,9.24)"></path></g><g class="row" transform="translate(0,30.138652801513672)"><text class="key" style="font-size: 14px; fill: #232115; fill-opacity: 0.9; " dx="28" dy="14">tianshou Batch</text><path class="shape" d="M0,7.898654169668588A7.898654169668588,7.898654169668588 0 1,1 0,-7.898654169668588A7.898654169668588,7.898654169668588 0 1,1 0,7.898654169668588Z" style="fill: #c574f8; fill-opacity: 1; " transform="translate(14,9.24)"></path></g></g></g></svg>