<?xml version="1.0" encoding="UTF-8" standalone="no"?>
<!DOCTYPE svg PUBLIC "-//W3C//DTD SVG 1.1//EN"
 "http://www.w3.org/Graphics/SVG/1.1/DTD/svg11.dtd">
<!-- Generated by graphviz version 2.43.0 (0)
 -->
<!-- Title: graph_with_4_tree_s_t1_t2_t3_value Pages: 1 -->
<svg width="794pt" height="328pt"
 viewBox="0.00 0.00 794.00 328.00" xmlns="http://www.w3.org/2000/svg" xmlns:xlink="http://www.w3.org/1999/xlink">
<g id="graph0" class="graph" transform="scale(1 1) rotate(0) translate(4 324)">
<title>graph_with_4_tree_s_t1_t2_t3_value</title>
<polygon fill="transparent" stroke="transparent" points="-4,4 -4,-324 790,-324 790,4 -4,4"/>
<text text-anchor="middle" x="393" y="-7.8" font-family="Times,serif" font-size="14.00">Graph with 4 tree(s) &#45; t1, t2, t3, value.</text>
<!-- node_7f069dca0400 -->
<g id="node1" class="node">
<title>node_7f069dca0400</title>
<polygon fill="#73ff7e" fill-opacity="0.600000" stroke="#3eb248" stroke-width="3" stroke-opacity="0.600000" points="119,-233 88.83,-215 119,-197 149.17,-215 119,-233"/>
<text text-anchor="middle" x="119" y="-211.3" font-family="monospace bold" font-size="14.00" fill="#003304">t1</text>
</g>
<!-- value__node_7f069dca0400__a -->
<g id="node4" class="node">
<title>value__node_7f069dca0400__a</title>
<polygon fill="#73ff7e" fill-opacity="0.600000" stroke="transparent" stroke-width="1.5" points="54,-146 0,-146 0,-110 54,-110 54,-146"/>
<text text-anchor="middle" x="27" y="-124.3" font-family="monospace" font-size="14.00" fill="#003304">&#39;s1&#39;</text>
</g>
<!-- node_7f069dca0400&#45;&gt;value__node_7f069dca0400__a -->
<g id="edge1" class="edge">
<title>node_7f069dca0400&#45;&gt;value__node_7f069dca0400__a</title>
<path fill="none" stroke="#1f9929" stroke-opacity="0.800000" d="M107.72,-203.58C93.11,-190.08 67.34,-166.28 48.85,-149.19"/>
<ellipse fill="#1f9929" fill-opacity="0.800000" stroke="#1f9929" stroke-opacity="0.800000" cx="47.18" cy="-147.65" rx="2" ry="2"/>
<text text-anchor="middle" x="84" y="-167.8" font-family="Times-Roman bold" font-size="14.00" fill="#00730a">a</text>
</g>
<!-- value__node_7f069dca0400__b -->
<g id="node5" class="node">
<title>value__node_7f069dca0400__b</title>
<polygon fill="#73ff7e" fill-opacity="0.600000" stroke="transparent" stroke-width="1.5" points="126,-146 72,-146 72,-110 126,-110 126,-146"/>
<text text-anchor="middle" x="99" y="-124.3" font-family="monospace" font-size="14.00" fill="#003304">2</text>
</g>
<!-- node_7f069dca0400&#45;&gt;value__node_7f069dca0400__b -->
<g id="edge2" class="edge">
<title>node_7f069dca0400&#45;&gt;value__node_7f069dca0400__b</title>
<path fill="none" stroke="#1f9929" stroke-opacity="0.800000" d="M115.42,-198.8C112.24,-185.27 107.55,-165.34 104,-150.23"/>
<ellipse fill="#1f9929" fill-opacity="0.800000" stroke="#1f9929" stroke-opacity="0.800000" cx="103.48" cy="-148.06" rx="2" ry="2"/>
<text text-anchor="middle" x="116" y="-167.8" font-family="Times-Roman bold" font-size="14.00" fill="#00730a">b</text>
</g>
<!-- node_7f069dca0430 -->
<g id="node6" class="node">
<title>node_7f069dca0430</title>
<ellipse fill="#73ff7e" fill-opacity="0.600000" stroke="#3eb248" stroke-width="1.5" stroke-opacity="0.600000" cx="176" cy="-128" rx="32.49" ry="18"/>
<text text-anchor="middle" x="176" y="-124.3" font-family="monospace bold" font-size="14.00" fill="#003304">t1.x</text>
</g>
<!-- node_7f069dca0400&#45;&gt;node_7f069dca0430 -->
<g id="edge3" class="edge">
<title>node_7f069dca0400&#45;&gt;node_7f069dca0430</title>
<path fill="none" stroke="#1f9929" stroke-opacity="0.800000" d="M127.17,-201.82C135.5,-189.39 148.69,-169.73 159.25,-153.97"/>
<polygon fill="#1f9929" fill-opacity="0.800000" stroke="#1f9929" stroke-opacity="0.800000" points="165.12,-145.23 163.29,-156.04 162.33,-149.38 159.55,-153.53 159.55,-153.53 159.55,-153.53 162.33,-149.38 155.81,-151.03 165.12,-145.23 165.12,-145.23"/>
<text text-anchor="middle" x="156" y="-167.8" font-family="Times-Roman bold" font-size="14.00" fill="#00730a">x</text>
</g>
<!-- node_7f069dca0160 -->
<g id="node2" class="node">
<title>node_7f069dca0160</title>
<polygon fill="#9673ff" fill-opacity="0.600000" stroke="#5b3eb2" stroke-width="3" stroke-opacity="0.600000" points="345,-233 314.83,-215 345,-197 375.17,-215 345,-233"/>
<text text-anchor="middle" x="345" y="-211.3" font-family="monospace bold" font-size="14.00" fill="#0d0033">t2</text>
</g>
<!-- value__node_7f069dca0160__a -->
<g id="node7" class="node">
<title>value__node_7f069dca0160__a</title>
<polygon fill="#9673ff" fill-opacity="0.600000" stroke="transparent" stroke-width="1.5" points="300,-146 226,-146 226,-110 300,-110 300,-146"/>
<text text-anchor="middle" x="263" y="-124.3" font-family="monospace" font-size="14.00" fill="#0d0033">&#39;str11&#39;</text>
</g>
<!-- node_7f069dca0160&#45;&gt;value__node_7f069dca0160__a -->
<g id="edge4" class="edge">
<title>node_7f069dca0160&#45;&gt;value__node_7f069dca0160__a</title>
<path fill="none" stroke="#3d1f99" stroke-opacity="0.800000" d="M334.28,-202.89C321.26,-189.39 299.02,-166.34 282.84,-149.57"/>
<ellipse fill="#3d1f99" fill-opacity="0.800000" stroke="#3d1f99" stroke-opacity="0.800000" cx="281.08" cy="-147.74" rx="2" ry="2"/>
<text text-anchor="middle" x="314" y="-167.8" font-family="Times-Roman bold" font-size="14.00" fill="#1d0073">a</text>
</g>
<!-- value__node_7f069dca0160__b -->
<g id="node8" class="node">
<title>value__node_7f069dca0160__b</title>
<polygon fill="#9673ff" fill-opacity="0.600000" stroke="transparent" stroke-width="1.5" points="372,-146 318,-146 318,-110 372,-110 372,-146"/>
<text text-anchor="middle" x="345" y="-124.3" font-family="monospace" font-size="14.00" fill="#0d0033">2</text>
</g>
<!-- node_7f069dca0160&#45;&gt;value__node_7f069dca0160__b -->
<g id="edge5" class="edge">
<title>node_7f069dca0160&#45;&gt;value__node_7f069dca0160__b</title>
<path fill="none" stroke="#3d1f99" stroke-opacity="0.800000" d="M345,-196.8C345,-183.43 345,-164.82 345,-150.48"/>
<ellipse fill="#3d1f99" fill-opacity="0.800000" stroke="#3d1f99" stroke-opacity="0.800000" cx="345" cy="-148.18" rx="2" ry="2"/>
<text text-anchor="middle" x="350" y="-167.8" font-family="Times-Roman bold" font-size="14.00" fill="#1d0073">b</text>
</g>
<!-- node_7f069dca0490 -->
<g id="node9" class="node">
<title>node_7f069dca0490</title>
<ellipse fill="#9673ff" fill-opacity="0.600000" stroke="#5b3eb2" stroke-width="1.5" stroke-opacity="0.600000" cx="422" cy="-128" rx="32.49" ry="18"/>
<text text-anchor="middle" x="422" y="-124.3" font-family="monospace bold" font-size="14.00" fill="#0d0033">t2.x</text>
</g>
<!-- node_7f069dca0160&#45;&gt;node_7f069dca0490 -->
<g id="edge6" class="edge">
<title>node_7f069dca0160&#45;&gt;node_7f069dca0490</title>
<path fill="none" stroke="#3d1f99" stroke-opacity="0.800000" d="M355.07,-202.89C366.7,-190.05 386.15,-168.57 401.1,-152.08"/>
<polygon fill="#3d1f99" fill-opacity="0.800000" stroke="#3d1f99" stroke-opacity="0.800000" points="408.02,-144.44 404.64,-154.87 404.66,-148.14 401.3,-151.85 401.3,-151.85 401.3,-151.85 404.66,-148.14 397.97,-148.83 408.02,-144.44 408.02,-144.44"/>
<text text-anchor="middle" x="394" y="-167.8" font-family="Times-Roman bold" font-size="14.00" fill="#1d0073">x</text>
</g>
<!-- node_7f069dca01c0 -->
<g id="node3" class="node">
<title>node_7f069dca01c0</title>
<polygon fill="#ffad73" fill-opacity="0.600000" stroke="#b26f3e" stroke-width="3" stroke-opacity="0.600000" points="345,-320 314.83,-302 345,-284 375.17,-302 345,-320"/>
<text text-anchor="middle" x="345" y="-298.3" font-family="monospace bold" font-size="14.00" fill="#331500">t3</text>
</g>
<!-- node_7f069dca01c0&#45;&gt;node_7f069dca0400 -->
<g id="edge7" class="edge">
<title>node_7f069dca01c0&#45;&gt;node_7f069dca0400</title>
<path fill="none" stroke="#99521f" stroke-opacity="0.800000" d="M327.27,-294.33C287.91,-279.53 193.04,-243.85 146.16,-226.21"/>
<polygon fill="#99521f" fill-opacity="0.800000" stroke="#99521f" stroke-opacity="0.800000" points="136.65,-222.64 147.6,-221.95 141.33,-224.4 146.01,-226.16 146.01,-226.16 146.01,-226.16 141.33,-224.4 144.43,-230.37 136.65,-222.64 136.65,-222.64"/>
<text text-anchor="middle" x="254.5" y="-254.8" font-family="Times-Roman bold" font-size="14.00" fill="#733000">t1</text>
</g>
<!-- node_7f069dca01c0&#45;&gt;node_7f069dca0160 -->
<g id="edge8" class="edge">
<title>node_7f069dca01c0&#45;&gt;node_7f069dca0160</title>
<path fill="none" stroke="#99521f" stroke-opacity="0.800000" d="M345,-283.8C345,-272.16 345,-256.55 345,-243.24"/>
<polygon fill="#99521f" fill-opacity="0.800000" stroke="#99521f" stroke-opacity="0.800000" points="345,-233.18 349.5,-243.18 345,-238.18 345,-243.18 345,-243.18 345,-243.18 345,-238.18 340.5,-243.18 345,-233.18 345,-233.18"/>
<text text-anchor="middle" x="353.5" y="-254.8" font-family="Times-Roman bold" font-size="14.00" fill="#733000">t2</text>
</g>
<!-- node_7f069dca0580 -->
<g id="node10" class="node">
<title>node_7f069dca0580</title>
<ellipse fill="#ffad73" fill-opacity="0.600000" stroke="#b26f3e" stroke-width="1.5" stroke-opacity="0.600000" cx="563" cy="-215" rx="42.79" ry="18"/>
<text text-anchor="middle" x="563" y="-211.3" font-family="monospace bold" font-size="14.00" fill="#331500">t3.sum</text>
</g>
<!-- node_7f069dca01c0&#45;&gt;node_7f069dca0580 -->
<g id="edge9" class="edge">
<title>node_7f069dca01c0&#45;&gt;node_7f069dca0580</title>
<path fill="none" stroke="#99521f" stroke-opacity="0.800000" d="M362.47,-294.19C397.16,-280.66 475.5,-250.12 523.35,-231.46"/>
<polygon fill="#99521f" fill-opacity="0.800000" stroke="#99521f" stroke-opacity="0.800000" points="532.78,-227.78 525.1,-235.61 528.12,-229.6 523.47,-231.42 523.47,-231.42 523.47,-231.42 528.12,-229.6 521.83,-227.22 532.78,-227.78 532.78,-227.78"/>
<text text-anchor="middle" x="484.5" y="-254.8" font-family="Times-Roman bold" font-size="14.00" fill="#733000">sum</text>
</g>
<!-- value__node_7f069dca0430__c -->
<g id="node11" class="node">
<title>value__node_7f069dca0430__c</title>
<polygon fill="#73ff7e" fill-opacity="0.600000" stroke="transparent" stroke-width="1.5" points="203,-59 149,-59 149,-23 203,-23 203,-59"/>
<text text-anchor="middle" x="176" y="-37.3" font-family="monospace" font-size="14.00" fill="#003304">3</text>
</g>
<!-- node_7f069dca0430&#45;&gt;value__node_7f069dca0430__c -->
<g id="edge10" class="edge">
<title>node_7f069dca0430&#45;&gt;value__node_7f069dca0430__c</title>
<path fill="none" stroke="#1f9929" stroke-opacity="0.800000" d="M176,-109.8C176,-96.43 176,-77.82 176,-63.48"/>
<ellipse fill="#1f9929" fill-opacity="0.800000" stroke="#1f9929" stroke-opacity="0.800000" cx="176" cy="-61.18" rx="2" ry="2"/>
<text text-anchor="middle" x="180.5" y="-80.8" font-family="Times-Roman bold" font-size="14.00" fill="#00730a">c</text>
</g>
<!-- value_7f069dc9b400 -->
<g id="node12" class="node">
<title>value_7f069dc9b400</title>
<polygon fill="#73ff7e" fill-opacity="0.600000" stroke="transparent" stroke-width="1.5" points="351,-59 285,-59 285,-23 351,-23 351,-59"/>
<text text-anchor="middle" x="318" y="-37.3" font-family="monospace" font-size="14.00" fill="#003304">[1, 2]</text>
</g>
<!-- node_7f069dca0430&#45;&gt;value_7f069dc9b400 -->
<g id="edge11" class="edge">
<title>node_7f069dca0430&#45;&gt;value_7f069dc9b400</title>
<path fill="none" stroke="#1f9929" stroke-opacity="0.800000" d="M197.26,-114.27C220.73,-100.22 258.78,-77.45 285.89,-61.22"/>
<ellipse fill="#1f9929" fill-opacity="0.800000" stroke="#1f9929" stroke-opacity="0.800000" cx="287.76" cy="-60.1" rx="2" ry="2"/>
<text text-anchor="middle" x="261" y="-80.8" font-family="Times-Roman bold" font-size="14.00" fill="#00730a">d</text>
</g>
<!-- node_7f069dca0490&#45;&gt;value_7f069dc9b400 -->
<g id="edge13" class="edge">
<title>node_7f069dca0490&#45;&gt;value_7f069dc9b400</title>
<path fill="none" stroke="#3d1f99" stroke-opacity="0.800000" d="M404.36,-112.58C387.27,-98.61 361.21,-77.31 342.19,-61.77"/>
<ellipse fill="#3d1f99" fill-opacity="0.800000" stroke="#3d1f99" stroke-opacity="0.800000" cx="340.51" cy="-60.4" rx="2" ry="2"/>
<text text-anchor="middle" x="382" y="-80.8" font-family="Times-Roman bold" font-size="14.00" fill="#1d0073">d</text>
</g>
<!-- value__node_7f069dca0490__c -->
<g id="node13" class="node">
<title>value__node_7f069dca0490__c</title>
<polygon fill="#9673ff" fill-opacity="0.600000" stroke="transparent" stroke-width="1.5" points="449,-59 395,-59 395,-23 449,-23 449,-59"/>
<text text-anchor="middle" x="422" y="-37.3" font-family="monospace" font-size="14.00" fill="#0d0033">33</text>
</g>
<!-- node_7f069dca0490&#45;&gt;value__node_7f069dca0490__c -->
<g id="edge12" class="edge">
<title>node_7f069dca0490&#45;&gt;value__node_7f069dca0490__c</title>
<path fill="none" stroke="#3d1f99" stroke-opacity="0.800000" d="M422,-109.8C422,-96.43 422,-77.82 422,-63.48"/>
<ellipse fill="#3d1f99" fill-opacity="0.800000" stroke="#3d1f99" stroke-opacity="0.800000" cx="422" cy="-61.18" rx="2" ry="2"/>
<text text-anchor="middle" x="426.5" y="-80.8" font-family="Times-Roman bold" font-size="14.00" fill="#1d0073">c</text>
</g>
<!-- value__node_7f069dca0580__a -->
<g id="node14" class="node">
<title>value__node_7f069dca0580__a</title>
<polygon fill="#ffad73" fill-opacity="0.600000" stroke="transparent" stroke-width="1.5" points="563.5,-146 472.5,-146 472.5,-110 563.5,-110 563.5,-146"/>
<text text-anchor="middle" x="518" y="-124.3" font-family="monospace" font-size="14.00" fill="#331500">&#39;s1str11&#39;</text>
</g>
<!-- node_7f069dca0580&#45;&gt;value__node_7f069dca0580__a -->
<g id="edge14" class="edge">
<title>node_7f069dca0580&#45;&gt;value__node_7f069dca0580__a</title>
<path fill="none" stroke="#99521f" stroke-opacity="0.800000" d="M554.11,-197.21C546.88,-183.56 536.66,-164.24 528.93,-149.65"/>
<ellipse fill="#99521f" fill-opacity="0.800000" stroke="#99521f" stroke-opacity="0.800000" cx="527.96" cy="-147.82" rx="2" ry="2"/>
<text text-anchor="middle" x="549" y="-167.8" font-family="Times-Roman bold" font-size="14.00" fill="#733000">a</text>
</g>
<!-- value__node_7f069dca0580__b -->
<g id="node15" class="node">
<title>value__node_7f069dca0580__b</title>
<polygon fill="#ffad73" fill-opacity="0.600000" stroke="transparent" stroke-width="1.5" points="636,-146 582,-146 582,-110 636,-110 636,-146"/>
<text text-anchor="middle" x="609" y="-124.3" font-family="monospace" font-size="14.00" fill="#331500">4</text>
</g>
<!-- node_7f069dca0580&#45;&gt;value__node_7f069dca0580__b -->
<g id="edge15" class="edge">
<title>node_7f069dca0580&#45;&gt;value__node_7f069dca0580__b</title>
<path fill="none" stroke="#99521f" stroke-opacity="0.800000" d="M572.09,-197.21C579.47,-183.56 589.93,-164.24 597.82,-149.65"/>
<ellipse fill="#99521f" fill-opacity="0.800000" stroke="#99521f" stroke-opacity="0.800000" cx="598.82" cy="-147.81" rx="2" ry="2"/>
<text text-anchor="middle" x="594" y="-167.8" font-family="Times-Roman bold" font-size="14.00" fill="#733000">b</text>
</g>
<!-- node_7f069dca05b0 -->
<g id="node16" class="node">
<title>node_7f069dca05b0</title>
<ellipse fill="#ffad73" fill-opacity="0.600000" stroke="#b26f3e" stroke-width="1.5" stroke-opacity="0.600000" cx="708" cy="-128" rx="53.89" ry="18"/>
<text text-anchor="middle" x="708" y="-124.3" font-family="monospace bold" font-size="14.00" fill="#331500">t3.sum.x</text>
</g>
<!-- node_7f069dca0580&#45;&gt;node_7f069dca05b0 -->
<g id="edge16" class="edge">
<title>node_7f069dca0580&#45;&gt;node_7f069dca05b0</title>
<path fill="none" stroke="#99521f" stroke-opacity="0.800000" d="M586.94,-199.96C610.65,-186.07 647.17,-164.66 673.9,-148.99"/>
<polygon fill="#99521f" fill-opacity="0.800000" stroke="#99521f" stroke-opacity="0.800000" points="682.56,-143.92 676.2,-152.85 678.24,-146.44 673.93,-148.97 673.93,-148.97 673.93,-148.97 678.24,-146.44 671.65,-145.09 682.56,-143.92 682.56,-143.92"/>
<text text-anchor="middle" x="650" y="-167.8" font-family="Times-Roman bold" font-size="14.00" fill="#733000">x</text>
</g>
<!-- value_7f069dc94fc0 -->
<g id="node17" class="node">
<title>value_7f069dc94fc0</title>
<polygon fill="#ffad73" fill-opacity="0.600000" stroke="transparent" stroke-width="1.5" points="714,-59 598,-59 598,-23 714,-23 714,-59"/>
<text text-anchor="middle" x="656" y="-37.3" font-family="monospace" font-size="14.00" fill="#331500">[1, 2, 1, 2]</text>
</g>
<!-- node_7f069dca05b0&#45;&gt;value_7f069dc94fc0 -->
<g id="edge17" class="edge">
<title>node_7f069dca05b0&#45;&gt;value_7f069dc94fc0</title>
<path fill="none" stroke="#99521f" stroke-opacity="0.800000" d="M697.73,-110.21C689.38,-96.56 677.56,-77.24 668.63,-62.65"/>
<ellipse fill="#99521f" fill-opacity="0.800000" stroke="#99521f" stroke-opacity="0.800000" cx="667.47" cy="-60.76" rx="2" ry="2"/>
<text text-anchor="middle" x="691" y="-80.8" font-family="Times-Roman bold" font-size="14.00" fill="#733000">d</text>
</g>
<!-- value__node_7f069dca05b0__c -->
<g id="node18" class="node">
<title>value__node_7f069dca05b0__c</title>
<polygon fill="#ffad73" fill-opacity="0.600000" stroke="transparent" stroke-width="1.5" points="786,-59 732,-59 732,-23 786,-23 786,-59"/>
<text text-anchor="middle" x="759" y="-37.3" font-family="monospace" font-size="14.00" fill="#331500">36</text>
</g>
<!-- node_7f069dca05b0&#45;&gt;value__node_7f069dca05b0__c -->
<g id="edge18" class="edge">
<title>node_7f069dca05b0&#45;&gt;value__node_7f069dca05b0__c</title>
<path fill="none" stroke="#99521f" stroke-opacity="0.800000" d="M718.08,-110.21C726.26,-96.56 737.85,-77.24 746.61,-62.65"/>
<ellipse fill="#99521f" fill-opacity="0.800000" stroke="#99521f" stroke-opacity="0.800000" cx="747.74" cy="-60.76" rx="2" ry="2"/>
<text text-anchor="middle" x="740.5" y="-80.8" font-family="Times-Roman bold" font-size="14.00" fill="#733000">c</text>
</g>
</g>
</svg>
