<?xml version="1.0" encoding="UTF-8" standalone="no"?>
<!DOCTYPE svg PUBLIC "-//W3C//DTD SVG 1.1//EN"
 "http://www.w3.org/Graphics/SVG/1.1/DTD/svg11.dtd">
<!-- Generated by graphviz version 2.43.0 (0)
 -->
<!-- Title: graph_with_3_tree_s_t1_t2_t3 Pages: 1 -->
<svg width="730pt" height="241pt"
 viewBox="0.00 0.00 730.00 241.00" xmlns="http://www.w3.org/2000/svg" xmlns:xlink="http://www.w3.org/1999/xlink">
<g id="graph0" class="graph" transform="scale(1 1) rotate(0) translate(4 237)">
<title>graph_with_3_tree_s_t1_t2_t3</title>
<polygon fill="white" stroke="transparent" points="-4,4 -4,-237 726,-237 726,4 -4,4"/>
<text text-anchor="middle" x="361" y="-7.8" font-family="Times,serif" font-size="14.00">Graph with 3 tree(s) &#45; t1, t2, t3.</text>
<!-- node_7f2eefb36820 -->
<g id="node1" class="node">
<title>node_7f2eefb36820</title>
<polygon fill="#73ff7e" fill-opacity="0.600000" stroke="#3eb248" stroke-width="3" stroke-opacity="0.600000" points="99,-233 68.83,-215 99,-197 129.17,-215 99,-233"/>
<text text-anchor="middle" x="99" y="-211.3" font-family="monospace bold" font-size="14.00" fill="#003304">t1</text>
</g>
<!-- value__node_7f2eefb36820__a -->
<g id="node4" class="node">
<title>value__node_7f2eefb36820__a</title>
<polygon fill="#73ff7e" fill-opacity="0.600000" stroke="transparent" stroke-width="1.5" points="54,-146 0,-146 0,-110 54,-110 54,-146"/>
<text text-anchor="middle" x="27" y="-124.3" font-family="monospace" font-size="14.00" fill="#003304">1</text>
</g>
<!-- node_7f2eefb36820&#45;&gt;value__node_7f2eefb36820__a -->
<g id="edge1" class="edge">
<title>node_7f2eefb36820&#45;&gt;value__node_7f2eefb36820__a</title>
<path fill="none" stroke="#1f9929" stroke-opacity="0.800000" d="M89.29,-202.54C77.77,-188.94 58.37,-166.03 44.27,-149.39"/>
<ellipse fill="#1f9929" fill-opacity="0.800000" stroke="#1f9929" stroke-opacity="0.800000" cx="42.82" cy="-147.68" rx="2" ry="2"/>
<text text-anchor="middle" x="73" y="-167.8" font-family="Times-Roman bold" font-size="14.00" fill="#00730a">a</text>
</g>
<!-- value__node_7f2eefb36820__b -->
<g id="node5" class="node">
<title>value__node_7f2eefb36820__b</title>
<polygon fill="#73ff7e" fill-opacity="0.600000" stroke="transparent" stroke-width="1.5" points="126,-146 72,-146 72,-110 126,-110 126,-146"/>
<text text-anchor="middle" x="99" y="-124.3" font-family="monospace" font-size="14.00" fill="#003304">2</text>
</g>
<!-- node_7f2eefb36820&#45;&gt;value__node_7f2eefb36820__b -->
<g id="edge2" class="edge">
<title>node_7f2eefb36820&#45;&gt;value__node_7f2eefb36820__b</title>
<path fill="none" stroke="#1f9929" stroke-opacity="0.800000" d="M99,-196.8C99,-183.43 99,-164.82 99,-150.48"/>
<ellipse fill="#1f9929" fill-opacity="0.800000" stroke="#1f9929" stroke-opacity="0.800000" cx="99" cy="-148.18" rx="2" ry="2"/>
<text text-anchor="middle" x="104" y="-167.8" font-family="Times-Roman bold" font-size="14.00" fill="#00730a">b</text>
</g>
<!-- node_7f2eefb36850 -->
<g id="node6" class="node">
<title>node_7f2eefb36850</title>
<ellipse fill="#73ff7e" fill-opacity="0.600000" stroke="#3eb248" stroke-width="1.5" stroke-opacity="0.600000" cx="176" cy="-128" rx="32.49" ry="18"/>
<text text-anchor="middle" x="176" y="-124.3" font-family="monospace bold" font-size="14.00" fill="#003304">t1.x</text>
</g>
<!-- node_7f2eefb36820&#45;&gt;node_7f2eefb36850 -->
<g id="edge3" class="edge">
<title>node_7f2eefb36820&#45;&gt;node_7f2eefb36850</title>
<path fill="none" stroke="#1f9929" stroke-opacity="0.800000" d="M109.07,-202.89C120.7,-190.05 140.15,-168.57 155.1,-152.08"/>
<polygon fill="#1f9929" fill-opacity="0.800000" stroke="#1f9929" stroke-opacity="0.800000" points="162.02,-144.44 158.64,-154.87 158.66,-148.14 155.3,-151.85 155.3,-151.85 155.3,-151.85 158.66,-148.14 151.97,-148.83 162.02,-144.44 162.02,-144.44"/>
<text text-anchor="middle" x="148" y="-167.8" font-family="Times-Roman bold" font-size="14.00" fill="#00730a">x</text>
</g>
<!-- node_7f2eefb36970 -->
<g id="node2" class="node">
<title>node_7f2eefb36970</title>
<polygon fill="#9673ff" fill-opacity="0.600000" stroke="#5b3eb2" stroke-width="3" stroke-opacity="0.600000" points="325,-233 294.83,-215 325,-197 355.17,-215 325,-233"/>
<text text-anchor="middle" x="325" y="-211.3" font-family="monospace bold" font-size="14.00" fill="#0d0033">t2</text>
</g>
<!-- value__node_7f2eefb36970__a -->
<g id="node7" class="node">
<title>value__node_7f2eefb36970__a</title>
<polygon fill="#9673ff" fill-opacity="0.600000" stroke="transparent" stroke-width="1.5" points="280,-146 226,-146 226,-110 280,-110 280,-146"/>
<text text-anchor="middle" x="253" y="-124.3" font-family="monospace" font-size="14.00" fill="#0d0033">11</text>
</g>
<!-- node_7f2eefb36970&#45;&gt;value__node_7f2eefb36970__a -->
<g id="edge4" class="edge">
<title>node_7f2eefb36970&#45;&gt;value__node_7f2eefb36970__a</title>
<path fill="none" stroke="#3d1f99" stroke-opacity="0.800000" d="M315.29,-202.54C303.77,-188.94 284.37,-166.03 270.27,-149.39"/>
<ellipse fill="#3d1f99" fill-opacity="0.800000" stroke="#3d1f99" stroke-opacity="0.800000" cx="268.82" cy="-147.68" rx="2" ry="2"/>
<text text-anchor="middle" x="299" y="-167.8" font-family="Times-Roman bold" font-size="14.00" fill="#1d0073">a</text>
</g>
<!-- value__node_7f2eefb36970__b -->
<g id="node8" class="node">
<title>value__node_7f2eefb36970__b</title>
<polygon fill="#9673ff" fill-opacity="0.600000" stroke="transparent" stroke-width="1.5" points="352,-146 298,-146 298,-110 352,-110 352,-146"/>
<text text-anchor="middle" x="325" y="-124.3" font-family="monospace" font-size="14.00" fill="#0d0033">24</text>
</g>
<!-- node_7f2eefb36970&#45;&gt;value__node_7f2eefb36970__b -->
<g id="edge5" class="edge">
<title>node_7f2eefb36970&#45;&gt;value__node_7f2eefb36970__b</title>
<path fill="none" stroke="#3d1f99" stroke-opacity="0.800000" d="M325,-196.8C325,-183.43 325,-164.82 325,-150.48"/>
<ellipse fill="#3d1f99" fill-opacity="0.800000" stroke="#3d1f99" stroke-opacity="0.800000" cx="325" cy="-148.18" rx="2" ry="2"/>
<text text-anchor="middle" x="330" y="-167.8" font-family="Times-Roman bold" font-size="14.00" fill="#1d0073">b</text>
</g>
<!-- node_7f2eefb367c0 -->
<g id="node9" class="node">
<title>node_7f2eefb367c0</title>
<ellipse fill="#9673ff" fill-opacity="0.600000" stroke="#5b3eb2" stroke-width="1.5" stroke-opacity="0.600000" cx="402" cy="-128" rx="32.49" ry="18"/>
<text text-anchor="middle" x="402" y="-124.3" font-family="monospace bold" font-size="14.00" fill="#0d0033">t2.x</text>
</g>
<!-- node_7f2eefb36970&#45;&gt;node_7f2eefb367c0 -->
<g id="edge6" class="edge">
<title>node_7f2eefb36970&#45;&gt;node_7f2eefb367c0</title>
<path fill="none" stroke="#3d1f99" stroke-opacity="0.800000" d="M335.07,-202.89C346.7,-190.05 366.15,-168.57 381.1,-152.08"/>
<polygon fill="#3d1f99" fill-opacity="0.800000" stroke="#3d1f99" stroke-opacity="0.800000" points="388.02,-144.44 384.64,-154.87 384.66,-148.14 381.3,-151.85 381.3,-151.85 381.3,-151.85 384.66,-148.14 377.97,-148.83 388.02,-144.44 388.02,-144.44"/>
<text text-anchor="middle" x="374" y="-167.8" font-family="Times-Roman bold" font-size="14.00" fill="#1d0073">x</text>
</g>
<!-- node_7f2eefb369a0 -->
<g id="node3" class="node">
<title>node_7f2eefb369a0</title>
<polygon fill="#ffad73" fill-opacity="0.600000" stroke="#b26f3e" stroke-width="3" stroke-opacity="0.600000" points="623,-233 592.83,-215 623,-197 653.17,-215 623,-233"/>
<text text-anchor="middle" x="623" y="-211.3" font-family="monospace bold" font-size="14.00" fill="#331500">t3</text>
</g>
<!-- node_7f2eefb369d0 -->
<g id="node10" class="node">
<title>node_7f2eefb369d0</title>
<ellipse fill="#ffad73" fill-opacity="0.600000" stroke="#b26f3e" stroke-width="1.5" stroke-opacity="0.600000" cx="546" cy="-128" rx="32.49" ry="18"/>
<text text-anchor="middle" x="546" y="-124.3" font-family="monospace bold" font-size="14.00" fill="#331500">t3.x</text>
</g>
<!-- node_7f2eefb369a0&#45;&gt;node_7f2eefb369d0 -->
<g id="edge7" class="edge">
<title>node_7f2eefb369a0&#45;&gt;node_7f2eefb369d0</title>
<path fill="none" stroke="#99521f" stroke-opacity="0.800000" d="M612.93,-202.89C601.3,-190.05 581.85,-168.57 566.9,-152.08"/>
<polygon fill="#99521f" fill-opacity="0.800000" stroke="#99521f" stroke-opacity="0.800000" points="559.98,-144.44 570.03,-148.83 563.34,-148.14 566.7,-151.85 566.7,-151.85 566.7,-151.85 563.34,-148.14 563.36,-154.87 559.98,-144.44 559.98,-144.44"/>
<text text-anchor="middle" x="595" y="-167.8" font-family="Times-Roman bold" font-size="14.00" fill="#733000">x</text>
</g>
<!-- value__node_7f2eefb369a0__a -->
<g id="node11" class="node">
<title>value__node_7f2eefb369a0__a</title>
<polygon fill="#ffad73" fill-opacity="0.600000" stroke="transparent" stroke-width="1.5" points="650,-146 596,-146 596,-110 650,-110 650,-146"/>
<text text-anchor="middle" x="623" y="-124.3" font-family="monospace" font-size="14.00" fill="#331500">12</text>
</g>
<!-- node_7f2eefb369a0&#45;&gt;value__node_7f2eefb369a0__a -->
<g id="edge8" class="edge">
<title>node_7f2eefb369a0&#45;&gt;value__node_7f2eefb369a0__a</title>
<path fill="none" stroke="#99521f" stroke-opacity="0.800000" d="M623,-196.8C623,-183.43 623,-164.82 623,-150.48"/>
<ellipse fill="#99521f" fill-opacity="0.800000" stroke="#99521f" stroke-opacity="0.800000" cx="623" cy="-148.18" rx="2" ry="2"/>
<text text-anchor="middle" x="628" y="-167.8" font-family="Times-Roman bold" font-size="14.00" fill="#733000">a</text>
</g>
<!-- value__node_7f2eefb369a0__b -->
<g id="node12" class="node">
<title>value__node_7f2eefb369a0__b</title>
<polygon fill="#ffad73" fill-opacity="0.600000" stroke="transparent" stroke-width="1.5" points="722,-146 668,-146 668,-110 722,-110 722,-146"/>
<text text-anchor="middle" x="695" y="-124.3" font-family="monospace" font-size="14.00" fill="#331500">26</text>
</g>
<!-- node_7f2eefb369a0&#45;&gt;value__node_7f2eefb369a0__b -->
<g id="edge9" class="edge">
<title>node_7f2eefb369a0&#45;&gt;value__node_7f2eefb369a0__b</title>
<path fill="none" stroke="#99521f" stroke-opacity="0.800000" d="M632.71,-202.54C644.23,-188.94 663.63,-166.03 677.73,-149.39"/>
<ellipse fill="#99521f" fill-opacity="0.800000" stroke="#99521f" stroke-opacity="0.800000" cx="679.18" cy="-147.68" rx="2" ry="2"/>
<text text-anchor="middle" x="668" y="-167.8" font-family="Times-Roman bold" font-size="14.00" fill="#733000">b</text>
</g>
<!-- value__node_7f2eefb36850__c -->
<g id="node13" class="node">
<title>value__node_7f2eefb36850__c</title>
<polygon fill="#73ff7e" fill-opacity="0.600000" stroke="transparent" stroke-width="1.5" points="167,-59 113,-59 113,-23 167,-23 167,-59"/>
<text text-anchor="middle" x="140" y="-37.3" font-family="monospace" font-size="14.00" fill="#003304">3</text>
</g>
<!-- node_7f2eefb36850&#45;&gt;value__node_7f2eefb36850__c -->
<g id="edge10" class="edge">
<title>node_7f2eefb36850&#45;&gt;value__node_7f2eefb36850__c</title>
<path fill="none" stroke="#1f9929" stroke-opacity="0.800000" d="M168.89,-110.21C163.16,-96.67 155.07,-77.57 148.9,-63.02"/>
<ellipse fill="#1f9929" fill-opacity="0.800000" stroke="#1f9929" stroke-opacity="0.800000" cx="148" cy="-60.89" rx="2" ry="2"/>
<text text-anchor="middle" x="165.5" y="-80.8" font-family="Times-Roman bold" font-size="14.00" fill="#00730a">c</text>
</g>
<!-- value__node_7f2eefb36850__d -->
<g id="node14" class="node">
<title>value__node_7f2eefb36850__d</title>
<polygon fill="#73ff7e" fill-opacity="0.600000" stroke="transparent" stroke-width="1.5" points="239,-59 185,-59 185,-23 239,-23 239,-59"/>
<text text-anchor="middle" x="212" y="-37.3" font-family="monospace" font-size="14.00" fill="#003304">4</text>
</g>
<!-- node_7f2eefb36850&#45;&gt;value__node_7f2eefb36850__d -->
<g id="edge11" class="edge">
<title>node_7f2eefb36850&#45;&gt;value__node_7f2eefb36850__d</title>
<path fill="none" stroke="#1f9929" stroke-opacity="0.800000" d="M183.11,-110.21C188.84,-96.67 196.93,-77.57 203.1,-63.02"/>
<ellipse fill="#1f9929" fill-opacity="0.800000" stroke="#1f9929" stroke-opacity="0.800000" cx="204" cy="-60.89" rx="2" ry="2"/>
<text text-anchor="middle" x="202" y="-80.8" font-family="Times-Roman bold" font-size="14.00" fill="#00730a">d</text>
</g>
<!-- value__node_7f2eefb367c0__c -->
<g id="node15" class="node">
<title>value__node_7f2eefb367c0__c</title>
<polygon fill="#9673ff" fill-opacity="0.600000" stroke="transparent" stroke-width="1.5" points="393,-59 339,-59 339,-23 393,-23 393,-59"/>
<text text-anchor="middle" x="366" y="-37.3" font-family="monospace" font-size="14.00" fill="#0d0033">30</text>
</g>
<!-- node_7f2eefb367c0&#45;&gt;value__node_7f2eefb367c0__c -->
<g id="edge12" class="edge">
<title>node_7f2eefb367c0&#45;&gt;value__node_7f2eefb367c0__c</title>
<path fill="none" stroke="#3d1f99" stroke-opacity="0.800000" d="M394.89,-110.21C389.16,-96.67 381.07,-77.57 374.9,-63.02"/>
<ellipse fill="#3d1f99" fill-opacity="0.800000" stroke="#3d1f99" stroke-opacity="0.800000" cx="374" cy="-60.89" rx="2" ry="2"/>
<text text-anchor="middle" x="391.5" y="-80.8" font-family="Times-Roman bold" font-size="14.00" fill="#1d0073">c</text>
</g>
<!-- value__node_7f2eefb367c0__d -->
<g id="node16" class="node">
<title>value__node_7f2eefb367c0__d</title>
<polygon fill="#9673ff" fill-opacity="0.600000" stroke="transparent" stroke-width="1.5" points="465,-59 411,-59 411,-23 465,-23 465,-59"/>
<text text-anchor="middle" x="438" y="-37.3" font-family="monospace" font-size="14.00" fill="#0d0033">47</text>
</g>
<!-- node_7f2eefb367c0&#45;&gt;value__node_7f2eefb367c0__d -->
<g id="edge13" class="edge">
<title>node_7f2eefb367c0&#45;&gt;value__node_7f2eefb367c0__d</title>
<path fill="none" stroke="#3d1f99" stroke-opacity="0.800000" d="M409.11,-110.21C414.84,-96.67 422.93,-77.57 429.1,-63.02"/>
<ellipse fill="#3d1f99" fill-opacity="0.800000" stroke="#3d1f99" stroke-opacity="0.800000" cx="430" cy="-60.89" rx="2" ry="2"/>
<text text-anchor="middle" x="428" y="-80.8" font-family="Times-Roman bold" font-size="14.00" fill="#1d0073">d</text>
</g>
<!-- value__node_7f2eefb369d0__c -->
<g id="node17" class="node">
<title>value__node_7f2eefb369d0__c</title>
<polygon fill="#ffad73" fill-opacity="0.600000" stroke="transparent" stroke-width="1.5" points="537,-59 483,-59 483,-23 537,-23 537,-59"/>
<text text-anchor="middle" x="510" y="-37.3" font-family="monospace" font-size="14.00" fill="#331500">33</text>
</g>
<!-- node_7f2eefb369d0&#45;&gt;value__node_7f2eefb369d0__c -->
<g id="edge14" class="edge">
<title>node_7f2eefb369d0&#45;&gt;value__node_7f2eefb369d0__c</title>
<path fill="none" stroke="#99521f" stroke-opacity="0.800000" d="M538.89,-110.21C533.16,-96.67 525.07,-77.57 518.9,-63.02"/>
<ellipse fill="#99521f" fill-opacity="0.800000" stroke="#99521f" stroke-opacity="0.800000" cx="518" cy="-60.89" rx="2" ry="2"/>
<text text-anchor="middle" x="535.5" y="-80.8" font-family="Times-Roman bold" font-size="14.00" fill="#733000">c</text>
</g>
<!-- value__node_7f2eefb369d0__d -->
<g id="node18" class="node">
<title>value__node_7f2eefb369d0__d</title>
<polygon fill="#ffad73" fill-opacity="0.600000" stroke="transparent" stroke-width="1.5" points="609,-59 555,-59 555,-23 609,-23 609,-59"/>
<text text-anchor="middle" x="582" y="-37.3" font-family="monospace" font-size="14.00" fill="#331500">51</text>
</g>
<!-- node_7f2eefb369d0&#45;&gt;value__node_7f2eefb369d0__d -->
<g id="edge15" class="edge">
<title>node_7f2eefb369d0&#45;&gt;value__node_7f2eefb369d0__d</title>
<path fill="none" stroke="#99521f" stroke-opacity="0.800000" d="M553.11,-110.21C558.84,-96.67 566.93,-77.57 573.1,-63.02"/>
<ellipse fill="#99521f" fill-opacity="0.800000" stroke="#99521f" stroke-opacity="0.800000" cx="574" cy="-60.89" rx="2" ry="2"/>
<text text-anchor="middle" x="572" y="-80.8" font-family="Times-Roman bold" font-size="14.00" fill="#733000">d</text>
</g>
</g>
</svg>
