<?xml version="1.0" encoding="UTF-8" standalone="no"?>
<!DOCTYPE svg PUBLIC "-//W3C//DTD SVG 1.1//EN"
 "http://www.w3.org/Graphics/SVG/1.1/DTD/svg11.dtd">
<!-- Generated by graphviz version 2.43.0 (0)
 -->
<!-- Title: index Pages: 1 -->
<svg width="683pt" height="273pt"
 viewBox="0.00 0.00 683.00 273.00" xmlns="http://www.w3.org/2000/svg" xmlns:xlink="http://www.w3.org/1999/xlink">
<g id="graph0" class="graph" transform="scale(1 1) rotate(0) translate(4 269)">
<title>index</title>
<polygon fill="transparent" stroke="transparent" points="-4,4 -4,-269 679,-269 679,4 -4,4"/>
<g id="clust1" class="cluster">
<title>cluster_t</title>
<polygon fill="transparent" stroke="black" points="8,-8 8,-257 313,-257 313,-8 8,-8"/>
<text text-anchor="middle" x="160.5" y="-241.8" font-family="Times,serif" font-size="14.00">Tree &#39;t&#39;</text>
</g>
<g id="clust2" class="cluster">
<title>cluster_t_0</title>
<polygon fill="transparent" stroke="black" points="321,-8 321,-257 667,-257 667,-8 321,-8"/>
<text text-anchor="middle" x="494" y="-241.8" font-family="Times,serif" font-size="14.00">Result of t[0]</text>
</g>
<!-- root0 -->
<g id="node1" class="node">
<title>root0</title>
<ellipse fill="none" stroke="black" cx="180" cy="-208" rx="27" ry="18"/>
<text text-anchor="middle" x="180" y="-204.3" font-family="Times,serif" font-size="14.00">t</text>
</g>
<!-- n01 -->
<g id="node2" class="node">
<title>n01</title>
<ellipse fill="none" stroke="black" cx="63" cy="-121" rx="46.59" ry="18"/>
<text text-anchor="middle" x="63" y="-117.3" font-family="Times,serif" font-size="14.00">[1, 2, 3]</text>
</g>
<!-- root0&#45;&gt;n01 -->
<g id="edge1" class="edge">
<title>root0&#45;&gt;n01</title>
<path fill="none" stroke="black" d="M162.48,-194.27C144.02,-180.86 114.63,-159.51 92.56,-143.48"/>
<polygon fill="black" stroke="black" points="94.36,-140.45 84.21,-137.41 90.24,-146.12 94.36,-140.45"/>
<text text-anchor="middle" x="132.5" y="-160.8" font-family="Times,serif" font-size="14.00">a</text>
</g>
<!-- n02 -->
<g id="node3" class="node">
<title>n02</title>
<ellipse fill="none" stroke="black" cx="180" cy="-121" rx="52.79" ry="18"/>
<text text-anchor="middle" x="180" y="-117.3" font-family="Times,serif" font-size="14.00">[4, 9, 16]</text>
</g>
<!-- root0&#45;&gt;n02 -->
<g id="edge2" class="edge">
<title>root0&#45;&gt;n02</title>
<path fill="none" stroke="black" d="M180,-189.8C180,-178.16 180,-162.55 180,-149.24"/>
<polygon fill="black" stroke="black" points="183.5,-149.18 180,-139.18 176.5,-149.18 183.5,-149.18"/>
<text text-anchor="middle" x="185" y="-160.8" font-family="Times,serif" font-size="14.00">b</text>
</g>
<!-- n03 -->
<g id="node4" class="node">
<title>n03</title>
<ellipse fill="none" stroke="black" cx="278" cy="-121" rx="27" ry="18"/>
<text text-anchor="middle" x="278" y="-117.3" font-family="Times,serif" font-size="14.00">t.x</text>
</g>
<!-- root0&#45;&gt;n03 -->
<g id="edge3" class="edge">
<title>root0&#45;&gt;n03</title>
<path fill="none" stroke="black" d="M195.75,-193.34C211.51,-179.67 235.97,-158.45 254.13,-142.71"/>
<polygon fill="black" stroke="black" points="256.71,-145.1 261.97,-135.91 252.12,-139.81 256.71,-145.1"/>
<text text-anchor="middle" x="238.5" y="-160.8" font-family="Times,serif" font-size="14.00">x</text>
</g>
<!-- n04 -->
<g id="node5" class="node">
<title>n04</title>
<ellipse fill="none" stroke="black" cx="111" cy="-34" rx="64.19" ry="18"/>
<text text-anchor="middle" x="111" y="-30.3" font-family="Times,serif" font-size="14.00">[11, 13, 17]</text>
</g>
<!-- n03&#45;&gt;n04 -->
<g id="edge4" class="edge">
<title>n03&#45;&gt;n04</title>
<path fill="none" stroke="black" d="M257.19,-109.41C230.33,-95.74 183.09,-71.69 149.59,-54.64"/>
<polygon fill="black" stroke="black" points="151.03,-51.45 140.53,-50.03 147.86,-57.69 151.03,-51.45"/>
<text text-anchor="middle" x="208" y="-73.8" font-family="Times,serif" font-size="14.00">c</text>
</g>
<!-- n05 -->
<g id="node6" class="node">
<title>n05</title>
<ellipse fill="none" stroke="black" cx="249" cy="-34" rx="55.79" ry="18"/>
<text text-anchor="middle" x="249" y="-30.3" font-family="Times,serif" font-size="14.00">[&#45;2, &#45;4, &#45;8]</text>
</g>
<!-- n03&#45;&gt;n05 -->
<g id="edge5" class="edge">
<title>n03&#45;&gt;n05</title>
<path fill="none" stroke="black" d="M272.27,-103.21C268.25,-91.41 262.78,-75.38 258.15,-61.82"/>
<polygon fill="black" stroke="black" points="261.36,-60.38 254.82,-52.05 254.73,-62.64 261.36,-60.38"/>
<text text-anchor="middle" x="270" y="-73.8" font-family="Times,serif" font-size="14.00">d</text>
</g>
<!-- root1 -->
<g id="node7" class="node">
<title>root1</title>
<ellipse fill="none" stroke="black" cx="513" cy="-208" rx="27.1" ry="18"/>
<text text-anchor="middle" x="513" y="-204.3" font-family="Times,serif" font-size="14.00">t[0]</text>
</g>
<!-- n11 -->
<g id="node8" class="node">
<title>n11</title>
<ellipse fill="none" stroke="black" cx="384" cy="-121" rx="55.49" ry="18"/>
<text text-anchor="middle" x="384" y="-117.3" font-family="Times,serif" font-size="14.00">1 = t.a[0]</text>
</g>
<!-- root1&#45;&gt;n11 -->
<g id="edge6" class="edge">
<title>root1&#45;&gt;n11</title>
<path fill="none" stroke="black" d="M494.24,-194.64C473.83,-181.19 440.82,-159.44 416.24,-143.24"/>
<polygon fill="black" stroke="black" points="417.88,-140.13 407.6,-137.55 414.02,-145.97 417.88,-140.13"/>
<text text-anchor="middle" x="460.5" y="-160.8" font-family="Times,serif" font-size="14.00">a</text>
</g>
<!-- n12 -->
<g id="node9" class="node">
<title>n12</title>
<ellipse fill="none" stroke="black" cx="513" cy="-121" rx="55.79" ry="18"/>
<text text-anchor="middle" x="513" y="-117.3" font-family="Times,serif" font-size="14.00">4 = t.b[0]</text>
</g>
<!-- root1&#45;&gt;n12 -->
<g id="edge7" class="edge">
<title>root1&#45;&gt;n12</title>
<path fill="none" stroke="black" d="M513,-189.8C513,-178.16 513,-162.55 513,-149.24"/>
<polygon fill="black" stroke="black" points="516.5,-149.18 513,-139.18 509.5,-149.18 516.5,-149.18"/>
<text text-anchor="middle" x="518" y="-160.8" font-family="Times,serif" font-size="14.00">b</text>
</g>
<!-- n13 -->
<g id="node10" class="node">
<title>n13</title>
<ellipse fill="none" stroke="black" cx="623" cy="-121" rx="36" ry="18"/>
<text text-anchor="middle" x="623" y="-117.3" font-family="Times,serif" font-size="14.00">t[0].x</text>
</g>
<!-- root1&#45;&gt;n13 -->
<g id="edge8" class="edge">
<title>root1&#45;&gt;n13</title>
<path fill="none" stroke="black" d="M530.19,-193.72C547.82,-180.09 575.5,-158.7 596.05,-142.83"/>
<polygon fill="black" stroke="black" points="598.32,-145.5 604.09,-136.61 594.04,-139.96 598.32,-145.5"/>
<text text-anchor="middle" x="578.5" y="-160.8" font-family="Times,serif" font-size="14.00">x</text>
</g>
<!-- n14 -->
<g id="node11" class="node">
<title>n14</title>
<ellipse fill="none" stroke="black" cx="438" cy="-34" rx="68.79" ry="18"/>
<text text-anchor="middle" x="438" y="-30.3" font-family="Times,serif" font-size="14.00">11 = t.x.c[0]</text>
</g>
<!-- n13&#45;&gt;n14 -->
<g id="edge9" class="edge">
<title>n13&#45;&gt;n14</title>
<path fill="none" stroke="black" d="M597.28,-108.18C566.93,-94.24 516.04,-70.86 479.96,-54.28"/>
<polygon fill="black" stroke="black" points="481.22,-51 470.67,-50.01 478.29,-57.37 481.22,-51"/>
<text text-anchor="middle" x="545" y="-73.8" font-family="Times,serif" font-size="14.00">c</text>
</g>
<!-- n15 -->
<g id="node12" class="node">
<title>n15</title>
<ellipse fill="none" stroke="black" cx="592" cy="-34" rx="66.89" ry="18"/>
<text text-anchor="middle" x="592" y="-30.3" font-family="Times,serif" font-size="14.00">&#45;2 = t.x.d[0]</text>
</g>
<!-- n13&#45;&gt;n15 -->
<g id="edge10" class="edge">
<title>n13&#45;&gt;n15</title>
<path fill="none" stroke="black" d="M616.88,-103.21C612.57,-91.41 606.73,-75.38 601.78,-61.82"/>
<polygon fill="black" stroke="black" points="604.93,-60.24 598.22,-52.05 598.36,-62.64 604.93,-60.24"/>
<text text-anchor="middle" x="614" y="-73.8" font-family="Times,serif" font-size="14.00">d</text>
</g>
</g>
</svg>
