<?xml version="1.0" encoding="UTF-8" standalone="no"?>
<!DOCTYPE svg PUBLIC "-//W3C//DTD SVG 1.1//EN"
 "http://www.w3.org/Graphics/SVG/1.1/DTD/svg11.dtd">
<!-- Generated by graphviz version 2.43.0 (0)
 -->
<!-- Title: %3 Pages: 1 -->
<svg width="699pt" height="237pt"
 viewBox="0.00 0.00 698.50 237.00" xmlns="http://www.w3.org/2000/svg" xmlns:xlink="http://www.w3.org/1999/xlink">
<g id="graph0" class="graph" transform="scale(1 1) rotate(0) translate(4 233)">
<title>%3</title>
<polygon fill="white" stroke="transparent" points="-4,4 -4,-233 694.5,-233 694.5,4 -4,4"/>
<!-- node_7f17a04c4580 -->
<g id="node1" class="node">
<title>node_7f17a04c4580</title>
<polygon fill="#73ff7e" fill-opacity="0.600000" stroke="#3eb248" stroke-width="3" stroke-opacity="0.600000" points="288.5,-229 227.67,-211 288.5,-193 349.33,-211 288.5,-229"/>
<text text-anchor="middle" x="288.5" y="-207.3" font-family="monospace bold" font-size="14.00" fill="#003304">&lt;root&gt;</text>
</g>
<!-- value__node_7f17a04c4580__a -->
<g id="node2" class="node">
<title>value__node_7f17a04c4580__a</title>
<polygon fill="#73ff7e" fill-opacity="0.600000" stroke="transparent" stroke-width="1.5" points="421,-142 0,-142 0,-104 421,-104 421,-142"/>
<text text-anchor="start" x="8" y="-126.8" font-family="monospace" font-size="14.00" fill="#003304">tensor([[&#45;7.2318e&#45;01,  1.1588e+00,  3.4111e&#45;01],</text>
<text text-anchor="start" x="8" y="-111.8" font-family="monospace" font-size="14.00" fill="#003304">        [ 6.1241e&#45;05,  1.6918e&#45;01, &#45;1.7147e+00]])</text>
</g>
<!-- node_7f17a04c4580&#45;&gt;value__node_7f17a04c4580__a -->
<g id="edge1" class="edge">
<title>node_7f17a04c4580&#45;&gt;value__node_7f17a04c4580__a</title>
<path fill="none" stroke="#1f9929" stroke-opacity="0.800000" d="M276.31,-196.56C263.86,-182.83 244.34,-161.31 229.79,-145.27"/>
<ellipse fill="#1f9929" fill-opacity="0.800000" stroke="#1f9929" stroke-opacity="0.800000" cx="228.29" cy="-143.61" rx="2" ry="2"/>
<text text-anchor="middle" x="260.5" y="-163.8" font-family="Times-Roman bold" font-size="14.00" fill="#00730a">a</text>
</g>
<!-- node_7f17a04c4250 -->
<g id="node3" class="node">
<title>node_7f17a04c4250</title>
<ellipse fill="#73ff7e" fill-opacity="0.600000" stroke="#3eb248" stroke-width="1.5" stroke-opacity="0.600000" cx="492.5" cy="-123" rx="53.89" ry="18"/>
<text text-anchor="middle" x="492.5" y="-119.3" font-family="monospace bold" font-size="14.00" fill="#003304">&lt;root&gt;.x</text>
</g>
<!-- node_7f17a04c4580&#45;&gt;node_7f17a04c4250 -->
<g id="edge2" class="edge">
<title>node_7f17a04c4580&#45;&gt;node_7f17a04c4250</title>
<path fill="none" stroke="#1f9929" stroke-opacity="0.800000" d="M312.3,-199.97C346.33,-185.62 409.38,-159.04 451.14,-141.43"/>
<polygon fill="#1f9929" fill-opacity="0.800000" stroke="#1f9929" stroke-opacity="0.800000" points="460.49,-137.49 453.02,-145.53 455.88,-139.44 451.28,-141.38 451.28,-141.38 451.28,-141.38 455.88,-139.44 449.53,-137.23 460.49,-137.49 460.49,-137.49"/>
<text text-anchor="middle" x="407.5" y="-163.8" font-family="Times-Roman bold" font-size="14.00" fill="#00730a">x</text>
</g>
<!-- value__node_7f17a04c4250__c -->
<g id="node4" class="node">
<title>value__node_7f17a04c4250__c</title>
<polygon fill="#73ff7e" fill-opacity="0.600000" stroke="transparent" stroke-width="1.5" points="690.5,-53 294.5,-53 294.5,0 690.5,0 690.5,-53"/>
<text text-anchor="start" x="302.5" y="-37.8" font-family="monospace" font-size="14.00" fill="#003304">tensor([[&#45;1.1043, &#45;0.8219,  0.0261, &#45;1.3722],</text>
<text text-anchor="start" x="302.5" y="-22.8" font-family="monospace" font-size="14.00" fill="#003304">        [ 0.0466, &#45;0.5137,  0.9129, &#45;0.9426],</text>
<text text-anchor="start" x="302.5" y="-7.8" font-family="monospace" font-size="14.00" fill="#003304">        [ 1.2431,  1.6970, &#45;0.1895,  1.1367]])</text>
</g>
<!-- node_7f17a04c4250&#45;&gt;value__node_7f17a04c4250__c -->
<g id="edge3" class="edge">
<title>node_7f17a04c4250&#45;&gt;value__node_7f17a04c4250__c</title>
<path fill="none" stroke="#1f9929" stroke-opacity="0.800000" d="M492.5,-104.67C492.5,-91.52 492.5,-73.11 492.5,-57.58"/>
<ellipse fill="#1f9929" fill-opacity="0.800000" stroke="#1f9929" stroke-opacity="0.800000" cx="492.5" cy="-55.28" rx="2" ry="2"/>
<text text-anchor="middle" x="497" y="-74.8" font-family="Times-Roman bold" font-size="14.00" fill="#00730a">c</text>
</g>
</g>
</svg>
