<?xml version="1.0" encoding="UTF-8" standalone="no"?>
<!DOCTYPE svg PUBLIC "-//W3C//DTD SVG 1.1//EN"
 "http://www.w3.org/Graphics/SVG/1.1/DTD/svg11.dtd">
<!-- Generated by graphviz version 2.43.0 (0)
 -->
<!-- Title: edit_tree Pages: 1 -->
<svg width="776pt" height="273pt"
 viewBox="0.00 0.00 776.00 273.00" xmlns="http://www.w3.org/2000/svg" xmlns:xlink="http://www.w3.org/1999/xlink">
<g id="graph0" class="graph" transform="scale(1 1) rotate(0) translate(4 269)">
<title>edit_tree</title>
<polygon fill="transparent" stroke="transparent" points="-4,4 -4,-269 772,-269 772,4 -4,4"/>
<g id="clust1" class="cluster">
<title>cluster_step3</title>
<polygon fill="transparent" stroke="black" points="8,-8 8,-257 226,-257 226,-8 8,-8"/>
<text text-anchor="middle" x="117" y="-241.8" font-family="Times,serif" font-size="14.00">(3) After t.x = {&#39;e&#39;: 5, &#39;f&#39;: 6}</text>
</g>
<g id="clust2" class="cluster">
<title>cluster_step4</title>
<polygon fill="transparent" stroke="black" points="234,-8 234,-257 534,-257 534,-8 234,-8"/>
<text text-anchor="middle" x="384" y="-241.8" font-family="Times,serif" font-size="14.00">(4) After t.x.g = raw({&#39;e&#39;: 5, &#39;f&#39;: 6})</text>
</g>
<g id="clust3" class="cluster">
<title>cluster_step5</title>
<polygon fill="transparent" stroke="black" points="542,-8 542,-257 760,-257 760,-8 542,-8"/>
<text text-anchor="middle" x="651" y="-241.8" font-family="Times,serif" font-size="14.00">(5) After del t.x.g</text>
</g>
<!-- root3 -->
<g id="node1" class="node">
<title>root3</title>
<ellipse fill="none" stroke="black" cx="119" cy="-208" rx="27" ry="18"/>
<text text-anchor="middle" x="119" y="-204.3" font-family="Times,serif" font-size="14.00">t</text>
</g>
<!-- n31 -->
<g id="node2" class="node">
<title>n31</title>
<ellipse fill="none" stroke="black" cx="45" cy="-121" rx="28.7" ry="18"/>
<text text-anchor="middle" x="45" y="-117.3" font-family="Times,serif" font-size="14.00">233</text>
</g>
<!-- root3&#45;&gt;n31 -->
<g id="edge1" class="edge">
<title>root3&#45;&gt;n31</title>
<path fill="none" stroke="black" d="M105.77,-191.8C94.41,-178.75 77.85,-159.74 64.89,-144.85"/>
<polygon fill="black" stroke="black" points="67.32,-142.31 58.12,-137.06 62.04,-146.91 67.32,-142.31"/>
<text text-anchor="middle" x="90.5" y="-160.8" font-family="Times,serif" font-size="14.00">a</text>
</g>
<!-- n32 -->
<g id="node3" class="node">
<title>n32</title>
<ellipse fill="none" stroke="black" cx="119" cy="-121" rx="27" ry="18"/>
<text text-anchor="middle" x="119" y="-117.3" font-family="Times,serif" font-size="14.00">2</text>
</g>
<!-- root3&#45;&gt;n32 -->
<g id="edge2" class="edge">
<title>root3&#45;&gt;n32</title>
<path fill="none" stroke="black" d="M119,-189.8C119,-178.16 119,-162.55 119,-149.24"/>
<polygon fill="black" stroke="black" points="122.5,-149.18 119,-139.18 115.5,-149.18 122.5,-149.18"/>
<text text-anchor="middle" x="124" y="-160.8" font-family="Times,serif" font-size="14.00">b</text>
</g>
<!-- n33 -->
<g id="node4" class="node">
<title>n33</title>
<ellipse fill="none" stroke="black" cx="191" cy="-121" rx="27" ry="18"/>
<text text-anchor="middle" x="191" y="-117.3" font-family="Times,serif" font-size="14.00">t.x</text>
</g>
<!-- root3&#45;&gt;n33 -->
<g id="edge3" class="edge">
<title>root3&#45;&gt;n33</title>
<path fill="none" stroke="black" d="M131.87,-191.8C142.93,-178.75 159.04,-159.74 171.65,-144.85"/>
<polygon fill="black" stroke="black" points="174.45,-146.96 178.24,-137.06 169.11,-142.43 174.45,-146.96"/>
<text text-anchor="middle" x="163.5" y="-160.8" font-family="Times,serif" font-size="14.00">x</text>
</g>
<!-- n34 -->
<g id="node5" class="node">
<title>n34</title>
<ellipse fill="none" stroke="black" cx="119" cy="-34" rx="27" ry="18"/>
<text text-anchor="middle" x="119" y="-30.3" font-family="Times,serif" font-size="14.00">5</text>
</g>
<!-- n33&#45;&gt;n34 -->
<g id="edge4" class="edge">
<title>n33&#45;&gt;n34</title>
<path fill="none" stroke="black" d="M178.13,-104.8C167.07,-91.75 150.96,-72.74 138.35,-57.85"/>
<polygon fill="black" stroke="black" points="140.89,-55.43 131.76,-50.06 135.55,-59.96 140.89,-55.43"/>
<text text-anchor="middle" x="163.5" y="-73.8" font-family="Times,serif" font-size="14.00">e</text>
</g>
<!-- n35 -->
<g id="node6" class="node">
<title>n35</title>
<ellipse fill="none" stroke="black" cx="191" cy="-34" rx="27" ry="18"/>
<text text-anchor="middle" x="191" y="-30.3" font-family="Times,serif" font-size="14.00">6</text>
</g>
<!-- n33&#45;&gt;n35 -->
<g id="edge5" class="edge">
<title>n33&#45;&gt;n35</title>
<path fill="none" stroke="black" d="M191,-102.8C191,-91.16 191,-75.55 191,-62.24"/>
<polygon fill="black" stroke="black" points="194.5,-62.18 191,-52.18 187.5,-62.18 194.5,-62.18"/>
<text text-anchor="middle" x="194" y="-73.8" font-family="Times,serif" font-size="14.00">f</text>
</g>
<!-- root4 -->
<g id="node7" class="node">
<title>root4</title>
<ellipse fill="none" stroke="black" cx="345" cy="-208" rx="27" ry="18"/>
<text text-anchor="middle" x="345" y="-204.3" font-family="Times,serif" font-size="14.00">t</text>
</g>
<!-- n41 -->
<g id="node8" class="node">
<title>n41</title>
<ellipse fill="none" stroke="black" cx="271" cy="-121" rx="28.7" ry="18"/>
<text text-anchor="middle" x="271" y="-117.3" font-family="Times,serif" font-size="14.00">233</text>
</g>
<!-- root4&#45;&gt;n41 -->
<g id="edge6" class="edge">
<title>root4&#45;&gt;n41</title>
<path fill="none" stroke="black" d="M331.77,-191.8C320.41,-178.75 303.85,-159.74 290.89,-144.85"/>
<polygon fill="black" stroke="black" points="293.32,-142.31 284.12,-137.06 288.04,-146.91 293.32,-142.31"/>
<text text-anchor="middle" x="316.5" y="-160.8" font-family="Times,serif" font-size="14.00">a</text>
</g>
<!-- n42 -->
<g id="node9" class="node">
<title>n42</title>
<ellipse fill="none" stroke="black" cx="345" cy="-121" rx="27" ry="18"/>
<text text-anchor="middle" x="345" y="-117.3" font-family="Times,serif" font-size="14.00">2</text>
</g>
<!-- root4&#45;&gt;n42 -->
<g id="edge7" class="edge">
<title>root4&#45;&gt;n42</title>
<path fill="none" stroke="black" d="M345,-189.8C345,-178.16 345,-162.55 345,-149.24"/>
<polygon fill="black" stroke="black" points="348.5,-149.18 345,-139.18 341.5,-149.18 348.5,-149.18"/>
<text text-anchor="middle" x="350" y="-160.8" font-family="Times,serif" font-size="14.00">b</text>
</g>
<!-- n43 -->
<g id="node10" class="node">
<title>n43</title>
<ellipse fill="none" stroke="black" cx="417" cy="-121" rx="27" ry="18"/>
<text text-anchor="middle" x="417" y="-117.3" font-family="Times,serif" font-size="14.00">t.x</text>
</g>
<!-- root4&#45;&gt;n43 -->
<g id="edge8" class="edge">
<title>root4&#45;&gt;n43</title>
<path fill="none" stroke="black" d="M357.87,-191.8C368.93,-178.75 385.04,-159.74 397.65,-144.85"/>
<polygon fill="black" stroke="black" points="400.45,-146.96 404.24,-137.06 395.11,-142.43 400.45,-146.96"/>
<text text-anchor="middle" x="389.5" y="-160.8" font-family="Times,serif" font-size="14.00">x</text>
</g>
<!-- n44 -->
<g id="node11" class="node">
<title>n44</title>
<ellipse fill="none" stroke="black" cx="269" cy="-34" rx="27" ry="18"/>
<text text-anchor="middle" x="269" y="-30.3" font-family="Times,serif" font-size="14.00">5</text>
</g>
<!-- n43&#45;&gt;n44 -->
<g id="edge9" class="edge">
<title>n43&#45;&gt;n44</title>
<path fill="none" stroke="black" d="M397.04,-108.54C371.55,-93.9 327.26,-68.46 298.03,-51.67"/>
<polygon fill="black" stroke="black" points="299.53,-48.5 289.12,-46.55 296.04,-54.57 299.53,-48.5"/>
<text text-anchor="middle" x="355.5" y="-73.8" font-family="Times,serif" font-size="14.00">e</text>
</g>
<!-- n45 -->
<g id="node12" class="node">
<title>n45</title>
<ellipse fill="none" stroke="black" cx="341" cy="-34" rx="27" ry="18"/>
<text text-anchor="middle" x="341" y="-30.3" font-family="Times,serif" font-size="14.00">6</text>
</g>
<!-- n43&#45;&gt;n45 -->
<g id="edge10" class="edge">
<title>n43&#45;&gt;n45</title>
<path fill="none" stroke="black" d="M403.76,-105.19C392.06,-92.11 374.82,-72.83 361.37,-57.78"/>
<polygon fill="black" stroke="black" points="363.62,-55.04 354.34,-49.92 358.4,-59.71 363.62,-55.04"/>
<text text-anchor="middle" x="386" y="-73.8" font-family="Times,serif" font-size="14.00">f</text>
</g>
<!-- n46 -->
<g id="node13" class="node">
<title>n46</title>
<ellipse fill="none" stroke="black" cx="456" cy="-34" rx="70.39" ry="18"/>
<text text-anchor="middle" x="456" y="-30.3" font-family="Times,serif" font-size="14.00">{&#39;e&#39;: 5, &#39;f&#39;: 6}</text>
</g>
<!-- n43&#45;&gt;n46 -->
<g id="edge11" class="edge">
<title>n43&#45;&gt;n46</title>
<path fill="none" stroke="black" d="M424.52,-103.61C430.01,-91.65 437.56,-75.2 443.89,-61.4"/>
<polygon fill="black" stroke="black" points="447.25,-62.47 448.24,-51.92 440.89,-59.55 447.25,-62.47"/>
<text text-anchor="middle" x="443" y="-73.8" font-family="Times,serif" font-size="14.00">g</text>
</g>
<!-- root5 -->
<g id="node14" class="node">
<title>root5</title>
<ellipse fill="none" stroke="black" cx="653" cy="-208" rx="27" ry="18"/>
<text text-anchor="middle" x="653" y="-204.3" font-family="Times,serif" font-size="14.00">t</text>
</g>
<!-- n51 -->
<g id="node15" class="node">
<title>n51</title>
<ellipse fill="none" stroke="black" cx="579" cy="-121" rx="28.7" ry="18"/>
<text text-anchor="middle" x="579" y="-117.3" font-family="Times,serif" font-size="14.00">233</text>
</g>
<!-- root5&#45;&gt;n51 -->
<g id="edge12" class="edge">
<title>root5&#45;&gt;n51</title>
<path fill="none" stroke="black" d="M639.77,-191.8C628.41,-178.75 611.85,-159.74 598.89,-144.85"/>
<polygon fill="black" stroke="black" points="601.32,-142.31 592.12,-137.06 596.04,-146.91 601.32,-142.31"/>
<text text-anchor="middle" x="624.5" y="-160.8" font-family="Times,serif" font-size="14.00">a</text>
</g>
<!-- n52 -->
<g id="node16" class="node">
<title>n52</title>
<ellipse fill="none" stroke="black" cx="653" cy="-121" rx="27" ry="18"/>
<text text-anchor="middle" x="653" y="-117.3" font-family="Times,serif" font-size="14.00">2</text>
</g>
<!-- root5&#45;&gt;n52 -->
<g id="edge13" class="edge">
<title>root5&#45;&gt;n52</title>
<path fill="none" stroke="black" d="M653,-189.8C653,-178.16 653,-162.55 653,-149.24"/>
<polygon fill="black" stroke="black" points="656.5,-149.18 653,-139.18 649.5,-149.18 656.5,-149.18"/>
<text text-anchor="middle" x="658" y="-160.8" font-family="Times,serif" font-size="14.00">b</text>
</g>
<!-- n53 -->
<g id="node17" class="node">
<title>n53</title>
<ellipse fill="none" stroke="black" cx="725" cy="-121" rx="27" ry="18"/>
<text text-anchor="middle" x="725" y="-117.3" font-family="Times,serif" font-size="14.00">t.x</text>
</g>
<!-- root5&#45;&gt;n53 -->
<g id="edge14" class="edge">
<title>root5&#45;&gt;n53</title>
<path fill="none" stroke="black" d="M665.87,-191.8C676.93,-178.75 693.04,-159.74 705.65,-144.85"/>
<polygon fill="black" stroke="black" points="708.45,-146.96 712.24,-137.06 703.11,-142.43 708.45,-146.96"/>
<text text-anchor="middle" x="697.5" y="-160.8" font-family="Times,serif" font-size="14.00">x</text>
</g>
<!-- n54 -->
<g id="node18" class="node">
<title>n54</title>
<ellipse fill="none" stroke="black" cx="653" cy="-34" rx="27" ry="18"/>
<text text-anchor="middle" x="653" y="-30.3" font-family="Times,serif" font-size="14.00">5</text>
</g>
<!-- n53&#45;&gt;n54 -->
<g id="edge15" class="edge">
<title>n53&#45;&gt;n54</title>
<path fill="none" stroke="black" d="M712.13,-104.8C701.07,-91.75 684.96,-72.74 672.35,-57.85"/>
<polygon fill="black" stroke="black" points="674.89,-55.43 665.76,-50.06 669.55,-59.96 674.89,-55.43"/>
<text text-anchor="middle" x="697.5" y="-73.8" font-family="Times,serif" font-size="14.00">e</text>
</g>
<!-- n55 -->
<g id="node19" class="node">
<title>n55</title>
<ellipse fill="none" stroke="black" cx="725" cy="-34" rx="27" ry="18"/>
<text text-anchor="middle" x="725" y="-30.3" font-family="Times,serif" font-size="14.00">6</text>
</g>
<!-- n53&#45;&gt;n55 -->
<g id="edge16" class="edge">
<title>n53&#45;&gt;n55</title>
<path fill="none" stroke="black" d="M725,-102.8C725,-91.16 725,-75.55 725,-62.24"/>
<polygon fill="black" stroke="black" points="728.5,-62.18 725,-52.18 721.5,-62.18 728.5,-62.18"/>
<text text-anchor="middle" x="728" y="-73.8" font-family="Times,serif" font-size="14.00">f</text>
</g>
</g>
</svg>
