<?xml version="1.0" encoding="UTF-8" standalone="no"?>
<!DOCTYPE svg PUBLIC "-//W3C//DTD SVG 1.1//EN"
 "http://www.w3.org/Graphics/SVG/1.1/DTD/svg11.dtd">
<!-- Generated by graphviz version 2.43.0 (0)
 -->
<!-- Title: shared_values Pages: 1 -->
<svg width="424pt" height="258pt"
 viewBox="0.00 0.00 424.40 258.00" xmlns="http://www.w3.org/2000/svg" xmlns:xlink="http://www.w3.org/1999/xlink">
<g id="graph0" class="graph" transform="scale(1 1) rotate(0) translate(4 254)">
<title>shared_values</title>
<polygon fill="transparent" stroke="transparent" points="-4,4 -4,-254 420.4,-254 420.4,4 -4,4"/>
<text text-anchor="middle" x="208.2" y="-7.8" font-family="Times,serif" font-size="14.00">Shared Values</text>
<!-- node_7fdcf7ed6fd0 -->
<g id="node1" class="node">
<title>node_7fdcf7ed6fd0</title>
<polygon fill="#73ff7e" fill-opacity="0.600000" stroke="#3eb248" stroke-width="3" stroke-opacity="0.600000" points="117.4,-250 79.52,-232 117.4,-214 155.27,-232 117.4,-250"/>
<text text-anchor="middle" x="117.4" y="-228.3" font-family="Times-Roman bold" font-size="14.00" fill="#003304">st1</text>
</g>
<!-- value__node_7fdcf7ed6fd0__a -->
<g id="node3" class="node">
<title>value__node_7fdcf7ed6fd0__a</title>
<polygon fill="#73ff7e" fill-opacity="0.600000" stroke="transparent" stroke-width="1.5" points="144.4,-163 90.4,-163 90.4,-127 144.4,-127 144.4,-163"/>
<text text-anchor="middle" x="117.4" y="-141.3" font-family="Times,serif" font-size="14.00" fill="#003304">1</text>
</g>
<!-- node_7fdcf7ed6fd0&#45;&gt;value__node_7fdcf7ed6fd0__a -->
<g id="edge1" class="edge">
<title>node_7fdcf7ed6fd0&#45;&gt;value__node_7fdcf7ed6fd0__a</title>
<path fill="none" stroke="#1f9929" stroke-opacity="0.800000" d="M117.4,-213.8C117.4,-200.43 117.4,-181.82 117.4,-167.48"/>
<ellipse fill="#1f9929" fill-opacity="0.800000" stroke="#1f9929" stroke-opacity="0.800000" cx="117.4" cy="-165.18" rx="2" ry="2"/>
<text text-anchor="middle" x="122.4" y="-184.8" font-family="Times-Roman bold" font-size="14.00" fill="#00730a">a</text>
</g>
<!-- value_7fdcf1aceb00 -->
<g id="node4" class="node">
<title>value_7fdcf1aceb00</title>
<polygon fill="#73ff7e" fill-opacity="0.600000" stroke="transparent" stroke-width="1.5" points="216.4,-163 162.4,-163 162.4,-127 216.4,-127 216.4,-163"/>
<text text-anchor="middle" x="189.4" y="-141.3" font-family="Times,serif" font-size="14.00" fill="#003304">[1, 2]</text>
</g>
<!-- node_7fdcf7ed6fd0&#45;&gt;value_7fdcf1aceb00 -->
<g id="edge2" class="edge">
<title>node_7fdcf7ed6fd0&#45;&gt;value_7fdcf1aceb00</title>
<path fill="none" stroke="#1f9929" stroke-opacity="0.800000" d="M127.71,-218.82C139.3,-205.14 158.31,-182.7 172.17,-166.34"/>
<ellipse fill="#1f9929" fill-opacity="0.800000" stroke="#1f9929" stroke-opacity="0.800000" cx="173.57" cy="-164.68" rx="2" ry="2"/>
<text text-anchor="middle" x="162.4" y="-184.8" font-family="Times-Roman bold" font-size="14.00" fill="#00730a">b</text>
</g>
<!-- node_7fdcf7ed6f40 -->
<g id="node5" class="node">
<title>node_7fdcf7ed6f40</title>
<ellipse fill="#73ff7e" fill-opacity="0.600000" stroke="#3eb248" stroke-width="1.5" stroke-opacity="0.600000" cx="36.4" cy="-145" rx="36.29" ry="18"/>
<text text-anchor="middle" x="36.4" y="-141.3" font-family="Times-Roman bold" font-size="14.00" fill="#003304">st1.x</text>
</g>
<!-- node_7fdcf7ed6fd0&#45;&gt;node_7fdcf7ed6f40 -->
<g id="edge3" class="edge">
<title>node_7fdcf7ed6fd0&#45;&gt;node_7fdcf7ed6f40</title>
<path fill="none" stroke="#1f9929" stroke-opacity="0.800000" d="M106.13,-219.18C93.81,-206.24 73.74,-185.19 58.29,-168.97"/>
<polygon fill="#1f9929" fill-opacity="0.800000" stroke="#1f9929" stroke-opacity="0.800000" points="51.13,-161.46 61.29,-165.6 54.58,-165.08 58.03,-168.7 58.03,-168.7 58.03,-168.7 54.58,-165.08 54.77,-171.8 51.13,-161.46 51.13,-161.46"/>
<text text-anchor="middle" x="87.4" y="-184.8" font-family="Times-Roman bold" font-size="14.00" fill="#00730a">x</text>
</g>
<!-- node_7fdcf7ed6fa0 -->
<g id="node2" class="node">
<title>node_7fdcf7ed6fa0</title>
<polygon fill="#9673ff" fill-opacity="0.600000" stroke="#5b3eb2" stroke-width="3" stroke-opacity="0.600000" points="292.4,-250 254.52,-232 292.4,-214 330.27,-232 292.4,-250"/>
<text text-anchor="middle" x="292.4" y="-228.3" font-family="Times-Roman bold" font-size="14.00" fill="#0d0033">st2</text>
</g>
<!-- node_7fdcf7ed6fa0&#45;&gt;value_7fdcf1aceb00 -->
<g id="edge5" class="edge">
<title>node_7fdcf7ed6fa0&#45;&gt;value_7fdcf1aceb00</title>
<path fill="none" stroke="#3d1f99" stroke-opacity="0.800000" d="M278.93,-219.89C262.37,-206.22 233.94,-182.76 213.56,-165.94"/>
<ellipse fill="#3d1f99" fill-opacity="0.800000" stroke="#3d1f99" stroke-opacity="0.800000" cx="211.91" cy="-164.58" rx="2" ry="2"/>
<text text-anchor="middle" x="254.9" y="-184.8" font-family="Times-Roman bold" font-size="14.00" fill="#1d0073">ar</text>
</g>
<!-- value_7fdcf7ed0450 -->
<g id="node6" class="node">
<title>value_7fdcf7ed0450</title>
<polygon fill="#9673ff" fill-opacity="0.600000" stroke="transparent" stroke-width="1.5" points="312.4,-76 196.4,-76 196.4,-23 312.4,-23 312.4,-76"/>
<text text-anchor="middle" x="254.4" y="-60.8" font-family="Times,serif" font-size="14.00" fill="#0d0033">array([[0., 0.],</text>
<text text-anchor="middle" x="254.4" y="-45.8" font-family="Times,serif" font-size="14.00" fill="#0d0033"> &#160;&#160;&#160;&#160;&#160;&#160;[0., 0.],</text>
<text text-anchor="middle" x="254.4" y="-30.8" font-family="Times,serif" font-size="14.00" fill="#0d0033"> &#160;&#160;&#160;&#160;&#160;&#160;[0., 0.]])</text>
</g>
<!-- node_7fdcf7ed6fa0&#45;&gt;value_7fdcf7ed0450 -->
<g id="edge4" class="edge">
<title>node_7fdcf7ed6fa0&#45;&gt;value_7fdcf7ed0450</title>
<path fill="none" stroke="#3d1f99" stroke-opacity="0.800000" d="M300.21,-217.51C303.43,-211.2 306.78,-203.44 308.4,-196 309.82,-189.49 309.07,-187.63 308.4,-181 305.94,-156.63 305.95,-149.95 297.4,-127 291.27,-110.55 281.95,-93.41 273.54,-79.53"/>
<ellipse fill="#3d1f99" fill-opacity="0.800000" stroke="#3d1f99" stroke-opacity="0.800000" cx="272.47" cy="-77.78" rx="2" ry="2"/>
<text text-anchor="middle" x="316.4" y="-141.3" font-family="Times-Roman bold" font-size="14.00" fill="#1d0073">np</text>
</g>
<!-- value__node_7fdcf7ed6fa0__a -->
<g id="node7" class="node">
<title>value__node_7fdcf7ed6fa0__a</title>
<polygon fill="#9673ff" fill-opacity="0.600000" stroke="transparent" stroke-width="1.5" points="416.4,-163 362.4,-163 362.4,-127 416.4,-127 416.4,-163"/>
<text text-anchor="middle" x="389.4" y="-141.3" font-family="Times,serif" font-size="14.00" fill="#0d0033">1</text>
</g>
<!-- node_7fdcf7ed6fa0&#45;&gt;value__node_7fdcf7ed6fa0__a -->
<g id="edge6" class="edge">
<title>node_7fdcf7ed6fa0&#45;&gt;value__node_7fdcf7ed6fa0__a</title>
<path fill="none" stroke="#3d1f99" stroke-opacity="0.800000" d="M306.85,-220.72C316.1,-213.97 328.23,-204.8 338.4,-196 349.28,-186.59 360.77,-175.44 370.08,-166.06"/>
<ellipse fill="#3d1f99" fill-opacity="0.800000" stroke="#3d1f99" stroke-opacity="0.800000" cx="371.49" cy="-164.64" rx="2" ry="2"/>
<text text-anchor="middle" x="358.4" y="-184.8" font-family="Times-Roman bold" font-size="14.00" fill="#1d0073">a</text>
</g>
<!-- value_7fdcf1ad3780 -->
<g id="node8" class="node">
<title>value_7fdcf1ad3780</title>
<polygon fill="#9673ff" fill-opacity="0.600000" stroke="transparent" stroke-width="1.5" points="288.4,-163 234.4,-163 234.4,-127 288.4,-127 288.4,-163"/>
<text text-anchor="middle" x="261.4" y="-141.3" font-family="Times,serif" font-size="14.00" fill="#0d0033">[1, 2]</text>
</g>
<!-- node_7fdcf7ed6fa0&#45;&gt;value_7fdcf1ad3780 -->
<g id="edge7" class="edge">
<title>node_7fdcf7ed6fa0&#45;&gt;value_7fdcf1ad3780</title>
<path fill="none" stroke="#3d1f99" stroke-opacity="0.800000" d="M287,-216.19C282.04,-202.6 274.64,-182.31 269.07,-167.04"/>
<ellipse fill="#3d1f99" fill-opacity="0.800000" stroke="#3d1f99" stroke-opacity="0.800000" cx="268.38" cy="-165.15" rx="2" ry="2"/>
<text text-anchor="middle" x="291.4" y="-184.8" font-family="Times-Roman bold" font-size="14.00" fill="#1d0073">arx</text>
</g>
<!-- node_7fdcf7ed6f40&#45;&gt;value_7fdcf7ed0450 -->
<g id="edge9" class="edge">
<title>node_7fdcf7ed6f40&#45;&gt;value_7fdcf7ed0450</title>
<path fill="none" stroke="#1f9929" stroke-opacity="0.800000" d="M63.13,-132.54C95.13,-118.81 149.76,-95.38 192.47,-77.06"/>
<ellipse fill="#1f9929" fill-opacity="0.800000" stroke="#1f9929" stroke-opacity="0.800000" cx="194.46" cy="-76.21" rx="2" ry="2"/>
<text text-anchor="middle" x="156.4" y="-97.8" font-family="Times-Roman bold" font-size="14.00" fill="#00730a">d</text>
</g>
<!-- value__node_7fdcf7ed6f40__c -->
<g id="node9" class="node">
<title>value__node_7fdcf7ed6f40__c</title>
<polygon fill="#73ff7e" fill-opacity="0.600000" stroke="transparent" stroke-width="1.5" points="63.4,-67.5 9.4,-67.5 9.4,-31.5 63.4,-31.5 63.4,-67.5"/>
<text text-anchor="middle" x="36.4" y="-45.8" font-family="Times,serif" font-size="14.00" fill="#003304">3</text>
</g>
<!-- node_7fdcf7ed6f40&#45;&gt;value__node_7fdcf7ed6f40__c -->
<g id="edge8" class="edge">
<title>node_7fdcf7ed6f40&#45;&gt;value__node_7fdcf7ed6f40__c</title>
<path fill="none" stroke="#1f9929" stroke-opacity="0.800000" d="M36.4,-126.85C36.4,-111.3 36.4,-88.32 36.4,-71.64"/>
<ellipse fill="#1f9929" fill-opacity="0.800000" stroke="#1f9929" stroke-opacity="0.800000" cx="36.4" cy="-69.54" rx="2" ry="2"/>
<text text-anchor="middle" x="40.9" y="-97.8" font-family="Times-Roman bold" font-size="14.00" fill="#00730a">c</text>
</g>
</g>
</svg>
