<?xml version="1.0" encoding="UTF-8" standalone="no"?>
<!DOCTYPE svg PUBLIC "-//W3C//DTD SVG 1.1//EN"
 "http://www.w3.org/Graphics/SVG/1.1/DTD/svg11.dtd">
<!-- Generated by graphviz version 2.43.0 (0)
 -->
<!-- Title: graph_with_1_tree_s_t Pages: 1 -->
<svg width="320pt" height="241pt"
 viewBox="0.00 0.00 320.00 241.00" xmlns="http://www.w3.org/2000/svg" xmlns:xlink="http://www.w3.org/1999/xlink">
<g id="graph0" class="graph" transform="scale(1 1) rotate(0) translate(4 237)">
<title>graph_with_1_tree_s_t</title>
<polygon fill="transparent" stroke="transparent" points="-4,4 -4,-237 316,-237 316,4 -4,4"/>
<text text-anchor="middle" x="156" y="-7.8" font-family="Times,serif" font-size="14.00">Graph with 1 tree(s) &#45; t.</text>
<!-- node_7f12dab563a0 -->
<g id="node1" class="node">
<title>node_7f12dab563a0</title>
<polygon fill="#73ff7e" fill-opacity="0.600000" stroke="#3eb248" stroke-width="3" stroke-opacity="0.600000" points="99,-233 72,-215 99,-197 126,-215 99,-233"/>
<text text-anchor="middle" x="99" y="-211.3" font-family="Times-Roman bold" font-size="14.00" fill="#003304">t</text>
</g>
<!-- value__node_7f12dab563a0__a -->
<g id="node2" class="node">
<title>value__node_7f12dab563a0__a</title>
<polygon fill="#73ff7e" fill-opacity="0.600000" stroke="transparent" stroke-width="1.5" points="54,-146 0,-146 0,-110 54,-110 54,-146"/>
<text text-anchor="middle" x="27" y="-124.3" font-family="Times,serif" font-size="14.00" fill="#003304">1</text>
</g>
<!-- node_7f12dab563a0&#45;&gt;value__node_7f12dab563a0__a -->
<g id="edge1" class="edge">
<title>node_7f12dab563a0&#45;&gt;value__node_7f12dab563a0__a</title>
<path fill="none" stroke="#1f9929" stroke-opacity="0.800000" d="M89.59,-202.89C78.15,-189.39 58.63,-166.34 44.42,-149.57"/>
<ellipse fill="#1f9929" fill-opacity="0.800000" stroke="#1f9929" stroke-opacity="0.800000" cx="42.95" cy="-147.83" rx="2" ry="2"/>
<text text-anchor="middle" x="73" y="-167.8" font-family="Times-Roman bold" font-size="14.00" fill="#00730a">a</text>
</g>
<!-- value__node_7f12dab563a0__b -->
<g id="node3" class="node">
<title>value__node_7f12dab563a0__b</title>
<polygon fill="#73ff7e" fill-opacity="0.600000" stroke="transparent" stroke-width="1.5" points="126,-146 72,-146 72,-110 126,-110 126,-146"/>
<text text-anchor="middle" x="99" y="-124.3" font-family="Times,serif" font-size="14.00" fill="#003304">2.3</text>
</g>
<!-- node_7f12dab563a0&#45;&gt;value__node_7f12dab563a0__b -->
<g id="edge2" class="edge">
<title>node_7f12dab563a0&#45;&gt;value__node_7f12dab563a0__b</title>
<path fill="none" stroke="#1f9929" stroke-opacity="0.800000" d="M99,-196.8C99,-183.43 99,-164.82 99,-150.48"/>
<ellipse fill="#1f9929" fill-opacity="0.800000" stroke="#1f9929" stroke-opacity="0.800000" cx="99" cy="-148.18" rx="2" ry="2"/>
<text text-anchor="middle" x="104" y="-167.8" font-family="Times-Roman bold" font-size="14.00" fill="#00730a">b</text>
</g>
<!-- node_7f12dab560a0 -->
<g id="node4" class="node">
<title>node_7f12dab560a0</title>
<ellipse fill="#73ff7e" fill-opacity="0.600000" stroke="#3eb248" stroke-width="1.5" stroke-opacity="0.600000" cx="171" cy="-128" rx="27" ry="18"/>
<text text-anchor="middle" x="171" y="-124.3" font-family="Times-Roman bold" font-size="14.00" fill="#003304">t.x</text>
</g>
<!-- node_7f12dab563a0&#45;&gt;node_7f12dab560a0 -->
<g id="edge3" class="edge">
<title>node_7f12dab563a0&#45;&gt;node_7f12dab560a0</title>
<path fill="none" stroke="#1f9929" stroke-opacity="0.800000" d="M108.41,-202.89C119.35,-189.97 137.7,-168.32 151.71,-151.78"/>
<polygon fill="#1f9929" fill-opacity="0.800000" stroke="#1f9929" stroke-opacity="0.800000" points="158.18,-144.13 155.15,-154.67 154.95,-147.95 151.72,-151.76 151.72,-151.76 151.72,-151.76 154.95,-147.95 148.29,-148.85 158.18,-144.13 158.18,-144.13"/>
<text text-anchor="middle" x="145" y="-167.8" font-family="Times-Roman bold" font-size="14.00" fill="#00730a">x</text>
</g>
<!-- value__node_7f12dab560a0__c -->
<g id="node5" class="node">
<title>value__node_7f12dab560a0__c</title>
<polygon fill="#73ff7e" fill-opacity="0.600000" stroke="transparent" stroke-width="1.5" points="102,-59 48,-59 48,-23 102,-23 102,-59"/>
<text text-anchor="middle" x="75" y="-37.3" font-family="Times,serif" font-size="14.00" fill="#003304">&#39;str&#39;</text>
</g>
<!-- node_7f12dab560a0&#45;&gt;value__node_7f12dab560a0__c -->
<g id="edge4" class="edge">
<title>node_7f12dab560a0&#45;&gt;value__node_7f12dab560a0__c</title>
<path fill="none" stroke="#1f9929" stroke-opacity="0.800000" d="M155.15,-112.96C139.44,-99.06 115.23,-77.62 97.53,-61.95"/>
<ellipse fill="#1f9929" fill-opacity="0.800000" stroke="#1f9929" stroke-opacity="0.800000" cx="96.03" cy="-60.62" rx="2" ry="2"/>
<text text-anchor="middle" x="133.5" y="-80.8" font-family="Times-Roman bold" font-size="14.00" fill="#00730a">c</text>
</g>
<!-- value_7f12dab48cc0 -->
<g id="node6" class="node">
<title>value_7f12dab48cc0</title>
<polygon fill="#73ff7e" fill-opacity="0.600000" stroke="transparent" stroke-width="1.5" points="221.5,-59 120.5,-59 120.5,-23 221.5,-23 221.5,-59"/>
<text text-anchor="middle" x="171" y="-37.3" font-family="Times,serif" font-size="14.00" fill="#003304">[1, 2, None]</text>
</g>
<!-- node_7f12dab560a0&#45;&gt;value_7f12dab48cc0 -->
<g id="edge5" class="edge">
<title>node_7f12dab560a0&#45;&gt;value_7f12dab48cc0</title>
<path fill="none" stroke="#1f9929" stroke-opacity="0.800000" d="M171,-109.8C171,-96.43 171,-77.82 171,-63.48"/>
<ellipse fill="#1f9929" fill-opacity="0.800000" stroke="#1f9929" stroke-opacity="0.800000" cx="171" cy="-61.18" rx="2" ry="2"/>
<text text-anchor="middle" x="176" y="-80.8" font-family="Times-Roman bold" font-size="14.00" fill="#00730a">d</text>
</g>
<!-- value__node_7f12dab560a0__e -->
<g id="node7" class="node">
<title>value__node_7f12dab560a0__e</title>
<polygon fill="#73ff7e" fill-opacity="0.600000" stroke="transparent" stroke-width="1.5" points="312,-59 240,-59 240,-23 312,-23 312,-59"/>
<text text-anchor="middle" x="276" y="-37.3" font-family="Times,serif" font-size="14.00" fill="#003304">b&#39;bytes&#39;</text>
</g>
<!-- node_7f12dab560a0&#45;&gt;value__node_7f12dab560a0__e -->
<g id="edge6" class="edge">
<title>node_7f12dab560a0&#45;&gt;value__node_7f12dab560a0__e</title>
<path fill="none" stroke="#1f9929" stroke-opacity="0.800000" d="M187.87,-113.34C205.08,-99.41 231.95,-77.66 251.5,-61.83"/>
<ellipse fill="#1f9929" fill-opacity="0.800000" stroke="#1f9929" stroke-opacity="0.800000" cx="253.27" cy="-60.4" rx="2" ry="2"/>
<text text-anchor="middle" x="235" y="-80.8" font-family="Times-Roman bold" font-size="14.00" fill="#00730a">e</text>
</g>
</g>
</svg>
