<?xml version="1.0" encoding="UTF-8" standalone="no"?>
<!DOCTYPE svg PUBLIC "-//W3C//DTD SVG 1.1//EN"
 "http://www.w3.org/Graphics/SVG/1.1/DTD/svg11.dtd">
<!-- Generated by graphviz version 2.43.0 (0)
 -->
<!-- Title: tree_support Pages: 1 -->
<svg width="595pt" height="273pt"
 viewBox="0.00 0.00 595.00 273.00" xmlns="http://www.w3.org/2000/svg" xmlns:xlink="http://www.w3.org/1999/xlink">
<g id="graph0" class="graph" transform="scale(1 1) rotate(0) translate(4 269)">
<title>tree_support</title>
<polygon fill="transparent" stroke="transparent" points="-4,4 -4,-269 591,-269 591,4 -4,4"/>
<g id="clust1" class="cluster">
<title>cluster_step2</title>
<polygon fill="transparent" stroke="black" points="8,-8 8,-257 579,-257 579,-8 8,-8"/>
<text text-anchor="middle" x="293.5" y="-241.8" font-family="Times,serif" font-size="14.00">Result of gcd(t1, t2)</text>
</g>
<!-- root2 -->
<g id="node1" class="node">
<title>root2</title>
<ellipse fill="none" stroke="black" cx="260" cy="-208" rx="81.49" ry="18"/>
<text text-anchor="middle" x="260" y="-204.3" font-family="Times,serif" font-size="14.00">tr = gcd(t1, t2)</text>
</g>
<!-- n21 -->
<g id="node2" class="node">
<title>n21</title>
<ellipse fill="none" stroke="black" cx="87" cy="-121" rx="71.49" ry="18"/>
<text text-anchor="middle" x="87" y="-117.3" font-family="Times,serif" font-size="14.00">2 = gcd(2, 4)</text>
</g>
<!-- root2&#45;&gt;n21 -->
<g id="edge1" class="edge">
<title>root2&#45;&gt;n21</title>
<path fill="none" stroke="black" d="M228.27,-191.41C199.89,-177.47 158.16,-156.96 127.4,-141.85"/>
<polygon fill="black" stroke="black" points="128.76,-138.62 118.24,-137.35 125.67,-144.9 128.76,-138.62"/>
<text text-anchor="middle" x="187.5" y="-160.8" font-family="Times,serif" font-size="14.00">a</text>
</g>
<!-- n22 -->
<g id="node3" class="node">
<title>n22</title>
<ellipse fill="none" stroke="black" cx="260" cy="-121" rx="83.39" ry="18"/>
<text text-anchor="middle" x="260" y="-117.3" font-family="Times,serif" font-size="14.00">6 = gcd(30, 48)</text>
</g>
<!-- root2&#45;&gt;n22 -->
<g id="edge2" class="edge">
<title>root2&#45;&gt;n22</title>
<path fill="none" stroke="black" d="M260,-189.8C260,-178.16 260,-162.55 260,-149.24"/>
<polygon fill="black" stroke="black" points="263.5,-149.18 260,-139.18 256.5,-149.18 263.5,-149.18"/>
<text text-anchor="middle" x="265" y="-160.8" font-family="Times,serif" font-size="14.00">b</text>
</g>
<!-- n23 -->
<g id="node4" class="node">
<title>n23</title>
<ellipse fill="none" stroke="black" cx="466" cy="-121" rx="105.08" ry="18"/>
<text text-anchor="middle" x="466" y="-117.3" font-family="Times,serif" font-size="14.00">tr.x = gcd(t1.x, t2.x)</text>
</g>
<!-- root2&#45;&gt;n23 -->
<g id="edge3" class="edge">
<title>root2&#45;&gt;n23</title>
<path fill="none" stroke="black" d="M296.83,-191.8C330.72,-177.82 381.18,-157 418.17,-141.73"/>
<polygon fill="black" stroke="black" points="419.84,-144.83 427.75,-137.78 417.17,-138.36 419.84,-144.83"/>
<text text-anchor="middle" x="379.5" y="-160.8" font-family="Times,serif" font-size="14.00">x</text>
</g>
<!-- n24 -->
<g id="node5" class="node">
<title>n24</title>
<ellipse fill="none" stroke="black" cx="320" cy="-34" rx="71.49" ry="18"/>
<text text-anchor="middle" x="320" y="-30.3" font-family="Times,serif" font-size="14.00">2 = gcd(4, 6)</text>
</g>
<!-- n23&#45;&gt;n24 -->
<g id="edge4" class="edge">
<title>n23&#45;&gt;n24</title>
<path fill="none" stroke="black" d="M437.85,-103.61C414.53,-90.03 381.24,-70.65 355.98,-55.95"/>
<polygon fill="black" stroke="black" points="357.48,-52.77 347.08,-50.76 353.96,-58.82 357.48,-52.77"/>
<text text-anchor="middle" x="405" y="-73.8" font-family="Times,serif" font-size="14.00">c</text>
</g>
<!-- n25 -->
<g id="node6" class="node">
<title>n25</title>
<ellipse fill="none" stroke="black" cx="487" cy="-34" rx="77.19" ry="18"/>
<text text-anchor="middle" x="487" y="-30.3" font-family="Times,serif" font-size="14.00">9 = gcd(9, 54)</text>
</g>
<!-- n23&#45;&gt;n25 -->
<g id="edge5" class="edge">
<title>n23&#45;&gt;n25</title>
<path fill="none" stroke="black" d="M470.25,-102.8C473.12,-91.16 476.98,-75.55 480.27,-62.24"/>
<polygon fill="black" stroke="black" points="483.76,-62.72 482.76,-52.18 476.96,-61.04 483.76,-62.72"/>
<text text-anchor="middle" x="482" y="-73.8" font-family="Times,serif" font-size="14.00">d</text>
</g>
</g>
</svg>
