<?xml version="1.0" encoding="UTF-8" standalone="no"?>
<!DOCTYPE svg PUBLIC "-//W3C//DTD SVG 1.1//EN"
 "http://www.w3.org/Graphics/SVG/1.1/DTD/svg11.dtd">
<!-- Generated by graphviz version 2.43.0 (0)
 -->
<!-- Title: demo_of_build_graph Pages: 1 -->
<svg width="242pt" height="241pt"
 viewBox="0.00 0.00 242.00 241.00" xmlns="http://www.w3.org/2000/svg" xmlns:xlink="http://www.w3.org/1999/xlink">
<g id="graph0" class="graph" transform="scale(1 1) rotate(0) translate(4 237)">
<title>demo_of_build_graph</title>
<polygon fill="white" stroke="transparent" points="-4,4 -4,-237 238,-237 238,4 -4,4"/>
<text text-anchor="middle" x="117" y="-7.8" font-family="Times,serif" font-size="14.00">Demo of build_graph.</text>
<!-- node_7f19f07b8100 -->
<g id="node1" class="node">
<title>node_7f19f07b8100</title>
<ellipse fill="none" stroke="black" cx="99" cy="-215" rx="27" ry="18"/>
<text text-anchor="middle" x="99" y="-211.3" font-family="Times,serif" font-size="14.00">t</text>
</g>
<!-- node_7f19f07b8100__a -->
<g id="node2" class="node">
<title>node_7f19f07b8100__a</title>
<ellipse fill="none" stroke="black" cx="27" cy="-128" rx="27" ry="18"/>
<text text-anchor="middle" x="27" y="-124.3" font-family="Times,serif" font-size="14.00">1</text>
</g>
<!-- node_7f19f07b8100&#45;&gt;node_7f19f07b8100__a -->
<g id="edge1" class="edge">
<title>node_7f19f07b8100&#45;&gt;node_7f19f07b8100__a</title>
<path fill="none" stroke="black" d="M86.13,-198.8C75.07,-185.75 58.96,-166.74 46.35,-151.85"/>
<polygon fill="black" stroke="black" points="48.89,-149.43 39.76,-144.06 43.55,-153.96 48.89,-149.43"/>
<text text-anchor="middle" x="71.5" y="-167.8" font-family="Times,serif" font-size="14.00">a</text>
</g>
<!-- node_7f19f07b8100__b -->
<g id="node3" class="node">
<title>node_7f19f07b8100__b</title>
<ellipse fill="none" stroke="black" cx="99" cy="-128" rx="27" ry="18"/>
<text text-anchor="middle" x="99" y="-124.3" font-family="Times,serif" font-size="14.00">2</text>
</g>
<!-- node_7f19f07b8100&#45;&gt;node_7f19f07b8100__b -->
<g id="edge2" class="edge">
<title>node_7f19f07b8100&#45;&gt;node_7f19f07b8100__b</title>
<path fill="none" stroke="black" d="M99,-196.8C99,-185.16 99,-169.55 99,-156.24"/>
<polygon fill="black" stroke="black" points="102.5,-156.18 99,-146.18 95.5,-156.18 102.5,-156.18"/>
<text text-anchor="middle" x="104" y="-167.8" font-family="Times,serif" font-size="14.00">b</text>
</g>
<!-- node_7f19f07b80c0 -->
<g id="node4" class="node">
<title>node_7f19f07b80c0</title>
<ellipse fill="none" stroke="black" cx="171" cy="-128" rx="27" ry="18"/>
<text text-anchor="middle" x="171" y="-124.3" font-family="Times,serif" font-size="14.00">t.x</text>
</g>
<!-- node_7f19f07b8100&#45;&gt;node_7f19f07b80c0 -->
<g id="edge3" class="edge">
<title>node_7f19f07b8100&#45;&gt;node_7f19f07b80c0</title>
<path fill="none" stroke="black" d="M111.87,-198.8C122.93,-185.75 139.04,-166.74 151.65,-151.85"/>
<polygon fill="black" stroke="black" points="154.45,-153.96 158.24,-144.06 149.11,-149.43 154.45,-153.96"/>
<text text-anchor="middle" x="143.5" y="-167.8" font-family="Times,serif" font-size="14.00">x</text>
</g>
<!-- node_7f19f07b80c0__c -->
<g id="node5" class="node">
<title>node_7f19f07b80c0__c</title>
<ellipse fill="none" stroke="black" cx="135" cy="-41" rx="27" ry="18"/>
<text text-anchor="middle" x="135" y="-37.3" font-family="Times,serif" font-size="14.00">3</text>
</g>
<!-- node_7f19f07b80c0&#45;&gt;node_7f19f07b80c0__c -->
<g id="edge4" class="edge">
<title>node_7f19f07b80c0&#45;&gt;node_7f19f07b80c0__c</title>
<path fill="none" stroke="black" d="M163.89,-110.21C158.78,-98.14 151.79,-81.64 145.97,-67.89"/>
<polygon fill="black" stroke="black" points="149.1,-66.31 141.98,-58.47 142.65,-69.04 149.1,-66.31"/>
<text text-anchor="middle" x="159" y="-80.8" font-family="Times,serif" font-size="14.00">c</text>
</g>
<!-- node_7f19f07b80c0__d -->
<g id="node6" class="node">
<title>node_7f19f07b80c0__d</title>
<ellipse fill="none" stroke="black" cx="207" cy="-41" rx="27" ry="18"/>
<text text-anchor="middle" x="207" y="-37.3" font-family="Times,serif" font-size="14.00">4</text>
</g>
<!-- node_7f19f07b80c0&#45;&gt;node_7f19f07b80c0__d -->
<g id="edge5" class="edge">
<title>node_7f19f07b80c0&#45;&gt;node_7f19f07b80c0__d</title>
<path fill="none" stroke="black" d="M178.11,-110.21C183.22,-98.14 190.21,-81.64 196.03,-67.89"/>
<polygon fill="black" stroke="black" points="199.35,-69.04 200.02,-58.47 192.9,-66.31 199.35,-69.04"/>
<text text-anchor="middle" x="196" y="-80.8" font-family="Times,serif" font-size="14.00">d</text>
</g>
</g>
</svg>
