<?xml version="1.0" encoding="UTF-8" standalone="no"?>
<!DOCTYPE svg PUBLIC "-//W3C//DTD SVG 1.1//EN"
 "http://www.w3.org/Graphics/SVG/1.1/DTD/svg11.dtd">
<!-- Generated by graphviz version 2.43.0 (0)
 -->
<!-- Title: this_is_a_demo_of_2_trees_with_dup_value Pages: 1 -->
<svg width="659pt" height="332pt"
 viewBox="0.00 0.00 659.00 332.00" xmlns="http://www.w3.org/2000/svg" xmlns:xlink="http://www.w3.org/1999/xlink">
<g id="graph0" class="graph" transform="scale(1 1) rotate(0) translate(4 328)">
<title>this_is_a_demo_of_2_trees_with_dup_value</title>
<polygon fill="transparent" stroke="transparent" points="-4,4 -4,-328 655,-328 655,4 -4,4"/>
<text text-anchor="middle" x="325.5" y="-7.8" font-family="Times,serif" font-size="14.00">This is a demo of 2 trees with dup value.</text>
<!-- node_7f83db93cfd0 -->
<g id="node1" class="node">
<title>node_7f83db93cfd0</title>
<polygon fill="#73ff7e" fill-opacity="0.600000" stroke="#3eb248" stroke-width="3" stroke-opacity="0.600000" points="248.5,-237 221.5,-219 248.5,-201 275.5,-219 248.5,-237"/>
<text text-anchor="middle" x="248.5" y="-215.3" font-family="Times-Roman bold" font-size="14.00" fill="#003304">t</text>
</g>
<!-- value_7f83d437e6c0 -->
<g id="node4" class="node">
<title>value_7f83d437e6c0</title>
<polygon fill="#73ff7e" fill-opacity="0.600000" stroke="transparent" stroke-width="1.5" points="366.5,-149 276.5,-149 276.5,-113 366.5,-113 366.5,-149"/>
<text text-anchor="middle" x="321.5" y="-127.3" font-family="Times,serif" font-size="14.00" fill="#003304">[4, 3, 2, 1]</text>
</g>
<!-- node_7f83db93cfd0&#45;&gt;value_7f83d437e6c0 -->
<g id="edge1" class="edge">
<title>node_7f83db93cfd0&#45;&gt;value_7f83d437e6c0</title>
<path fill="none" stroke="#1f9929" stroke-opacity="0.800000" d="M257.75,-207.11C269.4,-193.38 289.66,-169.5 304.22,-152.36"/>
<ellipse fill="#1f9929" fill-opacity="0.800000" stroke="#1f9929" stroke-opacity="0.800000" cx="305.76" cy="-150.54" rx="2" ry="2"/>
<text text-anchor="middle" x="293.5" y="-171.8" font-family="Times-Roman bold" font-size="14.00" fill="#00730a">a</text>
</g>
<!-- value_7f83d43722d0 -->
<g id="node5" class="node">
<title>value_7f83d43722d0</title>
<polygon fill="#73ff7e" fill-opacity="0.600000" stroke="transparent" stroke-width="1.5" points="258,-150 151,-150 151,-112 258,-112 258,-150"/>
<text text-anchor="middle" x="204.5" y="-134.8" font-family="Times,serif" font-size="14.00" fill="#003304">array([[5, 6],</text>
<text text-anchor="middle" x="204.5" y="-119.8" font-family="Times,serif" font-size="14.00" fill="#003304"> &#160;&#160;&#160;&#160;&#160;&#160;[7, 8]])</text>
</g>
<!-- node_7f83db93cfd0&#45;&gt;value_7f83d43722d0 -->
<g id="edge2" class="edge">
<title>node_7f83db93cfd0&#45;&gt;value_7f83d43722d0</title>
<path fill="none" stroke="#1f9929" stroke-opacity="0.800000" d="M242.01,-205.31C235.07,-191.76 223.96,-170.03 215.62,-153.74"/>
<ellipse fill="#1f9929" fill-opacity="0.800000" stroke="#1f9929" stroke-opacity="0.800000" cx="214.7" cy="-151.93" rx="2" ry="2"/>
<text text-anchor="middle" x="235.5" y="-171.8" font-family="Times-Roman bold" font-size="14.00" fill="#00730a">b</text>
</g>
<!-- node_7f83db8efe50 -->
<g id="node6" class="node">
<title>node_7f83db8efe50</title>
<ellipse fill="#73ff7e" fill-opacity="0.600000" stroke="#3eb248" stroke-width="1.5" stroke-opacity="0.600000" cx="105.5" cy="-131" rx="27" ry="18"/>
<text text-anchor="middle" x="105.5" y="-127.3" font-family="Times-Roman bold" font-size="14.00" fill="#003304">t.x</text>
</g>
<!-- node_7f83db93cfd0&#45;&gt;node_7f83db8efe50 -->
<g id="edge3" class="edge">
<title>node_7f83db93cfd0&#45;&gt;node_7f83db8efe50</title>
<path fill="none" stroke="#1f9929" stroke-opacity="0.800000" d="M235.05,-209.91C211.99,-196.04 164.44,-167.44 133.8,-149.02"/>
<polygon fill="#1f9929" fill-opacity="0.800000" stroke="#1f9929" stroke-opacity="0.800000" points="124.89,-143.66 135.78,-144.96 129.17,-146.24 133.46,-148.81 133.46,-148.81 133.46,-148.81 129.17,-146.24 131.14,-152.67 124.89,-143.66 124.89,-143.66"/>
<text text-anchor="middle" x="195.5" y="-171.8" font-family="Times-Roman bold" font-size="14.00" fill="#00730a">x</text>
</g>
<!-- node_7f83d49ffb20 -->
<g id="node2" class="node">
<title>node_7f83d49ffb20</title>
<polygon fill="#9673ff" fill-opacity="0.600000" stroke="#5b3eb2" stroke-width="3" stroke-opacity="0.600000" points="443.5,-237 413.33,-219 443.5,-201 473.67,-219 443.5,-237"/>
<text text-anchor="middle" x="443.5" y="-215.3" font-family="Times-Roman bold" font-size="14.00" fill="#0d0033">t1</text>
</g>
<!-- node_7f83d49ffb20&#45;&gt;value_7f83d437e6c0 -->
<g id="edge4" class="edge">
<title>node_7f83d49ffb20&#45;&gt;value_7f83d437e6c0</title>
<path fill="none" stroke="#3d1f99" stroke-opacity="0.800000" d="M429.98,-208.47C410.62,-194.82 374.58,-169.41 349.37,-151.64"/>
<ellipse fill="#3d1f99" fill-opacity="0.800000" stroke="#3d1f99" stroke-opacity="0.800000" cx="347.67" cy="-150.45" rx="2" ry="2"/>
<text text-anchor="middle" x="402.5" y="-171.8" font-family="Times-Roman bold" font-size="14.00" fill="#1d0073">aa</text>
</g>
<!-- value_7f83d43723f0 -->
<g id="node7" class="node">
<title>value_7f83d43723f0</title>
<polygon fill="#9673ff" fill-opacity="0.600000" stroke="transparent" stroke-width="1.5" points="492,-150 385,-150 385,-112 492,-112 492,-150"/>
<text text-anchor="middle" x="438.5" y="-134.8" font-family="Times,serif" font-size="14.00" fill="#0d0033">array([[5, 6],</text>
<text text-anchor="middle" x="438.5" y="-119.8" font-family="Times,serif" font-size="14.00" fill="#0d0033"> &#160;&#160;&#160;&#160;&#160;&#160;[7, 8]])</text>
</g>
<!-- node_7f83d49ffb20&#45;&gt;value_7f83d43723f0 -->
<g id="edge5" class="edge">
<title>node_7f83d49ffb20&#45;&gt;value_7f83d43723f0</title>
<path fill="none" stroke="#3d1f99" stroke-opacity="0.800000" d="M441.35,-202C440.64,-196.05 439.92,-189.22 439.5,-183 438.88,-173.74 438.6,-163.51 438.49,-154.65"/>
<ellipse fill="#3d1f99" fill-opacity="0.800000" stroke="#3d1f99" stroke-opacity="0.800000" cx="438.46" cy="-152.43" rx="2" ry="2"/>
<text text-anchor="middle" x="449.5" y="-171.8" font-family="Times-Roman bold" font-size="14.00" fill="#1d0073">bb</text>
</g>
<!-- node_7f83db907130 -->
<g id="node8" class="node">
<title>node_7f83db907130</title>
<ellipse fill="#9673ff" fill-opacity="0.600000" stroke="#5b3eb2" stroke-width="1.5" stroke-opacity="0.600000" cx="546.5" cy="-131" rx="36.29" ry="18"/>
<text text-anchor="middle" x="546.5" y="-127.3" font-family="Times-Roman bold" font-size="14.00" fill="#0d0033">t1.xx</text>
</g>
<!-- node_7f83d49ffb20&#45;&gt;node_7f83db907130 -->
<g id="edge6" class="edge">
<title>node_7f83d49ffb20&#45;&gt;node_7f83db907130</title>
<path fill="none" stroke="#3d1f99" stroke-opacity="0.800000" d="M451.3,-205.35C458.44,-194.49 469.81,-178.91 482.5,-168 491.16,-160.55 501.59,-153.91 511.5,-148.42"/>
<polygon fill="#3d1f99" fill-opacity="0.800000" stroke="#3d1f99" stroke-opacity="0.800000" points="520.39,-143.71 513.66,-152.37 515.97,-146.05 511.55,-148.39 511.55,-148.39 511.55,-148.39 515.97,-146.05 509.44,-144.42 520.39,-143.71 520.39,-143.71"/>
<text text-anchor="middle" x="492" y="-171.8" font-family="Times-Roman bold" font-size="14.00" fill="#1d0073">xx</text>
</g>
<!-- node_7f83daee1c40 -->
<g id="node3" class="node">
<title>node_7f83daee1c40</title>
<polygon fill="#ffad73" fill-opacity="0.600000" stroke="#b26f3e" stroke-width="3" stroke-opacity="0.600000" points="498.5,-324 468.33,-306 498.5,-288 528.67,-306 498.5,-324"/>
<text text-anchor="middle" x="498.5" y="-302.3" font-family="Times-Roman bold" font-size="14.00" fill="#331500">t2</text>
</g>
<!-- node_7f83daee1c40&#45;&gt;node_7f83db93cfd0 -->
<g id="edge7" class="edge">
<title>node_7f83daee1c40&#45;&gt;node_7f83db93cfd0</title>
<path fill="none" stroke="#99521f" stroke-opacity="0.800000" d="M480.12,-298.75C436.44,-283.9 326.3,-246.45 275.25,-229.09"/>
<polygon fill="#99521f" fill-opacity="0.800000" stroke="#99521f" stroke-opacity="0.800000" points="265.58,-225.81 276.49,-224.76 270.31,-227.42 275.05,-229.03 275.05,-229.03 275.05,-229.03 270.31,-227.42 273.6,-233.29 265.58,-225.81 265.58,-225.81"/>
<text text-anchor="middle" x="392.5" y="-258.8" font-family="Times-Roman bold" font-size="14.00" fill="#733000">a</text>
</g>
<!-- node_7f83daee1c40&#45;&gt;node_7f83d49ffb20 -->
<g id="edge8" class="edge">
<title>node_7f83daee1c40&#45;&gt;node_7f83d49ffb20</title>
<path fill="none" stroke="#99521f" stroke-opacity="0.800000" d="M490.38,-292.46C481.64,-278.95 467.58,-257.22 457.14,-241.07"/>
<polygon fill="#99521f" fill-opacity="0.800000" stroke="#99521f" stroke-opacity="0.800000" points="451.47,-232.32 460.68,-238.27 454.19,-236.52 456.9,-240.71 456.9,-240.71 456.9,-240.71 454.19,-236.52 453.12,-243.16 451.47,-232.32 451.47,-232.32"/>
<text text-anchor="middle" x="478.5" y="-258.8" font-family="Times-Roman bold" font-size="14.00" fill="#733000">b</text>
</g>
<!-- node_7f83daee1c40&#45;&gt;node_7f83db907130 -->
<g id="edge10" class="edge">
<title>node_7f83daee1c40&#45;&gt;node_7f83db907130</title>
<path fill="none" stroke="#99521f" stroke-opacity="0.800000" d="M501.99,-289.76C506.72,-269.43 515.6,-232.33 524.5,-201 528.51,-186.88 533.44,-171.28 537.62,-158.49"/>
<polygon fill="#99521f" fill-opacity="0.800000" stroke="#99521f" stroke-opacity="0.800000" points="540.77,-148.92 541.92,-159.83 539.21,-153.67 537.64,-158.42 537.64,-158.42 537.64,-158.42 539.21,-153.67 533.37,-157.01 540.77,-148.92 540.77,-148.92"/>
<text text-anchor="middle" x="529.5" y="-215.3" font-family="Times-Roman bold" font-size="14.00" fill="#733000">d</text>
</g>
<!-- value_7f83d43be700 -->
<g id="node9" class="node">
<title>value_7f83d43be700</title>
<polygon fill="#ffad73" fill-opacity="0.600000" stroke="transparent" stroke-width="1.5" points="597.5,-237 543.5,-237 543.5,-201 597.5,-201 597.5,-237"/>
<text text-anchor="middle" x="570.5" y="-215.3" font-family="Times,serif" font-size="14.00" fill="#331500">[1, 2]</text>
</g>
<!-- node_7f83daee1c40&#45;&gt;value_7f83d43be700 -->
<g id="edge9" class="edge">
<title>node_7f83daee1c40&#45;&gt;value_7f83d43be700</title>
<path fill="none" stroke="#99521f" stroke-opacity="0.800000" d="M508.66,-293.75C514.77,-286.93 522.66,-278.03 529.5,-270 537.67,-260.41 546.56,-249.62 553.96,-240.53"/>
<ellipse fill="#99521f" fill-opacity="0.800000" stroke="#99521f" stroke-opacity="0.800000" cx="555.36" cy="-238.81" rx="2" ry="2"/>
<text text-anchor="middle" x="546" y="-258.8" font-family="Times-Roman bold" font-size="14.00" fill="#733000">c</text>
</g>
<!-- value_7f83d4372330 -->
<g id="node10" class="node">
<title>value_7f83d4372330</title>
<polygon fill="#73ff7e" fill-opacity="0.600000" stroke="transparent" stroke-width="1.5" points="388,-61 281,-61 281,-23 388,-23 388,-61"/>
<text text-anchor="middle" x="334.5" y="-45.8" font-family="Times,serif" font-size="14.00" fill="#003304">array([[5, 7],</text>
<text text-anchor="middle" x="334.5" y="-30.8" font-family="Times,serif" font-size="14.00" fill="#003304"> &#160;&#160;&#160;&#160;&#160;&#160;[8, 6]])</text>
</g>
<!-- node_7f83db8efe50&#45;&gt;value_7f83d4372330 -->
<g id="edge11" class="edge">
<title>node_7f83db8efe50&#45;&gt;value_7f83d4372330</title>
<path fill="none" stroke="#1f9929" stroke-opacity="0.800000" d="M126.24,-119.1C131.19,-116.65 136.49,-114.14 141.5,-112 186.02,-92.99 237.73,-74.7 276.41,-61.73"/>
<ellipse fill="#1f9929" fill-opacity="0.800000" stroke="#1f9929" stroke-opacity="0.800000" cx="278.69" cy="-60.97" rx="2" ry="2"/>
<text text-anchor="middle" x="230" y="-82.8" font-family="Times-Roman bold" font-size="14.00" fill="#00730a">c</text>
</g>
<!-- value__node_7f83db8efe50__d -->
<g id="node11" class="node">
<title>value__node_7f83db8efe50__d</title>
<polygon fill="#73ff7e" fill-opacity="0.600000" stroke="transparent" stroke-width="1.5" points="225.5,-60 125.5,-60 125.5,-24 225.5,-24 225.5,-60"/>
<text text-anchor="middle" x="175.5" y="-38.3" font-family="Times,serif" font-size="14.00" fill="#003304">{&#39;b&#39;, &#39;a&#39;, &#39;c&#39;}</text>
</g>
<!-- node_7f83db8efe50&#45;&gt;value__node_7f83db8efe50__d -->
<g id="edge12" class="edge">
<title>node_7f83db8efe50&#45;&gt;value__node_7f83db8efe50__d</title>
<path fill="none" stroke="#1f9929" stroke-opacity="0.800000" d="M117.69,-114.85C129.13,-100.63 146.32,-79.27 158.98,-63.53"/>
<ellipse fill="#1f9929" fill-opacity="0.800000" stroke="#1f9929" stroke-opacity="0.800000" cx="160.52" cy="-61.62" rx="2" ry="2"/>
<text text-anchor="middle" x="150.5" y="-82.8" font-family="Times-Roman bold" font-size="14.00" fill="#00730a">d</text>
</g>
<!-- value_7f83d4372390 -->
<g id="node12" class="node">
<title>value_7f83d4372390</title>
<polygon fill="#73ff7e" fill-opacity="0.600000" stroke="transparent" stroke-width="1.5" points="107,-61 0,-61 0,-23 107,-23 107,-61"/>
<text text-anchor="middle" x="53.5" y="-45.8" font-family="Times,serif" font-size="14.00" fill="#003304">array([[1, 2],</text>
<text text-anchor="middle" x="53.5" y="-30.8" font-family="Times,serif" font-size="14.00" fill="#003304"> &#160;&#160;&#160;&#160;&#160;&#160;[3, 4]])</text>
</g>
<!-- node_7f83db8efe50&#45;&gt;value_7f83d4372390 -->
<g id="edge13" class="edge">
<title>node_7f83db8efe50&#45;&gt;value_7f83d4372390</title>
<path fill="none" stroke="#1f9929" stroke-opacity="0.800000" d="M95.96,-114.04C87.75,-100.3 75.8,-80.31 66.67,-65.04"/>
<ellipse fill="#1f9929" fill-opacity="0.800000" stroke="#1f9929" stroke-opacity="0.800000" cx="65.44" cy="-62.98" rx="2" ry="2"/>
<text text-anchor="middle" x="88.5" y="-82.8" font-family="Times-Roman bold" font-size="14.00" fill="#00730a">e</text>
</g>
<!-- node_7f83db907130&#45;&gt;value_7f83d4372330 -->
<g id="edge14" class="edge">
<title>node_7f83db907130&#45;&gt;value_7f83d4372330</title>
<path fill="none" stroke="#3d1f99" stroke-opacity="0.800000" d="M519.22,-118.8C484.7,-104.64 424.66,-80 382.42,-62.67"/>
<ellipse fill="#3d1f99" fill-opacity="0.800000" stroke="#3d1f99" stroke-opacity="0.800000" cx="380.5" cy="-61.88" rx="2" ry="2"/>
<text text-anchor="middle" x="461" y="-82.8" font-family="Times-Roman bold" font-size="14.00" fill="#1d0073">cc</text>
</g>
<!-- value__node_7f83db907130__dd -->
<g id="node13" class="node">
<title>value__node_7f83db907130__dd</title>
<polygon fill="#9673ff" fill-opacity="0.600000" stroke="transparent" stroke-width="1.5" points="525.5,-60 425.5,-60 425.5,-24 525.5,-24 525.5,-60"/>
<text text-anchor="middle" x="475.5" y="-38.3" font-family="Times,serif" font-size="14.00" fill="#0d0033">{&#39;b&#39;, &#39;a&#39;, &#39;c&#39;}</text>
</g>
<!-- node_7f83db907130&#45;&gt;value__node_7f83db907130__dd -->
<g id="edge15" class="edge">
<title>node_7f83db907130&#45;&gt;value__node_7f83db907130__dd</title>
<path fill="none" stroke="#3d1f99" stroke-opacity="0.800000" d="M533.48,-114.04C521.87,-99.81 504.8,-78.91 492.19,-63.45"/>
<ellipse fill="#3d1f99" fill-opacity="0.800000" stroke="#3d1f99" stroke-opacity="0.800000" cx="490.68" cy="-61.6" rx="2" ry="2"/>
<text text-anchor="middle" x="524.5" y="-82.8" font-family="Times-Roman bold" font-size="14.00" fill="#1d0073">dd</text>
</g>
<!-- value_7f83d4372450 -->
<g id="node14" class="node">
<title>value_7f83d4372450</title>
<polygon fill="#9673ff" fill-opacity="0.600000" stroke="transparent" stroke-width="1.5" points="651,-61 544,-61 544,-23 651,-23 651,-61"/>
<text text-anchor="middle" x="597.5" y="-45.8" font-family="Times,serif" font-size="14.00" fill="#0d0033">array([[1, 2],</text>
<text text-anchor="middle" x="597.5" y="-30.8" font-family="Times,serif" font-size="14.00" fill="#0d0033"> &#160;&#160;&#160;&#160;&#160;&#160;[3, 4]])</text>
</g>
<!-- node_7f83db907130&#45;&gt;value_7f83d4372450 -->
<g id="edge16" class="edge">
<title>node_7f83db907130&#45;&gt;value_7f83d4372450</title>
<path fill="none" stroke="#3d1f99" stroke-opacity="0.800000" d="M556.09,-113.64C564.18,-99.84 575.82,-79.99 584.7,-64.84"/>
<ellipse fill="#3d1f99" fill-opacity="0.800000" stroke="#3d1f99" stroke-opacity="0.800000" cx="585.88" cy="-62.82" rx="2" ry="2"/>
<text text-anchor="middle" x="584.5" y="-82.8" font-family="Times-Roman bold" font-size="14.00" fill="#1d0073">ee</text>
</g>
</g>
</svg>
