<?xml version="1.0" encoding="UTF-8" standalone="no"?>
<!DOCTYPE svg PUBLIC "-//W3C//DTD SVG 1.1//EN"
 "http://www.w3.org/Graphics/SVG/1.1/DTD/svg11.dtd">
<!-- Generated by graphviz version 2.43.0 (0)
 -->
<!-- Title: graph_with_1_tree_s_t1 Pages: 1 -->
<svg width="246pt" height="241pt"
 viewBox="0.00 0.00 246.00 241.00" xmlns="http://www.w3.org/2000/svg" xmlns:xlink="http://www.w3.org/1999/xlink">
<g id="graph0" class="graph" transform="scale(1 1) rotate(0) translate(4 237)">
<title>graph_with_1_tree_s_t1</title>
<polygon fill="white" stroke="transparent" points="-4,4 -4,-237 242,-237 242,4 -4,4"/>
<text text-anchor="middle" x="119" y="-7.8" font-family="Times,serif" font-size="14.00">Graph with 1 tree(s) &#45; t1.</text>
<!-- node_7f32213480a0 -->
<g id="node1" class="node">
<title>node_7f32213480a0</title>
<polygon fill="#73ff7e" fill-opacity="0.600000" stroke="#3eb248" stroke-width="3" stroke-opacity="0.600000" points="99,-233 68.83,-215 99,-197 129.17,-215 99,-233"/>
<text text-anchor="middle" x="99" y="-211.3" font-family="Times-Roman bold" font-size="14.00" fill="#003304">t1</text>
</g>
<!-- value__node_7f32213480a0__a -->
<g id="node2" class="node">
<title>value__node_7f32213480a0__a</title>
<polygon fill="#73ff7e" fill-opacity="0.600000" stroke="transparent" stroke-width="1.5" points="54,-146 0,-146 0,-110 54,-110 54,-146"/>
<text text-anchor="middle" x="27" y="-124.3" font-family="Times,serif" font-size="14.00" fill="#003304">1</text>
</g>
<!-- node_7f32213480a0&#45;&gt;value__node_7f32213480a0__a -->
<g id="edge1" class="edge">
<title>node_7f32213480a0&#45;&gt;value__node_7f32213480a0__a</title>
<path fill="none" stroke="#1f9929" stroke-opacity="0.800000" d="M89.29,-202.54C77.77,-188.94 58.37,-166.03 44.27,-149.39"/>
<ellipse fill="#1f9929" fill-opacity="0.800000" stroke="#1f9929" stroke-opacity="0.800000" cx="42.82" cy="-147.68" rx="2" ry="2"/>
<text text-anchor="middle" x="73" y="-167.8" font-family="Times-Roman bold" font-size="14.00" fill="#00730a">a</text>
</g>
<!-- value__node_7f32213480a0__b -->
<g id="node3" class="node">
<title>value__node_7f32213480a0__b</title>
<polygon fill="#73ff7e" fill-opacity="0.600000" stroke="transparent" stroke-width="1.5" points="126,-146 72,-146 72,-110 126,-110 126,-146"/>
<text text-anchor="middle" x="99" y="-124.3" font-family="Times,serif" font-size="14.00" fill="#003304">2</text>
</g>
<!-- node_7f32213480a0&#45;&gt;value__node_7f32213480a0__b -->
<g id="edge2" class="edge">
<title>node_7f32213480a0&#45;&gt;value__node_7f32213480a0__b</title>
<path fill="none" stroke="#1f9929" stroke-opacity="0.800000" d="M99,-196.8C99,-183.43 99,-164.82 99,-150.48"/>
<ellipse fill="#1f9929" fill-opacity="0.800000" stroke="#1f9929" stroke-opacity="0.800000" cx="99" cy="-148.18" rx="2" ry="2"/>
<text text-anchor="middle" x="104" y="-167.8" font-family="Times-Roman bold" font-size="14.00" fill="#00730a">b</text>
</g>
<!-- node_7f32213480d0 -->
<g id="node4" class="node">
<title>node_7f32213480d0</title>
<ellipse fill="#73ff7e" fill-opacity="0.600000" stroke="#3eb248" stroke-width="1.5" stroke-opacity="0.600000" cx="175" cy="-128" rx="30.59" ry="18"/>
<text text-anchor="middle" x="175" y="-124.3" font-family="Times-Roman bold" font-size="14.00" fill="#003304">t1.x</text>
</g>
<!-- node_7f32213480a0&#45;&gt;node_7f32213480d0 -->
<g id="edge3" class="edge">
<title>node_7f32213480a0&#45;&gt;node_7f32213480d0</title>
<path fill="none" stroke="#1f9929" stroke-opacity="0.800000" d="M108.94,-202.89C120.42,-190.05 139.62,-168.57 154.37,-152.08"/>
<polygon fill="#1f9929" fill-opacity="0.800000" stroke="#1f9929" stroke-opacity="0.800000" points="161.2,-144.44 157.89,-154.89 157.87,-148.16 154.53,-151.89 154.53,-151.89 154.53,-151.89 157.87,-148.16 151.18,-148.89 161.2,-144.44 161.2,-144.44"/>
<text text-anchor="middle" x="147" y="-167.8" font-family="Times-Roman bold" font-size="14.00" fill="#00730a">x</text>
</g>
<!-- value__node_7f32213480d0__c -->
<g id="node5" class="node">
<title>value__node_7f32213480d0__c</title>
<polygon fill="#73ff7e" fill-opacity="0.600000" stroke="transparent" stroke-width="1.5" points="166,-59 112,-59 112,-23 166,-23 166,-59"/>
<text text-anchor="middle" x="139" y="-37.3" font-family="Times,serif" font-size="14.00" fill="#003304">3</text>
</g>
<!-- node_7f32213480d0&#45;&gt;value__node_7f32213480d0__c -->
<g id="edge4" class="edge">
<title>node_7f32213480d0&#45;&gt;value__node_7f32213480d0__c</title>
<path fill="none" stroke="#1f9929" stroke-opacity="0.800000" d="M167.89,-110.21C162.16,-96.67 154.07,-77.57 147.9,-63.02"/>
<ellipse fill="#1f9929" fill-opacity="0.800000" stroke="#1f9929" stroke-opacity="0.800000" cx="147" cy="-60.89" rx="2" ry="2"/>
<text text-anchor="middle" x="164.5" y="-80.8" font-family="Times-Roman bold" font-size="14.00" fill="#00730a">c</text>
</g>
<!-- value__node_7f32213480d0__d -->
<g id="node6" class="node">
<title>value__node_7f32213480d0__d</title>
<polygon fill="#73ff7e" fill-opacity="0.600000" stroke="transparent" stroke-width="1.5" points="238,-59 184,-59 184,-23 238,-23 238,-59"/>
<text text-anchor="middle" x="211" y="-37.3" font-family="Times,serif" font-size="14.00" fill="#003304">4</text>
</g>
<!-- node_7f32213480d0&#45;&gt;value__node_7f32213480d0__d -->
<g id="edge5" class="edge">
<title>node_7f32213480d0&#45;&gt;value__node_7f32213480d0__d</title>
<path fill="none" stroke="#1f9929" stroke-opacity="0.800000" d="M182.11,-110.21C187.84,-96.67 195.93,-77.57 202.1,-63.02"/>
<ellipse fill="#1f9929" fill-opacity="0.800000" stroke="#1f9929" stroke-opacity="0.800000" cx="203" cy="-60.89" rx="2" ry="2"/>
<text text-anchor="middle" x="200" y="-80.8" font-family="Times-Roman bold" font-size="14.00" fill="#00730a">d</text>
</g>
</g>
</svg>
