<?xml version="1.0" encoding="UTF-8" standalone="no"?>
<!DOCTYPE svg PUBLIC "-//W3C//DTD SVG 1.1//EN"
 "http://www.w3.org/Graphics/SVG/1.1/DTD/svg11.dtd">
<!-- Generated by graphviz version 2.43.0 (0)
 -->
<!-- Title: graph_to_show_the_shared_nodes Pages: 1 -->
<svg width="748pt" height="328pt"
 viewBox="0.00 0.00 748.00 328.00" xmlns="http://www.w3.org/2000/svg" xmlns:xlink="http://www.w3.org/1999/xlink">
<g id="graph0" class="graph" transform="scale(1 1) rotate(0) translate(4 324)">
<title>graph_to_show_the_shared_nodes</title>
<polygon fill="transparent" stroke="transparent" points="-4,4 -4,-324 744,-324 744,4 -4,4"/>
<text text-anchor="middle" x="370" y="-7.8" font-family="Times,serif" font-size="14.00">Graph to Show the Shared Nodes</text>
<!-- node_7f270b2004f0 -->
<g id="node1" class="node">
<title>node_7f270b2004f0</title>
<polygon fill="#73ff7e" fill-opacity="0.600000" stroke="#3eb248" stroke-width="3" stroke-opacity="0.600000" points="113,-233 73.45,-215 113,-197 152.55,-215 113,-233"/>
<text text-anchor="middle" x="113" y="-211.3" font-family="Times-Roman bold" font-size="14.00" fill="#003304">nt1</text>
</g>
<!-- value__node_7f270b2004f0__a -->
<g id="node4" class="node">
<title>value__node_7f270b2004f0__a</title>
<polygon fill="#73ff7e" fill-opacity="0.600000" stroke="transparent" stroke-width="1.5" points="126,-146 72,-146 72,-110 126,-110 126,-146"/>
<text text-anchor="middle" x="99" y="-124.3" font-family="Times,serif" font-size="14.00" fill="#003304">1</text>
</g>
<!-- node_7f270b2004f0&#45;&gt;value__node_7f270b2004f0__a -->
<g id="edge1" class="edge">
<title>node_7f270b2004f0&#45;&gt;value__node_7f270b2004f0__a</title>
<path fill="none" stroke="#1f9929" stroke-opacity="0.800000" d="M110.37,-198.01C108.14,-184.47 104.92,-164.96 102.48,-150.13"/>
<ellipse fill="#1f9929" fill-opacity="0.800000" stroke="#1f9929" stroke-opacity="0.800000" cx="102.14" cy="-148.06" rx="2" ry="2"/>
<text text-anchor="middle" x="112" y="-167.8" font-family="Times-Roman bold" font-size="14.00" fill="#00730a">a</text>
</g>
<!-- value__node_7f270b2004f0__b -->
<g id="node5" class="node">
<title>value__node_7f270b2004f0__b</title>
<polygon fill="#73ff7e" fill-opacity="0.600000" stroke="transparent" stroke-width="1.5" points="54,-146 0,-146 0,-110 54,-110 54,-146"/>
<text text-anchor="middle" x="27" y="-124.3" font-family="Times,serif" font-size="14.00" fill="#003304">2</text>
</g>
<!-- node_7f270b2004f0&#45;&gt;value__node_7f270b2004f0__b -->
<g id="edge2" class="edge">
<title>node_7f270b2004f0&#45;&gt;value__node_7f270b2004f0__b</title>
<path fill="none" stroke="#1f9929" stroke-opacity="0.800000" d="M101.04,-202.18C87.28,-188.58 64.44,-166.01 47.76,-149.52"/>
<ellipse fill="#1f9929" fill-opacity="0.800000" stroke="#1f9929" stroke-opacity="0.800000" cx="45.94" cy="-147.72" rx="2" ry="2"/>
<text text-anchor="middle" x="81" y="-167.8" font-family="Times-Roman bold" font-size="14.00" fill="#00730a">b</text>
</g>
<!-- node_7f270b200400 -->
<g id="node6" class="node">
<title>node_7f270b200400</title>
<ellipse fill="#73ff7e" fill-opacity="0.600000" stroke="#3eb248" stroke-width="1.5" stroke-opacity="0.600000" cx="181" cy="-128" rx="37.09" ry="18"/>
<text text-anchor="middle" x="181" y="-124.3" font-family="Times-Roman bold" font-size="14.00" fill="#003304">nt1.x</text>
</g>
<!-- node_7f270b2004f0&#45;&gt;node_7f270b200400 -->
<g id="edge3" class="edge">
<title>node_7f270b2004f0&#45;&gt;node_7f270b200400</title>
<path fill="none" stroke="#1f9929" stroke-opacity="0.800000" d="M123.03,-201.46C133.13,-188.83 148.97,-169.03 161.54,-153.32"/>
<polygon fill="#1f9929" fill-opacity="0.800000" stroke="#1f9929" stroke-opacity="0.800000" points="168.13,-145.08 165.4,-155.7 165.01,-148.99 161.89,-152.89 161.89,-152.89 161.89,-152.89 165.01,-148.99 158.37,-150.08 168.13,-145.08 168.13,-145.08"/>
<text text-anchor="middle" x="157" y="-167.8" font-family="Times-Roman bold" font-size="14.00" fill="#00730a">x</text>
</g>
<!-- node_7f270b200550 -->
<g id="node2" class="node">
<title>node_7f270b200550</title>
<polygon fill="#9673ff" fill-opacity="0.600000" stroke="#5b3eb2" stroke-width="3" stroke-opacity="0.600000" points="319,-233 279.45,-215 319,-197 358.55,-215 319,-233"/>
<text text-anchor="middle" x="319" y="-211.3" font-family="Times-Roman bold" font-size="14.00" fill="#0d0033">nt2</text>
</g>
<!-- value__node_7f270b200550__a -->
<g id="node7" class="node">
<title>value__node_7f270b200550__a</title>
<polygon fill="#9673ff" fill-opacity="0.600000" stroke="transparent" stroke-width="1.5" points="454,-146 400,-146 400,-110 454,-110 454,-146"/>
<text text-anchor="middle" x="427" y="-124.3" font-family="Times,serif" font-size="14.00" fill="#0d0033">11</text>
</g>
<!-- node_7f270b200550&#45;&gt;value__node_7f270b200550__a -->
<g id="edge4" class="edge">
<title>node_7f270b200550&#45;&gt;value__node_7f270b200550__a</title>
<path fill="none" stroke="#3d1f99" stroke-opacity="0.800000" d="M333.12,-202.89C350.49,-189.22 380.29,-165.76 401.66,-148.94"/>
<ellipse fill="#3d1f99" fill-opacity="0.800000" stroke="#3d1f99" stroke-opacity="0.800000" cx="403.44" cy="-147.54" rx="2" ry="2"/>
<text text-anchor="middle" x="385" y="-167.8" font-family="Times-Roman bold" font-size="14.00" fill="#1d0073">a</text>
</g>
<!-- value__node_7f270b200550__b -->
<g id="node8" class="node">
<title>value__node_7f270b200550__b</title>
<polygon fill="#9673ff" fill-opacity="0.600000" stroke="transparent" stroke-width="1.5" points="290,-146 236,-146 236,-110 290,-110 290,-146"/>
<text text-anchor="middle" x="263" y="-124.3" font-family="Times,serif" font-size="14.00" fill="#0d0033">24</text>
</g>
<!-- node_7f270b200550&#45;&gt;value__node_7f270b200550__b -->
<g id="edge5" class="edge">
<title>node_7f270b200550&#45;&gt;value__node_7f270b200550__b</title>
<path fill="none" stroke="#3d1f99" stroke-opacity="0.800000" d="M310.25,-200.72C301.27,-187.09 287.17,-165.69 276.71,-149.81"/>
<ellipse fill="#3d1f99" fill-opacity="0.800000" stroke="#3d1f99" stroke-opacity="0.800000" cx="275.5" cy="-147.97" rx="2" ry="2"/>
<text text-anchor="middle" x="300" y="-167.8" font-family="Times-Roman bold" font-size="14.00" fill="#1d0073">b</text>
</g>
<!-- node_7f270b200520 -->
<g id="node9" class="node">
<title>node_7f270b200520</title>
<ellipse fill="#9673ff" fill-opacity="0.600000" stroke="#5b3eb2" stroke-width="1.5" stroke-opacity="0.600000" cx="345" cy="-128" rx="37.09" ry="18"/>
<text text-anchor="middle" x="345" y="-124.3" font-family="Times-Roman bold" font-size="14.00" fill="#0d0033">nt2.x</text>
</g>
<!-- node_7f270b200550&#45;&gt;node_7f270b200520 -->
<g id="edge6" class="edge">
<title>node_7f270b200550&#45;&gt;node_7f270b200520</title>
<path fill="none" stroke="#3d1f99" stroke-opacity="0.800000" d="M323.65,-198.8C327.29,-186.89 332.45,-170.02 336.79,-155.84"/>
<polygon fill="#3d1f99" fill-opacity="0.800000" stroke="#3d1f99" stroke-opacity="0.800000" points="339.77,-146.11 341.14,-156.99 338.3,-150.89 336.84,-155.67 336.84,-155.67 336.84,-155.67 338.3,-150.89 332.54,-154.36 339.77,-146.11 339.77,-146.11"/>
<text text-anchor="middle" x="339" y="-167.8" font-family="Times-Roman bold" font-size="14.00" fill="#1d0073">x</text>
</g>
<!-- node_7f270b2005e0 -->
<g id="node3" class="node">
<title>node_7f270b2005e0</title>
<polygon fill="#ffad73" fill-opacity="0.600000" stroke="#b26f3e" stroke-width="3" stroke-opacity="0.600000" points="208,-320 168.45,-302 208,-284 247.55,-302 208,-320"/>
<text text-anchor="middle" x="208" y="-298.3" font-family="Times-Roman bold" font-size="14.00" fill="#331500">nt3</text>
</g>
<!-- node_7f270b2005e0&#45;&gt;node_7f270b2004f0 -->
<g id="edge7" class="edge">
<title>node_7f270b2005e0&#45;&gt;node_7f270b2004f0</title>
<path fill="none" stroke="#99521f" stroke-opacity="0.800000" d="M187.91,-292.95C174.66,-286.94 157.49,-277.74 145,-266 136.86,-258.35 129.88,-248.22 124.53,-239.08"/>
<polygon fill="#99521f" fill-opacity="0.800000" stroke="#99521f" stroke-opacity="0.800000" points="119.57,-230.05 128.33,-236.65 121.98,-234.44 124.39,-238.82 124.39,-238.82 124.39,-238.82 121.98,-234.44 120.45,-240.99 119.57,-230.05 119.57,-230.05"/>
<text text-anchor="middle" x="161.5" y="-254.8" font-family="Times-Roman bold" font-size="14.00" fill="#733000">first</text>
</g>
<!-- node_7f270b2005e0&#45;&gt;node_7f270b200550 -->
<g id="edge8" class="edge">
<title>node_7f270b2005e0&#45;&gt;node_7f270b200550</title>
<path fill="none" stroke="#99521f" stroke-opacity="0.800000" d="M222.06,-290.23C240.91,-275.8 274.57,-250.02 296.85,-232.96"/>
<polygon fill="#99521f" fill-opacity="0.800000" stroke="#99521f" stroke-opacity="0.800000" points="305.06,-226.68 299.85,-236.33 301.09,-229.72 297.12,-232.76 297.12,-232.76 297.12,-232.76 301.09,-229.72 294.38,-229.18 305.06,-226.68 305.06,-226.68"/>
<text text-anchor="middle" x="299" y="-254.8" font-family="Times-Roman bold" font-size="14.00" fill="#733000">second</text>
</g>
<!-- node_7f270b2005e0&#45;&gt;node_7f270b200400 -->
<g id="edge9" class="edge">
<title>node_7f270b2005e0&#45;&gt;node_7f270b200400</title>
<path fill="none" stroke="#99521f" stroke-opacity="0.800000" d="M205.51,-285.13C200.89,-255.68 190.94,-192.3 185.24,-156"/>
<polygon fill="#99521f" fill-opacity="0.800000" stroke="#99521f" stroke-opacity="0.800000" points="183.68,-146.1 189.68,-155.28 184.46,-151.04 185.24,-155.98 185.24,-155.98 185.24,-155.98 184.46,-151.04 180.79,-156.68 183.68,-146.1 183.68,-146.1"/>
<text text-anchor="middle" x="229.5" y="-211.3" font-family="Times-Roman bold" font-size="14.00" fill="#733000">another</text>
</g>
<!-- node_7f270b200580 -->
<g id="node10" class="node">
<title>node_7f270b200580</title>
<ellipse fill="#ffad73" fill-opacity="0.600000" stroke="#b26f3e" stroke-width="1.5" stroke-opacity="0.600000" cx="606" cy="-215" rx="51.99" ry="18"/>
<text text-anchor="middle" x="606" y="-211.3" font-family="Times-Roman bold" font-size="14.00" fill="#331500">nt3.sum</text>
</g>
<!-- node_7f270b2005e0&#45;&gt;node_7f270b200580 -->
<g id="edge10" class="edge">
<title>node_7f270b2005e0&#45;&gt;node_7f270b200580</title>
<path fill="none" stroke="#99521f" stroke-opacity="0.800000" d="M233.5,-295.55C297.62,-281.86 466.58,-245.78 553.18,-227.28"/>
<polygon fill="#99521f" fill-opacity="0.800000" stroke="#99521f" stroke-opacity="0.800000" points="563.07,-225.17 554.23,-231.66 558.18,-226.21 553.29,-227.26 553.29,-227.26 553.29,-227.26 558.18,-226.21 552.35,-222.86 563.07,-225.17 563.07,-225.17"/>
<text text-anchor="middle" x="447.5" y="-254.8" font-family="Times-Roman bold" font-size="14.00" fill="#733000">sum</text>
</g>
<!-- value__node_7f270b200400__c -->
<g id="node11" class="node">
<title>value__node_7f270b200400__c</title>
<polygon fill="#73ff7e" fill-opacity="0.600000" stroke="transparent" stroke-width="1.5" points="157,-59 103,-59 103,-23 157,-23 157,-59"/>
<text text-anchor="middle" x="130" y="-37.3" font-family="Times,serif" font-size="14.00" fill="#003304">3</text>
</g>
<!-- node_7f270b200400&#45;&gt;value__node_7f270b200400__c -->
<g id="edge11" class="edge">
<title>node_7f270b200400&#45;&gt;value__node_7f270b200400__c</title>
<path fill="none" stroke="#1f9929" stroke-opacity="0.800000" d="M171.17,-110.61C163,-97 151.34,-77.56 142.51,-62.85"/>
<ellipse fill="#1f9929" fill-opacity="0.800000" stroke="#1f9929" stroke-opacity="0.800000" cx="141.36" cy="-60.93" rx="2" ry="2"/>
<text text-anchor="middle" x="163.5" y="-80.8" font-family="Times-Roman bold" font-size="14.00" fill="#00730a">c</text>
</g>
<!-- value__node_7f270b200400__d -->
<g id="node12" class="node">
<title>value__node_7f270b200400__d</title>
<polygon fill="#73ff7e" fill-opacity="0.600000" stroke="transparent" stroke-width="1.5" points="229,-59 175,-59 175,-23 229,-23 229,-59"/>
<text text-anchor="middle" x="202" y="-37.3" font-family="Times,serif" font-size="14.00" fill="#003304">4</text>
</g>
<!-- node_7f270b200400&#45;&gt;value__node_7f270b200400__d -->
<g id="edge12" class="edge">
<title>node_7f270b200400&#45;&gt;value__node_7f270b200400__d</title>
<path fill="none" stroke="#1f9929" stroke-opacity="0.800000" d="M185.25,-109.8C188.58,-96.32 193.23,-77.5 196.78,-63.11"/>
<ellipse fill="#1f9929" fill-opacity="0.800000" stroke="#1f9929" stroke-opacity="0.800000" cx="197.28" cy="-61.12" rx="2" ry="2"/>
<text text-anchor="middle" x="198" y="-80.8" font-family="Times-Roman bold" font-size="14.00" fill="#00730a">d</text>
</g>
<!-- value__node_7f270b200520__c -->
<g id="node13" class="node">
<title>value__node_7f270b200520__c</title>
<polygon fill="#9673ff" fill-opacity="0.600000" stroke="transparent" stroke-width="1.5" points="347,-59 293,-59 293,-23 347,-23 347,-59"/>
<text text-anchor="middle" x="320" y="-37.3" font-family="Times,serif" font-size="14.00" fill="#0d0033">30</text>
</g>
<!-- node_7f270b200520&#45;&gt;value__node_7f270b200520__c -->
<g id="edge13" class="edge">
<title>node_7f270b200520&#45;&gt;value__node_7f270b200520__c</title>
<path fill="none" stroke="#3d1f99" stroke-opacity="0.800000" d="M339.94,-109.8C335.98,-96.32 330.44,-77.5 326.21,-63.11"/>
<ellipse fill="#3d1f99" fill-opacity="0.800000" stroke="#3d1f99" stroke-opacity="0.800000" cx="325.62" cy="-61.09" rx="2" ry="2"/>
<text text-anchor="middle" x="338.5" y="-80.8" font-family="Times-Roman bold" font-size="14.00" fill="#1d0073">c</text>
</g>
<!-- value__node_7f270b200520__d -->
<g id="node14" class="node">
<title>value__node_7f270b200520__d</title>
<polygon fill="#9673ff" fill-opacity="0.600000" stroke="transparent" stroke-width="1.5" points="419,-59 365,-59 365,-23 419,-23 419,-59"/>
<text text-anchor="middle" x="392" y="-37.3" font-family="Times,serif" font-size="14.00" fill="#0d0033">47</text>
</g>
<!-- node_7f270b200520&#45;&gt;value__node_7f270b200520__d -->
<g id="edge14" class="edge">
<title>node_7f270b200520&#45;&gt;value__node_7f270b200520__d</title>
<path fill="none" stroke="#3d1f99" stroke-opacity="0.800000" d="M354.29,-110.21C361.83,-96.56 372.51,-77.24 380.58,-62.65"/>
<ellipse fill="#3d1f99" fill-opacity="0.800000" stroke="#3d1f99" stroke-opacity="0.800000" cx="381.6" cy="-60.8" rx="2" ry="2"/>
<text text-anchor="middle" x="377" y="-80.8" font-family="Times-Roman bold" font-size="14.00" fill="#1d0073">d</text>
</g>
<!-- value__node_7f270b200580__a -->
<g id="node15" class="node">
<title>value__node_7f270b200580__a</title>
<polygon fill="#ffad73" fill-opacity="0.600000" stroke="transparent" stroke-width="1.5" points="740,-146 686,-146 686,-110 740,-110 740,-146"/>
<text text-anchor="middle" x="713" y="-124.3" font-family="Times,serif" font-size="14.00" fill="#331500">12</text>
</g>
<!-- node_7f270b200580&#45;&gt;value__node_7f270b200580__a -->
<g id="edge15" class="edge">
<title>node_7f270b200580&#45;&gt;value__node_7f270b200580__a</title>
<path fill="none" stroke="#99521f" stroke-opacity="0.800000" d="M625.88,-198.21C643.47,-184.23 669.23,-163.77 688.18,-148.72"/>
<ellipse fill="#99521f" fill-opacity="0.800000" stroke="#99521f" stroke-opacity="0.800000" cx="689.83" cy="-147.41" rx="2" ry="2"/>
<text text-anchor="middle" x="671" y="-167.8" font-family="Times-Roman bold" font-size="14.00" fill="#733000">a</text>
</g>
<!-- node_7f270b2005b0 -->
<g id="node16" class="node">
<title>node_7f270b2005b0</title>
<ellipse fill="#ffad73" fill-opacity="0.600000" stroke="#b26f3e" stroke-width="1.5" stroke-opacity="0.600000" cx="534" cy="-128" rx="61.99" ry="18"/>
<text text-anchor="middle" x="534" y="-124.3" font-family="Times-Roman bold" font-size="14.00" fill="#331500">nt3.sum.x</text>
</g>
<!-- node_7f270b200580&#45;&gt;node_7f270b2005b0 -->
<g id="edge16" class="edge">
<title>node_7f270b200580&#45;&gt;node_7f270b2005b0</title>
<path fill="none" stroke="#99521f" stroke-opacity="0.800000" d="M592.12,-197.61C581.53,-185.11 566.77,-167.69 554.78,-153.53"/>
<polygon fill="#99521f" fill-opacity="0.800000" stroke="#99521f" stroke-opacity="0.800000" points="548.09,-145.63 557.98,-150.35 551.32,-149.44 554.55,-153.26 554.55,-153.26 554.55,-153.26 551.32,-149.44 551.12,-156.17 548.09,-145.63 548.09,-145.63"/>
<text text-anchor="middle" x="580" y="-167.8" font-family="Times-Roman bold" font-size="14.00" fill="#733000">x</text>
</g>
<!-- value__node_7f270b200580__b -->
<g id="node17" class="node">
<title>value__node_7f270b200580__b</title>
<polygon fill="#ffad73" fill-opacity="0.600000" stroke="transparent" stroke-width="1.5" points="668,-146 614,-146 614,-110 668,-110 668,-146"/>
<text text-anchor="middle" x="641" y="-124.3" font-family="Times,serif" font-size="14.00" fill="#331500">26</text>
</g>
<!-- node_7f270b200580&#45;&gt;value__node_7f270b200580__b -->
<g id="edge17" class="edge">
<title>node_7f270b200580&#45;&gt;value__node_7f270b200580__b</title>
<path fill="none" stroke="#99521f" stroke-opacity="0.800000" d="M613.08,-196.8C618.63,-183.32 626.38,-164.5 632.31,-150.11"/>
<ellipse fill="#99521f" fill-opacity="0.800000" stroke="#99521f" stroke-opacity="0.800000" cx="633.17" cy="-148.02" rx="2" ry="2"/>
<text text-anchor="middle" x="631" y="-167.8" font-family="Times-Roman bold" font-size="14.00" fill="#733000">b</text>
</g>
<!-- value__node_7f270b2005b0__c -->
<g id="node18" class="node">
<title>value__node_7f270b2005b0__c</title>
<polygon fill="#ffad73" fill-opacity="0.600000" stroke="transparent" stroke-width="1.5" points="513,-59 459,-59 459,-23 513,-23 513,-59"/>
<text text-anchor="middle" x="486" y="-37.3" font-family="Times,serif" font-size="14.00" fill="#331500">33</text>
</g>
<!-- node_7f270b2005b0&#45;&gt;value__node_7f270b2005b0__c -->
<g id="edge18" class="edge">
<title>node_7f270b2005b0&#45;&gt;value__node_7f270b2005b0__c</title>
<path fill="none" stroke="#99521f" stroke-opacity="0.800000" d="M524.52,-110.21C516.81,-96.56 505.9,-77.24 497.66,-62.65"/>
<ellipse fill="#99521f" fill-opacity="0.800000" stroke="#99521f" stroke-opacity="0.800000" cx="496.61" cy="-60.79" rx="2" ry="2"/>
<text text-anchor="middle" x="517.5" y="-80.8" font-family="Times-Roman bold" font-size="14.00" fill="#733000">c</text>
</g>
<!-- value__node_7f270b2005b0__d -->
<g id="node19" class="node">
<title>value__node_7f270b2005b0__d</title>
<polygon fill="#ffad73" fill-opacity="0.600000" stroke="transparent" stroke-width="1.5" points="585,-59 531,-59 531,-23 585,-23 585,-59"/>
<text text-anchor="middle" x="558" y="-37.3" font-family="Times,serif" font-size="14.00" fill="#331500">51</text>
</g>
<!-- node_7f270b2005b0&#45;&gt;value__node_7f270b2005b0__d -->
<g id="edge19" class="edge">
<title>node_7f270b2005b0&#45;&gt;value__node_7f270b2005b0__d</title>
<path fill="none" stroke="#99521f" stroke-opacity="0.800000" d="M538.86,-109.8C542.66,-96.32 547.98,-77.5 552.04,-63.11"/>
<ellipse fill="#99521f" fill-opacity="0.800000" stroke="#99521f" stroke-opacity="0.800000" cx="552.61" cy="-61.1" rx="2" ry="2"/>
<text text-anchor="middle" x="553" y="-80.8" font-family="Times-Roman bold" font-size="14.00" fill="#733000">d</text>
</g>
</g>
</svg>
