<?xml version="1.0" encoding="UTF-8" standalone="no"?>
<!DOCTYPE svg PUBLIC "-//W3C//DTD SVG 1.1//EN"
 "http://www.w3.org/Graphics/SVG/1.1/DTD/svg11.dtd">
<!-- Generated by graphviz version 2.43.0 (0)
 -->
<!-- Title: %3 Pages: 1 -->
<svg width="575pt" height="237pt"
 viewBox="0.00 0.00 574.50 237.00" xmlns="http://www.w3.org/2000/svg" xmlns:xlink="http://www.w3.org/1999/xlink">
<g id="graph0" class="graph" transform="scale(1 1) rotate(0) translate(4 233)">
<title>%3</title>
<polygon fill="white" stroke="transparent" points="-4,4 -4,-233 570.5,-233 570.5,4 -4,4"/>
<!-- node_7f3829a778e0 -->
<g id="node1" class="node">
<title>node_7f3829a778e0</title>
<polygon fill="#73ff7e" fill-opacity="0.600000" stroke="#3eb248" stroke-width="3" stroke-opacity="0.600000" points="211.5,-229 150.67,-211 211.5,-193 272.33,-211 211.5,-229"/>
<text text-anchor="middle" x="211.5" y="-207.3" font-family="monospace bold" font-size="14.00" fill="#003304">&lt;root&gt;</text>
</g>
<!-- value__node_7f3829a778e0__a -->
<g id="node2" class="node">
<title>value__node_7f3829a778e0__a</title>
<polygon fill="#73ff7e" fill-opacity="0.600000" stroke="transparent" stroke-width="1.5" points="297,-142 0,-142 0,-104 297,-104 297,-142"/>
<text text-anchor="start" x="8" y="-126.8" font-family="monospace" font-size="14.00" fill="#003304">tensor([[0.3927, 0.1597, 0.9284],</text>
<text text-anchor="start" x="8" y="-111.8" font-family="monospace" font-size="14.00" fill="#003304">        [0.2244, 1.0470, 1.0699]])</text>
</g>
<!-- node_7f3829a778e0&#45;&gt;value__node_7f3829a778e0__a -->
<g id="edge1" class="edge">
<title>node_7f3829a778e0&#45;&gt;value__node_7f3829a778e0__a</title>
<path fill="none" stroke="#1f9929" stroke-opacity="0.800000" d="M201.1,-195.8C191.09,-182.14 175.82,-161.3 164.31,-145.59"/>
<ellipse fill="#1f9929" fill-opacity="0.800000" stroke="#1f9929" stroke-opacity="0.800000" cx="162.95" cy="-143.73" rx="2" ry="2"/>
<text text-anchor="middle" x="190.5" y="-163.8" font-family="Times-Roman bold" font-size="14.00" fill="#00730a">a</text>
</g>
<!-- node_7f3829a775b0 -->
<g id="node3" class="node">
<title>node_7f3829a775b0</title>
<ellipse fill="#73ff7e" fill-opacity="0.600000" stroke="#3eb248" stroke-width="1.5" stroke-opacity="0.600000" cx="368.5" cy="-123" rx="53.89" ry="18"/>
<text text-anchor="middle" x="368.5" y="-119.3" font-family="monospace bold" font-size="14.00" fill="#003304">&lt;root&gt;.x</text>
</g>
<!-- node_7f3829a778e0&#45;&gt;node_7f3829a775b0 -->
<g id="edge2" class="edge">
<title>node_7f3829a778e0&#45;&gt;node_7f3829a775b0</title>
<path fill="none" stroke="#1f9929" stroke-opacity="0.800000" d="M231.7,-198.93C257.18,-184.98 301.43,-160.74 332.69,-143.61"/>
<polygon fill="#1f9929" fill-opacity="0.800000" stroke="#1f9929" stroke-opacity="0.800000" points="341.54,-138.77 334.93,-147.52 337.15,-141.17 332.77,-143.57 332.77,-143.57 332.77,-143.57 337.15,-141.17 330.61,-139.63 341.54,-138.77 341.54,-138.77"/>
<text text-anchor="middle" x="303.5" y="-163.8" font-family="Times-Roman bold" font-size="14.00" fill="#00730a">x</text>
</g>
<!-- value__node_7f3829a775b0__c -->
<g id="node4" class="node">
<title>value__node_7f3829a775b0__c</title>
<polygon fill="#73ff7e" fill-opacity="0.600000" stroke="transparent" stroke-width="1.5" points="566.5,-53 170.5,-53 170.5,0 566.5,0 566.5,-53"/>
<text text-anchor="start" x="178.5" y="-37.8" font-family="monospace" font-size="14.00" fill="#003304">tensor([[ 0.8934,  0.5369,  0.6784, &#45;0.3638],</text>
<text text-anchor="start" x="178.5" y="-22.8" font-family="monospace" font-size="14.00" fill="#003304">        [&#45;0.8026,  0.1374, &#45;0.2040, &#45;0.1468],</text>
<text text-anchor="start" x="178.5" y="-7.8" font-family="monospace" font-size="14.00" fill="#003304">        [&#45;1.3770,  1.3461, &#45;1.7116, &#45;0.1750]])</text>
</g>
<!-- node_7f3829a775b0&#45;&gt;value__node_7f3829a775b0__c -->
<g id="edge3" class="edge">
<title>node_7f3829a775b0&#45;&gt;value__node_7f3829a775b0__c</title>
<path fill="none" stroke="#1f9929" stroke-opacity="0.800000" d="M368.5,-104.67C368.5,-91.52 368.5,-73.11 368.5,-57.58"/>
<ellipse fill="#1f9929" fill-opacity="0.800000" stroke="#1f9929" stroke-opacity="0.800000" cx="368.5" cy="-55.28" rx="2" ry="2"/>
<text text-anchor="middle" x="373" y="-74.8" font-family="Times-Roman bold" font-size="14.00" fill="#00730a">c</text>
</g>
</g>
</svg>
