<?xml version="1.0" encoding="UTF-8" standalone="no"?>
<!DOCTYPE svg PUBLIC "-//W3C//DTD SVG 1.1//EN"
 "http://www.w3.org/Graphics/SVG/1.1/DTD/svg11.dtd">
<!-- Generated by graphviz version 2.43.0 (0)
 -->
<!-- Title: %3 Pages: 1 -->
<svg width="269pt" height="218pt"
 viewBox="0.00 0.00 269.00 218.00" xmlns="http://www.w3.org/2000/svg" xmlns:xlink="http://www.w3.org/1999/xlink">
<g id="graph0" class="graph" transform="scale(1 1) rotate(0) translate(4 214)">
<title>%3</title>
<polygon fill="white" stroke="transparent" points="-4,4 -4,-214 265,-214 265,4 -4,4"/>
<!-- node_7f8f4c0f1fd0 -->
<g id="node1" class="node">
<title>node_7f8f4c0f1fd0</title>
<polygon fill="#73ff7e" fill-opacity="0.600000" stroke="#3eb248" stroke-width="3" stroke-opacity="0.600000" points="99,-210 38.17,-192 99,-174 159.83,-192 99,-210"/>
<text text-anchor="middle" x="99" y="-188.3" font-family="monospace bold" font-size="14.00" fill="#003304">&lt;root&gt;</text>
</g>
<!-- value__node_7f8f4c0f1fd0__a -->
<g id="node2" class="node">
<title>value__node_7f8f4c0f1fd0__a</title>
<polygon fill="#73ff7e" fill-opacity="0.600000" stroke="transparent" stroke-width="1.5" points="54,-123 0,-123 0,-87 54,-87 54,-123"/>
<text text-anchor="middle" x="27" y="-101.3" font-family="monospace" font-size="14.00" fill="#003304">1</text>
</g>
<!-- node_7f8f4c0f1fd0&#45;&gt;value__node_7f8f4c0f1fd0__a -->
<g id="edge1" class="edge">
<title>node_7f8f4c0f1fd0&#45;&gt;value__node_7f8f4c0f1fd0__a</title>
<path fill="none" stroke="#1f9929" stroke-opacity="0.800000" d="M87.43,-177.34C75.73,-163.53 57.51,-142.02 44.13,-126.22"/>
<ellipse fill="#1f9929" fill-opacity="0.800000" stroke="#1f9929" stroke-opacity="0.800000" cx="42.82" cy="-124.67" rx="2" ry="2"/>
<text text-anchor="middle" x="73" y="-144.8" font-family="Times-Roman bold" font-size="14.00" fill="#00730a">a</text>
</g>
<!-- value__node_7f8f4c0f1fd0__b -->
<g id="node3" class="node">
<title>value__node_7f8f4c0f1fd0__b</title>
<polygon fill="#73ff7e" fill-opacity="0.600000" stroke="transparent" stroke-width="1.5" points="126,-123 72,-123 72,-87 126,-87 126,-123"/>
<text text-anchor="middle" x="99" y="-101.3" font-family="monospace" font-size="14.00" fill="#003304">2</text>
</g>
<!-- node_7f8f4c0f1fd0&#45;&gt;value__node_7f8f4c0f1fd0__b -->
<g id="edge2" class="edge">
<title>node_7f8f4c0f1fd0&#45;&gt;value__node_7f8f4c0f1fd0__b</title>
<path fill="none" stroke="#1f9929" stroke-opacity="0.800000" d="M99,-173.8C99,-160.43 99,-141.82 99,-127.48"/>
<ellipse fill="#1f9929" fill-opacity="0.800000" stroke="#1f9929" stroke-opacity="0.800000" cx="99" cy="-125.18" rx="2" ry="2"/>
<text text-anchor="middle" x="104" y="-144.8" font-family="Times-Roman bold" font-size="14.00" fill="#00730a">b</text>
</g>
<!-- node_7f8f4c0f1ac0 -->
<g id="node4" class="node">
<title>node_7f8f4c0f1ac0</title>
<ellipse fill="#73ff7e" fill-opacity="0.600000" stroke="#3eb248" stroke-width="1.5" stroke-opacity="0.600000" cx="198" cy="-105" rx="53.89" ry="18"/>
<text text-anchor="middle" x="198" y="-101.3" font-family="monospace bold" font-size="14.00" fill="#003304">&lt;root&gt;.x</text>
</g>
<!-- node_7f8f4c0f1fd0&#45;&gt;node_7f8f4c0f1ac0 -->
<g id="edge3" class="edge">
<title>node_7f8f4c0f1fd0&#45;&gt;node_7f8f4c0f1ac0</title>
<path fill="none" stroke="#1f9929" stroke-opacity="0.800000" d="M114.04,-178.09C129.23,-165.04 153.04,-144.6 171.42,-128.82"/>
<polygon fill="#1f9929" fill-opacity="0.800000" stroke="#1f9929" stroke-opacity="0.800000" points="179.44,-121.93 174.78,-131.86 175.65,-125.19 171.85,-128.45 171.85,-128.45 171.85,-128.45 175.65,-125.19 168.92,-125.03 179.44,-121.93 179.44,-121.93"/>
<text text-anchor="middle" x="160" y="-144.8" font-family="Times-Roman bold" font-size="14.00" fill="#00730a">x</text>
</g>
<!-- value__node_7f8f4c0f1ac0__c -->
<g id="node5" class="node">
<title>value__node_7f8f4c0f1ac0__c</title>
<polygon fill="#73ff7e" fill-opacity="0.600000" stroke="transparent" stroke-width="1.5" points="189,-36 135,-36 135,0 189,0 189,-36"/>
<text text-anchor="middle" x="162" y="-14.3" font-family="monospace" font-size="14.00" fill="#003304">3</text>
</g>
<!-- node_7f8f4c0f1ac0&#45;&gt;value__node_7f8f4c0f1ac0__c -->
<g id="edge4" class="edge">
<title>node_7f8f4c0f1ac0&#45;&gt;value__node_7f8f4c0f1ac0__c</title>
<path fill="none" stroke="#1f9929" stroke-opacity="0.800000" d="M190.71,-86.8C185.01,-73.32 177.04,-54.5 170.94,-40.11"/>
<ellipse fill="#1f9929" fill-opacity="0.800000" stroke="#1f9929" stroke-opacity="0.800000" cx="170.05" cy="-38.02" rx="2" ry="2"/>
<text text-anchor="middle" x="187.5" y="-57.8" font-family="Times-Roman bold" font-size="14.00" fill="#00730a">c</text>
</g>
<!-- value__node_7f8f4c0f1ac0__d -->
<g id="node6" class="node">
<title>value__node_7f8f4c0f1ac0__d</title>
<polygon fill="#73ff7e" fill-opacity="0.600000" stroke="transparent" stroke-width="1.5" points="261,-36 207,-36 207,0 261,0 261,-36"/>
<text text-anchor="middle" x="234" y="-14.3" font-family="monospace" font-size="14.00" fill="#003304">4</text>
</g>
<!-- node_7f8f4c0f1ac0&#45;&gt;value__node_7f8f4c0f1ac0__d -->
<g id="edge5" class="edge">
<title>node_7f8f4c0f1ac0&#45;&gt;value__node_7f8f4c0f1ac0__d</title>
<path fill="none" stroke="#1f9929" stroke-opacity="0.800000" d="M205.29,-86.8C210.99,-73.32 218.96,-54.5 225.06,-40.11"/>
<ellipse fill="#1f9929" fill-opacity="0.800000" stroke="#1f9929" stroke-opacity="0.800000" cx="225.95" cy="-38.02" rx="2" ry="2"/>
<text text-anchor="middle" x="223" y="-57.8" font-family="Times-Roman bold" font-size="14.00" fill="#00730a">d</text>
</g>
</g>
</svg>
